<?xml version="1.0" encoding="utf-8"?>
<!-- Generator: Adobe Illustrator 24.3.0, SVG Export Plug-In . SVG Version: 6.00 Build 0)  -->
<svg version="1.1" id="Layer_1" xmlns="http://www.w3.org/2000/svg" xmlns:xlink="http://www.w3.org/1999/xlink" x="0px" y="0px"
	 viewBox="0 0 260 260" style="enable-background:new 0 0 260 260;" xml:space="preserve">
<style type="text/css">
	.st0{fill:#DCE4F2;stroke:#000000;stroke-miterlimit:10;}
	.st1{fill:#FFFFFF;stroke:#000000;stroke-width:2.8;stroke-miterlimit:10;}
	.st2{fill:#FFFFFF;stroke:#000000;stroke-width:1.8;stroke-miterlimit:10;}
	.st3{fill:none;stroke:#000000;stroke-width:2;stroke-miterlimit:10;}
	.st4{fill:#FFFFFF;}
	.st5{fill:none;stroke:#000000;stroke-miterlimit:10;}
	.st6{fill:#FBB03B;stroke:#000000;stroke-miterlimit:10;}
	.st7{fill:none;stroke:#000000;stroke-width:0.5;stroke-miterlimit:10;}
	.st8{fill:#FFFFFF;stroke:#000000;stroke-miterlimit:10;}
	.st9{fill:#00954C;stroke:#000000;stroke-linecap:round;}
	.st10{fill:#00954C;stroke:#000000;stroke-width:0.5;stroke-miterlimit:10;}
	.st11{stroke:#000000;stroke-miterlimit:10;}
</style>
<circle class="st0" cx="175.2" cy="63.4" r="24.6"/>
<path class="st1" d="M110.6,200.9l20,10l17,2l15,6l14,11h5l-5-5c1.4-1.9,3.1-3.9,5-6c1.4-1.5,2.7-2.8,4-4v-5l7-7l-2-8l-13-4l16-5
	l-2-9l14-3l2-4l-5-8l-15-26c-0.5-1-1.8-4.1-1-8s3.2-6.3,4-7v-9c-0.5-5.7-1.8-14.1-5.5-23.5c-2.7-7-5.8-11.7-9-17
	c-5.3-8.6-11.4-18.7-22-28c-5.5-4.8-15-11.9-29-17c-8-1.3-14.8-1.8-20-2c-7.5-0.3-19.3-0.8-34,2c-7.4,1.4-12,2.3-18,5
	c-8.1,3.7-12.8,8.2-20,15c-8.2,7.8-16.6,15.8-22,29c-1.5,3.6-2.4,6.8-3,9l-6,2v13l3.5,2.5v16l10,23l15,29l25,51l10-4
	c-13.1-15.1-33.4-43.1-40-81.1c-4.9-27.7,0.4-44.4,2-49c2.4-7.1,7-19.7,19-30c13.5-11.5,28.4-13.3,42-15c5.9-0.7,1.7,0.3,44,3
	c12,0.8,22.3,1.3,26,8c1.9,3.4,2,8.3,2,10c0,3.5,0.1,8.3-3,12c-1.5,1.8-4,2.9-9,5c-5.9,2.5-7,2.3-11,4c-5.5,2.4-9.6,4.2-12,8
	c-1.3,2-1.5,3.8-1,17c0.5,13,0.8,14,0,17c-1.1,3.8-3.7,7.2-9,14s-7.7,8.6-13,16c-3,4.2-4.5,6.3-5,8c-3.2,11,8.2,23.1,9,24
	c5.5,5.7,16.1,9.5,37,17c7.5,2.7,13,4.4,20,9c6,3.9,10.3,8.1,13,11"/>
<polygon class="st2" points="174.6,121.8 175.6,131.8 166.6,124.8 170.6,120.8 "/>
<ellipse class="st0" cx="86.1" cy="67.6" rx="14" ry="13.5"/>
<polyline class="st3" points="192.6,194.8 195.6,189.8 193.6,185.8 "/>
<polyline class="st3" points="214,34.7 194.3,34.7 191,50.8 189.1,46.3 "/>
<g>
	<g>
		<path d="M161.9,62.2c1.6,3.6,3.6,7,5.9,10.3c2.1,3,4.2,6.1,5.1,9.7c0.5,1.9,3.4,1.1,2.9-0.8c-1-3.7-3.1-7-5.2-10.1
			c-2.3-3.4-4.4-6.8-6-10.6c-0.3-0.7-1.4-0.9-2.1-0.5C161.7,60.6,161.6,61.5,161.9,62.2L161.9,62.2z"/>
	</g>
</g>
<path class="st4" d="M174.1,154.3c-3-0.2-5.8-0.7-10-2c-3.2-1-7.5-2.5-12.5-4.8c0.3,0.1,0.7,0.2,1,0.3l3-10l-8-2
	c-3.4-0.9-6.3-0.4-7,1c-0.9,1.9,1.9,4.9,3,6c2.4,2.5,5.1,3.8,7.5,4.6l-4,6.9l-1,4v1c4,3.3,7.8,4.5,10,5c4.3,1,7.9,0.5,12,0
	c3.8-0.5,6.9-1.3,9-2l1-8C177.1,154.4,175.8,154.4,174.1,154.3z"/>
<path class="st5" d="M156.1,84.3c1-0.3,2.3-0.7,4-1c3.2-0.7,5.9-0.9,7-1c6.2-0.3,13.2,3.1,15,4"/>
<polyline class="st3" points="69,100 83.1,100.2 86.1,63.8 87.2,74 "/>
<path class="st6" d="M57.6,94l-7.3,34.6c0,0.9,0,2.1,0,3.6c0.2,3.4,0.4,7.7,2.4,11.8c0.9,1.6,2.6,4.6,6.3,7.1l5,1.1l6.3,1.1h2.4V164
	c-1.9,0.5-5,0.7-8.6,0c-7.3-1.4-11.7-6.2-13.6-8.4c-3.5-3.9-5.2-7.7-6.3-10.7l-1.3-2.3l9.9-45.3V95"/>
<path class="st6" d="M57.6,94c0-0.7,0-1.4,0-2.3c-0.2-2.3-0.2-3.6-1.3-4.8c-0.9-0.9-1.9-1.1-2.4-1.1c-1.1-0.2-1.9,0-2.4,0
	C50.9,86,50,86,49.1,86.9s-1.1,1.8-1.3,2.3s-0.2,1.4,0,2.3c0.2,1.1,0.9,2.1,1.3,2.3c0.4,0.7,0.9,0.9,1.3,1.1
	c0.9,0.7,1.9,0.9,2.4,1.1"/>
<path class="st7" d="M47.7,90.5c0.2,0.7,0.4,1.6,1.3,2.3c0.4,0.5,0.6,0.9,1.3,1.1c1.1,0.7,2.6,0.7,3.7,0c0.4-0.2,0.9-0.7,1.3-1.1
	c0.9-0.9,1.3-1.6,1.3-2.3c0-1.1-1.5-2.1-2.4-2.3c-0.2,0-0.6-0.2-1.3,0c-0.6,0.2-1.1,0.7-1.3,1.1c0,0.2-0.2,0.5,0,1.1
	c0,0.5,0.4,2.3,1.3,2.3c0.4,0,1.1-0.7,1.3-1.1c0.2-0.2,0.4-0.9,0-1.1c-0.2-0.2-0.9-0.2-1.3,0"/>
<path class="st8" d="M57.6,101.2"/>
<path class="st8" d="M73.2,102.4c-1.5,0-3.9,0.2-5.6,0c-4.5-0.2-8.2-1.4-11.2-2.3"/>
<line class="st5" x1="60.2" y1="153.7" x2="60.2" y2="102.4"/>
<line class="st5" x1="64.3" y1="153.9" x2="64.3" y2="102.6"/>
<line class="st5" x1="68.2" y1="153.9" x2="68.2" y2="102.6"/>
<line class="st5" x1="68" y1="152.7" x2="68" y2="102.4"/>
<line class="st5" x1="72" y1="153.4" x2="72" y2="101.9"/>
<path class="st6" d="M88.1,94l7.3,34.6c0,0.9,0,2.1,0,3.6c-0.2,3.4-0.4,7.7-2.4,11.8c-0.9,1.6-2.6,4.6-6.3,7.1l-5,1.1l-6.3,1.1H73
	V164c1.9,0.5,5,0.7,8.6,0c7.3-1.4,11.7-6.2,13.6-8.4c3.5-3.9,5.2-7.7,6.3-10.7l1.3-2.3l-9.9-45.3V95"/>
<path class="st6" d="M88.1,94c0-0.7,0-1.4,0-2.3c0.2-2.3,0.2-3.6,1.3-4.8c0.9-0.9,1.9-1.1,2.4-1.1c1.1-0.2,1.9,0,2.4,0
	c0.6,0.2,1.5,0.2,2.4,1.1s1.1,1.8,1.3,2.3s0.2,1.4,0,2.3c-0.2,1.1-0.9,2.1-1.3,2.3c-0.4,0.7-0.9,0.9-1.3,1.1
	c-0.9,0.7-1.9,0.9-2.4,1.1"/>
<path class="st7" d="M98,90.5c-0.2,0.7-0.4,1.6-1.3,2.3c-0.4,0.5-0.6,0.9-1.3,1.1c-1.1,0.7-2.6,0.7-3.7,0c-0.4-0.2-0.9-0.7-1.3-1.1
	c-0.9-0.9-1.3-1.6-1.3-2.3c0-1.1,1.5-2.1,2.4-2.3c0.2,0,0.6-0.2,1.3,0c0.6,0.2,1.1,0.7,1.3,1.1c0,0.2,0.2,0.5,0,1.1
	c0,0.5-0.4,2.3-1.3,2.3c-0.4,0-1.1-0.7-1.3-1.1c-0.2-0.2-0.4-0.9,0-1.1c0.2-0.2,0.9-0.2,1.3,0"/>
<path class="st8" d="M88.1,101.2"/>
<path class="st8" d="M72.5,102.4c1.5,0,3.9,0.2,5.6,0c4.5-0.2,8.2-1.4,11.2-2.3"/>
<line class="st5" x1="75.8" y1="155" x2="75.8" y2="103.5"/>
<line class="st5" x1="83.5" y1="101.9" x2="83.5" y2="153.4"/>
<line class="st5" x1="79.7" y1="103.5" x2="79.7" y2="155"/>
<path class="st9" d="M56.8,132.7"/>
<path class="st9" d="M95.9,120.2"/>
<path class="st10" d="M74.5,140.4"/>
<circle class="st11" cx="216" cy="67.3" r="9.2"/>
<polygon class="st11" points="215.1,54.7 213.9,55 213.6,55.1 213.6,55.1 212.5,55.2 211.9,59.1 212,59.8 214.2,59.4 214.4,59.3 
	214.7,59.2 217.2,58.8 217.1,58.1 "/>
<polygon class="st11" points="217.1,80 218.3,79.8 218.6,79.7 218.6,79.7 219.7,79.5 220.4,75.6 220.2,75 218,75.4 217.8,75.5 
	217.5,75.5 215,76 215.1,76.7 "/>
<polygon class="st11" points="203.5,68.3 203.7,69.5 203.7,69.8 203.7,69.8 204,70.9 207.8,71.6 208.5,71.4 208.1,69.1 208.1,68.9 
	208,68.6 207.5,66.2 206.8,66.2 "/>
<polygon class="st11" points="228.3,66.2 228.1,65.1 228,64.7 228,64.7 227.8,63.5 224,62.9 223.3,63.1 223.7,65.4 223.8,65.6 
	223.8,65.9 224.3,68.4 225,68.2 "/>
<polygon class="st11" points="224.7,58.1 223.7,57.4 223.5,57.3 223.5,57.3 222.4,56.6 219.3,58.9 218.9,59.5 220.8,60.7 221,60.8 
	221.3,61.1 223.4,62.4 223.7,61.9 "/>
<polygon class="st11" points="225.6,75.6 226.3,74.6 226.4,74.4 226.4,74.4 227.1,73.4 224.8,70.2 224.2,69.8 223,71.7 222.9,71.9 
	222.7,72.2 221.3,74.3 221.8,74.6 "/>
<polygon class="st11" points="207.8,77.4 208.8,78.1 209.1,78.3 209.1,78.3 210,78.9 213.2,76.7 213.6,76.1 211.6,74.8 211.5,74.6 
	211.2,74.5 209.2,73.1 208.7,73.6 "/>
<polygon class="st11" points="206.2,59.2 205.6,60.2 205.4,60.5 205.4,60.5 204.8,61.4 207,64.6 207.6,65 208.9,63 209,62.9 
	209.2,62.6 210.6,60.6 210,60.1 "/>
<circle class="st11" cx="233.5" cy="34" r="18.4"/>
<polygon class="st11" points="236.4,8.9 234.1,8.9 233.5,8.9 233.5,8.9 231.1,8.9 228.5,16.3 228.5,17.7 233.1,17.7 233.5,17.7 
	234.1,17.7 239.1,17.7 239.1,16.3 "/>
<polygon class="st11" points="230.9,59 233.2,59 233.9,59 233.9,59 236.2,59 238.9,51.7 238.9,50.4 234.2,50.4 233.9,50.4 
	233.2,50.4 228.2,50.4 228.2,51.7 "/>
<polygon class="st11" points="208.7,31 208.7,33.3 208.7,34 208.7,34 208.7,36.4 215.9,39 217.3,39 217.3,34.3 217.3,34 217.3,33.3 
	217.3,28.3 215.9,28.3 "/>
<polygon class="st11" points="258,36.4 258,34 258,33.3 258,33.3 258,31 250.6,28.3 249.3,28.3 249.3,33 249.3,33.3 249.3,34 
	249.3,39 250.6,39 "/>
<polygon class="st11" points="253.9,19.2 252.2,17.5 251.8,17.1 251.8,17.1 250.1,15.4 243.1,18.7 242.2,19.6 245.5,22.9 
	245.6,23.2 246.1,23.6 249.7,27.1 250.6,26.2 "/>
<polygon class="st11" points="249.1,53.6 250.8,51.9 251.2,51.5 251.2,51.5 252.9,49.8 249.6,42.8 248.7,41.9 245.4,45.2 
	245.1,45.3 244.6,45.8 241.1,49.4 242.1,50.3 "/>
<polygon class="st11" points="213.6,50.5 215.3,52.1 215.8,52.6 215.8,52.6 217.5,54.2 224.5,50.9 225.4,50 222.1,46.7 221.9,46.4 
	221.4,46 217.9,42.5 216.9,43.4 "/>
<polygon class="st11" points="217.5,14.4 215.8,16 215.3,16.5 215.3,16.5 213.7,18.2 217,25.2 218,26.1 221.3,22.8 221.5,22.6 
	221.9,22.1 225.5,18.6 224.6,17.7 "/>
</svg>
