<?xml version="1.0" encoding="utf-8"?>
<!-- Generator: Adobe Illustrator 24.3.0, SVG Export Plug-In . SVG Version: 6.00 Build 0)  -->
<svg version="1.1" id="Layer_1" xmlns="http://www.w3.org/2000/svg" xmlns:xlink="http://www.w3.org/1999/xlink" x="0px" y="0px"
	 viewBox="0 0 260 260" style="enable-background:new 0 0 260 260;" xml:space="preserve">
<style type="text/css">
	.st0{fill:url(#SVGID_1_);}
	.st1{fill:none;stroke:#000000;stroke-width:3;stroke-miterlimit:10;}
	.st2{fill:url(#SVGID_2_);}
	.st3{fill:url(#SVGID_3_);}
	.st4{font-family:'Montserrat-Regular';}
	.st5{font-size:18.7865px;}
	.st6{fill:#FFFFFF;}
	.st7{font-family:'MyriadPro-Regular';}
	.st8{font-family:'Montserrat-Medium';}
	.st9{font-size:91.4947px;}
	.st10{fill:#C1E3F4;}
	.st11{fill:#E9F5FB;}
	.st12{fill:#FF8B1F;}
	.st13{fill:#EF473A;}
	.st14{fill:url(#SVGID_4_);}
	.st15{fill:#FFCFCD;}
	.st16{fill:#ED7D88;}
	.st17{fill:url(#SVGID_5_);}
	.st18{fill:url(#SVGID_6_);}
	.st19{fill:url(#SVGID_7_);}
	.st20{fill:url(#SVGID_8_);}
	.st21{fill:url(#SVGID_9_);}
	.st22{fill:url(#SVGID_10_);}
	.st23{fill:#CB2D3E;}
	.st24{fill:url(#SVGID_11_);}
	.st25{fill:url(#SVGID_12_);}
	.st26{fill:#D4ECF7;}
	.st27{fill:url(#SVGID_13_);}
	.st28{fill:url(#SVGID_14_);}
	.st29{fill:url(#SVGID_15_);}
	.st30{fill:#CAEDFF;}
	.st31{fill:#70BFE6;}
	.st32{fill:#94CFEC;}
	.st33{fill:#3D9DCC;}
	.st34{fill:url(#SVGID_16_);}
	.st35{fill:url(#SVGID_17_);}
	.st36{fill:url(#SVGID_18_);}
	.st37{fill:#052440;}
	.st38{fill:#005995;}
	.st39{fill:url(#SVGID_19_);}
	.st40{fill:url(#SVGID_20_);}
	.st41{fill:url(#SVGID_21_);}
	.st42{fill:url(#SVGID_22_);}
	.st43{fill:url(#SVGID_23_);}
</style>
<linearGradient id="SVGID_1_" gradientUnits="userSpaceOnUse" x1="17" y1="72.8611" x2="136.6769" y2="72.8611">
	<stop  offset="0" style="stop-color:#FFC92D"/>
	<stop  offset="1" style="stop-color:#FF951A"/>
</linearGradient>
<path class="st0" d="M128.3,125.4h-103c-4.6,0-8.3-3.8-8.3-8.3V28.7c0-4.6,3.8-8.3,8.3-8.3h103c4.6,0,8.3,3.8,8.3,8.3V117
	C136.7,121.6,132.9,125.4,128.3,125.4z"/>
<line class="st1" x1="18" y1="35.6" x2="137.4" y2="35.6"/>
<linearGradient id="SVGID_2_" gradientUnits="userSpaceOnUse" x1="35.0907" y1="17.5453" x2="42.0486" y2="17.5453">
	<stop  offset="0" style="stop-color:#FFC92D"/>
	<stop  offset="1" style="stop-color:#FF951A"/>
</linearGradient>
<rect x="35.1" y="9.2" class="st2" width="7" height="16.7"/>
<linearGradient id="SVGID_3_" gradientUnits="userSpaceOnUse" x1="108.845" y1="16.8496" x2="115.803" y2="16.8496">
	<stop  offset="0" style="stop-color:#FFC92D"/>
	<stop  offset="1" style="stop-color:#FF951A"/>
</linearGradient>
<rect x="108.8" y="8.5" class="st3" width="7" height="16.7"/>
<text transform="matrix(1 0 0 1 50.7803 122.6328)" class="st4 st5">DEC</text>
<text transform="matrix(1 0 0 1 33.6836 104.9375)"><tspan x="0" y="0" class="st6 st7 st5">    </tspan><tspan x="15.9" y="0" class="st6 st8 st9">7</tspan></text>
<g>
	<g>
		<path class="st10" d="M165.4,234.5c0,0,1,3.5,0,5.5c-1,1.9-5.5,1-6.1,1c-1,0-3.5,1.9-4.8,2.3c-1.9,0.3-5.2,0.6-6.1-1
			c-0.3-0.6-0.3-1.3,0.3-1.9c1-1.3,2.6-0.6,4.5-1.3l6.1-7.4l0,0L165.4,234.5z"/>
		<path class="st11" d="M165.4,233.9c0,0,1,3.5,0,5.5c-1,1.9-5.5,1-6.1,1c-1,0-3.5,1.9-4.8,2.3c-1.3,0.3-5.8,1.3-6.1-1
			c-0.3-2.3,1.9-1.6,4.8-3.2s6.1-7.4,6.1-7.4L165.4,233.9z"/>
		<path class="st10" d="M165.4,234.2c0,0,0,1.6-3.9,1.9c-3.9,0.3-4.2-2.3-4.2-2.3L165.4,234.2z"/>
	</g>
	<g>
		<path class="st12" d="M157.7,233.6c0,0,1.3,1.6,4.2,1.6c2.9,0,3.9-1,3.9-1c0.3-9.3,1.3-11.9,2.3-23.2c0.6-2.6,1.6-6.4,2.3-11
			c1.3-8.4,2.3-15.8-0.3-19l0,0c-0.3-0.3-0.6-0.6-1-1c-1-0.6-3.5-1.9-9,0c-1,10.3-1,15.2-1,17.1c0,0,0,4.5-0.3,8.7
			c0,1,0,1.9,0.3,2.9C159,210,159.3,221.9,157.7,233.6z"/>
		<path class="st13" d="M157.7,233.6c0,0,1.3,1.6,4.2,1.6c2.9,0,3.9-1,3.9-1c1.9-13.9,2.3-17.4,2.3-23.2c0.6-2.6,1.6-6.4,2.3-11
			c1.3-8.4,2.3-15.8-0.3-19l0,0c-2.6-1.9-6.8-0.3-6.8-0.3s-2.6,0.3,0,7.1c2.6,6.8,2.6,12.6,2.6,16.8c0,4.2-1,10.6-1,10.6
			s-0.3,15.2-0.6,17.7C163.5,235.2,157.7,233.6,157.7,233.6z"/>
	</g>
	<g>
		<path class="st10" d="M185.7,231c0,0-3.5,10-3.5,11c0,1,1.3,2.6,2.9,2.3s4.2-1,5.5-4.2s1.3-7.7,1.3-8.7
			C191.9,230.3,185.7,231,185.7,231z"/>
		<path class="st11" d="M185.7,229.7c0,0-3.5,10-3.5,11c0,1,1.3,2.6,2.9,2.3s4.2-1,5.5-4.2s1.3-7.7,1.3-8.7
			C191.9,229,185.7,229.7,185.7,229.7z"/>
		<path class="st10" d="M192.2,230.3c0,0-1.9,2.3-3.9,1.9c-1.9-0.3-2.9-2.3-2.9-2.3L192.2,230.3z"/>
		<path class="st10" d="M192.2,230.3c0,0-1.9,2.3-3.9,1.9c-1.9-0.3-2.9-2.3-2.9-2.3L192.2,230.3z"/>
	</g>
	
		<linearGradient id="SVGID_4_" gradientUnits="userSpaceOnUse" x1="-1911.0812" y1="73.3177" x2="-1912.8718" y2="27.1186" gradientTransform="matrix(-1 0 0 -1 -1735.0612 262)">
		<stop  offset="0" style="stop-color:#FFC92D"/>
		<stop  offset="1" style="stop-color:#FF951A"/>
	</linearGradient>
	<path class="st14" d="M164.1,177.8c-1,4.2,1.3,9.3,6.1,11c9,19.3,9.7,18.7,11.3,23.5l0,0c2.3,5.8,3.2,11.6,3.5,17.7
		c2.9,1.9,6.1,1.3,8.1-0.3c0-4.2-0.6-6.1-1-9.3c-0.3-2.3,0-5.2-2.9-13.2c-1-2.6-1.6-3.5-2.6-7.7c-2.3-9.7,0.3-0.3-4.8-19.3
		c-3.2-1.6-3.2-1.3-12.9-3.9c-7.7-2.3-9,0-9,0C161.2,176.5,162.9,177.1,164.1,177.8z"/>
	<path class="st12" d="M164.1,182L164.1,182c1.9,1.3,4.2,1,5.8,1c1.3,0,3.2,0.3,5.5,1.9c3.9,5.2,7.4,10.3,11.3,15.8
		c0-0.6-0.3-1-0.3-1.3c-1.3-4.8-1.3-6.4-1.9-8.7c-0.3-1.6-1.6-5.5-1.9-7.4c-0.3-1-0.6-2.3-1-3.2c-0.3-0.3-1-0.6-1.6-1
		c-1.6-0.6-2.9-1-6.4-1.9c-1,0.3-1.9,1-2.9,1.3C168.7,179.7,166.4,180.7,164.1,182z"/>
	<g>
		<g>
			<g>
				<path class="st15" d="M133.5,151c0,0.3,0,0.3,0.3,0.6c1.3,1.9,3.2,2.3,5.5,2.3l1.9,1c0-1,1-4.8,1-4.8s-0.3-0.3-0.6-0.3
					c-1.9-1-1.3-1.9-1.9-2.9l-0.3-1.3c0-0.3,0.3-0.6,0.3-1.3c0-0.3-1-1-1.3-0.6c-0.3,0.3-0.3,1-0.6,1l-0.3,1.3v1
					c-0.6-0.6-1.3-1-1.9-1c-0.6-0.3-1,0-1,0c-0.3,0.3-0.3,1-0.3,1.3c-0.6,0-0.6,0.6-0.6,1.3c-0.3,0.3-0.3,1,0,1.6
					C133.5,149.7,133.2,150.4,133.5,151z"/>
				<g>
					<path class="st16" d="M135.5,147.1C134.2,146.8,134.5,147.1,135.5,147.1c0.3,0,0.6,0.3,1,0.3l0,0h0.3h0.3c0.6,0.3,0.6,1,0,1
						c-0.3,0-0.3,0-0.3-0.3c-1-0.3-1.6-0.3-1.6-0.3s1,0,2.3,0.6c0.3,0.3,0,0.6,0,1h-2.3c0,0,1.6,0.3,2.3,0.3c0.3,0,0.3,0.3,0.3,0.6
						c0,0,0,1-0.6,1.3c-0.3,0-0.6,0-1-0.6c-1-0.3-1,0-0.3,0.3c0.3,0.3,0.6,0.3,0.3,0.6c0.3,0,0.6-0.3,0.6,0c0.3,0,0,0.3,0.3,0.3
						c0,0,0,0,0-0.6c0.3-0.3,0.6-0.3,0.6-1c0-0.3,0-0.3,0-0.3s0.3-0.3,1,0c0.3,0,0.6,0,0-1c-1-1.3-0.6-2.6-0.6-2.6l-0.6-0.3v0.3
						c-0.3,0.3-0.3,0.3-0.6,0.3l0,0C136.4,147.5,135.5,147.1,135.5,147.1z"/>
				</g>
			</g>
			<path class="st15" d="M139.3,153.6c1,0.3,2.6,1.6,3.5,2.3c1.3,1,2.3,1.6,4.2,2.9c0.6,0.6,2.3,1.3,3.9,1.6c0.6,0.3,1.6,0.3,2.3,0
				c1.9-0.6,2.3-1.3,3.5-2.9c1.6-2.3,1.6-2.3,2.3-3.2l0,0c0,0-5.2-3.5-5.5-3.9c-0.6,0.6-1.6,1.6-2.3,2.3c-0.3,0.3-0.6,0.3-1,0.3
				c-3.2-1.3-7.1-3.5-8.1-3.9C141.6,149.7,139,153.3,139.3,153.6z"/>
			
				<linearGradient id="SVGID_5_" gradientUnits="userSpaceOnUse" x1="-3835.4438" y1="216.7541" x2="-3798.8289" y2="218.0263" gradientTransform="matrix(-0.9984 5.590000e-02 -5.590000e-02 -0.9984 -3656.814 585.6155)">
				<stop  offset="0" style="stop-color:#ED7D88"/>
				<stop  offset="1" style="stop-color:#FFCFCD"/>
			</linearGradient>
			<path class="st17" d="M139.3,153.9c0.6,0.3,1.6,0.6,3.2,2.3c1.3,1,2.3,1.6,4.2,2.9c0.6,0.6,2.6,1.3,3.9,1.6
				c1.3,0.3,2.6,0,3.5-0.6c1.3-1,3.5-3.9,4.5-5.2c0,0,0,0-0.3,0l0,0c0,0-1.3-1-1.6-1.3c-1.6,0.3-2.9-0.6-3.9-1.9
				c0,0.6,0.3,1.6,0.6,2.6c0.6,1.3,1,1.6,1,2.3c-0.3,1-1.6,1.9-2.3,1.3c-0.6-0.3,0-1.3-1-2.6c0,0,0,0-1-1.3c0,0.6,0.6,2.9-0.3,3.5
				c-1,0.6-2.3-0.3-4.8-1.6c-3.2-1.6-4.2-2.3-4.8-6.4c0,0.3-0.3,0.3-0.3,0.6C140.9,152,140.3,153.3,139.3,153.9z"/>
		</g>
		
			<linearGradient id="SVGID_6_" gradientUnits="userSpaceOnUse" x1="-1897.6017" y1="113.0769" x2="-1888.0769" y2="113.0769" gradientTransform="matrix(-1 0 0 -1 -1735.0612 262)">
			<stop  offset="0" style="stop-color:#95115A"/>
			<stop  offset="1" style="stop-color:#E50670"/>
		</linearGradient>
		<path class="st18" d="M152.9,150.7c0,1,0.6,1.9,1.6,3.2c1.3,1.6,1.9,2.6,3.5,2.9c1.6-1.9,3.2-4.5,3.9-7.1c0.6-2.9,0.6-7.1,0-8.7
			c-0.6,0.3-1.9,1-2.9,1.6C157.7,143.6,152.9,150.7,152.9,150.7z"/>
		
			<linearGradient id="SVGID_7_" gradientUnits="userSpaceOnUse" x1="-1897.0778" y1="111.1425" x2="-1891.4406" y2="111.1425" gradientTransform="matrix(-1 0 0 -1 -1735.0612 262)">
			<stop  offset="0" style="stop-color:#95115A"/>
			<stop  offset="1" style="stop-color:#380832"/>
		</linearGradient>
		<path class="st19" d="M156.4,155.9c0.6,0.3,1.3,0.6,1.9,1c1.6-1.9,3.2-4.5,3.9-7.1c-0.6-1.3-1.3-2.6-2.6-4.8c0,0-2.6,1.3-2.3,5.8
			C157.1,154.2,156.7,155.2,156.4,155.9z"/>
	</g>
	<g>
		
			<linearGradient id="SVGID_8_" gradientUnits="userSpaceOnUse" x1="-1920.7732" y1="103.523" x2="-1892.9719" y2="103.523" gradientTransform="matrix(-1 0 0 -1 -1735.0612 262)">
			<stop  offset="0" style="stop-color:#95115A"/>
			<stop  offset="1" style="stop-color:#E50670"/>
		</linearGradient>
		<path class="st20" d="M158,149.7c1,7.4,2.9,15.5,3.2,21.9c0,3.2,1.9,4.5,7.1,5.2c3.5,0.6,9.7-0.3,12.9-1c0,0-1.3-2.3-1.3-3.9
			c0-1.9,4.5-11.3,5.2-12.9c1.3-3.9,1.9-9,0-11.3c-1.6-1.9-3.2-2.6-4.5-3.2c-2.9-1.3-5.8-3.5-10-4.2c-4.2-0.3-6.8-1-8.7,0.3
			C159,143,157.7,146.8,158,149.7z"/>
		<g>
			
				<linearGradient id="SVGID_9_" gradientUnits="userSpaceOnUse" x1="-1919.5461" y1="104.9921" x2="-1896.955" y2="104.9921" gradientTransform="matrix(-1 0 0 -1 -1735.0612 262)">
				<stop  offset="0" style="stop-color:#95115A"/>
				<stop  offset="1" style="stop-color:#380832"/>
			</linearGradient>
			<path class="st21" d="M166.7,141.7c0.3,0,0.3,0,0.6,0c-0.6,1.9-0.3,4.2,1,5.2c2.3,1.9,7.4-0.6,7.1-3.5c1.3,0.6,1,0.3,1.9,0.6
				c-0.3,1-1,2.3-2.3,3.2c0,0-0.6,0.3-0.6,0.6c-1,0.6-2.6,1.3-3.9,1.3c-1.9,0-3.2-0.6-4.2-2.6l0,0c-0.6-1.3-0.6-2.6-0.3-3.9
				c-0.3,0.3-0.6,0.6-1,1c-1.6,2.3-2.6,4.8-1.9,11c0,0,3.2,0.6,4.5,1c1.3,0.3,4.8,1.3,6.1,1.6c0-1.6,0-3.2,0-5.2
				c0,0,3.5-6.4,5.8-7.1l1.6,1c-0.6,0.3-1.9,1.3-3.2,2.6c-1.6,1.9-1.9,3.5-2.3,5.2c-0.3,1-0.6,2.3-0.3,4.2c0.3,0.3,0.3,0.3,0.6,0.6
				c0.3,1.9,0.6,3.9,1.6,5.8c0.6-1,1-2.3,1.6-3.5c0.6-1.9,0.6-3.9,0.6-5.2c1.3,1.3,2.9,2.6,4.2,3.9c-0.6,1.6-5.2,11-5.2,12.9
				c0,0.6-2.6,0.3-3.5-0.3c-1.9-1.3-1.6-4.5-1.3-11.9c-2.6-0.6-11.3-2.9-12.3-4.2c-1-1.3,0-6.8,0-9.3
				C162.5,142,166.4,140.7,166.7,141.7z"/>
			
				<linearGradient id="SVGID_10_" gradientUnits="userSpaceOnUse" x1="-1896.2025" y1="101.148" x2="-1894.5256" y2="101.148" gradientTransform="matrix(-1 0 0 -1 -1735.0612 262)">
				<stop  offset="0" style="stop-color:#95115A"/>
				<stop  offset="1" style="stop-color:#380832"/>
			</linearGradient>
			<path class="st22" d="M160,159.7l0.3-3.2c0,0,1,4.2,1,4.8c0,0.3-0.3,2.3-0.6,3.9c-0.3-1.6-0.6-4.2-1-6.1L160,159.7z"/>
		</g>
	</g>
	<g>
		<g>
			<path class="st23" d="M176.4,170.4c0,1.3,0.3,2.3,0.3,2.3s4.2-0.3,4.2-3.2c0-0.3-0.3-0.3-0.3-0.6c-0.3,0.6-0.3,1.3-0.6,1.3
				c-0.3,0.6-1.6,1.6-2.3,1.6c-1-0.3-0.6-2.3-1-5.8c-0.3-3.2-0.6-7.1-0.6-7.1h-0.3C175.1,161,176.1,169.1,176.4,170.4z"/>
			<path class="st13" d="M176.1,158.8c-4.5-1.9-10.3-3.5-15.5-3.9l-0.6,0.3c11,3.2,7.4,2.3,15.8,3.9L176.1,158.8z"/>
			
				<linearGradient id="SVGID_11_" gradientUnits="userSpaceOnUse" x1="-1903.5164" y1="101.5709" x2="-1908.0668" y2="83.4889" gradientTransform="matrix(-1 0 0 -1 -1735.0612 262)">
				<stop  offset="0" style="stop-color:#FFC92D"/>
				<stop  offset="1" style="stop-color:#FF951A"/>
			</linearGradient>
			<path class="st24" d="M161.2,172.6c1.3,2.9,3.2,4.5,6.4,4.8l0,0c4.8,0.6,12.3-1.3,13.5-1.9c0-1-0.3-5.5-0.3-6.4
				c-0.6,2.3-2.6,2.9-3.2,2.6c-0.6-0.3-0.6-1.3-0.6-1.6c0-1.6-0.6-5.8-1-11.6c-4.8-1.9-10-3.2-15.8-3.9
				C160.3,163.9,160.3,168.1,161.2,172.6z"/>
			<g>
				<path class="st12" d="M160.9,171.3c0,0.3,0,1,0.3,1.6c1.3,2.9,3.2,4.5,6.4,4.8l0,0c4.8,0.6,12.3-1.3,13.5-1.9
					c0-1-0.3-5.5-0.3-6.4c-0.6,2.3-2.6,2.9-3.2,2.6c-0.6-0.3-0.6-1.3-0.6-1.6c0-1.6-0.6-5.8-1-11.6c-1.9-0.6-1.3-0.6-3.2-0.6
					c0,0.3,0,1.6,0,2.6c0,0.6,0.3,1,1,1.3c0,2.6,0,4.5,0,6.1c0,2.6,0,4.8-4.5,6.1c-1,0.3-2.6,1-4.8,0
					C162.5,173.9,161.2,172.3,160.9,171.3z"/>
				<path class="st12" d="M160.3,165.5c0.3-1.6,1.3-5.5,1.6-6.4l0,0c0.6,0,1,0,1.3-0.3c0.6-0.6,1-1.9,0-3.5c-0.6,0-0.3,0-1.6-0.3
					l0,0c-0.6,0-1.3,0-1.9-0.3C160,158.1,160.3,162.9,160.3,165.5z"/>
			</g>
		</g>
		<g>
			<g>
				<g>
					<g>
						<g>
							
								<linearGradient id="SVGID_12_" gradientUnits="userSpaceOnUse" x1="-1912.8977" y1="103.1775" x2="-1911.4601" y2="124.2649" gradientTransform="matrix(-1 0 0 -1 -1735.0612 262)">
								<stop  offset="0" style="stop-color:#FFC92D"/>
								<stop  offset="1" style="stop-color:#FF951A"/>
							</linearGradient>
							<path class="st25" d="M172.5,160.7c0.3,1.3,1.9,0.6,1.6-1c0.3-7.1,4.5-13.9,7.4-14.2c0.3,0.3,0.6,0.3,1,1c0-0.3,0-0.6-0.3-1
								c-0.6-1.3-2.3-1.6-2.9-1.3c-2.3,0.6-7.1,7.4-6.8,15.5C172.2,160,172.5,160.4,172.5,160.7z"/>
						</g>
					</g>
					<path class="st13" d="M173.2,161.3L173.2,161.3c1,0.3,1.6-0.3,1.6-1.6v-0.3c0-1,0.3-5.8,2.9-10c0,0,1-1.3,2.3-2.9
						c0.3-0.3,1-0.6,1.6-1c0.6,0.3,0.3,0.3,1,0.6c0-0.3,0-0.6-0.3-1c-1-0.3-1.6,0-2.6,0.3c-1,0.6-5.8,5.5-5.8,13.5v0.3
						C174.1,160.4,174.1,161.7,173.2,161.3z"/>
				</g>
			</g>
			<g>
				<path class="st26" d="M172.8,159.7L172.8,159.7L172.8,159.7c0.3,0,0.6,0,0.6,0.3c0,0.3,0,0.3,0,0.3c0,0.3-0.3,0.3-0.3,0.3h-0.3
					l0,0C172.5,161,172.2,159.7,172.8,159.7z"/>
				<g>
					<path class="st11" d="M172.5,160c0,0.6,1,1,1,0.3C173.5,159.7,172.5,159.4,172.5,160z"/>
				</g>
			</g>
		</g>
		<g>
			<path class="st13" d="M162.9,159.7c3.5,0,6.8,1,9,1.9l0.3,0.3c0,0.3,0,1.9,0,4.2c0,0-0.3,0-0.6,0c0,2.3,0,4.8,0,4.8
				c-4.5,0-8.4-1.6-9-2.3C162.5,162,162.5,164.2,162.9,159.7z"/>
			<g>
				
					<linearGradient id="SVGID_13_" gradientUnits="userSpaceOnUse" x1="-3839.9199" y1="199.5239" x2="-3842.4199" y2="210.5588" gradientTransform="matrix(-0.9984 5.590000e-02 -5.590000e-02 -0.9984 -3656.814 585.6155)">
					<stop  offset="0" style="stop-color:#FFC92D"/>
					<stop  offset="1" style="stop-color:#FF951A"/>
				</linearGradient>
				<path class="st27" d="M162.9,168.8c2.6,1.3,5.2,1.9,8.1,1.9c0-0.3,0-8.4,0-8.7c-2.3-1.3-5.2-1.9-8.1-1.9
					C162.9,161.7,162.9,167.1,162.9,168.8z"/>
				<path class="st13" d="M162.9,164.2c2.3,1,5.5,1.9,8.1,1.9c0-0.3,0-3.9,0-4.2c-2.3-1.3-5.2-1.9-8.1-1.9
					C162.9,161.3,162.9,163.9,162.9,164.2z"/>
				<path class="st12" d="M162.5,163.6L162.5,163.6c2.6,1.3,6.1,2.3,9.3,2.3c0-0.3,0-3.5,0-3.9c-2.9-1.6-5.8-2.3-9-1.9
					C162.5,160.7,162.5,162,162.5,163.6z"/>
				
					<linearGradient id="SVGID_14_" gradientUnits="userSpaceOnUse" x1="-1902.1233" y1="99.0736" x2="-1902.4229" y2="93.2062" gradientTransform="matrix(-1 0 0 -1 -1735.0612 262)">
					<stop  offset="0" style="stop-color:#FFC92D"/>
					<stop  offset="1" style="stop-color:#FF951A"/>
				</linearGradient>
				<path class="st28" d="M171.2,162c-2.6-1.3-5.5-1.9-8.4-1.9c0,0.6,0,1.9,0,3.2c2.6,1.3,5.8,1.9,8.4,1.9
					C171.2,165.2,171.2,162.3,171.2,162z"/>
			</g>
		</g>
		<g>
			<g>
				<g>
					<g>
						<g>
							
								<linearGradient id="SVGID_15_" gradientUnits="userSpaceOnUse" x1="-1899.5918" y1="102.2607" x2="-1898.1536" y2="123.3561" gradientTransform="matrix(-1 0 0 -1 -1735.0612 262)">
								<stop  offset="0" style="stop-color:#FFC92D"/>
								<stop  offset="1" style="stop-color:#FF951A"/>
							</linearGradient>
							<path class="st29" d="M160.9,158.1c0.6,1.3,2.3,0.3,1.3-1.3c-1-7.1,1.9-14.5,4.5-15.2c0.3,0,0.6,0.3,1,0.6
								c0-0.3-0.3-0.6-0.3-1c-0.6-1-2.3-1.3-3.2-0.6c-1.9,1-5.8,8.7-3.9,16.4C160.9,157.5,160.9,157.8,160.9,158.1z"/>
						</g>
					</g>
					<path class="st13" d="M161.9,158.8L161.9,158.8c1.3,0,1.6-0.6,1.3-1.9v-0.3c0-1-0.6-5.8,1-10.3c0,0,0.6-1.6,1.6-3.2
						c0.3-0.6,0.6-1,1.6-1.3c0,0,0.6,0,0.3-0.3c-1-0.3-1.6,0.3-2.3,1c-0.6,0.6-4.5,6.4-3.2,14.5v0.3
						C162.9,157.8,162.9,158.8,161.9,158.8z"/>
				</g>
			</g>
			<g>
				<path class="st26" d="M161.2,157.1L161.2,157.1L161.2,157.1c0.3-0.3,0.6,0,1,0.3c0,0.3,0,0.3,0,0.3c0,0.3,0,0.3-0.3,0.3h-0.3
					l0,0C161.2,158.4,160.6,157.1,161.2,157.1z"/>
				<g>
					<path class="st11" d="M160.9,157.5c0,0.6,1,1,1,0C161.9,156.8,160.9,156.8,160.9,157.5z"/>
				</g>
			</g>
		</g>
	</g>
	<g>
		<g>
			<path class="st30" d="M141.3,186.5l-1.3,1.3l-3.9-2.3c1.3-4.2,5.2-7.1,7.4-8.4c1.9-1,3.9-1.6,6.1-0.6l0,0l4.5,2.6
				c0.3,0,0.6,0,1-0.3l47.7-28c1.3-1,2.6-2.9,3.5-5.5c1-2.6,3.2-5.2,3.9-5.8c2.6-3.5,5.8-4.2,8.1-3.9c1,0,1.9,0.3,2.9,1l0,0
				c1,0.6,1.3,0.6,1.6,1l0,0c1.3,0.6,1.3,0.6,1.9,1.3c0,0,0.6,2.3,0.6,3.9c-1.3,0-5.8,1-7.7,1.6c-1.3,0.3-2.3,2.6-3.2,6.8
				c-0.3,2.3-0.6,3.9-0.3,4.8c1.9-0.3,6.4-1,6.4-1l3.9,2.3c-10.6,9.7-13.5,8.4-13.5,8.4c-1-0.3-2.6-1.3-2.6-1.3
				c-4.2-2.9-2.9-1.9-3.5-2.6c-0.3,0-49.3,27.7-49.7,28c0.6-3.9-0.3-6.4-1.9-8.4c-1.9-1.9-5.2-1-8.4,1
				C142.9,183.6,141.9,185.2,141.3,186.5z"/>
			<path class="st31" d="M139.3,205.2c-1.9-1.6-1.9-4.5-1.9-4.5s0.3-0.3,0.6-0.3c1-0.3,4.2-1,6.4-1.6c1-0.3,1.9-1.9,2.9-6.1
				c0.6-3.5,0.6-6.4-0.6-6.1c-0.6,0-1.6,0.3-2.6,0.3c-1.3,0.3-2.6,0.3-3.2,0.6c-0.3,0-0.6,0-0.6,0c1.3-4.2,5.2-7.1,7.4-8.4
				c2.3-1,5.2-1.6,7.7,0.6c1,1,1.9,1.9,3.5,1c0.3-0.3,30.3-17.4,41.9-24.5l0,0c3.2-1.9,5.5-3.2,5.8-3.5c1.3-1,2.6-2.9,3.5-5.5
				c1-2.6,3.2-5.2,3.9-5.8c2.6-3.5,5.8-4.2,8.1-3.9c2.3,0.3,6.1,1.6,5.8,5.8c0,0-0.6,0-1,0c-1.3,0.3-4.8,1-6.8,1.3
				c-1.3,0.3-2.3,2.6-3.2,6.8c-0.6,3.9-1,5.8,0.6,5.8c1.3,0,4.8-0.6,6.4-1c0.6,0,1-0.3,1-0.3s-3.2,7.4-10,9
				c-1.6,0.3-3.9-0.3-5.5-1.9c-1.6-1.6-2.6-1.6-3.5-1.3c-0.6,0.3-47.4,27.4-48,27.7c-1.6,1-2.3,2.6-4.2,7.1
				c-1.9,3.9-4.8,8.1-9.3,8.7c-0.3,0-0.3,0-0.6,0c-1.3,0-1.9,0-2.9-0.3C140,205.8,139.6,205.5,139.3,205.2z"/>
			<path class="st32" d="M137.7,200.7c1-0.3,4.2-1,6.4-1.6c1-0.3,1.9-1.9,2.9-6.1c0.6-3.5,0.6-6.4-0.6-6.1c-1,0-4.8,0.6-5.8,1
				c0-0.3,0.3-0.6,0.6-1.3c0.6-1.3,1.6-2.9,3.5-4.2c3.5-2.3,6.4-2.9,8.4-1c2.9,2.9,2.6,7.7,1,11.6c-1.3,3.9-3.9,9.3-7.4,11
				C142.5,206.1,139,205.5,137.7,200.7z"/>
			<path class="st32" d="M225.1,141c-2.6-1.6-5.8-1.9-8.7,0.3c-3.5,2.6-5.8,7.1-6.4,12.6c-0.3,3.5-0.6,9,2.3,10
				c3.9,1.3,7.7-0.6,11.3-6.1c0-0.3,0.3-0.3,0.3-0.6c-1.6,0.3-4.8,1-6.4,1s-1.3-1.9-0.6-5.8c1-4.2,1.9-6.4,3.2-6.8
				c1.9-0.6,5.2-1.3,6.8-1.3C226.7,143,226.4,141.7,225.1,141z"/>
			<path class="st33" d="M160.6,184.5c0,0.3,0,0.3,0,0.6c0.3,1.3,1.3,1.9,2.3,1.3l38.4-21.9c1.3-0.6,2.3-2.9,2.3-4.5
				c0-0.6-0.3-1.3-0.6-1.6l0,0c-0.3-0.3-1-0.3-1.6,0l-38.4,21.9C161.6,181,160.6,182.9,160.6,184.5z"/>
			<path class="st32" d="M160.6,184.5c0,0.3,0,0.3,0,0.6c0.3,0.3,1,0.3,1.6,0l38.4-21.9c1.3-0.6,2.3-2.9,2.3-4.5c0-0.3,0-0.3,0-0.6
				l0,0c-0.3-0.3-1-0.3-1.6,0L162.9,180C161.6,181,160.6,182.9,160.6,184.5z"/>
		</g>
		<path class="st30" d="M135.5,202.9c-0.6-0.6-1.3-1.3-1.3-1.9c-0.6-1.3-0.6-2.3-0.6-2.3s0.3-0.3,0.6-0.3c1-0.3,4.2-1,6.4-1.6
			c1-0.3,1.9-1.9,2.9-6.1c0.3-1.3,0.3-2.6,0.3-3.5c1,0,1.9-0.3,2.6-0.3c1.3-0.3,1.6,2.6,0.6,6.1c-1,3.9-1.9,5.5-2.9,6.1
			c-2.3,1-5.5,1.6-6.4,1.6c-0.3,0-0.6,0.3-0.6,0.3s0,2.9,1.9,4.5C135.5,203.2,136.7,203.9,135.5,202.9z"/>
	</g>
	<path class="st15" d="M175.1,179.7c0.3,0.3,1,1,1.9,1.3c1.3,0.6,1.3,1.3,6.1,0c1-0.3,1.6-0.3,1.6-0.3s-2.3-5.2-2.6-4.8l0,0
		c-0.3,0-0.3,0.3-0.6,0.3l0,0c0,0,0,0-0.3,0s-0.6,0-1.3-1c-0.3-0.6-0.3-1-1-1c0,0-0.3,0-0.6,0c-0.3,0.3-0.3,1.6,0,2.3
		c0,0.3,0.3,0.3,0.3,0.6c0,0.6-0.6,0.6-1.3,1.3c-0.3,0.3,0,0.3-0.6,0.3C176.4,179.4,175.8,179.7,175.1,179.7z"/>
	<g>
		<g>
			<path class="st15" d="M181.6,176.8c-1,1.9,0.6,4.2,2.9,4.2c1.3-1,3.2-1.9,4.2-2.6l0,0c2.6-1.3,3.5-1.6,5.5-2.9
				c1.9-1.3,4.5-4.5,4.5-6.8c0-1.6-2.6-4.5-3.5-5.8c-1.3-1.9-2.6-4.2-5.5-7.4c-1-1.3-0.6-1.3-1.3-2.6c-1.6-3.2-2.9-4.5-4.2-4.5
				c-4.8,0.6-5.8,4.5-2.9,9.7c1,1.6,1.9,2.6,2.9,3.2l0,0c1,2.3,3.5,6.4,6.1,7.1l-0.3,0.3c-0.3,0.3-0.3,0.3-0.6,0.6
				C184.1,173.9,187,172.9,181.6,176.8z"/>
			
				<linearGradient id="SVGID_16_" gradientUnits="userSpaceOnUse" x1="-3872.7197" y1="196.8387" x2="-3863.8899" y2="196.8387" gradientTransform="matrix(-0.9984 5.590000e-02 -5.590000e-02 -0.9984 -3656.814 585.6155)">
				<stop  offset="0" style="stop-color:#ED7D88"/>
				<stop  offset="1" style="stop-color:#FFCFCD"/>
			</linearGradient>
			<path class="st34" d="M190.3,177.5c3.5-1.3,8.1-4.5,8.4-8.7C197.4,166.5,195.7,172.6,190.3,177.5z"/>
			
				<linearGradient id="SVGID_17_" gradientUnits="userSpaceOnUse" x1="-3866.8284" y1="201.7842" x2="-3857.1765" y2="201.7842" gradientTransform="matrix(-0.9984 5.590000e-02 -5.590000e-02 -0.9984 -3656.814 585.6155)">
				<stop  offset="0" style="stop-color:#ED7D88"/>
				<stop  offset="1" style="stop-color:#FFCFCD"/>
			</linearGradient>
			<path class="st35" d="M183.2,175.5v1c1,1.3,2.3,2.3,3.5,2.6l0,0c-0.6-0.3-1.9-1.3-1.9-2.6c-0.3-1.3,0.6-2.6,1.6-3.9
				c1.9-2.6,5.2-4.2,5.5-4.5l0,0c0,0-1.6,0-2.6-1c-0.6-0.3-1.3-1.3-1.3-2.3c0-1,0.6-1.6,1.3-2.9c1-1.9,1.6-4.2,1-4.5
				c-0.3-0.3-1.3,0.3-3.9,4.2c0,0-1.9-0.3-2.9,0l0,0c1,2.3,3.5,6.4,6.1,7.1l-0.3,0.3C184.5,173.9,186.7,172.9,183.2,175.5z"/>
		</g>
		<g>
			
				<linearGradient id="SVGID_18_" gradientUnits="userSpaceOnUse" x1="-1805.0356" y1="192.2972" x2="-1803.1421" y2="190.7223" gradientTransform="matrix(-0.9984 5.590000e-02 -5.590000e-02 -0.9984 -1607.6058 470.8482)">
				<stop  offset="0" style="stop-color:#ED7D88"/>
				<stop  offset="1" style="stop-color:#FFCFCD"/>
			</linearGradient>
			<path class="st36" d="M180.9,178.7c0.3,1,1,1.9,2.3,2.6c1-0.3,1.6-0.3,1.6-0.3c-0.3-0.3-2.3-5.2-2.6-4.8c-0.6,0.6,0,0-0.6,0.6
				c0,0,0,0-0.3,0s-0.3-0.3-0.3,0c0,0,0,0.6,0,1C180.9,177.8,180.9,178.1,180.9,178.7z"/>
		</g>
		<g>
			<path class="st37" d="M183.5,180c0.6,0.3,1,0.6,1.3,0.6c1-0.3,1.9-1,2.3-1.9c-0.6,0-1.3-0.3-1.6-0.6c-1-0.6-1.6-2.3-1.6-3.5
				c0,0-1.9,0.3-2.6,1.3C180.9,177.5,182.5,179.4,183.5,180z"/>
			<path class="st38" d="M181.6,177.8c0.3,0.6,1,1.6,1.9,2.3c1-0.3,1.6-1.3,2.3-1.9c-1-0.6-1.3-1.6-1.6-2.6
				C183.2,176.2,182.2,176.8,181.6,177.8z"/>
		</g>
		
			<linearGradient id="SVGID_19_" gradientUnits="userSpaceOnUse" x1="-1926.2517" y1="107.3883" x2="-1913.4517" y2="107.3883" gradientTransform="matrix(-1 0 0 -1 -1735.0612 262)">
			<stop  offset="0" style="stop-color:#E50670"/>
			<stop  offset="1" style="stop-color:#95115A"/>
		</linearGradient>
		<path class="st39" d="M179.9,156.5c1.3,2.9,2.3,2.3,3.9,5.5c0,0.3,0.3,0.6,1,1c1.6,0.6,4.2-2.3,4.5-2.6c0.6-0.6,1.3-1.6,1.9-3.2
			c-1.6-2.6-4.5-7.4-6.8-9.3c-1-0.6-1.9-1.3-2.6-1.6c-0.6,0.3-2.9,1.9-3.2,4.5C178,153,179.3,154.9,179.9,156.5z"/>
	</g>
	<g>
		<g>
			
				<linearGradient id="SVGID_20_" gradientUnits="userSpaceOnUse" x1="-3848.8579" y1="230.7439" x2="-3846.3826" y2="222.3402" gradientTransform="matrix(-0.9984 5.590000e-02 -5.590000e-02 -0.9984 -3656.814 585.6155)">
				<stop  offset="0" style="stop-color:#ED7D88"/>
				<stop  offset="0.164" style="stop-color:#F08A93"/>
				<stop  offset="1" style="stop-color:#FFCFCD"/>
			</linearGradient>
			<path class="st40" d="M167.4,146.2C167.4,146.5,167.4,146.5,167.4,146.2c0.6,1.6,1.9,2.3,3.2,2.3c1.6,0,3.2-0.6,4.2-1.6
				c0,0,0.3,0,0.3-0.3c1.3-1,1.6-1.9,2.3-3.2c-1-0.6-1.9-1.6-1.9-2.9c0-0.3,0-0.3,0.3-0.6c-3.2,2.3-4.2,0.3-6.8,0.6
				c-1,0-1.6,1.3-1.6,2.3l0,0C166.7,144.2,166.7,145.2,167.4,146.2z"/>
			<path class="st15" d="M167,143.6c0.3,1.9,1.3,4.8,2.9,4.8c0.6,0,1.3-1,1.6-1.6c0.3-0.6,0-1.9-1-2.9c-1.3-1.3-2.3-0.6-2.9-1.9
				c-0.3,0.3-0.3,0.6-0.3,1.3l0,0C167,143.3,167,143.6,167,143.6z"/>
			<path class="st16" d="M167.4,146.2c0,0,0.3,0.6,1,1.3c0.3,0.3,1,0.6,1.6,1l0,0c2.3,0.6,5.8-1.3,7.1-3.9l0,0c0-0.3,0.3-0.6,0.3-1
				c-0.6-0.3-1-0.6-1.3-1.3c-0.6,3.2-4.8,5.5-6.8,3.9c-1.6-1.3-1.6-3.9-0.3-5.5c-1,0.3-1.3,1.3-1.6,2.3l0,0
				C166.7,144.2,167,145.2,167.4,146.2z"/>
			<g>
				<path class="st15" d="M165.1,139.1c0.3,1.9,1.6,2.6,2.9,2.9c3.2,0.6,8.4-1.6,9-4.5c0.3-2.6-5.2-8.7-6.1-9
					c-0.6-0.6-4.5,0.3-4.5,0.3S164.1,134.6,165.1,139.1z"/>
				
					<linearGradient id="SVGID_21_" gradientUnits="userSpaceOnUse" x1="-3848.5261" y1="230.1162" x2="-3846.2434" y2="222.3669" gradientTransform="matrix(-0.9984 5.590000e-02 -5.590000e-02 -0.9984 -3656.814 585.6155)">
					<stop  offset="0" style="stop-color:#ED7D88"/>
					<stop  offset="0.164" style="stop-color:#F08A93"/>
					<stop  offset="1" style="stop-color:#FFCFCD"/>
				</linearGradient>
				<path class="st41" d="M168.3,142.3c3.2,0.6,8.4-1.6,9-4.5c0-1-0.3-2.3-1.3-3.5c-1,0.3-1.9,0.6-1.9,0.6c0,1.9-0.3,4.5-1.6,5.8
					C170.9,142,169,142.3,168.3,142.3z"/>
				<g>
					
						<linearGradient id="SVGID_22_" gradientUnits="userSpaceOnUse" x1="-3856.1692" y1="237.5943" x2="-3841.2886" y2="237.5943" gradientTransform="matrix(-0.9984 5.590000e-02 -5.590000e-02 -0.9984 -3656.814 585.6155)">
						<stop  offset="0" style="stop-color:#95115A"/>
						<stop  offset="1" style="stop-color:#E50670"/>
					</linearGradient>
					<path class="st42" d="M169.3,131.7c-0.3,0.6-0.6,1-1.6,1c0.6,0.3,1.3,0.3,1.9,0.3c1.3,0,1.9-0.6,2.6-0.3c0.6,0.3,1,1.9,1,2.6
						c0,0.6-0.3,0.6-0.3,1.6c0,0.6,0,1.6,0.3,1.6c0,0,0.3-0.3,0.6-1.3c0-1,1.3-1.3,1.6,0c0.6,1.3,0.3,2.3,0,3.9l0,0
						c0,0,0-0.3,0.3-0.3c1.9-1.3,2.9-3.2,3.2-3.5c0.6-1.3,0.6-2.3,1-3.5c0-1,0.3-2.6-0.6-4.5c-1.9-3.2-7.4-4.5-10-3.2l-0.3,0.3l0,0
						c-0.3,0-0.6,0.3-1,0.6c-1,0.6-1,1.3-1.6,1.6c-0.6,0-1-0.3-1,0c-0.3,0.3,0,2.3,1,3.2C166.7,131.7,168,132,169.3,131.7z"/>
					
						<linearGradient id="SVGID_23_" gradientUnits="userSpaceOnUse" x1="-3856.1692" y1="237.8944" x2="-3845.4116" y2="237.8944" gradientTransform="matrix(-0.9984 5.590000e-02 -5.590000e-02 -0.9984 -3656.814 585.6155)">
						<stop  offset="0" style="stop-color:#95115A"/>
						<stop  offset="1" style="stop-color:#380832"/>
					</linearGradient>
					<path class="st43" d="M174.1,134.3c-0.6,1-0.6,1.9-0.6,2.9c0-0.6,0.3-1,1-1c0.3,0,0.6,0.3,0.6,0.3l0,0c0,0.3,0.3,1,0.3,1
						c0.3,1.3,0,2.6-0.3,3.2l0,0l0,0l0,0c1.6-1,2.6-2.3,3.5-3.9c0.6-1.3,0.6-2.3,1-3.5c0-1,0.3-2.6-0.6-4.5
						c-1.9-3.5-7.7-4.5-10.3-2.9l0,0c2.9,0,5.5,0.6,6.4,1.9c0.3,0.3,1.6,1.9,1,3.9C176.1,132.6,175.1,132.6,174.1,134.3z"/>
				</g>
			</g>
		</g>
	</g>
	<path class="st13" d="M181.6,212.3c1,2.3,1.6,5.2,2.3,8.1c0.6,3.5,1,6.8,1,9.7c0.6,0.3,2.6,1.6,5.2,1c1-0.3,1.6-0.3,1.9-0.6
		c-0.6,0.3-2.3,0-4.5-2.6C184.1,223.6,184.5,217.8,181.6,212.3z"/>
</g>
</svg>
