<?xml version="1.0" encoding="utf-8"?>
<!-- Generator: Adobe Illustrator 24.3.0, SVG Export Plug-In . SVG Version: 6.00 Build 0)  -->
<svg version="1.1" id="Layer_1" xmlns="http://www.w3.org/2000/svg" xmlns:xlink="http://www.w3.org/1999/xlink" x="0px" y="0px"
	 viewBox="0 0 260 260" style="enable-background:new 0 0 260 260;" xml:space="preserve">
<style type="text/css">
	.st0{fill:#FFFFFF;}
	.st1{fill:#FFFFFF;stroke:#000000;stroke-miterlimit:10;}
	.st2{fill:none;stroke:#000000;stroke-width:0.5;stroke-miterlimit:10;}
	.st3{stroke:#000000;stroke-width:0.5;stroke-miterlimit:10;}
	.st4{fill:#FFFFFF;stroke:#000000;stroke-width:0.75;stroke-miterlimit:10;}
	.st5{fill:#CCCCCC;}
	.st6{fill:#D0F7FC;stroke:#000000;stroke-miterlimit:10;}
	.st7{fill:#001D3B;stroke:#000000;stroke-miterlimit:10;}
	.st8{fill:#8FDAEF;stroke:#000000;stroke-miterlimit:10;}
	.st9{fill:#9BF2EA;stroke:#000000;stroke-miterlimit:10;}
	.st10{fill:#000002;stroke:#000000;stroke-miterlimit:10;}
	.st11{fill:url(#SVGID_1_);stroke:#000000;stroke-miterlimit:10;}
	.st12{fill:#F2CA3E;stroke:#000000;stroke-miterlimit:10;}
	.st13{fill:#DCE4F2;stroke:#000000;stroke-miterlimit:10;}
	.st14{fill:#E52D27;stroke:#000000;stroke-miterlimit:10;}
	.st15{fill:#D9843B;stroke:#000000;stroke-miterlimit:10;}
	.st16{fill:#CC572B;stroke:#000000;stroke-miterlimit:10;}
	.st17{fill:#80BDF2;stroke:#000000;stroke-miterlimit:10;}
	.st18{fill:#A3BFD9;stroke:#000000;stroke-miterlimit:10;}
	.st19{fill:#36510E;stroke:#000000;stroke-miterlimit:10;}
	.st20{fill:#425C1F;stroke:#000000;stroke-miterlimit:10;}
	.st21{fill:#2D4E31;stroke:#000000;stroke-miterlimit:10;}
</style>
<rect x="-278.3" y="-73.3" class="st0" width="259" height="258"/>
<polygon points="-140.9,26.5 -139.9,26.5 -139.9,26.5 "/>
<path d="M18.8,109.7"/>
<path class="st1" d="M-292.3,97.2h4.7c0.8,0,1.6-0.5,1.8-1.3l18.7-55c0.3-0.9,1.6-0.9,1.9,0l21.1,55.1c0.3,0.7,1,1.2,1.8,1.2h3.4
	c1.3,0,2.3-1.3,1.8-2.6l-28-73.5c-0.4-1-1.8-1-2.2,0l-26.8,73.5C-294.6,95.9-293.7,97.2-292.3,97.2z"/>
<rect x="17.8" y="150.7" width="2" height="2"/>
<path d="M18.8,149.7"/>
<line class="st2" x1="18.8" y1="150.7" x2="23.3" y2="138.2"/>
<polyline class="st3" points="-266.1,32.2 -284,74 -285.1,79.2 -282.9,78.2 "/>
<rect x="-242.3" y="92.2" width="2.3" height="2"/>
<line class="st2" x1="-241.2" y1="92.2" x2="-246.3" y2="79.7"/>
<polyline class="st3" points="-266.1,33.2 -248,74.2 -245.6,79.7 "/>
<line class="st2" x1="-245.6" y1="78.7" x2="-248.6" y2="77.7"/>
<line class="st2" x1="-281.6" y1="76.7" x2="-249.6" y2="76.7"/>
<path class="st3" d="M-283.1,74.2"/>
<polyline class="st3" points="-284,74 -266.1,70.2 -248,74.2 "/>
<path class="st3" d="M-95.6,56.7"/>
<path class="st3" d="M-195.6,58.7"/>
<path class="st1" d="M-220.7,23.2c1.5,0,3.4,0,4.8,0c1,0,1.9,0.9,1.9,1.9v71.2c0,0.5-0.4,1-1,1h-7.1c-0.5,0-1-0.4-1-0.9
	c0-7.6,0.2-59.2,0.1-70.7C-223,24.2-222,23.2-220.7,23.2z"/>
<polyline class="st3" points="-217.6,95.2 -218.6,28.2 -218.6,19.2 "/>
<path class="st1" d="M-165.7,21.2h-21.2c-1.2,0-2.2,1-2.2,2.2L-190,93c0,1.2,1,2.3,2.2,2.3h22.1c2.3,0,5.8,0.6,9.7-1
	c5.6-2.3,8.9-5.9,10.7-8c7.7-8.7,9.2-18.9,9.7-23c1.4-10.9-1.3-19.2-1.9-21c-1.2-3.4-2.8-7.8-6.8-12c-5.3-5.5-11.8-7.3-14.6-8
	c-2.4-0.6-4.4-0.9-5.8-1h-1V21.2z"/>
<path class="st1" d="M-165.5,28.6h-15.6c-1.3,0-2.3,1-2.3,2.3l-0.7,54.7c0,1.6,1.2,2.9,2.8,2.9l15.9,0.7c1.7,0,4.5-0.3,7.5-1.6
	c4.3-1.9,6.8-4.8,8.2-6.5c5.9-7,7.1-15.3,7.5-18.6c1.1-8.8-1-15.5-1.5-17c-0.9-2.7-2.1-6.3-5.2-9.7c-4.1-4.4-9-5.9-11.2-6.5
	c-1.8-0.5-3.4-0.7-4.5-0.8h-0.9V28.6z"/>
<rect x="-249.1" y="73.2" width="2.3" height="2"/>
<rect x="-250.1" y="76.2" width="2" height="2"/>
<rect x="-283.1" y="76.2" width="2" height="2"/>
<rect x="-285.1" y="73.2" width="2" height="2"/>
<rect x="-286.1" y="78.2" width="2" height="2"/>
<rect x="-267.1" y="31.2" width="2" height="2"/>
<rect x="-267.1" y="69.2" width="2" height="2"/>
<polyline class="st4" points="-148.4,30 -161.4,24 -185.4,25 -186.4,59 -186.4,92 -161.4,92 -150.4,87 -140.4,72 "/>
<rect x="-162.9" y="90.8" width="2.3" height="2"/>
<rect x="-186.9" y="23.8" width="2.3" height="2"/>
<rect x="-187.9" y="57.8" width="2.3" height="2"/>
<rect x="-187.9" y="90.8" width="2.3" height="2"/>
<rect x="-162.9" y="23.8" width="2.3" height="2"/>
<rect x="-152.9" y="85.8" width="2.3" height="2"/>
<rect x="-218.9" y="93.8" width="2.3" height="2"/>
<polyline class="st2" points="-141.6,72.7 -138.6,54.7 -142.1,39.1 -148.6,30.7 "/>
<rect x="-142.9" y="71.8" width="2.3" height="2"/>
<rect x="-142.9" y="38.8" width="2.3" height="2"/>
<rect x="-149.9" y="29.8" width="2.3" height="2"/>
<rect x="-247" y="78.2" width="2.3" height="2"/>
<rect x="-139.9" y="53.8" width="2.3" height="2"/>
<path d="M-121.6,48"/>
<path class="st1" d="M-123.9,94h4.7c0.8,0,1.6-0.5,1.8-1.3l18.7-55c0.3-0.9,1.6-0.9,1.9,0l21.1,55.1c0.3,0.7,1,1.2,1.8,1.2h3.4
	c1.3,0,2.3-1.3,1.8-2.6l-28-73.5c-0.4-1-1.8-1-2.2,0l-26.8,73.5C-126.1,92.7-125.2,94-123.9,94z"/>
<rect x="-122.6" y="89" width="2" height="2"/>
<path d="M-121.6,88"/>
<line class="st2" x1="-121.6" y1="89" x2="-117.1" y2="76.5"/>
<polyline class="st3" points="-97.6,29 -115.5,70.8 -116.6,76 -114.4,75 "/>
<rect x="-73.9" y="89" width="2.3" height="2"/>
<line class="st2" x1="-72.7" y1="89" x2="-77.8" y2="76.5"/>
<polyline class="st3" points="-97.6,30 -79.5,71 -77.1,76.5 "/>
<line class="st2" x1="-77.1" y1="75.5" x2="-80.1" y2="74.5"/>
<line class="st2" x1="-113.1" y1="73.5" x2="-81.1" y2="73.5"/>
<path class="st3" d="M-114.6,71"/>
<polyline class="st3" points="-115.5,70.8 -97.6,67 -79.5,71 "/>
<rect x="-80.6" y="70" width="2.3" height="2"/>
<rect x="-81.6" y="73" width="2" height="2"/>
<rect x="-114.6" y="73" width="2" height="2"/>
<rect x="-116.6" y="70" width="2" height="2"/>
<rect x="-117.6" y="75" width="2" height="2"/>
<rect x="-98.6" y="28" width="2" height="2"/>
<rect x="-98.6" y="66" width="2" height="2"/>
<rect x="-78.5" y="75" width="2.3" height="2"/>
<polygon class="st5" points="294,184 295,184 295,184 "/>
<rect x="91.9" y="78.2" width="1.6" height="0.2"/>
<ellipse cx="93.6" cy="78.3" rx="0.4" ry="0.1"/>
<rect x="86.8" y="78.2" width="1.5" height="0.2"/>
<ellipse cx="86.7" cy="78.3" rx="0.4" ry="0.1"/>
<path class="st3" d="M-269.9,27.7"/>
<rect x="-263.9" y="30.1" width="1.5" height="0.2"/>
<ellipse cx="-262.3" cy="30.2" rx="0.4" ry="0.1"/>
<rect x="-267.7" y="30" width="3.9" height="3.8"/>
<rect x="-264" y="31.3" width="1.5" height="0.2"/>
<ellipse cx="-262.3" cy="31.5" rx="0.4" ry="0.1"/>
<rect x="-263.9" y="32.4" width="1.5" height="0.2"/>
<ellipse cx="-262.3" cy="32.5" rx="0.4" ry="0.1"/>
<rect x="-264" y="33.4" width="1.6" height="0.2"/>
<ellipse cx="-262.3" cy="33.5" rx="0.4" ry="0.1"/>
<rect x="-267.6" y="28.6" width="0.2" height="1.5"/>
<ellipse cx="-267.5" cy="28.5" rx="0.1" ry="0.4"/>
<rect x="-266.4" y="28.6" width="0.2" height="1.5"/>
<ellipse cx="-266.2" cy="28.5" rx="0.1" ry="0.4"/>
<rect x="-265.3" y="28.6" width="0.2" height="1.5"/>
<ellipse cx="-265.2" cy="28.5" rx="0.1" ry="0.4"/>
<rect x="-264.3" y="28.6" width="0.2" height="1.6"/>
<ellipse cx="-264.2" cy="28.5" rx="0.1" ry="0.4"/>
<rect x="-269.1" y="33.5" width="1.5" height="0.2"/>
<ellipse cx="-269.3" cy="33.6" rx="0.4" ry="0.1"/>
<rect x="-269.1" y="32.3" width="1.5" height="0.2"/>
<ellipse cx="-269.3" cy="32.4" rx="0.4" ry="0.1"/>
<rect x="-269.2" y="31.2" width="1.5" height="0.2"/>
<ellipse cx="-269.3" cy="31.3" rx="0.4" ry="0.1"/>
<rect x="-269.1" y="30.2" width="1.6" height="0.2"/>
<ellipse cx="-269.3" cy="30.3" rx="0.4" ry="0.1"/>
<path class="st3" d="M-189.9,86.7"/>
<rect x="-183.9" y="89.1" width="1.5" height="0.2"/>
<ellipse cx="-182.3" cy="89.2" rx="0.4" ry="0.1"/>
<rect x="-187.7" y="89" width="3.9" height="3.8"/>
<rect x="-184" y="90.3" width="1.5" height="0.2"/>
<ellipse cx="-182.3" cy="90.5" rx="0.4" ry="0.1"/>
<rect x="-183.9" y="91.4" width="1.5" height="0.2"/>
<ellipse cx="-182.3" cy="91.5" rx="0.4" ry="0.1"/>
<rect x="-184" y="92.4" width="1.6" height="0.2"/>
<ellipse cx="-182.3" cy="92.5" rx="0.4" ry="0.1"/>
<rect x="-187.6" y="87.6" width="0.2" height="1.5"/>
<ellipse cx="-187.5" cy="87.5" rx="0.1" ry="0.4"/>
<rect x="-186.4" y="87.6" width="0.2" height="1.5"/>
<ellipse cx="-186.2" cy="87.5" rx="0.1" ry="0.4"/>
<rect x="-185.3" y="87.6" width="0.2" height="1.5"/>
<ellipse cx="-185.2" cy="87.5" rx="0.1" ry="0.4"/>
<rect x="-184.3" y="87.6" width="0.2" height="1.6"/>
<ellipse cx="-184.2" cy="87.5" rx="0.1" ry="0.4"/>
<rect x="-189.1" y="92.5" width="1.5" height="0.2"/>
<ellipse cx="-189.3" cy="92.6" rx="0.4" ry="0.1"/>
<rect x="-189.1" y="91.3" width="1.5" height="0.2"/>
<ellipse cx="-189.3" cy="91.4" rx="0.4" ry="0.1"/>
<rect x="-189.2" y="90.2" width="1.5" height="0.2"/>
<ellipse cx="-189.3" cy="90.3" rx="0.4" ry="0.1"/>
<rect x="-189.1" y="89.2" width="1.6" height="0.2"/>
<ellipse cx="-189.3" cy="89.3" rx="0.4" ry="0.1"/>
<path class="st3" d="M-101.3,24.9"/>
<rect x="-95.4" y="27.3" width="1.5" height="0.2"/>
<ellipse cx="-93.8" cy="27.4" rx="0.4" ry="0.1"/>
<rect x="-99.2" y="27.2" width="3.9" height="3.8"/>
<rect x="-95.5" y="28.5" width="1.5" height="0.2"/>
<ellipse cx="-93.8" cy="28.7" rx="0.4" ry="0.1"/>
<rect x="-95.4" y="29.6" width="1.5" height="0.2"/>
<ellipse cx="-93.8" cy="29.7" rx="0.4" ry="0.1"/>
<rect x="-95.5" y="30.6" width="1.6" height="0.2"/>
<ellipse cx="-93.8" cy="30.7" rx="0.4" ry="0.1"/>
<rect x="-99.1" y="25.8" width="0.2" height="1.5"/>
<ellipse cx="-98.9" cy="25.7" rx="0.1" ry="0.4"/>
<rect x="-97.8" y="25.8" width="0.2" height="1.5"/>
<ellipse cx="-97.7" cy="25.7" rx="0.1" ry="0.4"/>
<rect x="-96.7" y="25.8" width="0.2" height="1.5"/>
<ellipse cx="-96.6" cy="25.7" rx="0.1" ry="0.4"/>
<rect x="-95.8" y="25.8" width="0.2" height="1.6"/>
<ellipse cx="-95.7" cy="25.7" rx="0.1" ry="0.4"/>
<rect x="-100.6" y="30.7" width="1.5" height="0.2"/>
<ellipse cx="-100.8" cy="30.8" rx="0.4" ry="0.1"/>
<rect x="-100.6" y="29.5" width="1.5" height="0.2"/>
<ellipse cx="-100.8" cy="29.6" rx="0.4" ry="0.1"/>
<rect x="-100.7" y="28.4" width="1.5" height="0.2"/>
<ellipse cx="-100.8" cy="28.5" rx="0.4" ry="0.1"/>
<rect x="-100.6" y="27.4" width="1.6" height="0.2"/>
<ellipse cx="-100.8" cy="27.5" rx="0.4" ry="0.1"/>
<rect x="13" y="9.6" class="st6" width="30.6" height="27.7"/>
<rect x="50.6" y="8.7" class="st7" width="30.6" height="27.7"/>
<rect x="90.1" y="9" class="st8" width="30.6" height="27.7"/>
<rect x="135" y="9.4" class="st9" width="30.6" height="27.7"/>
<rect x="176.8" y="8.7" class="st10" width="30.6" height="27.7"/>
<linearGradient id="SVGID_1_" gradientUnits="userSpaceOnUse" x1="7.7325" y1="208.5987" x2="258.8153" y2="208.5987">
	<stop  offset="0" style="stop-color:#001D3B"/>
	<stop  offset="0.2603" style="stop-color:#000002"/>
	<stop  offset="0.494" style="stop-color:#8FDAEF"/>
	<stop  offset="0.6932" style="stop-color:#FFFFFF"/>
	<stop  offset="1" style="stop-color:#D0F7FC"/>
</linearGradient>
<rect x="7.7" y="183.8" class="st11" width="251.1" height="49.5"/>
<rect x="50.5" y="43.4" class="st12" width="30.6" height="27.7"/>
<rect x="13.8" y="45.2" class="st13" width="30.6" height="27.7"/>
<rect x="91.8" y="42.7" class="st14" width="30.6" height="27.7"/>
<rect x="136.7" y="43.1" class="st15" width="30.6" height="27.7"/>
<rect x="178.6" y="42.4" class="st16" width="30.6" height="27.7"/>
<rect x="14.4" y="83.5" class="st17" width="30.6" height="27.7"/>
<rect x="52" y="82.5" class="st18" width="30.6" height="27.7"/>
<rect x="91.5" y="82.8" class="st19" width="30.6" height="27.7"/>
<rect x="136.4" y="83.2" class="st20" width="30.6" height="27.7"/>
<rect x="178.2" y="82.5" class="st21" width="30.6" height="27.7"/>
</svg>
