<?xml version="1.0" encoding="utf-8"?>
<!-- Generator: Adobe Illustrator 24.3.0, SVG Export Plug-In . SVG Version: 6.00 Build 0)  -->
<svg version="1.1" id="Layer_1" xmlns="http://www.w3.org/2000/svg" xmlns:xlink="http://www.w3.org/1999/xlink" x="0px" y="0px"
	 viewBox="0 0 70 70" style="enable-background:new 0 0 70 70;" xml:space="preserve">
<style type="text/css">
	.st0{fill:#00BBD6;stroke:#000000;stroke-miterlimit:10;}
	.st1{fill:#FFFFFF;stroke:#000000;stroke-miterlimit:10;}
	.st2{display:none;}
	.st3{display:inline;}
	.st4{fill:none;stroke:#00AC5F;stroke-miterlimit:10;}
</style>
<polygon class="st0" points="52.5,2.8 70.1,32.6 52.8,62.6 17.8,62.8 0.1,33 17.5,3 "/>
<path class="st1" d="M26.9,52.4H41c1.9,0,2.9-2.3,1.5-3.7l-5.2-5.2h-7.5l-4.4,5.7C24.4,50.5,25.3,52.4,26.9,52.4z"/>
<g class="st2">
	<g class="st3">
		<image style="overflow:visible;" width="1000" height="1000" xlink:href="A635412A.jpg"  transform="matrix(1 0 0 1 -464 -464)">
		</image>
	</g>
</g>
<path class="st1" d="M19.8,24.2c-0.9,1.7-2.3,5-2,9.2c0.7,7.7,7.5,15.5,15.4,15.5c6.1,0.1,10.6-4.4,11-4.9c0.5-0.5,2.4-2.6,3.5-5.5
	c0.9-2.5,0.9-4.6,0.9-5.1l-0.1-0.9c-0.1-0.7-0.1-1.3-0.1-1.7h5.8V19.2H31.7l-7.9,0l-1,1.2L19.8,24.2z"/>
<path class="st4" d="M31.2,33.8c-1.6,0.4-3.1-0.7-4.4-1.6c0,1-0.2,1.9,0,2.8c0.3,0.9,0.7,1.8,1.3,2.6c1.2,1.6,2.1,3,5.7,2.5
	c0.3-1.3,0.4-2.7,0.5-4c0-0.8,0-2.2-0.5-2.7C33.2,32.6,32.1,33.6,31.2,33.8z"/>
<path class="st4" d="M36.7,27.3c0.9-1.3,2.6-1.8,4.2-2.2c-0.6-0.6-1-1.4-1.8-1.8c-0.8-0.4-1.7-0.6-2.5-0.7c-3.7-0.3-4.4,0.9-5.7,2.5
	c0.6,1,1.4,2,2.2,2.9c0.5,0.5,1.3,1.4,2.1,1.4C36,29.4,36.2,28,36.7,27.3z"/>
<path class="st4" d="M38.7,35.3c1.1,1.2,1,3,0.8,4.7c0.9-0.5,1.9-0.8,2.6-1.5c0.7-0.7,1.3-1.6,1.7-2.5c1-2.2,0.8-4.6-0.6-6.3
	c-1.3,0.5-2.7,1-3.9,1.7c-0.8,0.4-2,1.1-2.3,1.9C36.7,34.2,38.1,34.6,38.7,35.3z"/>
<path class="st1" d="M52.6,16.5l4.4,0.1v16.3l-4.1,0.1C52.9,32.9,53,16.5,52.6,16.5z"/>
<circle class="st4" cx="35.2" cy="31.7" r="1.2"/>
<path class="st4" d="M27,22.7c-0.7,0.3-1.8,0.9-2.7,2c-1,1.1-1.4,2.3-1.7,3.2c-0.4,1.3-1.2,3.6-0.5,6.6c0.6,2.6,2.1,4.3,2.9,5.1"/>
</svg>
