<?xml version="1.0" encoding="utf-8"?>
<!-- Generator: Adobe Illustrator 24.3.0, SVG Export Plug-In . SVG Version: 6.00 Build 0)  -->
<svg version="1.1" id="Layer_1" xmlns="http://www.w3.org/2000/svg" xmlns:xlink="http://www.w3.org/1999/xlink" x="0px" y="0px"
	 viewBox="0 0 260 260" style="enable-background:new 0 0 260 260;" xml:space="preserve">
<style type="text/css">
	.st0{fill:#00035A;stroke:#00035A;stroke-miterlimit:10;}
	.st1{fill:#E5A423;stroke:#E5A423;stroke-miterlimit:10;}
	.st2{fill:none;stroke:#E5A423;stroke-width:2;stroke-miterlimit:10;}
</style>
<g>
	<rect x="30.5" y="112.7" class="st0" width="8" height="67.4"/>
	<path class="st0" d="M38,114.1v64.6h-7v-64.6H38 M39,111.2h-9v70.2h9V111.2L39,111.2z"/>
</g>
<g>
	<rect x="42.3" y="90.2" class="st0" width="8" height="109"/>
	<path class="st0" d="M49.8,91.6v106.2h-7V91.6H49.8 M50.8,88.8h-9v111.8h9V88.8L50.8,88.8z"/>
</g>
<g>
	<rect x="54.3" y="126.7" class="st0" width="8" height="50.5"/>
	<path class="st0" d="M61.8,128.1v47.7h-7v-47.7H61.8 M62.8,125.3h-9v53.4h9V125.3L62.8,125.3z"/>
</g>
<g>
	<rect x="68.4" y="90.5" class="st0" width="8" height="112.3"/>
	<path class="st0" d="M75.9,91.9v109.5h-7V91.9L75.9,91.9 M76.9,89.1h-9v115.1h9V89.1L76.9,89.1z"/>
</g>
<g>
	<rect x="80.2" y="45.3" class="st0" width="8" height="180.3"/>
	<path class="st0" d="M87.7,46.7v177.5h-7V46.7H87.7 M88.7,43.8h-9V227h9V43.8L88.7,43.8z"/>
</g>
<g>
	<rect x="92.2" y="105.1" class="st0" width="8" height="84.5"/>
	<path class="st0" d="M99.7,106.5v81.7h-7v-81.7H99.7 M100.7,103.7h-9V191h9V103.7L100.7,103.7z"/>
</g>
<g>
	<rect x="105.2" y="81.8" class="st0" width="8" height="130"/>
	<path class="st0" d="M112.7,83.2v127.2h-7V83.2H112.7 M113.7,80.4h-9v132.8h9V80.4L113.7,80.4z"/>
</g>
<g>
	<rect x="117.2" y="125.3" class="st0" width="8" height="60.7"/>
	<path class="st0" d="M124.7,126.7v57.9h-7v-57.9H124.7 M125.7,123.9h-9v63.5h9V123.9L125.7,123.9z"/>
</g>
<g>
	<rect x="131.3" y="82" class="st0" width="8" height="134"/>
	<path class="st0" d="M138.8,83.4v131.1h-7V83.4H138.8 M139.8,80.6h-9v136.8h9V80.6L139.8,80.6z"/>
</g>
<g>
	<rect x="146.3" y="28.4" class="st0" width="8" height="227.2"/>
	<path class="st0" d="M153.8,29.8v224.4h-7V29.8H153.8 M154.8,27h-9v230h9V27L154.8,27z"/>
</g>
<g>
	<rect x="158.3" y="98.1" class="st0" width="8" height="107"/>
	<path class="st0" d="M165.8,99.5v104.2h-7V99.5H165.8 M166.8,96.6h-9v109.8h9V96.6L166.8,96.6z"/>
</g>
<g>
	<rect x="181.3" y="95" class="st0" width="8" height="109"/>
	<path class="st0" d="M188.8,96.4v106.2h-7V96.4H188.8 M189.8,93.6h-9v111.8h9V93.6L189.8,93.6z"/>
</g>
<g>
	<rect x="193.3" y="131.5" class="st0" width="8" height="50.5"/>
	<path class="st0" d="M200.8,132.9v47.7h-7v-47.7H200.8 M201.8,130.1h-9v53.4h9V130.1L201.8,130.1z"/>
</g>
<g>
	<rect x="207.4" y="95.2" class="st0" width="8" height="112.3"/>
	<path class="st0" d="M214.9,96.6v109.5h-7V96.6H214.9 M215.9,93.8h-9V209h9V93.8L215.9,93.8z"/>
</g>
<g>
	<rect x="219.2" y="50" class="st0" width="8" height="180.3"/>
	<path class="st0" d="M226.7,51.4v177.5h-7V51.4H226.7 M227.7,48.6h-9v183.1h9V48.6L227.7,48.6z"/>
</g>
<g>
	<rect x="231.2" y="109.8" class="st0" width="8" height="84.5"/>
	<path class="st0" d="M238.7,111.2V193h-7v-81.7H238.7 M239.7,108.4h-9v87.3h9V108.4L239.7,108.4z"/>
</g>
<g>
	<rect x="170.5" y="129.5" class="st0" width="8" height="50.5"/>
	<path class="st0" d="M178,130.9v47.7h-7v-47.7H178 M179,128.1h-9v53.4h9V128.1L179,128.1z"/>
</g>
<g>
	<rect x="7.4" y="116.6" class="st0" width="8" height="67.4"/>
	<path class="st0" d="M14.9,118v64.6h-7V118H14.9 M15.9,115.2h-9v70.2h9V115.2L15.9,115.2z"/>
</g>
<g>
	<rect x="19.2" y="94.1" class="st0" width="8" height="109"/>
	<path class="st0" d="M26.7,95.5v106.2h-7V95.5H26.7 M27.7,92.7h-9v111.8h9V92.7L27.7,92.7z"/>
</g>
<g>
	<rect x="243.3" y="95.2" class="st0" width="8" height="112.3"/>
	<path class="st0" d="M250.8,96.6v109.5h-7V96.6H250.8 M251.8,93.8h-9V209h9V93.8L251.8,93.8z"/>
</g>
<line class="st0" x1="6.5" y1="146.4" x2="251.5" y2="149.2"/>
<ellipse class="st1" cx="7.5" cy="29" rx="5" ry="3.5"/>
<polyline class="st2" points="29.3,28 29.3,9 10.5,11.5 10.5,30.5 "/>
<ellipse class="st1" cx="26.3" cy="27.3" rx="5" ry="3.2"/>
<polygon class="st1" points="10.5,16.1 28.5,13.5 29.3,9 10.5,11.5 "/>
<ellipse class="st1" cx="202" cy="24" rx="5" ry="3.5"/>
<polyline class="st2" points="223.8,23 223.8,4 205,6.5 205,25.5 "/>
<ellipse class="st1" cx="220.8" cy="22.3" rx="5" ry="3.2"/>
<polygon class="st1" points="205,11.1 223,8.5 223.8,4 205,6.5 "/>
</svg>
