<?xml version="1.0" encoding="utf-8"?>
<!-- Generator: Adobe Illustrator 24.3.0, SVG Export Plug-In . SVG Version: 6.00 Build 0)  -->
<svg version="1.1" id="Layer_1" xmlns="http://www.w3.org/2000/svg" xmlns:xlink="http://www.w3.org/1999/xlink" x="0px" y="0px"
	 viewBox="0 0 70 70" style="enable-background:new 0 0 70 70;" xml:space="preserve">
<style type="text/css">
	.st0{display:none;}
	.st1{display:inline;}
	.st2{fill:#FFFFFF;stroke:#00AC5F;stroke-miterlimit:10;}
	.st3{fill:#FFFFFF;stroke:#FF4B59;stroke-miterlimit:10;}
</style>
<g class="st0">
	<g class="st1">
		<image style="overflow:visible;" width="1000" height="1000" xlink:href="1A7D0E32.jpg"  transform="matrix(1 0 0 1 -464 -464)">
		</image>
	</g>
</g>
<path class="st2" d="M36.3,12.7c0-0.1,0.1-0.8-0.2-1.3c0,0-0.4-0.7-1.1-0.7c-0.5,0-1,0.6-1.1,1.4l-1.6,17.8l1.3,6.6l2.3,0.4l0.3-12
	C36.1,18.1,36.1,13.8,36.3,12.7z"/>
<path class="st2" d="M56,54.2c0.1,0.1,0.6,0.5,1.2,0.6c0,0,0.9,0,1.2-0.5c0.3-0.5,0-1.2-0.6-1.7l-14.1-11l-6.3-2.5l-1.6,1.7l10,6.8
	C53.5,52.3,56.3,54.5,56,54.2z"/>
<path class="st2" d="M10.3,52.6c-0.1,0.1-0.8,0.3-1.1,0.9c0,0-0.4,0.8,0,1.3c0.3,0.4,1.1,0.5,1.8,0l16.7-9.3l5.1-5.1l-0.9-2.2
	l-10.8,7C13.2,50.9,9.9,52.7,10.3,52.6z"/>
<path class="st3" d="M37,38.7c0,1.2-1,2.2-2.2,2.2s-2.2-1-2.2-2.2s1-2.2,2.2-2.2c0.4,0,0.8,0.1,1.2,0.3C36.6,37.3,37,37.9,37,38.7z"
	/>
</svg>
