<?xml version="1.0" encoding="utf-8"?>
<!-- Generator: Adobe Illustrator 24.3.0, SVG Export Plug-In . SVG Version: 6.00 Build 0)  -->
<svg version="1.1" id="Layer_1" xmlns="http://www.w3.org/2000/svg" xmlns:xlink="http://www.w3.org/1999/xlink" x="0px" y="0px"
	 viewBox="0 0 2000 2000" style="enable-background:new 0 0 2000 2000;" xml:space="preserve">
<style type="text/css">
	.st0{enable-background:new    ;}
	.st1{fill:#94711C;}
	.st2{fill:#7F6018;}
	.st3{fill:#C59525;}
	.st4{fill:#7F6118;}
	.st5{fill:#916E1B;}
	.st6{fill:#EAB22C;}
	.st7{fill:#D8A428;}
	.st8{clip-path:url(#SVGID_2_);enable-background:new    ;}
	.st9{fill:#DAA528;}
	.st10{fill:#D5A127;}
	.st11{fill:#CF9D27;}
	.st12{fill:#CA9A26;}
	.st13{fill:#C59625;}
	.st14{fill:#C09224;}
	.st15{fill:#BB8E23;}
	.st16{fill:#B68A22;}
	.st17{fill:#B18621;}
	.st18{fill:#AC8320;}
	.st19{fill:#A77F1F;}
	.st20{fill:#A27B1E;}
	.st21{fill:#9D771D;}
	.st22{fill:#98731C;}
	.st23{fill:#936F1B;}
	.st24{fill:#8E6C1A;}
	.st25{fill:#896819;}
	.st26{fill:#846418;}
	.st27{clip-path:url(#SVGID_4_);enable-background:new    ;}
	.st28{clip-path:url(#SVGID_6_);enable-background:new    ;}
	.st29{clip-path:url(#SVGID_8_);enable-background:new    ;}
	.st30{clip-path:url(#SVGID_10_);enable-background:new    ;}
	.st31{clip-path:url(#SVGID_12_);enable-background:new    ;}
	.st32{clip-path:url(#SVGID_14_);enable-background:new    ;}
	.st33{clip-path:url(#SVGID_16_);enable-background:new    ;}
	.st34{clip-path:url(#SVGID_18_);enable-background:new    ;}
	.st35{clip-path:url(#SVGID_20_);}
	.st36{clip-path:url(#SVGID_22_);fill:#846418;}
	.st37{clip-path:url(#SVGID_24_);fill:#A77F1F;}
	.st38{clip-path:url(#SVGID_24_);fill:#A27B1E;}
	.st39{clip-path:url(#SVGID_24_);fill:#9D771D;}
	.st40{clip-path:url(#SVGID_26_);fill:#CF9D27;}
	.st41{clip-path:url(#SVGID_26_);fill:#D5A127;}
	.st42{clip-path:url(#SVGID_26_);fill:#CA9A26;}
	.st43{clip-path:url(#SVGID_26_);fill:#C59625;}
	.st44{clip-path:url(#SVGID_26_);fill:#C09224;}
	.st45{clip-path:url(#SVGID_26_);fill:#BB8E23;}
	.st46{clip-path:url(#SVGID_26_);fill:#B68A22;}
	.st47{clip-path:url(#SVGID_26_);fill:#B18621;}
	.st48{clip-path:url(#SVGID_26_);fill:#AC8320;}
	.st49{clip-path:url(#SVGID_26_);fill:#A77F1F;}
	.st50{clip-path:url(#SVGID_28_);fill:#A77F1F;}
	.st51{clip-path:url(#SVGID_30_);fill:#CF9D27;}
	.st52{fill:#DDA829;}
	.st53{clip-path:url(#SVGID_32_);enable-background:new    ;}
	.st54{fill:#748A8D;}
	.st55{fill:#708588;}
	.st56{fill:#6C8083;}
	.st57{fill:#788E91;}
	.st58{clip-path:url(#SVGID_34_);enable-background:new    ;}
	.st59{fill:#798F92;}
	.st60{fill:#7D9497;}
	.st61{fill:#81999C;}
	.st62{fill:#859EA1;}
	.st63{fill:#89A3A6;}
	.st64{fill:#8DA8AB;}
	.st65{fill:#92ADB0;}
	.st66{fill:#96B2B5;}
	.st67{fill:#9AB7BA;}
	.st68{fill:#9EBCC0;}
	.st69{fill:#A2C1C5;}
	.st70{fill:#A6C6CA;}
	.st71{fill:#ABCBCF;}
	.st72{fill:#AFCFD4;}
	.st73{fill:#B3D4D9;}
	.st74{fill:#B7D9DE;}
	.st75{fill:#BBDEE3;}
	.st76{fill:#BFE3E8;}
	.st77{fill:#C4E8ED;}
	.st78{fill:#C8EDF2;}
	.st79{clip-path:url(#SVGID_36_);enable-background:new    ;}
	.st80{fill:#CCF2F7;}
	.st81{fill:#D0F7FC;}
	.st82{fill:#D6F8FC;}
	.st83{fill:#D8F8FD;}
	.st84{fill:#DAF9FD;}
	.st85{fill:#849DA0;}
	.st86{clip-path:url(#SVGID_38_);enable-background:new    ;}
	.st87{clip-path:url(#SVGID_40_);enable-background:new    ;}
	.st88{fill:#C6EBF0;}
	.st89{clip-path:url(#SVGID_42_);enable-background:new    ;}
	.st90{clip-path:url(#SVGID_44_);enable-background:new    ;}
	.st91{fill:#A1BFC2;}
	.st92{clip-path:url(#SVGID_46_);enable-background:new    ;}
	.st93{fill:#B8DADF;}
	.st94{fill:#73888B;}
	.st95{clip-path:url(#SVGID_48_);enable-background:new    ;}
</style>
<g>
	<g>
		<g class="st0">
			<g>
				<polygon class="st1" points="1189.3,1770.6 1184.9,1779 1040.5,1899.1 1039.6,1895.1 				"/>
			</g>
			<g>
				<polygon class="st2" points="1039.6,1895.1 1040.5,1899.1 893.9,1785.8 888,1777.9 				"/>
			</g>
			<g>
				<polygon class="st3" points="1186,1735.6 1189.3,1770.6 1039.6,1895.1 1036.3,1860.1 				"/>
			</g>
			<g>
				<polygon class="st4" points="1036.3,1860.1 1039.6,1895.1 888,1777.9 884.7,1742.9 				"/>
			</g>
			<g>
				<polygon class="st5" points="1035.7,1848 1036.3,1860.1 884.7,1742.9 889.1,1734.7 				"/>
			</g>
			<g>
				<polygon class="st6" points="1180.1,1727.9 1186,1735.6 1036.3,1860.1 1035.7,1848 				"/>
			</g>
			<g>
				<polygon class="st7" points="1035.4,1629.6 1180.1,1727.9 1035.7,1848 889.1,1734.7 				"/>
			</g>
		</g>
	</g>
</g>
<g>
	<g>
		<g class="st0">
			<g class="st0">
				<defs>
					<path id="SVGID_1_" class="st0" d="M977.6,1736.7c-3.2-1.1-6-2.3-8.3-3.6c-15.7-8.9-2.5-19.7,29.6-24c32-4.3,70.7-0.6,86.4,8.4
						c-2.6,1.6-52.4,32.4-58,33.1c0,0,0,0-0.1,0c0,0,0,0,0,0s0,0,0.1,0c0,0,0,0,0,0c5.6-0.8,55.4-31.5,58-33.1
						c11.6,6.6,7.4,14.1-8.3,19.4c-9.7,3.2-23.7,7.7-34,10.6c-4.2,1.2-7.2,2-10.1,2.6c-1.7,0.4-2.8,0.6-3.7,0.7c-0.3,0-0.9,0-1.1,0
						c-1.1,0-3.3-0.2-5.7-0.6c-2.7-0.5-7.8-1.9-7.8-1.9c-5-1.4-9-2.6-17.1-5.1C992.8,1741.7,984.9,1739.1,977.6,1736.7z"/>
				</defs>
				<clipPath id="SVGID_2_">
					<use xlink:href="#SVGID_1_"  style="overflow:visible;"/>
				</clipPath>
				<g class="st8">
					<path class="st9" d="M977.6,1736.7c41.9,14.1,47.9,14.1,50.5,14.1c5,0,28.4-7.1,48.6-13.8c16.1-5.4,20.2-12.9,8.7-19.5
						c-2.6,1.6-52.4,32.4-58,33.1c0,0,0,0,0,0c0,0-0.1,0-0.1,0s0,0,0,0c0,0,0.1,0,0.1,0c5.6-0.8,55.4-31.5,58-33.1
						c-15.7-8.9-54.4-12.7-86.4-8.4c-32,4.3-45.3,15-29.6,24C971.6,1734.4,974.4,1735.6,977.6,1736.7"/>
					<path class="st9" d="M1027.3,1750.6c5.6-0.8,55.4-31.5,58-33.1c-15-8.5-50.8-12.3-81.8-8.9c0,0,0,0,0,0c-2,1.1-2.6,3.8-5.2,4.2
						c-3,0.5-5.2-2-8-2.3c-25.7,4.9-35.3,14.5-21,22.6c2.3,1.3,5.1,2.5,8.3,3.6c0.2,0.1,0.5,0.2,0.7,0.2l0.6,0.2l1.6,0.5
						c0.6,0.2,1.4,0.5,2,0.7l2.4,0.8c0.8,0.3,1.9,0.6,2.8,0.9l3,1c1,0.3,2.3,0.7,3.2,1l3.4,1.1c1,0.3,2.4,0.8,3.5,1.1l3.5,1.1
						c1.1,0.3,2.5,0.7,3.5,1.1l3.4,1c1,0.3,2.3,0.7,3.3,0.9l2.9,0.8c0.9,0.2,2.1,0.5,3,0.8l0.9,0.2c4.8,1,7.1,0.8,7.7,0.8l1-0.2
						c1.5-0.3,1.9-0.3,3.8-0.8l2.5-0.6c1-0.3,2.4-0.6,3.4-0.9l3.2-0.9c1.1-0.3,2.5-0.7,3.6-1l3.5-1c1.1-0.3,2.5-0.8,3.6-1.1l3.5-1.1
						c1-0.3,2.4-0.8,3.4-1.1l3.2-1c0.9-0.3,2.1-0.7,3.1-1l2.7-0.9c0.7-0.2,1.7-0.6,2.4-0.8l2-0.7c0.5-0.2,1.1-0.4,1.6-0.5l1-0.3
						l0.3-0.1c15.8-5.2,19.9-12.8,8.3-19.4C1082.7,1719.1,1032.9,1749.9,1027.3,1750.6"/>
					<path class="st10" d="M1027.3,1750.6c5.6-0.8,55.4-31.5,58-33.1c-12.2-6.9-38.3-10.7-64.3-10.1c0,0,0,0,0,0
						c-0.6,2.1-0.6,2.1,0.3,29.5c0.1,3.5-0.1,4.7-1.9,5c-0.6,0.1-2.8-0.8-9.9-5.8c-10.8-7.4-19.7-17.4-32.2-22.3
						c-15.5,5.2-19.5,12.7-8,19.3c2.3,1.3,5.1,2.5,8.3,3.6c0.2,0.1,0.5,0.2,0.7,0.2l0.6,0.2l1.6,0.5c0.6,0.2,1.4,0.5,2,0.7l2.4,0.8
						c0.8,0.3,1.9,0.6,2.8,0.9l3,1c1,0.3,2.3,0.7,3.2,1l3.4,1.1c1,0.3,2.4,0.8,3.5,1.1l3.5,1.1c1.1,0.3,2.5,0.7,3.5,1.1l3.4,1
						c1,0.3,2.3,0.7,3.3,0.9l2.9,0.8c0.9,0.2,2.1,0.5,3,0.8l0.9,0.2c3.2,0.6,5.7,0.9,7.7,0.8l1-0.2c1.5-0.3,1.9-0.3,3.8-0.8l2.5-0.6
						c1-0.3,2.4-0.6,3.4-0.9l3.2-0.9c1.1-0.3,2.5-0.7,3.6-1l3.5-1c1.1-0.3,2.5-0.8,3.6-1.1l3.5-1.1c1-0.3,2.4-0.8,3.4-1.1l3.2-1
						c0.9-0.3,2.1-0.7,3.1-1l2.7-0.9c0.7-0.2,1.7-0.6,2.4-0.8l2-0.7c0.5-0.2,1.1-0.4,1.6-0.5l1-0.3l0.3-0.1
						c15.8-5.2,19.9-12.8,8.3-19.4C1082.7,1719.1,1032.9,1749.9,1027.3,1750.6"/>
					<path class="st11" d="M1027.3,1750.6c5.6-0.8,55.4-31.5,58-33.1c-10.6-6-31.7-9.7-54.2-10.1c0,0,0,0,0,0
						c-0.5,1.2-1.7,4.3-5.2,34c-0.2,1.3-0.6,5.2-1.3,5.7c-1.1,0.8-1.6,1.2-35.1-19.8c-16.1-10.1-17-10.6-18-11.1
						c-10.5,5-12.1,11.3-2.2,16.9c2.3,1.3,5.1,2.5,8.3,3.6c0.2,0.1,0.5,0.2,0.7,0.2l0.6,0.2l1.6,0.5c0.6,0.2,1.4,0.5,2,0.7l2.4,0.8
						c0.8,0.3,1.9,0.6,2.8,0.9l3,1c1,0.3,2.3,0.7,3.2,1l3.4,1.1c1,0.3,2.4,0.8,3.5,1.1l3.5,1.1c1.1,0.3,2.5,0.7,3.5,1.1l3.4,1
						c1,0.3,2.3,0.7,3.3,0.9l2.9,0.8c0.9,0.2,2.1,0.5,3,0.8l0.9,0.2c3.2,0.6,5.7,0.9,7.7,0.8l1-0.2c1.5-0.3,1.9-0.3,3.8-0.8l2.5-0.6
						c1-0.3,2.4-0.6,3.4-0.9l3.2-0.9c1.1-0.3,2.5-0.7,3.6-1l3.5-1c1.1-0.3,2.5-0.8,3.6-1.1l3.5-1.1c1-0.3,2.4-0.8,3.4-1.1l3.2-1
						c0.9-0.3,2.1-0.7,3.1-1l2.7-0.9c0.7-0.2,1.7-0.6,2.4-0.8l2-0.7c0.5-0.2,1.1-0.4,1.6-0.5l1-0.3l0.3-0.1
						c15.8-5.2,19.9-12.8,8.3-19.4C1082.7,1719.1,1032.9,1749.9,1027.3,1750.6"/>
					<path class="st12" d="M1027.3,1750.6c5.6-0.8,55.4-31.5,58-33.1c-9.3-5.3-26.7-8.8-46-9.8c0,0,0,0,0,0
						c-2.1,4.5-11,34.7-11.1,35c-1.8,6-2.1,6.1-2.5,6.1c-1.8,0.3-4.6-0.7-45.4-23.5c-11.6-6.5-11.8-6.6-12.7-7c-7,4.6-7,10,1.5,14.9
						c2.3,1.3,5.1,2.5,8.3,3.6c0.2,0.1,0.5,0.2,0.7,0.2l0.6,0.2l1.6,0.5c0.6,0.2,1.4,0.5,2,0.7l2.4,0.8c0.8,0.3,1.9,0.6,2.8,0.9l3,1
						c1,0.3,2.3,0.7,3.2,1l3.4,1.1c1,0.3,2.4,0.8,3.5,1.1l3.5,1.1c1.1,0.3,2.5,0.7,3.5,1.1l3.4,1c1,0.3,2.3,0.7,3.3,0.9l2.9,0.8
						c0.9,0.2,2.1,0.5,3,0.8l0.9,0.2c3.2,0.6,5.7,0.9,7.7,0.8l1-0.2c1.5-0.3,1.9-0.3,3.8-0.8l2.5-0.6c1-0.3,2.4-0.6,3.4-0.9l3.2-0.9
						c1.1-0.3,2.5-0.7,3.6-1l3.5-1c1.1-0.3,2.5-0.8,3.6-1.1l3.5-1.1c1-0.3,2.4-0.8,3.4-1.1l3.2-1c0.9-0.3,2.1-0.7,3.1-1l2.7-0.9
						c0.7-0.2,1.7-0.6,2.4-0.8l2-0.7c0.5-0.2,1.1-0.4,1.6-0.5l1-0.3l0.3-0.1c15.8-5.2,19.9-12.8,8.3-19.4
						C1082.7,1719.1,1032.9,1749.9,1027.3,1750.6"/>
					<path class="st13" d="M1027.3,1750.6c5.6-0.8,55.4-31.5,58-33.1c-8.1-4.6-22.5-7.9-38.8-9.3c-0.1,0.1-0.2,0.3-0.3,0.4
						c-1.4,2.8-3.7,7.5-11,23.4c-8,17.5-8,17.5-9.3,17.7c-2.4,0.3-29.6-13.5-53.1-25.6c-6.7-3.4-6.7-3.5-7.5-3.8
						c-4.4,4.1-3.4,8.7,4,12.9c2.3,1.3,5.1,2.5,8.3,3.6c0.2,0.1,0.5,0.2,0.7,0.2l0.6,0.2l1.6,0.5c0.6,0.2,1.4,0.5,2,0.7l2.4,0.8
						c0.8,0.3,1.9,0.6,2.8,0.9l3,1c1,0.3,2.3,0.7,3.2,1l3.4,1.1c1,0.3,2.4,0.8,3.5,1.1l3.5,1.1c1.1,0.3,2.5,0.7,3.5,1.1l3.4,1
						c1,0.3,2.3,0.7,3.3,0.9l2.9,0.8c0.9,0.2,2.1,0.5,3,0.8l0.9,0.2c3.2,0.6,5.7,0.9,7.7,0.8l1-0.2c1.5-0.3,1.9-0.3,3.8-0.8l2.5-0.6
						c1-0.3,2.4-0.6,3.4-0.9l3.2-0.9c1.1-0.3,2.5-0.7,3.6-1l3.5-1c1.1-0.3,2.5-0.8,3.6-1.1l3.5-1.1c1-0.3,2.4-0.8,3.4-1.1l3.2-1
						c0.9-0.3,2.1-0.7,3.1-1l2.7-0.9c0.7-0.2,1.7-0.6,2.4-0.8l2-0.7c0.5-0.2,1.1-0.4,1.6-0.5l1-0.3l0.3-0.1
						c15.8-5.2,19.9-12.8,8.3-19.4C1082.7,1719.1,1032.9,1749.9,1027.3,1750.6"/>
					<path class="st14" d="M1027.3,1750.6c5.6-0.8,55.4-31.5,58-33.1c-7-4-18.7-7-32.3-8.6c-0.1,0.1-0.2,0.3-0.3,0.4
						c-1.3,2.1-2.6,4.2-8.1,13.2c-16.1,26.4-16.9,27.3-17.9,27.5c-1.1,0.2-3.1-0.2-17.8-6.8c-15.2-6.7-29.9-14.4-45.1-21.2
						c-2.3,3.6-0.7,7.5,5.6,11.1c2.3,1.3,5.1,2.5,8.3,3.6c0.2,0.1,0.5,0.2,0.7,0.2l0.6,0.2l1.6,0.5c0.6,0.2,1.4,0.5,2,0.7l2.4,0.8
						c0.8,0.3,1.9,0.6,2.8,0.9l3,1c1,0.3,2.3,0.7,3.2,1l3.4,1.1c1,0.3,2.4,0.8,3.5,1.1l3.5,1.1c1.1,0.3,2.5,0.7,3.5,1.1l3.4,1
						c1,0.3,2.3,0.7,3.3,0.9l2.9,0.8c0.9,0.2,2.1,0.5,3,0.8l0.9,0.2c3.2,0.6,5.7,0.9,7.7,0.8l1-0.2c1.5-0.3,1.9-0.3,3.8-0.8l2.5-0.6
						c1-0.3,2.4-0.6,3.4-0.9l3.2-0.9c1.1-0.3,2.5-0.7,3.6-1l3.5-1c1.1-0.3,2.5-0.8,3.6-1.1l3.5-1.1c1-0.3,2.4-0.8,3.4-1.1l3.2-1
						c0.9-0.3,2.1-0.7,3.1-1l2.7-0.9c0.7-0.2,1.7-0.6,2.4-0.8l2-0.7c0.5-0.2,1.1-0.4,1.6-0.5l1-0.3l0.3-0.1
						c15.8-5.2,19.9-12.8,8.3-19.4C1082.7,1719.1,1032.9,1749.9,1027.3,1750.6"/>
					<path class="st15" d="M1027.3,1750.6c5.6-0.8,55.4-31.5,58-33.1c-6-3.4-15.4-6.1-26.4-7.8c0,0,0,0,0,0c-1.2,1.6-1.2,1.6-6.8,9
						c-22,29.2-24.2,31.4-25.2,31.6c-1.9,0.3-1.9,0.3-63.9-26.4c-0.8,3.1,1.2,6.3,6.4,9.3c2.3,1.3,5.1,2.5,8.3,3.6
						c0.2,0.1,0.5,0.2,0.7,0.2l0.6,0.2l1.6,0.5c0.6,0.2,1.4,0.5,2,0.7l2.4,0.8c0.8,0.3,1.9,0.6,2.8,0.9l3,1c1,0.3,2.3,0.7,3.2,1
						l3.4,1.1c1,0.3,2.4,0.8,3.5,1.1l3.5,1.1c1.1,0.3,2.5,0.7,3.5,1.1l3.4,1c1,0.3,2.3,0.7,3.3,0.9l2.9,0.8c0.9,0.2,2.1,0.5,3,0.8
						l0.9,0.2c3.2,0.6,5.7,0.9,7.7,0.8l1-0.2c1.5-0.3,1.9-0.3,3.8-0.8l2.5-0.6c1-0.3,2.4-0.6,3.4-0.9l3.2-0.9c1.1-0.3,2.5-0.7,3.6-1
						l3.5-1c1.1-0.3,2.5-0.8,3.6-1.1l3.5-1.1c1-0.3,2.4-0.8,3.4-1.1l3.2-1c0.9-0.3,2.1-0.7,3.1-1l2.7-0.9c0.7-0.2,1.7-0.6,2.4-0.8
						l2-0.7c0.5-0.2,1.1-0.4,1.6-0.5l1-0.3l0.3-0.1c15.8-5.2,19.9-12.8,8.3-19.4C1082.7,1719.1,1032.9,1749.9,1027.3,1750.6"/>
					<path class="st16" d="M1027.3,1750.6c5.6-0.8,55.4-31.5,58-33.1c-5-2.8-12.3-5.1-21-6.8c0,0,0,0,0,0
						c-36,39.5-36,39.5-37.7,39.7c-3.3,0.5-28.7-10.1-64-24.8c0.2,2.5,2.3,5.1,6.6,7.5c2.3,1.3,5.1,2.5,8.3,3.6
						c0.2,0.1,0.5,0.2,0.7,0.2l0.6,0.2l1.6,0.5c0.6,0.2,1.4,0.5,2,0.7l2.4,0.8c0.8,0.3,1.9,0.6,2.8,0.9l3,1c1,0.3,2.3,0.7,3.2,1
						l3.4,1.1c1,0.3,2.4,0.8,3.5,1.1l3.5,1.1c1.1,0.3,2.5,0.7,3.5,1.1l3.4,1c1,0.3,2.3,0.7,3.3,0.9l2.9,0.8c0.9,0.2,2.1,0.5,3,0.8
						l0.9,0.2c3.2,0.6,5.7,0.9,7.7,0.8l1-0.2c1.5-0.3,1.9-0.3,3.8-0.8l2.5-0.6c1-0.3,2.4-0.6,3.4-0.9l3.2-0.9c1.1-0.3,2.5-0.7,3.6-1
						l3.5-1c1.1-0.3,2.5-0.8,3.6-1.1l3.5-1.1c1-0.3,2.4-0.8,3.4-1.1l3.2-1c0.9-0.3,2.1-0.7,3.1-1l2.7-0.9c0.7-0.2,1.7-0.6,2.4-0.8
						l2-0.7c0.5-0.2,1.1-0.4,1.6-0.5l1-0.3l0.3-0.1c15.8-5.2,19.9-12.8,8.3-19.4C1082.7,1719.1,1032.9,1749.9,1027.3,1750.6"/>
					<path class="st17" d="M1027.3,1750.6c5.6-0.8,55.4-31.5,58-33.1c-4-2.3-9.5-4.2-16-5.8c0,0,0,0,0,0
						c-34.4,33.6-40.7,38.5-42.4,38.7c-4.4,0.7-49.9-17.5-63.8-23.1c0.9,1.9,2.9,3.9,6.1,5.7c2.3,1.3,5.1,2.5,8.3,3.6
						c0.2,0.1,0.5,0.2,0.7,0.2l0.6,0.2l1.6,0.5c0.6,0.2,1.4,0.5,2,0.7l2.4,0.8c0.8,0.3,1.9,0.6,2.8,0.9l3,1c1,0.3,2.3,0.7,3.2,1
						l3.4,1.1c1,0.3,2.4,0.8,3.5,1.1l3.5,1.1c1.1,0.3,2.5,0.7,3.5,1.1l3.4,1c1,0.3,2.3,0.7,3.3,0.9l2.9,0.8c0.9,0.2,2.1,0.5,3,0.8
						l0.9,0.2c3.2,0.6,5.7,0.9,7.7,0.8l1-0.2c1.5-0.3,1.9-0.3,3.8-0.8l2.5-0.6c1-0.3,2.4-0.6,3.4-0.9l3.2-0.9c1.1-0.3,2.5-0.7,3.6-1
						l3.5-1c1.1-0.3,2.5-0.8,3.6-1.1l3.5-1.1c1-0.3,2.4-0.8,3.4-1.1l3.2-1c0.9-0.3,2.1-0.7,3.1-1l2.7-0.9c0.7-0.2,1.7-0.6,2.4-0.8
						l2-0.7c0.5-0.2,1.1-0.4,1.6-0.5l1-0.3l0.3-0.1c15.8-5.2,19.9-12.8,8.3-19.4C1082.7,1719.1,1032.9,1749.9,1027.3,1750.6"/>
					<path class="st18" d="M1027.3,1750.6c5.6-0.8,55.4-31.5,58-33.1c-3-1.7-6.8-3.2-11.3-4.5c0,0,0,0,0,0
						c-0.4,0.4-42.2,36.9-47.2,37.6c-4.3,0.6-50-16.5-62.6-21.4c1.1,1.3,2.8,2.7,5,4c2.3,1.3,5.1,2.5,8.3,3.6
						c0.2,0.1,0.5,0.2,0.7,0.2l0.6,0.2l1.6,0.5c0.6,0.2,1.4,0.5,2,0.7l2.4,0.8c0.8,0.3,1.9,0.6,2.8,0.9l3,1c1,0.3,2.3,0.7,3.2,1
						l3.4,1.1c1,0.3,2.4,0.8,3.5,1.1l3.5,1.1c1.1,0.3,2.5,0.7,3.5,1.1l3.4,1c1,0.3,2.3,0.7,3.3,0.9l2.9,0.8c0.9,0.2,2.1,0.5,3,0.8
						l0.9,0.2c3.2,0.6,5.7,0.9,7.7,0.8l1-0.2c1.5-0.3,1.9-0.3,3.8-0.8l2.5-0.6c1-0.3,2.4-0.6,3.4-0.9l3.2-0.9c1.1-0.3,2.5-0.7,3.6-1
						l3.5-1c1.1-0.3,2.5-0.8,3.6-1.1l3.5-1.1c1-0.3,2.4-0.8,3.4-1.1l3.2-1c0.9-0.3,2.1-0.7,3.1-1l2.7-0.9c0.7-0.2,1.7-0.6,2.4-0.8
						l2-0.7c0.5-0.2,1.1-0.4,1.6-0.5l1-0.3l0.3-0.1c15.8-5.2,19.9-12.8,8.3-19.4C1082.7,1719.1,1032.9,1749.9,1027.3,1750.6"/>
					<path class="st19" d="M1027.3,1750.6c5.6-0.8,55.4-31.5,58-33.1c-2-1.1-4.3-2.2-7-3.1c0,0,0,0,0,0
						c-7.2,5.7-46.5,35.6-50.8,36.2c-6.1,0.9-60.9-19.4-61.5-19.6c0.9,0.7,2,1.5,3.2,2.2c2.3,1.3,5.1,2.5,8.3,3.6
						c0.2,0.1,0.5,0.2,0.7,0.2l0.6,0.2l1.6,0.5c0.6,0.2,1.4,0.5,2,0.7l2.4,0.8c0.8,0.3,1.9,0.6,2.8,0.9l3,1c1,0.3,2.3,0.7,3.2,1
						l3.4,1.1c1,0.3,2.4,0.8,3.5,1.1l3.5,1.1c1.1,0.3,2.5,0.7,3.5,1.1l3.4,1c1,0.3,2.3,0.7,3.3,0.9l2.9,0.8c0.9,0.2,2.1,0.5,3,0.8
						l0.9,0.2c3.2,0.6,5.7,0.9,7.7,0.8l1-0.2c1.5-0.3,1.9-0.3,3.8-0.8l2.5-0.6c1-0.3,2.4-0.6,3.4-0.9l3.2-0.9c1.1-0.3,2.5-0.7,3.6-1
						l3.5-1c1.1-0.3,2.5-0.8,3.6-1.1l3.5-1.1c1-0.3,2.4-0.8,3.4-1.1l3.2-1c0.9-0.3,2.1-0.7,3.1-1l2.7-0.9c0.7-0.2,1.7-0.6,2.4-0.8
						l2-0.7c0.5-0.2,1.1-0.4,1.6-0.5l1-0.3l0.3-0.1c15.8-5.2,19.9-12.8,8.3-19.4C1082.7,1719.1,1032.9,1749.9,1027.3,1750.6"/>
					<path class="st20" d="M1029.7,1749.8c-4.3,2-24.8-3.8-61-17.1c0.2,0.1,0.4,0.2,0.6,0.4c2.3,1.3,5.1,2.5,8.3,3.6
						c0.2,0.1,0.5,0.2,0.7,0.2l0.6,0.2l1.6,0.5c0.6,0.2,1.4,0.5,2,0.7l2.4,0.8c0.8,0.3,1.9,0.6,2.8,0.9l3,1c1,0.3,2.3,0.7,3.2,1
						l3.4,1.1c1,0.3,2.4,0.8,3.5,1.1l3.5,1.1c1.1,0.3,2.5,0.7,3.5,1.1l3.4,1c1,0.3,2.3,0.7,3.3,0.9l2.9,0.8c0.9,0.2,2.1,0.5,3,0.8
						l0.9,0.2c4.1,0.8,6.4,0.9,7.7,0.8l1-0.2c1.5-0.3,1.9-0.3,3.8-0.8l2.5-0.6c1-0.3,2.4-0.6,3.4-0.9l3.2-0.9c1.1-0.3,2.5-0.7,3.6-1
						l3.5-1c1.1-0.3,2.5-0.8,3.6-1.1l3.5-1.1c1-0.3,2.4-0.8,3.4-1.1l3.2-1c0.9-0.3,2.1-0.7,3.1-1l2.7-0.9c0.7-0.2,1.7-0.6,2.4-0.8
						l2-0.7c0.5-0.2,1.1-0.4,1.6-0.5l1-0.3l0.3-0.1c15.8-5.2,19.9-12.8,8.3-19.4C1082.9,1719,1041.1,1744.8,1029.7,1749.8"/>
					<path class="st21" d="M1085.3,1718.2c-9.7,6.2-52.1,31.7-57.6,32.5c-6.4,0.9-55.1-15.9-55.6-16.1c1.6,0.7,3.5,1.5,5.4,2.1
						c0,0,0,0,0,0c0.4,0.1,0.9,0.3,1.3,0.5l1.6,0.5c0.6,0.2,1.4,0.5,2,0.7l2.4,0.8c0.8,0.3,1.9,0.6,2.8,0.9l3,1c1,0.3,2.3,0.7,3.2,1
						l3.4,1.1c1,0.3,2.4,0.8,3.5,1.1l3.5,1.1c1.1,0.3,2.5,0.7,3.5,1.1l3.4,1c1,0.3,2.3,0.7,3.3,0.9l2.9,0.8c0.9,0.2,2.1,0.5,3,0.8
						l0.9,0.2c4.1,0.8,6.4,0.9,7.7,0.8l1-0.2c1.5-0.3,1.9-0.3,3.8-0.8l2.5-0.6c1-0.3,2.4-0.6,3.4-0.9l3.2-0.9c1.1-0.3,2.5-0.7,3.6-1
						l3.5-1c1.1-0.3,2.5-0.8,3.6-1.1l3.5-1.1c1-0.3,2.4-0.8,3.4-1.1l3.2-1c0.9-0.3,2.1-0.7,3.1-1l2.7-0.9c0.7-0.2,1.7-0.6,2.4-0.8
						l2-0.7c0.5-0.2,1.1-0.4,1.6-0.5l1-0.3l0.3-0.1c15.5-5.2,19.8-12.6,8.9-19.1c0,0,0,0,0,0
						C1085.7,1717.9,1085.4,1718.1,1085.3,1718.2"/>
					<path class="st22" d="M1088.3,1720.3c-2,1.3-53.1,29.4-60.8,30.5c-5.6,0.8-48.7-13.7-50.6-14.4c0.2,0.1,0.5,0.2,0.7,0.3
						c0,0,0,0,0,0c0.4,0.1,0.9,0.3,1.3,0.5l1.6,0.5c0.6,0.2,1.4,0.5,2,0.7l2.4,0.8c0.8,0.3,1.9,0.6,2.8,0.9l3,1c1,0.3,2.3,0.7,3.2,1
						l3.4,1.1c1,0.3,2.4,0.8,3.5,1.1l3.5,1.1c1.1,0.3,2.5,0.7,3.5,1.1l3.4,1c1,0.3,2.3,0.7,3.3,0.9l2.9,0.8c0.9,0.2,2.1,0.5,3,0.8
						l0.9,0.2c4.1,0.8,6.4,0.9,7.7,0.8l1-0.2c1.5-0.3,1.9-0.3,3.8-0.8l2.5-0.6c1-0.3,2.4-0.6,3.4-0.9l3.2-0.9c1.1-0.3,2.5-0.7,3.6-1
						l3.5-1c1.1-0.3,2.5-0.8,3.6-1.1l3.5-1.1c1-0.3,2.4-0.8,3.4-1.1l3.2-1c0.9-0.3,2.1-0.7,3.1-1l2.7-0.9c0.7-0.2,1.7-0.6,2.4-0.8
						l2-0.7c0.5-0.2,1.1-0.4,1.6-0.5l1-0.3l0.3-0.1c13.9-4.6,18.7-11,11.9-16.9c0,0,0,0,0,0
						C1088.7,1720.1,1088.4,1720.2,1088.3,1720.3"/>
					<path class="st23" d="M1090.4,1722.8c-2.7,1.5-38.1,18.9-53.7,25.1c-9.1,3.6-9.1,3.6-15.4,2.1l0.9,0.2c4.1,0.7,6.2,0.7,7,0.6
						l1-0.2c1.5-0.3,1.9-0.3,3.8-0.8l2.5-0.6c1-0.3,2.4-0.6,3.4-0.9l3.2-0.9c1.1-0.3,2.5-0.7,3.6-1l3.5-1c1.1-0.3,2.5-0.8,3.6-1.1
						l3.5-1.1c1-0.3,2.4-0.8,3.4-1.1l3.2-1c0.9-0.3,2.1-0.7,3.1-1l2.7-0.9c0.7-0.2,1.7-0.6,2.4-0.8l2-0.7c0.5-0.2,1.1-0.4,1.6-0.5
						l1-0.3l0.3-0.1c12-4,17.2-9.3,14-14.5c0,0,0,0,0,0C1090.8,1722.5,1090.6,1722.7,1090.4,1722.8"/>
					<path class="st24" d="M1091.3,1725.8c-0.5,0.3-56.5,26.8-67.4,24.6l0.7,0.1c0.8,0.1,3.1,0.4,4.5,0.2l1-0.2
						c1.5-0.3,1.9-0.3,3.8-0.8l2.5-0.6c1-0.3,2.4-0.6,3.4-0.9l3.2-0.9c1.1-0.3,2.5-0.7,3.6-1l3.5-1c1.1-0.3,2.5-0.8,3.6-1.1l3.5-1.1
						c1-0.3,2.4-0.8,3.4-1.1l3.2-1c0.9-0.3,2.1-0.7,3.1-1l2.7-0.9c0.7-0.2,1.7-0.6,2.4-0.8l2-0.7c0.5-0.2,1.1-0.4,1.6-0.5l1-0.3
						l0.3-0.1c9.6-3.2,14.9-7.2,15-11.4c0,0,0,0,0,0C1091.7,1725.6,1091.5,1725.7,1091.3,1725.8"/>
					<path class="st25" d="M1089.5,1729.8c-2.2,1-54.8,21.4-61.7,21l0.4,0c0.2,0,0.6,0,1,0l1-0.2c1.5-0.3,1.9-0.3,3.8-0.8l2.5-0.6
						c1-0.3,2.4-0.6,3.4-0.9l3.2-0.9c1.1-0.3,2.5-0.7,3.6-1l3.5-1c1.1-0.3,2.5-0.8,3.6-1.1l3.5-1.1c1-0.3,2.4-0.8,3.4-1.1l3.2-1
						c0.9-0.3,2.1-0.7,3.1-1l2.7-0.9c0.7-0.2,1.7-0.6,2.4-0.8l2-0.7c0.5-0.2,1.1-0.4,1.6-0.5l1-0.3l0.3-0.1c6.5-2.1,11-4.7,13.2-7.4
						c0,0,0,0,0,0C1090,1729.6,1089.7,1729.7,1089.5,1729.8"/>
					<path class="st26" d="M1078.4,1736.4c-0.1,0-6.4,2.2-16.5,5.4l3.2-1l1.8-0.6l2.7-0.9c0.7-0.2,1.7-0.6,2.4-0.8l2-0.7
						c0.5-0.2,1.1-0.4,1.6-0.5l1-0.3l0.3-0.1c0.8-0.3,1.5-0.5,2.3-0.8c0,0,0,0,0,0C1079,1736.2,1078.6,1736.3,1078.4,1736.4"/>
					<path class="st20" d="M1081.8,1716.4c-0.4,0.3-38.3,26.6-52.1,33.5c11.5-5,53.2-30.8,55.6-32.3c-0.9-0.5-1.9-1-3-1.5
						C1082.1,1716.1,1081.9,1716.3,1081.8,1716.4"/>
				</g>
			</g>
			<g class="st0">
				<defs>
					<path id="SVGID_3_" class="st0" d="M964.7,650.2c0-6.6,13.3-13,36.2-16.1c32-4.3,70.7-0.6,86.4,8.4l-2,1075
						c-15.7-8.9-54.4-12.7-86.4-8.4c-22.9,3.1-36.2,9.4-36.2,16.1C963.3,1402.7,964.1,972.7,964.7,650.2z"/>
				</defs>
				<clipPath id="SVGID_4_">
					<use xlink:href="#SVGID_3_"  style="overflow:visible;"/>
				</clipPath>
				<g class="st27">
					<path class="st26" d="M1085.3,1717.5l2-1075c-2.7-1.5-6.1-2.9-10-4.1l-2,1075C1079.2,1714.6,1082.6,1716,1085.3,1717.5"/>
					<path class="st25" d="M1075.3,1713.4l2-1075c-1.5-0.5-3.1-0.9-4.8-1.3l-2,1075C1072.1,1712.5,1073.7,1712.9,1075.3,1713.4"/>
					<path class="st24" d="M1070.5,1712l2-1075c-1.3-0.3-2.7-0.7-4.1-1l-2,1075C1067.7,1711.4,1069.1,1711.7,1070.5,1712"/>
					<path class="st23" d="M1066.3,1711.1l2-1075c-1.2-0.3-2.5-0.5-3.8-0.8l-2,1075C1063.8,1710.6,1065.1,1710.8,1066.3,1711.1"/>
					<path class="st22" d="M1062.5,1710.3l2-1075c-1.2-0.2-2.4-0.4-3.7-0.6l-2,1075C1060.1,1709.9,1061.3,1710.1,1062.5,1710.3"/>
					<path class="st21" d="M1058.8,1709.7l2-1075c-1.2-0.2-2.4-0.4-3.6-0.5l-2,1075C1056.5,1709.4,1057.7,1709.5,1058.8,1709.7"/>
					<path class="st20" d="M1055.2,1709.2l2-1075c-1.2-0.2-2.4-0.3-3.6-0.4l-2,1075C1052.9,1708.9,1054.1,1709,1055.2,1709.2"/>
					<path class="st19" d="M1051.7,1708.7l2-1075c-1.2-0.1-2.4-0.3-3.6-0.4l-2,1075C1049.3,1708.5,1050.5,1708.6,1051.7,1708.7"/>
					<path class="st18" d="M1048.1,1708.4l2-1075c-1.2-0.1-2.4-0.2-3.6-0.3l-2,1075C1045.7,1708.1,1046.9,1708.3,1048.1,1708.4"/>
					<path class="st17" d="M1044.5,1708.1l2-1075c-1.2-0.1-2.4-0.2-3.6-0.3l-2,1075C1042.1,1707.9,1043.3,1708,1044.5,1708.1"/>
					<path class="st16" d="M1040.9,1707.8l2-1075c-1.2-0.1-2.4-0.1-3.6-0.2l-2,1075C1038.5,1707.7,1039.7,1707.7,1040.9,1707.8"/>
					<path class="st15" d="M1037.3,1707.6l2-1075c-1.2-0.1-2.4-0.1-3.6-0.1l-2,1075C1034.9,1707.5,1036.1,1707.5,1037.3,1707.6"/>
					<path class="st14" d="M1033.6,1707.5l2-1075c-1.2,0-2.4-0.1-3.6-0.1l-2,1075C1031.2,1707.4,1032.4,1707.4,1033.6,1707.5"/>
					<path class="st13" d="M1030,1707.4l2-1075c-1.2,0-2.5,0-3.7,0l-2,1075C1027.5,1707.4,1028.8,1707.4,1030,1707.4"/>
					<path class="st12" d="M1026.3,1707.4l2-1075c-1.3,0-2.5,0-3.8,0l-2,1075C1023.7,1707.4,1025,1707.4,1026.3,1707.4"/>
					<path class="st11" d="M1022.5,1707.4l2-1075c-1.4,0-2.7,0.1-4.1,0.1l-2,1075C1019.7,1707.5,1021.1,1707.4,1022.5,1707.4"/>
					<path class="st10" d="M1018.4,1707.5l2-1075c-1.7,0.1-3.4,0.1-5.1,0.2l-2,1075C1015,1707.7,1016.7,1707.6,1018.4,1707.5"/>
					<path class="st9" d="M1013.3,1707.8l2-1075c-4.9,0.3-9.8,0.8-14.5,1.4c-3.5,0.5-6.8,1-9.8,1.6l-2,1075c3-0.6,6.3-1.2,9.8-1.6
						C1003.6,1708.5,1008.4,1708.1,1013.3,1707.8"/>
					<path class="st10" d="M989,1710.8l2-1075c-2.2,0.5-4.4,0.9-6.3,1.5l-2,1075C984.7,1711.7,986.8,1711.2,989,1710.8"/>
					<path class="st11" d="M982.7,1712.3l2-1075c-1.5,0.4-2.9,0.8-4.3,1.2l-2,1075C979.7,1713.1,981.2,1712.6,982.7,1712.3"/>
					<path class="st12" d="M978.4,1713.5l2-1075c-1.1,0.4-2.2,0.7-3.2,1.1l-2,1075C976.2,1714.2,977.3,1713.9,978.4,1713.5"/>
					<path class="st13" d="M975.2,1714.6l2-1075c-0.9,0.3-1.8,0.7-2.6,1l-2,1075C973.4,1715.3,974.3,1714.9,975.2,1714.6"/>
					<path class="st14" d="M972.6,1715.7l2-1075c-0.7,0.3-1.5,0.7-2.1,1l-2,1075C971.2,1716.3,971.9,1716,972.6,1715.7"/>
					<path class="st15" d="M970.5,1716.7l2-1075c-0.6,0.3-1.2,0.7-1.8,1l-2,1075C969.3,1717.3,969.9,1717,970.5,1716.7"/>
					<path class="st16" d="M968.7,1717.7l2-1075c-0.5,0.3-1.1,0.7-1.5,1l-2,1075C967.6,1718.3,968.2,1718,968.7,1717.7"/>
					<path class="st17" d="M967.2,1718.6l2-1075c-0.5,0.3-0.9,0.7-1.3,1l-2,1075C966.3,1719.3,966.7,1719,967.2,1718.6"/>
					<path class="st18" d="M965.9,1719.6l2-1075c-0.4,0.3-0.7,0.7-1.1,1l-2,1075C965.1,1720.3,965.5,1720,965.9,1719.6"/>
					<path class="st19" d="M964.8,1720.6l2-1075c-0.3,0.3-0.6,0.7-0.9,1l-2,1075C964.2,1721.3,964.5,1721,964.8,1720.6"/>
					<path class="st20" d="M963.9,1721.7l2-1075c-0.3,0.4-0.5,0.7-0.7,1.1l-2,1075C963.5,1722.4,963.7,1722,963.9,1721.7"/>
					<path class="st21" d="M963.3,1722.7l2-1075c-0.2,0.4-0.3,0.7-0.4,1.1l-2,1075C963,1723.5,963.1,1723.1,963.3,1722.7"/>
					<path class="st22" d="M962.9,1723.9l2-1075c-0.1,0.4-0.2,0.8-0.2,1.2l-2,1075C962.7,1724.6,962.7,1724.2,962.9,1723.9"/>
					<path class="st23" d="M962.7,1725l2-1075c0,0.1,0,0.1,0,0.2l-2,1075C962.7,1725.2,962.7,1725.1,962.7,1725"/>
				</g>
			</g>
			<g class="st0">
				<defs>
					<path id="SVGID_5_" class="st0" d="M1029.3,661l-2,1089.6c0,0,0,0,0,0L1029.3,661z"/>
				</defs>
				<clipPath id="SVGID_6_">
					<use xlink:href="#SVGID_5_"  style="overflow:visible;"/>
				</clipPath>
				<g class="st28">
					<path class="st26" d="M1029.3,661l-2,1089.6c0,0,0,0,0,0L1029.3,661"/>
				</g>
			</g>
			<g class="st0">
				<defs>
					<path id="SVGID_7_" class="st0" d="M1027.2,1750.7l2.1-1089.6l-2,1089.6C1027.3,1750.6,1027.2,1750.6,1027.2,1750.7
						C1027.2,1750.6,1027.2,1750.7,1027.2,1750.7z"/>
				</defs>
				<clipPath id="SVGID_8_">
					<use xlink:href="#SVGID_7_"  style="overflow:visible;"/>
				</clipPath>
				<g class="st29">
					<polyline class="st26" points="1029.3,661 1027.3,1750.6 1027.3,1750.6 1029.3,661 					"/>
					<polyline class="st25" points="1029.3,661 1027.3,1750.6 1027.3,1750.6 1029.3,661 					"/>
					<polyline class="st24" points="1029.3,661 1027.3,1750.6 1027.3,1750.6 1029.3,661 					"/>
					<polyline class="st23" points="1029.3,661 1027.3,1750.6 1027.3,1750.6 1029.3,661 					"/>
					<polyline class="st22" points="1029.3,661 1027.3,1750.6 1027.3,1750.6 1029.3,661 					"/>
					<polyline class="st21" points="1029.3,661 1027.3,1750.6 1027.3,1750.6 1029.3,661 					"/>
					<polyline class="st20" points="1029.3,661 1027.3,1750.6 1027.3,1750.6 1029.3,661 					"/>
					<polyline class="st19" points="1029.3,661 1027.3,1750.6 1027.3,1750.6 1029.3,661 					"/>
					<polyline class="st18" points="1029.3,661 1027.3,1750.6 1027.2,1750.6 1029.3,661 					"/>
					<polyline class="st17" points="1029.3,661 1027.2,1750.6 1027.2,1750.6 1029.3,661 					"/>
					<polyline class="st16" points="1029.3,661 1027.2,1750.6 1027.2,1750.6 1029.3,661 					"/>
					<polyline class="st15" points="1029.3,661 1027.2,1750.6 1027.2,1750.6 1029.3,661 					"/>
					<polyline class="st14" points="1029.3,661 1027.2,1750.6 1027.2,1750.6 1029.3,661 					"/>
					<polyline class="st13" points="1029.3,661 1027.2,1750.6 1027.2,1750.6 1029.3,661 					"/>
					<polyline class="st12" points="1029.3,661 1027.2,1750.6 1027.2,1750.6 1029.3,661 1029.3,661 					"/>
					<polyline class="st11" points="1029.3,661 1027.2,1750.6 1027.2,1750.6 1029.3,661 					"/>
					<polyline class="st10" points="1029.3,661 1027.2,1750.6 1027.2,1750.6 1029.3,661 					"/>
					<path class="st9" d="M1029.3,661l-2,1089.6c0,0,0,0,0,0c0,0,0,0,0,0L1029.3,661"/>
					<polyline class="st10" points="1029.3,661 1027.2,1750.6 1027.2,1750.6 1029.3,661 					"/>
					<polyline class="st11" points="1029.3,661 1027.2,1750.6 1027.2,1750.6 1029.3,661 					"/>
					<polyline class="st12" points="1029.3,661 1027.2,1750.6 1027.2,1750.6 1029.3,661 					"/>
					<polyline class="st13" points="1029.3,661 1027.2,1750.6 1027.2,1750.6 1029.3,661 					"/>
					<polyline class="st14" points="1029.3,661 1027.2,1750.6 1027.2,1750.6 1029.3,661 					"/>
					<polyline class="st15" points="1029.3,661 1027.2,1750.6 1027.2,1750.6 1029.3,661 					"/>
					<polyline class="st16" points="1029.3,661 1027.2,1750.6 1027.2,1750.7 1029.3,661 					"/>
					<polyline class="st17" points="1029.3,661 1027.2,1750.7 1027.2,1750.7 1029.3,661 					"/>
					<polyline class="st18" points="1029.3,661 1027.2,1750.7 1027.2,1750.7 1029.3,661 					"/>
					<polyline class="st19" points="1029.3,661 1027.2,1750.7 1027.2,1750.7 1029.3,661 					"/>
					<polyline class="st20" points="1029.3,661 1027.2,1750.7 1027.2,1750.7 1029.3,661 					"/>
					<polyline class="st21" points="1029.3,661 1027.2,1750.7 1027.2,1750.7 1029.3,661 					"/>
					<polyline class="st22" points="1029.3,661 1027.2,1750.7 1027.2,1750.7 1029.3,661 					"/>
					<polyline class="st23" points="1029.3,661 1027.2,1750.7 1027.2,1750.7 1029.3,661 					"/>
				</g>
			</g>
			<g class="st0">
				<defs>
					<path id="SVGID_9_" class="st0" d="M1029.3,661l-2,1089.6c0,0,0,0,0,0c0,0-0.1,0-0.1,0c0,0,0,0,0,0
						C1027.8,1423.8,1028.6,987.9,1029.3,661z"/>
				</defs>
				<clipPath id="SVGID_10_">
					<use xlink:href="#SVGID_9_"  style="overflow:visible;"/>
				</clipPath>
				<g class="st30">
					<path class="st26" d="M1029.3,661l-2.1,1089.6c0,0,0,0,0,0c0,0,0,0,0,0L1029.3,661"/>
					<polyline class="st25" points="1029.3,661 1027.2,1750.7 1027.2,1750.7 1029.3,661 					"/>
					<polyline class="st24" points="1029.3,661 1027.2,1750.7 1027.2,1750.7 1029.3,661 					"/>
					<polyline class="st23" points="1029.3,661 1027.2,1750.7 1027.2,1750.7 1029.3,661 					"/>
					<polyline class="st22" points="1029.3,661 1027.2,1750.7 1027.2,1750.7 1029.3,661 					"/>
					<polyline class="st21" points="1029.3,661 1027.2,1750.7 1027.2,1750.7 1029.3,661 					"/>
					<polyline class="st20" points="1029.3,661 1027.2,1750.7 1027.2,1750.7 1029.3,661 					"/>
					<polyline class="st19" points="1029.3,661 1027.2,1750.7 1027.2,1750.7 1029.3,661 					"/>
					<polyline class="st18" points="1029.3,661 1027.2,1750.7 1027.2,1750.7 1029.3,661 					"/>
					<polyline class="st17" points="1029.3,661 1027.2,1750.7 1027.2,1750.7 1029.3,661 					"/>
					<polyline class="st16" points="1029.3,661 1027.2,1750.7 1027.2,1750.7 1029.3,661 					"/>
					<polyline class="st15" points="1029.3,661 1027.2,1750.7 1027.2,1750.7 1029.3,661 					"/>
					<polyline class="st14" points="1029.3,661 1027.2,1750.7 1027.2,1750.7 1029.3,661 					"/>
					<polyline class="st13" points="1029.3,661 1027.2,1750.7 1027.2,1750.7 1029.3,661 					"/>
					<polyline class="st12" points="1029.3,661 1027.2,1750.7 1027.2,1750.7 1029.3,661 					"/>
					<polyline class="st11" points="1029.3,661 1027.2,1750.7 1027.2,1750.7 1029.3,661 					"/>
					<polyline class="st10" points="1029.3,661 1027.2,1750.7 1027.2,1750.7 1029.3,661 					"/>
					<path class="st9" d="M1029.3,661l-2,1089.6c0,0,0,0,0,0c0,0,0,0,0,0L1029.3,661"/>
					<polyline class="st10" points="1029.3,661 1027.3,1750.7 1027.3,1750.7 1029.3,661 					"/>
					<polyline class="st11" points="1029.3,661 1027.3,1750.7 1027.3,1750.7 1029.3,661 					"/>
					<polyline class="st12" points="1029.3,661 1027.3,1750.7 1027.3,1750.7 1029.3,661 					"/>
					<polyline class="st13" points="1029.3,661 1027.3,1750.7 1027.3,1750.7 1029.3,661 					"/>
					<polyline class="st14" points="1029.3,661 1027.3,1750.7 1027.3,1750.7 1029.3,661 					"/>
					<polyline class="st15" points="1029.3,661 1027.3,1750.7 1027.3,1750.7 1029.3,661 					"/>
					<polyline class="st16" points="1029.3,661 1027.3,1750.7 1027.3,1750.7 1029.3,661 					"/>
					<polyline class="st17" points="1029.3,661 1027.3,1750.7 1027.3,1750.7 1029.3,661 					"/>
					<polyline class="st18" points="1029.3,661 1027.3,1750.7 1027.3,1750.7 1029.3,661 					"/>
					<polyline class="st19" points="1029.3,661 1027.3,1750.7 1027.3,1750.7 1029.3,661 					"/>
					<polyline class="st20" points="1029.3,661 1027.3,1750.7 1027.3,1750.7 1029.3,661 					"/>
					<polyline class="st21" points="1029.3,661 1027.3,1750.7 1027.3,1750.7 1029.3,661 					"/>
					<polyline class="st22" points="1029.3,661 1027.3,1750.7 1027.3,1750.7 1029.3,661 					"/>
					<polyline class="st23" points="1029.3,661 1027.3,1750.7 1027.3,1750.7 1029.3,661 					"/>
				</g>
			</g>
			<g class="st0">
				<defs>
					<path id="SVGID_11_" class="st0" d="M1029.2,1750.8c-0.7,0.1-2.8,0.1-6.1-0.4c-0.8-0.1-2.5-0.4-7.8-1.9
						c-13.4-3.7-32.3-9.9-37.7-11.8c18.6,6.3,50.8,8.4,78.1,4.8c8.4-1.1,15.6-2.7,21.2-4.6c0,0,0,0,0,0
						C1059.4,1742.7,1036.3,1749.9,1029.2,1750.8z"/>
				</defs>
				<clipPath id="SVGID_12_">
					<use xlink:href="#SVGID_11_"  style="overflow:visible;"/>
				</clipPath>
				<g class="st31">
					<path class="st2" d="M1029.2,1750.8c-2.6,0.3-7.3,0.8-51.2-13.9c18.3,6.2,50.5,8.3,77.8,4.7c8.4-1.1,15.6-2.7,21.2-4.6
						C1058.5,1743,1036.3,1749.9,1029.2,1750.8"/>
				</g>
			</g>
			<g class="st0">
				<defs>
					<path id="SVGID_13_" class="st0" d="M1091.9,1725.4c0-2.7-2.1-5.4-6.6-7.9l2-1075c4.5,2.6,6.6,5.3,6.6,7.9
						C1093.3,972.9,1092.5,1402.9,1091.9,1725.4z"/>
				</defs>
				<clipPath id="SVGID_14_">
					<use xlink:href="#SVGID_13_"  style="overflow:visible;"/>
				</clipPath>
				<g class="st32">
					<path class="st26" d="M1091.9,1725.4l2-1075c0-2.7-2.1-5.4-6.6-7.9l-2,1075C1089.8,1720.1,1091.9,1722.8,1091.9,1725.4"/>
				</g>
			</g>
			<g class="st0">
				<defs>
					<path id="SVGID_15_" class="st0" d="M1087.3,642.5l-58,18.5L1087.3,642.5c15.7,8.9,2.5,19.7-29.6,24c-32,4.3-70.7,0.6-86.4-8.4
						c-15.7-8.9-2.5-19.7,29.6-24S1071.6,633.6,1087.3,642.5z"/>
				</defs>
				<clipPath id="SVGID_16_">
					<use xlink:href="#SVGID_15_"  style="overflow:visible;"/>
				</clipPath>
				<g class="st33">
					<path class="st19" d="M1087.3,642.5l-58,18.5l53.2-20.8C1084.3,640.9,1085.9,641.7,1087.3,642.5"/>
					<path class="st18" d="M1082.5,640.2l-53.2,20.8l42.6-24.2C1075.8,637.8,1079.4,639,1082.5,640.2"/>
					<path class="st17" d="M1071.8,636.9l-42.6,24.2l28.5-26.8C1062.8,634.9,1067.5,635.8,1071.8,636.9"/>
					<path class="st16" d="M1057.8,634.3l-28.5,26.8l9.6-28.5C1045.4,632.9,1051.8,633.4,1057.8,634.3"/>
					<path class="st15" d="M1038.8,632.6l-9.6,28.5l-58.5-18.4c6-3.6,16.3-6.6,30.1-8.5C1013.1,632.5,1026.3,632,1038.8,632.6"/>
					<path class="st16" d="M970.8,642.6l58.5,18.4l-64.1-13.1C966.1,646.1,967.9,644.3,970.8,642.6"/>
					<path class="st17" d="M965.2,647.9l64.1,13.1l-64-8.5C964.5,651,964.5,649.4,965.2,647.9"/>
					<path class="st18" d="M965.2,652.6l64,8.5l-59.9-4.1C967.3,655.5,965.9,654,965.2,652.6"/>
					<path class="st19" d="M969.3,656.9l59.9,4.1l-51.6,0c-2.4-0.9-4.5-1.9-6.3-2.9C970.6,657.7,969.9,657.3,969.3,656.9"/>
					<path class="st20" d="M977.6,661l51.6,0l-38.4,3.6C985.9,663.6,981.4,662.4,977.6,661"/>
					<path class="st21" d="M990.8,664.7l38.4-3.6l-16.6,6.6C1004.9,667,997.4,666,990.8,664.7"/>
					<path class="st22" d="M1012.7,667.6l16.6-6.6l61.2-4.9c-5.3,4.4-16.7,8.1-32.8,10.3C1043.2,668.4,1027.2,668.7,1012.7,667.6"/>
					<path class="st21" d="M1090.5,656.1l-61.2,4.9l64.6-11.5C1094.2,651.8,1093.1,654,1090.5,656.1"/>
					<path class="st20" d="M1093.8,649.5l-64.6,11.5l60.9-16.6C1092.3,646.1,1093.5,647.8,1093.8,649.5"/>
					<path class="st19" d="M1090.2,644.4l-60.9,16.6l58-18.5C1088.4,643.1,1089.3,643.8,1090.2,644.4"/>
				</g>
			</g>
			<g class="st0">
				<defs>
					<path id="SVGID_17_" class="st0" d="M962.7,1725.2l2-1075c0,2.7,2.1,5.4,6.6,7.9c15.7,8.9,54.4,12.7,86.4,8.4
						c22.9-3.1,36.2-9.4,36.2-16.1l-2,1075c0,6.6-13.3,13-36.2,16.1c-32,4.3-70.7,0.6-86.4-8.4
						C964.8,1730.6,962.7,1727.9,962.7,1725.2z"/>
				</defs>
				<clipPath id="SVGID_18_">
					<use xlink:href="#SVGID_17_"  style="overflow:visible;"/>
				</clipPath>
				<g class="st34">
					<path class="st26" d="M962.7,1725.2l2-1075c0,2.7,2.1,5.4,6.6,7.9c2.7,1.5,6.1,2.9,10,4.1l-2,1075c-3.9-1.2-7.3-2.6-10-4.1
						C964.8,1730.6,962.7,1727.9,962.7,1725.2"/>
					<path class="st25" d="M979.3,1737.2l2-1075c1.5,0.5,3.1,0.9,4.8,1.3l-2,1075C982.4,1738.2,980.8,1737.7,979.3,1737.2"/>
					<path class="st24" d="M984.1,1738.6l2-1075c1.3,0.3,2.7,0.7,4.1,1l-2,1075C986.8,1739.2,985.4,1738.9,984.1,1738.6"/>
					<path class="st23" d="M988.2,1739.5l2-1075c1.2,0.3,2.5,0.5,3.8,0.8l-2,1075C990.7,1740.1,989.5,1739.8,988.2,1739.5"/>
					<path class="st22" d="M992.1,1740.3l2-1075c1.2,0.2,2.4,0.4,3.7,0.6l-2,1075C994.5,1740.7,993.3,1740.5,992.1,1740.3"/>
					<path class="st21" d="M995.7,1740.9l2-1075c1.2,0.2,2.4,0.4,3.6,0.5l-2,1075C998.1,1741.3,996.9,1741.1,995.7,1740.9"/>
					<path class="st20" d="M999.3,1741.4l2-1075c1.2,0.2,2.4,0.3,3.6,0.4l-2,1075C1001.7,1741.7,1000.5,1741.6,999.3,1741.4"/>
					<path class="st19" d="M1002.9,1741.9l2-1075c1.2,0.1,2.4,0.3,3.6,0.4l-2,1075C1005.3,1742.1,1004.1,1742,1002.9,1741.9"/>
					<path class="st18" d="M1006.5,1742.3l2-1075c1.2,0.1,2.4,0.2,3.6,0.3l-2,1075C1008.8,1742.5,1007.6,1742.4,1006.5,1742.3"/>
					<path class="st17" d="M1010,1742.6l2-1075c1.2,0.1,2.4,0.2,3.6,0.3l-2,1075C1012.4,1742.8,1011.2,1742.7,1010,1742.6"/>
					<path class="st16" d="M1013.6,1742.8l2-1075c1.2,0.1,2.4,0.1,3.6,0.2l-2,1075C1016.1,1743,1014.8,1742.9,1013.6,1742.8"/>
					<path class="st15" d="M1017.3,1743l2-1075c1.2,0.1,2.4,0.1,3.6,0.1l-2,1075C1019.7,1743.1,1018.5,1743.1,1017.3,1743"/>
					<path class="st14" d="M1020.9,1743.2l2-1075c1.2,0,2.4,0.1,3.6,0.1l-2,1075C1023.4,1743.2,1022.1,1743.2,1020.9,1743.2"/>
					<path class="st13" d="M1024.6,1743.2l2-1075c1.2,0,2.5,0,3.7,0l-2,1075C1027,1743.3,1025.8,1743.3,1024.6,1743.2"/>
					<path class="st12" d="M1028.3,1743.3l2-1075c1.3,0,2.5,0,3.8,0l-2,1075C1030.8,1743.2,1029.5,1743.3,1028.3,1743.3"/>
					<path class="st11" d="M1032.1,1743.2l2-1075c1.4,0,2.7-0.1,4.1-0.1l-2,1075C1034.8,1743.2,1033.5,1743.2,1032.1,1743.2"/>
					<path class="st10" d="M1036.2,1743.1l2-1075c1.7-0.1,3.4-0.1,5.1-0.2l-2,1075C1039.6,1743,1037.9,1743,1036.2,1743.1"/>
					<path class="st9" d="M1041.2,1742.9l2-1075c4.9-0.3,9.8-0.8,14.5-1.4c3.5-0.5,6.8-1,9.8-1.6l-2,1075c-3,0.6-6.3,1.2-9.8,1.6
						C1051,1742.1,1046.2,1742.6,1041.2,1742.9"/>
					<path class="st10" d="M1065.5,1739.8l2-1075c2.2-0.5,4.4-0.9,6.3-1.5l-2,1075C1069.9,1738.9,1067.8,1739.4,1065.5,1739.8"/>
					<path class="st11" d="M1071.9,1738.4l2-1075c1.5-0.4,2.9-0.8,4.3-1.2l-2,1075C1074.8,1737.6,1073.4,1738,1071.9,1738.4"/>
					<path class="st12" d="M1076.2,1737.1l2-1075c1.1-0.4,2.2-0.7,3.2-1.1l-2,1075C1078.4,1736.4,1077.3,1736.8,1076.2,1737.1"/>
					<path class="st13" d="M1079.4,1736l2-1075c0.9-0.3,1.8-0.7,2.6-1l-2,1075C1081.1,1735.3,1080.3,1735.7,1079.4,1736"/>
					<path class="st14" d="M1081.9,1735l2-1075c0.7-0.3,1.5-0.7,2.1-1l-2,1075C1083.4,1734.3,1082.7,1734.6,1081.9,1735"/>
					<path class="st15" d="M1084.1,1734l2-1075c0.6-0.3,1.2-0.7,1.8-1l-2,1075C1085.3,1733.3,1084.7,1733.6,1084.1,1734"/>
					<path class="st16" d="M1085.9,1733l2-1075c0.5-0.3,1.1-0.7,1.5-1l-2,1075C1086.9,1732.3,1086.4,1732.7,1085.9,1733"/>
					<path class="st17" d="M1087.4,1732l2-1075c0.5-0.3,0.9-0.7,1.3-1l-2,1075C1088.3,1731.3,1087.9,1731.7,1087.4,1732"/>
					<path class="st18" d="M1088.7,1731l2-1075c0.4-0.3,0.7-0.7,1.1-1l-2,1075C1089.4,1730.3,1089.1,1730.7,1088.7,1731"/>
					<path class="st19" d="M1089.8,1730l2-1075c0.3-0.3,0.6-0.7,0.9-1l-2,1075C1090.4,1729.3,1090.1,1729.6,1089.8,1730"/>
					<path class="st20" d="M1090.6,1729l2-1075c0.3-0.4,0.5-0.7,0.7-1.1l-2,1075C1091.1,1728.2,1090.9,1728.6,1090.6,1729"/>
					<path class="st21" d="M1091.3,1727.9l2-1075c0.2-0.4,0.3-0.7,0.4-1.1l-2,1075C1091.6,1727.1,1091.5,1727.5,1091.3,1727.9"/>
					<path class="st22" d="M1091.7,1726.8l2-1075c0.1-0.4,0.2-0.8,0.2-1.2l-2,1075C1091.9,1726,1091.8,1726.4,1091.7,1726.8"/>
					<path class="st23" d="M1091.9,1725.6l2-1075c0-0.1,0-0.1,0-0.2l-2,1075C1091.9,1725.5,1091.9,1725.5,1091.9,1725.6"/>
				</g>
			</g>
		</g>
	</g>
</g>
<g>
	<g>
		<g>
			<g class="st0">
				<defs>
					
						<rect id="SVGID_19_" x="1072.6" y="499.4" transform="matrix(0.1402 -0.9901 0.9901 0.1402 369.9398 1674.2252)" class="st0" width="152.7" height="249.5"/>
				</defs>
				<clipPath id="SVGID_20_">
					<use xlink:href="#SVGID_19_"  style="overflow:visible;"/>
				</clipPath>
				<g class="st35">
					<g>
						<g>
							<g>
								<g>
									<defs>
										<path id="SVGID_21_" d="M1051.9,686.2l-6.4,0.2c-0.3,0-0.6,0-0.9,0l6.4-0.2C1051.4,686.2,1051.7,686.2,1051.9,686.2"/>
									</defs>
									<clipPath id="SVGID_22_">
										<use xlink:href="#SVGID_21_"  style="overflow:visible;"/>
									</clipPath>
									<path class="st36" d="M1051.4,686.2c-0.1,0-0.2,0-0.2,0l-6.4,0.2c0.3,0,0.6,0,0.9,0L1051.4,686.2 M1051.8,686.2
										c-0.1,0-0.2,0-0.3,0l-0.2,0C1051.5,686.2,1051.7,686.2,1051.8,686.2"/>
								</g>
								<polyline class="st2" points="1034.8,547.5 1033.8,547.6 1028.2,669.2 1029,674.8 1034.8,547.5 								"/>
								<g>
									<defs>
										<path id="SVGID_23_" d="M1261.5,567.5l15.7,11.7c-19.3-14.3-155-20-212.6-20.1l-15.7-11.7
											C1106.5,547.4,1242.3,553.1,1261.5,567.5"/>
									</defs>
									<clipPath id="SVGID_24_">
										<use xlink:href="#SVGID_23_"  style="overflow:visible;"/>
									</clipPath>
									<path class="st37" d="M1222.9,557.5c-49.8-7.1-132.3-10.1-174-10.1l15.7,11.7c41.6,0,124.2,3,173.9,10.1
										c4,0.6,7.8,1.2,11.4,1.8c0.1,0,0.2,0,0.3,0c0.1,0,0.2,0,0.3,0c0.2,0,0.3,0.1,0.5,0.1c0,0,0,0,0,0
										c9.1,1.6,16.5,3.5,21.4,5.5l-15.7-11.7C1249.8,562.1,1237.8,559.6,1222.9,557.5"/>
									<path class="st38" d="M1256.8,564.9l15.7,11.7c1.6,0.6,2.9,1.3,4,2l-15.6-11.6C1259.8,566.3,1258.4,565.6,1256.8,564.9"/>
									<path class="st39" d="M1260.9,567l15.6,11.6c0.3,0.2,0.5,0.3,0.8,0.5l-15.7-11.7C1261.3,567.3,1261.1,567.1,1260.9,567"/>
								</g>
								<g>
									<defs>
										<path id="SVGID_25_" d="M1067.8,564.6l-3.2-5.5c60.7,0.1,208.6,6.4,214.7,22.5l1,4
											C1275.5,571.4,1128.5,564.6,1067.8,564.6"/>
									</defs>
									<clipPath id="SVGID_26_">
										<use xlink:href="#SVGID_25_"  style="overflow:visible;"/>
									</clipPath>
									<path class="st40" d="M1079.8,559.2c-5.5-0.1-10.5-0.1-15.1-0.1l3.2,5.5c4.4,0,9.4,0,14.6,0.1c0.1,0,0.3,0,0.4,0
										L1079.8,559.2"/>
									<path class="st41" d="M1194.9,564.5c-14.8-1.2-30.4-2.2-45.8-3c-25.2-1.3-49.8-2-69.3-2.3l3.2,5.5c0.5,0,0.9,0,1.4,0
										c0.2,0,0.5,0,0.7,0c0,0,0,0,0,0c8,0.1,16.8,0.3,26.1,0.6c0.6,0,1.1,0,1.7,0.1c0,0,0.1,0,0.1,0c1.2,0,2.3,0.1,3.5,0.1
										c0,0,0,0,0,0c4.3,0.1,8.8,0.3,13.3,0.5c8,0.3,16.3,0.7,24.6,1.1c4.1,0.2,8.2,0.4,12.3,0.7c0,0,0,0,0.1,0
										c0.6,0,1.2,0.1,1.8,0.1c9.8,0.6,19.6,1.3,29,2L1194.9,564.5"/>
									<path class="st40" d="M1238.6,569.2c-12.8-1.8-27.8-3.4-43.7-4.7l2.5,5.5c17.3,1.4,33.4,3,46.8,4.9
										c5.2,0.7,10.1,1.5,14.4,2.4l-1.8-5C1251.4,571.1,1245.3,570.1,1238.6,569.2"/>
									<path class="st42" d="M1256.8,572.2l1.8,5c2.5,0.5,4.9,1,7,1.5c0,0,0.1,0,0.1,0c0,0,0.1,0,0.1,0c3.2,0.8,5.9,1.6,8.1,2.4
										l-1.4-4.6C1268.6,575,1263.3,573.6,1256.8,572.2"/>
									<path class="st43" d="M1272.5,576.6l1.4,4.6c1.4,0.5,2.6,1.1,3.6,1.6l-1.3-4.4C1275.2,577.8,1274,577.2,1272.5,576.6"/>
									<path class="st44" d="M1276.2,578.4l1.3,4.4c0.5,0.3,1,0.6,1.4,0.9l-1.2-4.3c0,0,0,0,0,0
										C1277.2,579.1,1276.8,578.8,1276.2,578.4"/>
									<path class="st45" d="M1277.7,579.5l1.2,4.3c0.2,0.1,0.3,0.3,0.5,0.4l-1.2-4.2c-0.1-0.1-0.2-0.2-0.4-0.4c0,0,0,0,0,0
										C1277.8,579.5,1277.7,579.5,1277.7,579.5C1277.7,579.5,1277.7,579.5,1277.7,579.5"/>
									<path class="st46" d="M1278.2,579.9l1.2,4.2c0.1,0.1,0.2,0.2,0.3,0.3c0,0,0.1,0.1,0.1,0.1l-1.1-4.2
										C1278.5,580.3,1278.3,580.1,1278.2,579.9"/>
									<path class="st47" d="M1278.6,580.4l1.1,4.2c0,0,0.1,0.1,0.1,0.1c0,0,0,0,0.1,0.1c0,0,0,0,0,0c0,0,0,0,0,0.1
										c0,0.1,0.1,0.1,0.1,0.2l-1.1-4.1C1278.9,580.7,1278.8,580.6,1278.6,580.4"/>
									<path class="st48" d="M1279,580.9l1.1,4.1c0.1,0.1,0.2,0.3,0.2,0.4l-1.1-4.1C1279.2,581.2,1279.1,581.1,1279,580.9"/>
									<polyline class="st49" points="1279.2,581.4 1280.3,585.5 1280.4,585.6 1279.3,581.6 1279.2,581.4 									"/>
								</g>
								<polyline class="st4" points="1034.8,547.5 1029,674.8 1044.7,686.4 1050.5,559.2 1034.8,547.5 								"/>
								<g>
									<defs>
										<path id="SVGID_27_" d="M1050.5,559.2l-15.7-11.7c3.9-0.1,8.7-0.1,14.1-0.1l15.7,11.7
											C1059.2,559,1054.4,559.1,1050.5,559.2"/>
									</defs>
									<clipPath id="SVGID_28_">
										<use xlink:href="#SVGID_27_"  style="overflow:visible;"/>
									</clipPath>
									<path class="st50" d="M1049,547.4c-5.5,0-10.2,0-14.1,0.1l15.7,11.7c3.9-0.1,8.7-0.1,14.1-0.1L1049,547.4"/>
								</g>
								<g>
									<defs>
										<path id="SVGID_29_" d="M1056.7,564.6l-6.2-5.5c3.9-0.1,8.7-0.1,14.1-0.1l3.2,5.5C1062.4,564.6,1057.6,564.6,1056.7,564.6
											"/>
									</defs>
									<clipPath id="SVGID_30_">
										<use xlink:href="#SVGID_29_"  style="overflow:visible;"/>
									</clipPath>
									<path class="st51" d="M1064.6,559c-5.5,0-10.2,0-14.1,0.1l6.2,5.5c0.9,0,5.7,0,11.1-0.1L1064.6,559"/>
								</g>
								<polyline class="st5" points="1050.5,559.2 1044.7,686.4 1051.1,686.2 1056.7,564.6 1050.5,559.2 								"/>
								<path class="st52" d="M1244.2,574.9c-20.7-2.9-48-5.2-75.8-6.9c-0.6,0-1.2-0.1-1.8-0.1c0,0,0,0-0.1,0
									c-4.1-0.2-8.2-0.5-12.3-0.7c-8.3-0.4-16.6-0.8-24.6-1.1c-4.5-0.2-8.9-0.3-13.3-0.5l0,0c-1.2,0-2.3-0.1-3.5-0.1
									c0,0-0.1,0-0.1,0c-0.6,0-1.1,0-1.7-0.1c-9.3-0.3-18.1-0.5-26.1-0.6c0,0,0,0,0,0c-0.2,0-0.5,0-0.7,0c-0.5,0-0.9,0-1.4,0
									c-0.2,0-0.3,0-0.4,0c-5.3-0.1-10.2-0.1-14.6-0.1c-5.4,0-10.2,0-11.1,0.1l-5.6,121.6c0.1,0,0.3,0,0.4,0c0.1,0,0.2,0,0.3,0
									c44.8-1.3,237.5-80.7,228.5-100.6c-0.1-0.3-0.2-0.5-0.4-0.8c0,0,0,0,0-0.1c0,0,0,0,0,0c0,0,0,0-0.1-0.1
									c-0.1-0.1-0.1-0.2-0.2-0.2c-0.1-0.1-0.2-0.2-0.3-0.3c-0.1-0.1-0.3-0.3-0.5-0.4c-0.4-0.3-0.8-0.6-1.4-0.9
									c-1-0.6-2.2-1.1-3.6-1.6c-2.2-0.8-4.9-1.6-8.1-2.4c0,0-0.1,0-0.1,0c0,0-0.1,0-0.1,0C1259.8,577.4,1252.5,576.1,1244.2,574.9
									"/>
							</g>
						</g>
					</g>
				</g>
			</g>
		</g>
	</g>
	<g>
		<g>
			<g class="st0">
				<g class="st0">
					<defs>
						<path id="SVGID_31_" class="st0" d="M682.4,1013.5l-32.9-4.1c0.4,0,0.7,0.1,1.1,0.1c4,0,8.8-2.6,13.3-8.5l32.9,4.1
							c-4.4,5.9-9.2,8.5-13.3,8.5C683.1,1013.6,682.8,1013.5,682.4,1013.5z"/>
					</defs>
					<clipPath id="SVGID_32_">
						<use xlink:href="#SVGID_31_"  style="overflow:visible;"/>
					</clipPath>
					<g class="st53">
						<path class="st54" d="M663.9,1001l32.9,4.1c-0.4,0.5-0.7,1-1.1,1.4l-32.9-4.1C663.1,1002,663.5,1001.5,663.9,1001"/>
						<path class="st55" d="M662.8,1002.5l32.9,4.1c-0.5,0.6-1.1,1.3-1.6,1.8l-32.9-4.1C661.7,1003.7,662.2,1003.1,662.8,1002.5"/>
						<path class="st56" d="M661.1,1004.3l32.9,4.1c-3.6,3.6-7.3,5.2-10.5,5.2c-0.4,0-0.8,0-1.1-0.1l-32.9-4.1
							c0.4,0,0.7,0.1,1.1,0.1C653.8,1009.5,657.5,1007.9,661.1,1004.3"/>
					</g>
				</g>
				<g>
					<polygon class="st57" points="871.4,776 904.3,780 696.8,1005.1 663.9,1001 					"/>
				</g>
				<g class="st0">
					<defs>
						<path id="SVGID_33_" class="st0" d="M1001.2,10.1l32.9,4.1c6.9,0.9,10.3,12.7,10.5,13.3l-32.9-4.1
							C1011.6,22.8,1008.1,10.9,1001.2,10.1z"/>
					</defs>
					<clipPath id="SVGID_34_">
						<use xlink:href="#SVGID_33_"  style="overflow:visible;"/>
					</clipPath>
					<g class="st58">
						<path class="st59" d="M1001.2,10.1l32.9,4.1c0.1,0,0.2,0,0.3,0l-32.9-4.1C1001.4,10.1,1001.3,10.1,1001.2,10.1"/>
						<path class="st60" d="M1001.5,10.1l32.9,4.1c0.2,0,0.4,0.1,0.6,0.1l-32.9-4.1C1001.9,10.2,1001.7,10.2,1001.5,10.1"/>
						<path class="st61" d="M1002.2,10.3l32.9,4.1c0.2,0.1,0.4,0.1,0.6,0.2l-32.9-4.1C1002.6,10.4,1002.4,10.3,1002.2,10.3"/>
						<path class="st62" d="M1002.7,10.5l32.9,4.1c0.2,0.1,0.4,0.2,0.6,0.2l-32.9-4.1C1003.1,10.6,1002.9,10.5,1002.7,10.5"/>
						<path class="st63" d="M1003.3,10.7l32.9,4.1c0.2,0.1,0.4,0.2,0.5,0.3l-32.9-4.1C1003.7,10.9,1003.5,10.8,1003.3,10.7"/>
						<path class="st64" d="M1003.8,11l32.9,4.1c0.2,0.1,0.3,0.2,0.5,0.3l-32.9-4.1C1004.2,11.2,1004,11.1,1003.8,11"/>
						<path class="st65" d="M1004.4,11.3l32.9,4.1c0.2,0.1,0.3,0.2,0.5,0.4l-32.9-4.1C1004.7,11.5,1004.5,11.4,1004.4,11.3"/>
						<path class="st66" d="M1004.9,11.7l32.9,4.1c0.2,0.1,0.3,0.3,0.5,0.4l-32.9-4.1C1005.2,11.9,1005.1,11.8,1004.9,11.7"/>
						<path class="st67" d="M1005.4,12.1l32.9,4.1c0.2,0.2,0.3,0.3,0.5,0.5l-32.9-4.1C1005.7,12.4,1005.6,12.2,1005.4,12.1"/>
						<path class="st68" d="M1005.9,12.6l32.9,4.1c0.2,0.2,0.4,0.4,0.5,0.5l-32.9-4.1C1006.2,12.9,1006.1,12.7,1005.9,12.6"/>
						<path class="st69" d="M1006.4,13.1l32.9,4.1c0.2,0.2,0.4,0.4,0.5,0.6l-32.9-4.1C1006.8,13.5,1006.6,13.3,1006.4,13.1"/>
						<path class="st70" d="M1006.9,13.7l32.9,4.1c0.2,0.2,0.4,0.5,0.5,0.7l-32.9-4.1C1007.3,14.2,1007.1,13.9,1006.9,13.7"/>
						<path class="st71" d="M1007.5,14.4l32.9,4.1c0.2,0.3,0.4,0.5,0.6,0.8l-32.9-4.1C1007.8,14.9,1007.7,14.7,1007.5,14.4"/>
						<path class="st72" d="M1008,15.2l32.9,4.1c0.2,0.3,0.4,0.6,0.6,0.9l-32.9-4.1C1008.4,15.8,1008.2,15.5,1008,15.2"/>
						<path class="st73" d="M1008.6,16.1l32.9,4.1c0.2,0.3,0.4,0.7,0.6,1l-32.9-4.1C1009,16.8,1008.8,16.4,1008.6,16.1"/>
						<path class="st74" d="M1009.2,17.1l32.9,4.1c0.2,0.4,0.4,0.8,0.6,1.2l-32.9-4.1C1009.6,17.9,1009.4,17.5,1009.2,17.1"/>
						<path class="st75" d="M1009.8,18.3l32.9,4.1c0.2,0.5,0.4,1,0.6,1.4l-32.9-4.1C1010.2,19.3,1010,18.8,1009.8,18.3"/>
						<path class="st76" d="M1010.4,19.7l32.9,4.1c0.2,0.6,0.4,1.1,0.6,1.5l-32.9-4.1C1010.9,20.8,1010.7,20.3,1010.4,19.7"/>
						<path class="st77" d="M1011,21.3l32.9,4.1c0.2,0.6,0.4,1.1,0.5,1.5l-32.9-4.1C1011.4,22.4,1011.3,21.9,1011,21.3"/>
						<path class="st78" d="M1011.6,22.8l32.9,4.1c0.1,0.3,0.2,0.5,0.2,0.6l-32.9-4.1C1011.7,23.3,1011.7,23.1,1011.6,22.8"/>
					</g>
				</g>
				<g class="st0">
					<defs>
						<path id="SVGID_35_" class="st0" d="M1011.7,23.4l32.9,4.1c3.8,12.1,0.7,27.1,0.6,29.2l-32.9-4.1
							C1012.4,50.5,1015.5,35.5,1011.7,23.4z"/>
					</defs>
					<clipPath id="SVGID_36_">
						<use xlink:href="#SVGID_35_"  style="overflow:visible;"/>
					</clipPath>
					<g class="st79">
						<path class="st78" d="M1011.7,23.4l32.9,4.1c0.1,0.5,0.3,0.9,0.4,1.4l-32.9-4.1C1012,24.3,1011.9,23.9,1011.7,23.4"/>
						<path class="st80" d="M1012.2,24.8l32.9,4.1c0.1,0.6,0.3,1.1,0.4,1.7l-32.9-4.1C1012.4,25.9,1012.3,25.4,1012.2,24.8"/>
						<path class="st81" d="M1012.6,26.5l32.9,4.1c0.1,0.6,0.2,1.2,0.3,1.7l-32.9-4.1C1012.8,27.6,1012.7,27,1012.6,26.5"/>
						<path class="st82" d="M1012.9,28.2l32.9,4.1c0.1,0.6,0.2,1.2,0.3,1.8l-32.9-4.1C1013.1,29.4,1013,28.8,1012.9,28.2"/>
						<path class="st83" d="M1013.2,30l32.9,4.1c0.1,0.7,0.2,1.4,0.2,2.1l-32.9-4.1C1013.3,31.4,1013.3,30.7,1013.2,30"/>
						<path class="st84" d="M1013.4,32.2l32.9,4.1c0.2,2.8,0.3,5.6,0.2,8.1l-32.9-4.1C1013.7,37.7,1013.6,35,1013.4,32.2"/>
						<path class="st83" d="M1013.6,40.3l32.9,4.1c0,0.7-0.1,1.4-0.1,2.1l-32.9-4.1C1013.5,41.7,1013.5,41,1013.6,40.3"/>
						<path class="st82" d="M1013.5,42.4l32.9,4.1c0,0.6-0.1,1.2-0.1,1.8l-32.9-4.1C1013.4,43.6,1013.4,43,1013.5,42.4"/>
						<path class="st81" d="M1013.3,44.2l32.9,4.1c-0.1,0.6-0.1,1.2-0.2,1.8l-32.9-4.1C1013.2,45.4,1013.3,44.8,1013.3,44.2"/>
						<path class="st80" d="M1013.1,46l32.9,4.1c-0.1,0.6-0.1,1.3-0.2,1.8l-32.9-4.1C1013,47.2,1013.1,46.6,1013.1,46"/>
						<path class="st78" d="M1012.9,47.8l32.9,4.1c-0.1,1-0.3,1.9-0.4,2.7l-32.9-4.1C1012.7,49.8,1012.8,48.8,1012.9,47.8"/>
						<path class="st77" d="M1012.6,50.5l32.9,4.1c0,0.2-0.1,0.4-0.1,0.5l-32.9-4.1C1012.5,50.9,1012.5,50.7,1012.6,50.5"/>
						<path class="st78" d="M1012.5,51l32.9,4.1c-0.1,0.4-0.1,0.7-0.1,1l-32.9-4.1C1012.4,51.8,1012.4,51.4,1012.5,51"/>
						<path class="st80" d="M1012.4,52l32.9,4.1c0,0.1,0,0.2,0,0.3l-32.9-4.1C1012.3,52.2,1012.3,52.1,1012.4,52"/>
						<path class="st81" d="M1012.3,52.3l32.9,4.1c0,0.1,0,0.1,0,0.1l-32.9-4.1C1012.3,52.4,1012.3,52.3,1012.3,52.3"/>
						<path class="st82" d="M1012.3,52.4l32.9,4.1c0,0,0,0.1,0,0.1l-32.9-4.1C1012.3,52.5,1012.3,52.5,1012.3,52.4"/>
						<path class="st83" d="M1012.3,52.6l32.9,4.1c0,0,0,0,0,0L1012.3,52.6C1012.3,52.6,1012.3,52.6,1012.3,52.6"/>
					</g>
				</g>
				<g>
					<polygon class="st85" points="945.1,670.9 978,674.9 904.3,780 871.4,776 					"/>
				</g>
				<g class="st0">
					<defs>
						<path id="SVGID_37_" class="st0" d="M1012.3,52.6l32.9,4.1c-3.6,23.4-8,117.8-14.5,268.9l-32.9-4.1
							C1004.3,170.4,1008.7,76,1012.3,52.6z"/>
					</defs>
					<clipPath id="SVGID_38_">
						<use xlink:href="#SVGID_37_"  style="overflow:visible;"/>
					</clipPath>
					<g class="st86">
						<path class="st77" d="M1012.3,52.6l32.9,4.1c-0.1,0.5-0.1,0.9-0.2,1.5l-32.9-4.1C1012.2,53.5,1012.2,53.1,1012.3,52.6"/>
						<path class="st78" d="M1012.1,54.1l32.9,4.1c-0.1,0.7-0.2,1.4-0.3,2.2l-32.9-4.1C1011.9,55.5,1012,54.7,1012.1,54.1"/>
						<path class="st80" d="M1011.8,56.3l32.9,4.1c-0.2,1.3-0.3,2.6-0.5,4.1l-32.9-4.1C1011.5,58.9,1011.6,57.5,1011.8,56.3"/>
						<path class="st81" d="M1011.3,60.4l32.9,4.1c-0.2,2.2-0.5,4.8-0.7,7.6l-32.9-4.1C1010.9,65.2,1011.1,62.6,1011.3,60.4"/>
						<path class="st82" d="M1010.6,68l32.9,4.1c-0.5,6.2-1.1,13.7-1.7,22.5l-32.9-4.1C1009.5,81.7,1010.1,74.1,1010.6,68"/>
						<path class="st83" d="M1008.9,90.5l32.9,4.1c-3,45-6.5,123.7-11.1,231.1l-32.9-4.1C1002.4,214.2,1006,135.5,1008.9,90.5"/>
					</g>
				</g>
				<g class="st0">
					<defs>
						<path id="SVGID_39_" class="st0" d="M988.7,680.2l-32.9-4.1c1,0.1,2.1,0.2,3.3,0.2l32.9,4.1
							C990.8,680.3,989.7,680.3,988.7,680.2z"/>
					</defs>
					<clipPath id="SVGID_40_">
						<use xlink:href="#SVGID_39_"  style="overflow:visible;"/>
					</clipPath>
					<g class="st87">
						<path class="st56" d="M959.1,676.3l32.9,4.1c-1.2,0-2.2,0-3.3-0.2l-32.9-4.1C956.8,676.2,957.9,676.3,959.1,676.3"/>
					</g>
				</g>
				<g>
					<polygon class="st88" points="997.8,321.5 1030.7,325.6 1013.2,572.3 980.3,568.2 					"/>
				</g>
				<g class="st0">
					<defs>
						<path id="SVGID_41_" class="st0" d="M973.3,668.3l32.9,4.1c-4.4,4.4-9.2,7.4-14.2,7.9l-32.9-4.1
							C964.1,675.7,968.9,672.8,973.3,668.3z"/>
					</defs>
					<clipPath id="SVGID_42_">
						<use xlink:href="#SVGID_41_"  style="overflow:visible;"/>
					</clipPath>
					<g class="st89">
						<path class="st56" d="M973.3,668.3l32.9,4.1c-4.4,4.4-9.2,7.4-14.2,7.9l-32.9-4.1C964.1,675.7,968.9,672.8,973.3,668.3"/>
					</g>
				</g>
				<g class="st0">
					<defs>
						<path id="SVGID_43_" class="st0" d="M980.3,568.2l32.9,4.1c1.8,1.8,3.4,3.9,4.8,6.4c5.4,9.2,8.5,22.9,7.9,38.8l-32.9-4.1
							c0.5-15.9-2.5-29.5-7.9-38.8C983.7,572.1,982.1,570,980.3,568.2z"/>
					</defs>
					<clipPath id="SVGID_44_">
						<use xlink:href="#SVGID_43_"  style="overflow:visible;"/>
					</clipPath>
					<g class="st90">
						<path class="st68" d="M980.3,568.2l32.9,4.1c0.3,0.3,0.5,0.5,0.8,0.8l-32.9-4.1C980.8,568.7,980.6,568.4,980.3,568.2"/>
						<path class="st69" d="M981.1,569l32.9,4.1c0.3,0.4,0.7,0.7,1,1.1l-32.9-4.1C981.7,569.7,981.4,569.3,981.1,569"/>
						<path class="st70" d="M982,570.1l32.9,4.1c0.3,0.4,0.7,0.8,1,1.3l-32.9-4.1C982.7,570.9,982.4,570.5,982,570.1"/>
						<path class="st71" d="M983,571.4l32.9,4.1c0.3,0.5,0.7,0.9,1,1.4l-32.9-4.1C983.7,572.3,983.4,571.8,983,571.4"/>
						<path class="st72" d="M984,572.8l32.9,4.1c0.3,0.5,0.7,1,1,1.6l-32.9-4.1C984.7,573.8,984.3,573.3,984,572.8"/>
						<path class="st73" d="M985,574.3l32.9,4.1c0.1,0.1,0.1,0.2,0.2,0.3c0.3,0.5,0.5,0.9,0.8,1.4l-32.9-4.1
							c-0.3-0.5-0.5-0.9-0.8-1.4C985.1,574.5,985,574.4,985,574.3"/>
						<path class="st74" d="M985.9,576l32.9,4.1c0.3,0.6,0.6,1.2,0.9,1.8l-32.9-4.1C986.5,577.2,986.2,576.6,985.9,576"/>
						<path class="st75" d="M986.9,577.8l32.9,4.1c0.3,0.7,0.6,1.3,0.9,2l-32.9-4.1C987.5,579.2,987.2,578.5,986.9,577.8"/>
						<path class="st76" d="M987.8,579.9l32.9,4.1c0.3,0.7,0.6,1.5,0.9,2.3l-32.9-4.1C988.4,581.4,988.1,580.6,987.8,579.9"/>
						<path class="st77" d="M988.7,582.2l32.9,4.1c0.3,0.9,0.6,1.7,0.9,2.6l-32.9-4.1C989.3,583.9,989,583,988.7,582.2"/>
						<path class="st78" d="M989.6,584.8l32.9,4.1c0.3,1,0.6,1.9,0.9,2.9l-32.9-4.1C990.2,586.7,989.9,585.8,989.6,584.8"/>
						<path class="st80" d="M990.5,587.7l32.9,4.1c0.3,1,0.5,2.1,0.8,3.2l-32.9-4.1C991,589.8,990.7,588.8,990.5,587.7"/>
						<path class="st81" d="M991.2,590.9l32.9,4.1c0.2,1.1,0.4,2.2,0.6,3.3l-32.9-4.1C991.7,593.1,991.5,592,991.2,590.9"/>
						<path class="st82" d="M991.9,594.2l32.9,4.1c0.2,1.1,0.4,2.2,0.5,3.3l-32.9-4.1C992.2,596.4,992,595.3,991.9,594.2"/>
						<path class="st83" d="M992.4,597.5l32.9,4.1c0.2,1.2,0.3,2.4,0.4,3.7l-32.9-4.1C992.7,599.9,992.5,598.7,992.4,597.5"/>
						<path class="st84" d="M992.8,601.2l32.9,4.1c0.3,3.9,0.5,7.9,0.3,12.2l-32.9-4.1C993.2,609.1,993.1,605.1,992.8,601.2"/>
					</g>
				</g>
				<g>
					<polygon class="st91" points="993.1,613.3 1026,617.4 1067.7,652.9 1034.8,648.9 					"/>
				</g>
				<g>
					<polygon class="st91" points="1034.8,648.9 1067.7,652.9 1096.8,677.7 1063.9,673.6 					"/>
				</g>
				<g class="st0">
					<defs>
						<path id="SVGID_45_" class="st0" d="M1238.2,946.2l-32.9-4.1c0.5,0.1,0.9,0.1,1.4,0.1l32.9,4.1
							C1239.1,946.3,1238.7,946.3,1238.2,946.2z"/>
					</defs>
					<clipPath id="SVGID_46_">
						<use xlink:href="#SVGID_45_"  style="overflow:visible;"/>
					</clipPath>
					<g class="st92">
						<path class="st56" d="M1206.7,942.3l32.9,4.1c-0.5,0-1,0-1.4-0.1l-32.9-4.1C1205.8,942.2,1206.2,942.3,1206.7,942.3"/>
					</g>
				</g>
				<g>
					<polygon class="st93" points="1063.9,673.6 1096.8,677.7 1249.1,899.3 1216.2,895.3 					"/>
				</g>
				<g>
					<path class="st94" d="M1000.2,10c7.6-0.3,11.4,12.7,11.6,13.4c3.8,12.1,0.7,27.1,0.6,29.2c-3.6,23.4-8,117.8-14.5,268.9
						l-17.5,246.6c1.8,1.8,3.4,3.9,4.8,6.4c5.4,9.2,8.5,22.9,7.9,38.8l41.7,35.5l29.1,24.8l152.3,221.6c6.2,9.8,8.7,24.1,4.7,35
						c-4,10.9-13.7,11.9-14.2,12c-8.3,0.1-13-9.1-14-11c-0.9,0.5-32.3-42.4-112.7-129.8L973.3,668.3c-4.4,4.4-9.2,7.4-14.2,7.9
						c-6.2,0.1-10.4-2-14-5.4L871.4,776L663.9,1001c-4.4,5.9-9.2,8.5-13.3,8.5c-3.8,0-6.8-2.2-8.2-6.1c-3.9-10,1.3-26.5,1.6-27.3
						c4.2-15.1,12.4-20.1,13.7-22.4c-1.7,0.4,40.8-45.8,134.7-171.2l136.7-167.3l4-4.5c3-17.7,10.2-32.9,19.1-41.3l-7-135.6
						l40.7-390.8C987,24,994.5,10.7,1000.2,10z"/>
				</g>
				<g class="st0">
					<defs>
						<path id="SVGID_47_" class="st0" d="M1216.2,895.3l32.9,4.1c6.2,9.8,8.7,24.1,4.7,35c-4,10.9-13.7,11.9-14.2,12l-32.9-4.1
							c0.5-0.1,10.2-1.1,14.2-12C1224.9,919.4,1222.4,905,1216.2,895.3z"/>
					</defs>
					<clipPath id="SVGID_48_">
						<use xlink:href="#SVGID_47_"  style="overflow:visible;"/>
					</clipPath>
					<g class="st95">
						<path class="st72" d="M1216.2,895.3l32.9,4.1c0.2,0.3,0.3,0.5,0.5,0.8l-32.9-4.1C1216.5,895.8,1216.4,895.5,1216.2,895.3"/>
						<path class="st73" d="M1216.7,896l32.9,4.1c0.3,0.5,0.6,1,0.9,1.6l-32.9-4.1C1217.3,897.1,1217,896.6,1216.7,896"/>
						<path class="st74" d="M1217.6,897.6l32.9,4.1c0.3,0.5,0.6,1.1,0.8,1.7l-32.9-4.1C1218.1,898.7,1217.9,898.1,1217.6,897.6"/>
						<path class="st75" d="M1218.4,899.3l32.9,4.1c0.3,0.6,0.5,1.2,0.8,1.8l-32.9-4.1C1219,900.5,1218.7,899.9,1218.4,899.3"/>
						<path class="st76" d="M1219.2,901.1l32.9,4.1c0.3,0.6,0.5,1.3,0.8,1.9L1220,903C1219.7,902.3,1219.5,901.7,1219.2,901.1"/>
						<path class="st77" d="M1220,903l32.9,4.1c0.2,0.7,0.5,1.4,0.7,2l-32.9-4.1C1220.5,904.3,1220.2,903.6,1220,903"/>
						<path class="st78" d="M1220.7,905l32.9,4.1c0.2,0.7,0.4,1.4,0.6,2.1l-32.9-4.1C1221.1,906.4,1220.9,905.7,1220.7,905"/>
						<path class="st80" d="M1221.3,907.1l32.9,4.1c0.2,0.7,0.4,1.4,0.5,2.1l-32.9-4.1C1221.7,908.5,1221.5,907.8,1221.3,907.1"/>
						<path class="st81" d="M1221.8,909.2l32.9,4.1c0.1,0.7,0.3,1.3,0.4,2l-32.9-4.1C1222.1,910.5,1222,909.9,1221.8,909.2"/>
						<path class="st82" d="M1222.2,911.2l32.9,4.1c0.1,0.6,0.2,1.2,0.3,1.8l-32.9-4.1C1222.4,912.4,1222.3,911.8,1222.2,911.2"/>
						<path class="st83" d="M1222.5,913l32.9,4.1c0.1,0.6,0.2,1.3,0.2,1.9l-32.9-4.1C1222.6,914.3,1222.6,913.7,1222.5,913"/>
						<path class="st84" d="M1222.7,914.9l32.9,4.1c0.2,1.7,0.2,3.4,0.1,5.2l-32.9-4.1C1222.9,918.4,1222.8,916.7,1222.7,914.9"/>
						<path class="st83" d="M1222.8,920.1l32.9,4.1c0,0.3,0,0.7-0.1,1l-32.9-4.1C1222.8,920.8,1222.8,920.4,1222.8,920.1"/>
						<path class="st82" d="M1222.8,921.1l32.9,4.1c0,0.3,0,0.6-0.1,0.8l-32.9-4.1C1222.7,921.7,1222.8,921.4,1222.8,921.1"/>
						<path class="st81" d="M1222.7,922l32.9,4.1c0,0.2,0,0.4-0.1,0.7l-32.9-4.1C1222.7,922.4,1222.7,922.2,1222.7,922"/>
						<path class="st80" d="M1222.7,922.6l32.9,4.1c0,0.2,0,0.4-0.1,0.7l-32.9-4.1C1222.6,923.1,1222.6,922.9,1222.7,922.6"/>
						<path class="st78" d="M1222.6,923.3l32.9,4.1c0,0.2-0.1,0.4-0.1,0.6l-32.9-4.1C1222.5,923.7,1222.5,923.5,1222.6,923.3"/>
						<path class="st77" d="M1222.5,923.9l32.9,4.1c0,0.2-0.1,0.4-0.1,0.6l-32.9-4.1C1222.4,924.3,1222.5,924.1,1222.5,923.9"/>
						<path class="st76" d="M1222.4,924.5l32.9,4.1c0,0.2-0.1,0.4-0.1,0.6l-32.9-4.1C1222.3,924.9,1222.4,924.7,1222.4,924.5"/>
						<path class="st75" d="M1222.3,925.1l32.9,4.1c0,0.2-0.1,0.4-0.1,0.6l-32.9-4.1C1222.2,925.5,1222.3,925.3,1222.3,925.1"/>
						<path class="st74" d="M1222.2,925.7l32.9,4.1c0,0.2-0.1,0.4-0.1,0.6l-32.9-4.1C1222.1,926.1,1222.2,925.9,1222.2,925.7"/>
						<path class="st73" d="M1222.1,926.3l32.9,4.1c0,0.2-0.1,0.4-0.1,0.6l-32.9-4.1C1222,926.7,1222,926.5,1222.1,926.3"/>
						<path class="st72" d="M1221.9,926.9l32.9,4.1c0,0.2-0.1,0.4-0.2,0.6l-32.9-4.1C1221.8,927.3,1221.9,927.1,1221.9,926.9"/>
						<path class="st71" d="M1221.8,927.5l32.9,4.1c-0.1,0.2-0.1,0.4-0.2,0.6l-32.9-4.1C1221.7,927.9,1221.7,927.7,1221.8,927.5"/>
						<path class="st70" d="M1221.6,928.1l32.9,4.1c-0.1,0.2-0.1,0.4-0.2,0.6l-32.9-4.1C1221.5,928.6,1221.6,928.3,1221.6,928.1"/>
						<path class="st69" d="M1221.4,928.8l32.9,4.1c-0.1,0.2-0.1,0.4-0.2,0.6l-32.9-4.1C1221.3,929.2,1221.4,929,1221.4,928.8"/>
						<path class="st68" d="M1221.2,929.4l32.9,4.1c-0.1,0.2-0.1,0.4-0.2,0.6L1221,930C1221.1,929.8,1221.2,929.6,1221.2,929.4"/>
						<path class="st67" d="M1221,930l32.9,4.1c0,0.1-0.1,0.2-0.1,0.2c0,0.1-0.1,0.2-0.1,0.3l-32.9-4.1c0-0.1,0.1-0.2,0.1-0.3
							C1221,930.2,1221,930.1,1221,930"/>
						<path class="st66" d="M1220.8,930.6l32.9,4.1c-0.1,0.2-0.1,0.4-0.2,0.5l-32.9-4.1C1220.7,931,1220.7,930.8,1220.8,930.6"/>
						<path class="st65" d="M1220.6,931.1l32.9,4.1c-0.1,0.2-0.1,0.3-0.2,0.5l-32.9-4.1C1220.4,931.5,1220.5,931.3,1220.6,931.1"/>
						<path class="st64" d="M1220.4,931.7l32.9,4.1c-0.1,0.2-0.2,0.4-0.3,0.6l-32.9-4.1C1220.2,932,1220.3,931.8,1220.4,931.7"/>
						<path class="st63" d="M1220.1,932.2l32.9,4.1c-0.1,0.2-0.2,0.4-0.3,0.6l-32.9-4.1C1219.9,932.6,1220,932.4,1220.1,932.2"/>
						<path class="st62" d="M1219.8,932.8l32.9,4.1c-0.1,0.2-0.2,0.4-0.3,0.6l-32.9-4.1C1219.6,933.1,1219.7,933,1219.8,932.8"/>
						<path class="st61" d="M1219.5,933.3l32.9,4.1c-0.1,0.2-0.2,0.4-0.4,0.6l-32.9-4.1C1219.3,933.8,1219.4,933.5,1219.5,933.3"/>
						<path class="st60" d="M1219.1,934l32.9,4.1c-0.1,0.2-0.3,0.4-0.4,0.6l-32.9-4.1C1218.9,934.4,1219,934.2,1219.1,934"/>
						<path class="st59" d="M1218.7,934.6l32.9,4.1c-0.2,0.3-0.4,0.5-0.5,0.8l-32.9-4.1C1218.4,935.1,1218.6,934.9,1218.7,934.6"/>
						<path class="st54" d="M1218.2,935.4l32.9,4.1c-0.2,0.3-0.5,0.6-0.7,0.9l-32.9-4.1C1217.7,936,1218,935.7,1218.2,935.4"/>
						<path class="st55" d="M1217.5,936.2l32.9,4.1c-0.3,0.4-0.7,0.8-1,1.1l-32.9-4.1C1216.8,937,1217.2,936.6,1217.5,936.2"/>
						<path class="st56" d="M1216.5,937.4l32.9,4.1c-4.3,4.3-9.4,4.9-9.7,4.9l-32.9-4.1C1207.1,942.2,1212.2,941.7,1216.5,937.4"/>
					</g>
				</g>
			</g>
		</g>
	</g>
</g>
</svg>
