<?xml version="1.0" encoding="utf-8"?>
<!-- Generator: Adobe Illustrator 24.3.0, SVG Export Plug-In . SVG Version: 6.00 Build 0)  -->
<svg version="1.1" id="Layer_1" xmlns="http://www.w3.org/2000/svg" xmlns:xlink="http://www.w3.org/1999/xlink" x="0px" y="0px"
	 viewBox="0 0 90 90" style="enable-background:new 0 0 90 90;" xml:space="preserve">
<style type="text/css">
	.st0{fill:none;stroke:#000000;stroke-width:0.5;stroke-miterlimit:10;}
	.st1{stroke:#000000;stroke-miterlimit:10;}
</style>
<path class="st0" d="M206.5,75.5"/>
<circle class="st1" cx="45.5" cy="45.3" r="31.8"/>
<polygon class="st1" points="50.7,2 46.7,2 45.5,2 45.5,2 41.5,2 36.9,14.7 36.9,17 44.9,17 45.5,17 46.7,17 55.3,17 55.3,14.7 "/>
<polygon class="st1" points="41.1,88.8 45.1,88.8 46.3,88.8 46.3,88.8 50.3,88.8 55,76.1 55,73.8 46.9,73.8 46.3,73.8 45.1,73.8 
	36.5,73.8 36.5,76.1 "/>
<polygon class="st1" points="2.5,40.2 2.5,44.2 2.5,45.4 2.5,45.4 2.5,49.4 15.2,54 17.5,54 17.5,45.9 17.5,45.4 17.5,44.2 
	17.5,35.5 15.2,35.5 "/>
<polygon class="st1" points="88,49.4 88,45.4 88,44.2 88,44.2 88,40.2 75.3,35.5 73,35.5 73,43.6 73,44.2 73,45.4 73,54 75.3,54 "/>
<polygon class="st1" points="81,19.6 78.1,16.8 77.3,16 77.3,16 74.5,13.1 62.2,18.8 60.6,20.5 66.3,26.2 66.7,26.6 67.5,27.4 
	73.6,33.5 75.3,31.9 "/>
<polygon class="st1" points="72.7,79.4 75.5,76.5 76.4,75.7 76.4,75.7 79.2,72.8 73.5,60.6 71.9,59 66.1,64.7 65.7,65.1 64.9,65.9 
	58.8,72 60.4,73.7 "/>
<polygon class="st1" points="11.2,73.9 14.1,76.8 14.9,77.6 14.9,77.6 17.8,80.5 30,74.7 31.7,73.1 25.9,67.4 25.5,67 24.7,66.2 
	18.6,60 17,61.7 "/>
<polygon class="st1" points="17.9,11.3 15,14.2 14.2,15 14.2,15 11.3,17.9 17,30.1 18.7,31.7 24.4,26 24.8,25.6 25.6,24.8 
	31.7,18.7 30.1,17 "/>
</svg>
