<?xml version="1.0" encoding="utf-8"?>
<!-- Generator: Adobe Illustrator 24.3.0, SVG Export Plug-In . SVG Version: 6.00 Build 0)  -->
<svg version="1.1" id="Layer_1" xmlns="http://www.w3.org/2000/svg" xmlns:xlink="http://www.w3.org/1999/xlink" x="0px" y="0px"
	 viewBox="0 0 90 90" style="enable-background:new 0 0 90 90;" xml:space="preserve">
<style type="text/css">
	.st0{fill:none;stroke:#000000;stroke-width:0.5;stroke-miterlimit:10;}
	.st1{stroke:#000000;stroke-miterlimit:10;}
</style>
<path class="st0" d="M206.5,75.5"/>
<circle class="st1" cx="36.3" cy="68.8" r="10.9"/>
<polygon class="st1" points="35.2,53.9 33.8,54.2 33.4,54.3 33.4,54.3 32.1,54.5 31.4,59.1 31.5,59.9 34.2,59.4 34.4,59.3 
	34.8,59.2 37.7,58.7 37.6,57.9 "/>
<polygon class="st1" points="37.6,83.8 39,83.5 39.4,83.4 39.4,83.4 40.7,83.2 41.5,78.6 41.3,77.8 38.6,78.3 38.4,78.4 38,78.4 
	35.1,79 35.2,79.8 "/>
<polygon class="st1" points="21.5,69.9 21.7,71.3 21.8,71.7 21.8,71.7 22.1,73 26.6,73.8 27.4,73.6 26.9,70.9 26.9,70.7 26.8,70.3 
	26.2,67.4 25.4,67.5 "/>
<polygon class="st1" points="50.8,67.4 50.6,66.1 50.5,65.7 50.5,65.7 50.2,64.3 45.7,63.6 44.9,63.8 45.4,66.5 45.5,66.7 
	45.5,67.1 46.1,70 46.9,69.8 "/>
<polygon class="st1" points="46.5,57.9 45.4,57.1 45.1,56.9 45.1,56.9 43.9,56.1 40.2,58.8 39.7,59.5 42,61 42.2,61.1 42.5,61.4 
	45,63 45.4,62.4 "/>
<polygon class="st1" points="47.6,78.5 48.4,77.4 48.6,77.1 48.6,77.1 49.4,75.9 46.7,72.2 46,71.7 44.5,74 44.4,74.2 44.2,74.5 
	42.5,77 43.1,77.4 "/>
<polygon class="st1" points="26.6,80.7 27.8,81.5 28.1,81.7 28.1,81.7 29.2,82.5 33,79.8 33.4,79.1 31.1,77.6 31,77.4 30.6,77.2 
	28.2,75.6 27.7,76.2 "/>
<polygon class="st1" points="24.7,59.2 24,60.4 23.7,60.7 23.7,60.7 23,61.8 25.7,65.6 26.3,66 27.9,63.7 28,63.6 28.2,63.2 
	29.9,60.8 29.2,60.3 "/>
<circle class="st1" cx="56.9" cy="29.4" r="21.7"/>
<polygon class="st1" points="60.4,-0.2 57.7,-0.2 56.9,-0.2 56.9,-0.2 54.1,-0.2 51,8.5 51,10.1 56.5,10.1 56.9,10.1 57.7,10.1 
	63.6,10.1 63.6,8.5 "/>
<polygon class="st1" points="53.9,59 56.6,59 57.4,59 57.4,59 60.2,59 63.3,50.3 63.3,48.8 57.8,48.8 57.4,48.8 56.6,48.8 
	50.7,48.8 50.7,50.3 "/>
<polygon class="st1" points="27.6,25.9 27.6,28.6 27.6,29.4 27.6,29.4 27.6,32.2 36.2,35.3 37.8,35.3 37.8,29.8 37.8,29.4 
	37.8,28.6 37.8,22.7 36.2,22.7 "/>
<polygon class="st1" points="85.9,32.2 85.9,29.4 85.9,28.6 85.9,28.6 85.9,25.9 77.2,22.7 75.6,22.7 75.6,28.2 75.6,28.6 
	75.6,29.4 75.6,35.3 77.2,35.3 "/>
<polygon class="st1" points="81.1,11.9 79.1,9.9 78.6,9.4 78.6,9.4 76.6,7.4 68.3,11.3 67.2,12.4 71.1,16.3 71.3,16.6 71.9,17.1 
	76.1,21.3 77.2,20.2 "/>
<polygon class="st1" points="75.4,52.6 77.4,50.6 77.9,50.1 77.9,50.1 79.9,48.1 76,39.8 74.9,38.7 71,42.6 70.7,42.8 70.1,43.4 
	65.9,47.6 67.1,48.7 "/>
<polygon class="st1" points="33.5,48.9 35.5,50.8 36,51.4 36,51.4 38,53.3 46.3,49.4 47.4,48.3 43.5,44.4 43.3,44.1 42.7,43.6 
	38.5,39.4 37.4,40.5 "/>
<polygon class="st1" points="38,6.2 36.1,8.1 35.5,8.7 35.5,8.7 33.6,10.7 37.5,19 38.6,20.1 42.5,16.2 42.8,15.9 43.3,15.4 
	47.5,11.2 46.4,10.1 "/>
</svg>
