<?xml version="1.0" encoding="utf-8"?>
<!-- Generator: Adobe Illustrator 24.3.0, SVG Export Plug-In . SVG Version: 6.00 Build 0)  -->
<svg version="1.1"
	 id="svg2" inkscape:output_extension="org.inkscape.output.svg.inkscape" inkscape:version="0.46" sodipodi:docname="Apollo_seal.svg" sodipodi:version="0.32" xmlns:cc="http://creativecommons.org/ns#" xmlns:dc="http://purl.org/dc/elements/1.1/" xmlns:inkscape="http://www.inkscape.org/namespaces/inkscape" xmlns:rdf="http://www.w3.org/1999/02/22-rdf-syntax-ns#" xmlns:sodipodi="http://sodipodi.sourceforge.net/DTD/sodipodi-0.dtd" xmlns:svg="http://www.w3.org/2000/svg"
	 xmlns="http://www.w3.org/2000/svg" xmlns:xlink="http://www.w3.org/1999/xlink" x="0px" y="0px" viewBox="0 0 162.3 162.3"
	 style="enable-background:new 0 0 162.3 162.3;" xml:space="preserve">
<style type="text/css">
	.st0{fill:none;stroke:#000000;stroke-width:3;stroke-linecap:square;}
	.st1{fill:none;stroke:#000000;stroke-linecap:square;}
	.st2{fill:none;}
	.st3{fill:none;stroke:#000000;stroke-linecap:round;}
	.st4{fill:none;stroke:#000000;}
	.st5{fill:#FFFFFF;stroke:#000000;stroke-miterlimit:10;}
	.st6{fill:none;stroke:#000000;stroke-miterlimit:10;}
	.st7{stroke:#000000;stroke-miterlimit:10;}
	.st8{stroke:#000000;}
	.st9{fill:#ED1C24;stroke:#000000;stroke-linecap:round;}
</style>
<defs>
	
		<inkscape:perspective  id="perspective10" inkscape:persp3d-origin="372.04724 : 350.78739 : 1" inkscape:vp_x="0 : 526.18109 : 1" inkscape:vp_y="0 : 1000 : 0" inkscape:vp_z="744.09448 : 526.18109 : 1" sodipodi:type="inkscape:persp3d">
		</inkscape:perspective>
	
		<inkscape:perspective  id="perspective2390" inkscape:persp3d-origin="372.04724 : 350.78739 : 1" inkscape:vp_x="0 : 526.18109 : 1" inkscape:vp_y="0 : 1000 : 0" inkscape:vp_z="744.09448 : 526.18109 : 1" sodipodi:type="inkscape:persp3d">
		</inkscape:perspective>
	
		<inkscape:perspective  id="perspective2400" inkscape:persp3d-origin="372.04724 : 350.78739 : 1" inkscape:vp_x="0 : 526.18109 : 1" inkscape:vp_y="0 : 1000 : 0" inkscape:vp_z="744.09448 : 526.18109 : 1" sodipodi:type="inkscape:persp3d">
		</inkscape:perspective>
	
		<inkscape:perspective  id="perspective2467" inkscape:persp3d-origin="372.04724 : 350.78739 : 1" inkscape:vp_x="0 : 526.18109 : 1" inkscape:vp_y="0 : 1000 : 0" inkscape:vp_z="744.09448 : 526.18109 : 1" sodipodi:type="inkscape:persp3d">
		</inkscape:perspective>
</defs>
<sodipodi:namedview  bordercolor="#666666" borderopacity="1.0" gridtolerance="10000" guidetolerance="10" id="base" inkscape:current-layer="layer3" inkscape:cx="81.14286" inkscape:cy="79.180528" inkscape:document-units="px" inkscape:guide-bbox="true" inkscape:pageopacity="0.0" inkscape:pageshadow="2" inkscape:snap-global="false" inkscape:window-height="750" inkscape:window-width="1280" inkscape:window-x="-8" inkscape:window-y="-8" inkscape:zoom="1" objecttolerance="10" pagecolor="#ffffff" showgrid="false" showguides="true">
	<sodipodi:guide  id="guide2476" orientation="1,0" position="373.57143,522.14286"></sodipodi:guide>
	<sodipodi:guide  id="guide2478" orientation="0,1" position="450.71429,501.78572"></sodipodi:guide>
</sodipodi:namedview>
<g id="layer2" transform="translate(-292.42858,-469.43362)" inkscape:groupmode="layer" inkscape:label="Circle">
	
		<path id="path2484" sodipodi:cx="373.57144" sodipodi:cy="550.57648" sodipodi:rx="79.64286" sodipodi:ry="79.64286" sodipodi:type="arc" class="st0" d="
		M453.2,550.6c0,44-35.6,79.7-79.6,79.7s-79.7-35.6-79.7-79.6c0,0,0,0,0-0.1c0-44,35.6-79.7,79.6-79.7
		C417.5,470.9,453.2,506.5,453.2,550.6C453.2,550.5,453.2,550.6,453.2,550.6z"/>
	
		<path id="path2486" sodipodi:cx="373.57144" sodipodi:cy="550.57648" sodipodi:rx="76.071426" sodipodi:ry="76.071426" sodipodi:type="arc" class="st1" d="
		M449.6,550.6c0,42-34.1,76.1-76.1,76.1s-76.1-34.1-76.1-76.1s34.1-76.1,76.1-76.1S449.6,508.6,449.6,550.6z"/>
</g>
<g id="layer3" transform="translate(-292.42858,-469.43362)" inkscape:groupmode="layer" inkscape:label="Text">
	<path id="text2489" d="M366.9,484.1c0,0.6,0,1.2,0,1.7c0,0.5,0,0.9-0.1,1.2c0,0.2-0.1,0.3-0.1,0.4c-0.1,0.1-0.1,0.2-0.3,0.2
		c-0.1,0-0.1,0-0.2,0c-0.1,0-0.2,0-0.3,0c-0.1,0-0.1,0-0.2,0c0,0,0,0,0,0.1c0,0.1,0.1,0.1,0.3,0.1c0.3,0,0.6,0,0.9,0
		c0.3,0,0.6,0,0.7,0c0.2,0,0.5,0,0.8,0c0.4,0,0.8,0,1.2,0c0.1,0,0.1,0,0.2,0c0,0,0.1-0.1,0.1-0.1c0-0.1-0.1-0.1-0.2-0.1
		c-0.1,0-0.2,0-0.3,0c-0.1,0-0.2,0-0.3,0c-0.2,0-0.3-0.1-0.4-0.2c-0.1-0.1-0.1-0.3-0.1-0.4c0-0.3,0-0.7,0-1.2c0-0.5,0-1.1,0-1.7
		l0-2.3c0-1,0-1.6,0-2c0-0.4,0-0.6,0-0.8c0-0.2,0-0.4,0.1-0.5c0.1-0.1,0.2-0.2,0.4-0.2c0.1,0,0.1,0,0.2,0c0.1,0,0.1,0,0.2,0
		c0.1,0,0.1,0,0.2,0c0,0,0.1-0.1,0.1-0.1c0,0,0-0.1-0.1-0.1s-0.1,0-0.2,0c-0.3,0-0.5,0-0.9,0c-0.3,0-0.6,0-0.7,0c-0.2,0-0.5,0-0.8,0
		c-0.3,0-0.6,0-0.9,0c-0.1,0-0.2,0-0.2,0c-0.1,0-0.1,0-0.1,0.1c0,0.1,0,0.1,0.1,0.1c0,0,0.1,0,0.2,0c0.1,0,0.2,0,0.2,0
		c0.1,0,0.2,0,0.2,0c0.1,0,0.2,0.1,0.3,0.2c0.1,0.1,0.1,0.3,0.1,0.5c0,0.2,0,0.4,0,0.8c0,0.4,0,1,0,2L366.9,484.1z M359.2,484.5
		c0.1,0,0.1,0,0.1,0.1l0.9,2.8c0,0.1,0,0.1,0,0.2s-0.1,0.1-0.1,0.1c-0.1,0-0.1,0-0.1,0c0,0,0,0,0,0.1c0,0,0,0.1,0.1,0.1
		c0.1,0,0.2,0,0.3,0c0.5,0,1,0.1,1.4,0.1c0.4,0,0.8,0,1,0c0.2,0,0.4,0,0.5,0c0.1,0,0.1,0,0.1-0.1c0,0,0-0.1,0-0.1s-0.1,0-0.1,0
		c-0.1,0-0.2,0-0.3,0c-0.1,0-0.2,0-0.3-0.1c-0.1,0-0.3-0.1-0.5-0.3c-0.2-0.2-0.4-0.6-0.6-1.1c-0.2-0.5-0.4-1.2-0.7-2
		c-0.3-0.8-0.6-1.7-0.9-2.5c-0.3-0.9-0.6-1.6-0.8-2.3c-0.2-0.7-0.4-1.1-0.5-1.3c-0.1-0.2-0.1-0.3-0.2-0.3c0-0.1-0.1-0.1-0.2-0.1
		c-0.1,0-0.1,0-0.2,0.1c-0.1,0.1-0.1,0.2-0.2,0.4l-3.6,8c-0.1,0.3-0.3,0.6-0.5,0.8c-0.2,0.2-0.4,0.3-0.7,0.3c-0.1,0-0.1,0-0.2,0
		s-0.1,0-0.2,0c-0.1,0-0.1,0-0.1,0c0,0,0,0,0,0.1c0,0.1,0,0.1,0.1,0.1c0,0,0.1,0,0.2,0c0.4,0,0.7,0,1,0c0.3,0,0.5,0,0.6,0
		c0.2,0,0.4,0,0.7,0c0.2,0,0.5,0,0.7,0c0.1,0,0.1,0,0.2,0c0,0,0.1-0.1,0.1-0.1c0,0,0-0.1,0-0.1c0,0-0.1,0-0.2,0l-0.2,0
		c-0.2,0-0.3-0.1-0.4-0.1c-0.1-0.1-0.1-0.2-0.1-0.3c0-0.1,0-0.2,0.1-0.3c0-0.1,0.1-0.3,0.2-0.5l0.8-1.8c0,0,0-0.1,0-0.1
		c0,0,0,0,0.1,0L359.2,484.5z M373.6,483.6c0,0.6,0,1.1,0,1.6c0,0.5,0,0.9-0.1,1.1c0,0.2-0.1,0.4-0.1,0.5c-0.1,0.1-0.1,0.2-0.3,0.2
		c-0.1,0-0.1,0-0.2,0s-0.2,0-0.3,0c-0.1,0-0.1,0-0.2,0s0,0,0,0.1c0,0.1,0.1,0.1,0.3,0.1c0.1,0,0.3,0,0.4,0c0.2,0,0.3,0,0.5,0
		c0.2,0,0.3,0,0.4,0c0.1,0,0.2,0,0.3,0c0.2,0,0.4,0,0.6,0c0.2,0,0.5,0,0.7,0.1c0.2,0,0.5,0.1,0.8,0.1c0.3,0,0.5,0,0.7,0
		c1.2,0,2.2-0.2,2.9-0.5c0.7-0.3,1.2-0.6,1.5-1c0.4-0.4,0.7-0.9,1-1.5c0.3-0.6,0.5-1.3,0.5-2.1c0-0.8-0.1-1.4-0.3-2
		c-0.2-0.6-0.5-1-0.8-1.3c-0.7-0.7-1.6-1.2-2.5-1.4c-0.9-0.2-1.8-0.3-2.7-0.2c-0.4,0-0.8,0-1.1,0c-0.4,0-0.6,0-0.9,0
		c-0.2,0-0.5,0-0.8,0s-0.7,0-1.1,0c-0.1,0-0.2,0-0.2,0c0,0-0.1,0-0.1,0.1c0,0,0,0.1,0.1,0.1c0,0,0.1,0,0.2,0c0.1,0,0.2,0,0.3,0
		c0.1,0,0.2,0,0.2,0c0.2,0,0.4,0.1,0.4,0.2c0.1,0.1,0.1,0.3,0.1,0.5c0,0.2,0,0.4,0,0.8c0,0.4,0,1,0,2L373.6,483.6z M375.5,481.2
		c0-0.5,0-1,0-1.5s0-0.8,0-1.1c0-0.1,0-0.1,0-0.2c0,0,0.1-0.1,0.1-0.1c0.1,0,0.2,0,0.4-0.1c0.2,0,0.3,0,0.5,0c0.5,0,1.1,0.1,1.8,0.3
		c0.7,0.2,1.3,0.6,1.9,1.1c0.3,0.3,0.6,0.7,0.8,1.2c0.2,0.5,0.4,1.2,0.4,2.1c0,0.7-0.1,1.3-0.3,1.8c-0.2,0.6-0.5,1-0.9,1.4
		c-0.4,0.3-0.8,0.6-1.3,0.7c-0.5,0.1-1.1,0.2-1.7,0.2c-0.5,0-0.9-0.1-1.2-0.2c-0.3-0.1-0.4-0.2-0.5-0.4c0-0.1-0.1-0.2-0.1-0.4
		c0-0.2,0-0.4,0-0.6c0-0.1,0-0.4,0-0.9c0-0.5,0-1,0-1.7L375.5,481.2z M392,484.5c0.1,0,0.1,0,0.1,0.1l1,2.8c0,0.1,0,0.1,0,0.2
		c0,0.1-0.1,0.1-0.1,0.1c-0.1,0-0.1,0-0.1,0c0,0,0,0,0,0.1c0,0,0,0.1,0.1,0.1c0.1,0,0.2,0,0.3,0c0.5,0,1,0,1.4,0c0.4,0,0.8,0,1,0
		c0.2,0,0.4,0,0.5,0c0.1,0,0.1-0.1,0.1-0.1c0,0,0-0.1,0-0.1c0,0-0.1,0-0.1,0c-0.1,0-0.2,0-0.3,0c-0.1,0-0.2,0-0.3,0
		c-0.1,0-0.3-0.1-0.5-0.3c-0.2-0.2-0.4-0.6-0.6-1.1c-0.2-0.5-0.5-1.2-0.8-2c-0.3-0.8-0.6-1.7-1-2.5c-0.3-0.9-0.6-1.6-0.9-2.3
		c-0.2-0.7-0.4-1.1-0.5-1.3c-0.1-0.1-0.1-0.3-0.2-0.3c0-0.1-0.1-0.1-0.2-0.1c-0.1,0-0.1,0-0.2,0.1c-0.1,0.1-0.1,0.2-0.2,0.4
		l-3.4,8.1c-0.1,0.3-0.3,0.6-0.4,0.8c-0.2,0.2-0.4,0.3-0.7,0.4c-0.1,0-0.1,0-0.2,0c-0.1,0-0.1,0-0.2,0c-0.1,0-0.1,0-0.1,0
		c0,0,0,0,0,0.1c0,0.1,0,0.1,0.1,0.1c0,0,0.1,0,0.2,0c0.4,0,0.7,0,1,0c0.3,0,0.5,0,0.6,0c0.2,0,0.4,0,0.7,0c0.2,0,0.5,0,0.7,0
		c0.1,0,0.1,0,0.2,0c0,0,0.1-0.1,0.1-0.1c0,0,0-0.1,0-0.1c0,0-0.1,0-0.2,0l-0.2,0c-0.2,0-0.3,0-0.4-0.1c-0.1-0.1-0.1-0.2-0.1-0.3
		c0-0.1,0-0.2,0.1-0.3c0-0.1,0.1-0.3,0.2-0.5l0.7-1.8c0,0,0-0.1,0-0.1c0,0,0,0,0.1,0L392,484.5z M356.6,483.3
		C356.6,483.2,356.6,483.2,356.6,483.3C356.6,483.2,356.6,483.2,356.6,483.3l0.9-3c0,0,0,0,0-0.1c0,0,0,0,0,0c0,0,0,0,0,0
		c0,0,0,0,0,0.1l1.2,3.2c0,0,0,0,0,0.1c0,0,0,0-0.1,0L356.6,483.3z M389.5,484.2C389.5,484.2,389.5,484.2,389.5,484.2
		C389.5,484.2,389.5,484.1,389.5,484.2l0.9-3c0,0,0,0,0-0.1c0,0,0,0,0,0c0,0,0,0,0,0c0,0,0,0,0,0.1l1.3,3.1c0,0,0,0,0,0.1
		c0,0,0,0-0.1,0L389.5,484.2z"/>
	
		<path id="path2493" sodipodi:cx="373.92856" sodipodi:cy="550.93359" sodipodi:rx="62.142857" sodipodi:ry="62.142857" sodipodi:type="arc" class="st2" d="
		M147.6,573.9c-15.7-30.5-3.6-68,27-83.6c30.5-15.7,68-3.6,83.6,27c0,0,0,0,0,0c15.7,30.5,3.6,68-27,83.6
		C200.7,616.5,163.3,604.4,147.6,573.9C147.6,573.9,147.6,573.9,147.6,573.9z"/>
</g>
<g id="layer4" transform="translate(-292.42858,-469.43362)" inkscape:groupmode="layer" inkscape:label="Figure">
	<path id="path3299" sodipodi:nodetypes="cssssssssc" class="st3" d="M381.5,512.1c-0.9,0-0.9,1-1.6,1.5c-0.2,0.2-0.5,0.3-0.7,0.5
		c-0.6,0.4-0.1,2-0.1,2.7c0,0.4,0.3,0.7,0.3,1.3c0,0.5,0,1,0,1.5c0,0.5-0.2,1.1-0.3,1.5c-0.2,0.5-0.1,1-0.1,1.4c0,0.4,0,0.8,0,1.3
		c0,0.3,0,0.4-0.2,0.7"/>
	<path id="path3273_2_" class="st3" d="M342.3,528.1l1.4-0.2"/>
	<path id="path3273_5_" class="st3" d="M342,521.1"/>
	<path id="path3273_6_" class="st3" d="M361,511.8c0,0.4,1.1,0.6,1.7,0.8c0.4,0.2,1,0.3,1.5,0.6c0.5,0.2,0.8,0.6,1.1,1.1
		c0.2,0.4,0.6,0.6,1,0.8c0.4,0.3,1.2,0.3,1.7,0.5c0.4,0.2,1.3,0,1.8,0c0.5,0,1-0.3,1.3-0.5c0.5-0.2,0.8-0.1,1.1-0.6
		c0.4-0.7,0.7-0.7,0.3-1.5c-0.2-0.4-0.5-0.5-0.9-0.7c-0.4-0.2-1-0.2-1.4-0.6c-0.6-0.6-1.3-1.1-1.7-1.5c-0.3-0.3-0.8-0.1-0.8-0.8
		c0-0.5,0.6-0.7,1.1-0.7c0.6,0,1.1,0,1.7,0c0.7,0,1.1,0,1.6-0.3c0.4-0.2,0-0.9-0.1-1.1c-0.2-0.4-0.2-1-0.2-1.4
		c0-0.3,0.4-0.8,0.5-1.2c0.2-0.6,0.1-1,0.7-1.1c0.5-0.1-0.5-0.6-0.6-0.7c-0.4-0.4-0.4-0.8-0.9-1.1c-0.3-0.2-0.5-1-0.6-1.4
		c-0.1-0.4,0-1,0-1.5c0-0.7-0.2-1.1-0.2-1.9c0-1.1,0.2-1.7-0.5-2.3c-0.6-0.6-0.7-0.6-1-1.2c-0.1-0.3-1-0.8-1.2-0.8
		c-0.5-0.2-1.2-0.1-1.7,0.1c-0.6,0.2-0.2,0.9-0.9,1c-0.1,0-0.1,0.1-0.2,0.1c-0.7,0.3-1.6,0.2-2.4,0.2c-0.6,0-1.2,0-1.8,0.1
		c-0.3,0.1-0.8,0.3-1.1,0.6c-0.5,0.4-0.8,0.8-1.2,1c-0.5,0.2-0.7,0.7-1.2,1.1c-0.5,0.4-0.6,0.7-0.9,1.3c-0.2,0.4-0.2,1.2-0.2,1.6
		c0,0.7,0,0.8,0.4,1.2c0.4,0.3,0.4,1,0.6,1.4c0.3,0.6-0.1,0.8-0.1,1.4c0,0.8-0.7,1.2-1.1,1.6c-0.4,0.4-0.9,0.8-1.1,1.2
		c-0.3,0.5-0.8,1.4-1,1.9c-0.3,0.5-0.3,0.9-0.9,1.2c-0.3,0.1-0.5,1-0.7,1.2c-0.3,0.4-0.3,0.7-0.8,1.2c-0.6,0.6-0.8,1.2-1.5,1.9
		c-0.4,0.4-1.1,0.9-1.5,1.3c-0.4,0.4-1,0.6-1.5,0.8c-0.6,0.3-0.8,0.6-1,1c-0.2,0.4-0.7,0.6-1,0.9c-0.7,0.6-1.4,0.4-2,0.6
		c-1.4,0.4-1.9,2.5-2.1,3.4c-0.8,3.4,1.2,6.5,1.7,7.3"/>
	
		<path id="path3283" sodipodi:nodetypes="csssssssssssssssssssssssssssssssssssssssssssssssssssssssssssssscssssssscsssssssssssssssssssssscsssssssssssssssssc" class="st3" d="
		M361.4,512.2c-0.3,0.1-1.4-0.2-1.9-0.1c-0.5,0.1-1,0.3-1.6,0.3c-0.5,0-1.5,0.5-1.8,0.8c-0.5,0.5-1,0.9-1.4,1.4
		c-0.3,0.4-0.8,0.6-1.1,0.9c-0.4,0.4-0.8,0.5-1.2,0.8c-0.4,0.3-0.7,0.5-1.1,0.8c-0.6,0.5-1.2,1-1.8,1.6c-0.5,0.4-0.9,0.9-1.2,1.2
		c-0.3,0.3-0.6,0.8-0.9,1.1c-0.4,0.3-0.6,0.9-0.8,1.3c-0.3,0.6-0.6,1.1-0.9,1.7c-0.3,0.5-0.6,0.8-0.8,1.2c-0.2,0.4-0.2,0.8-0.5,1.3
		c-0.3,0.5-0.5,1-0.7,1.4c-0.3,0.5-0.4,1-0.6,1.5c-0.1,0.2-0.1,0.3-0.2,0.5c-0.2,0.4-0.5,1-0.7,1.4c-0.3,0.5-0.3,0.9-0.6,1.4
		c-0.3,0.5-0.5,0.9-0.6,1.4c-0.1,0.2-0.2,0.4-0.3,0.6c0,0.2-0.1,0.3-0.1,0.5c-0.1,0.7-0.6,1.2-0.8,1.9c-0.2,0.6-0.2,1.1-0.4,1.7
		c-0.2,0.7-0.1,1.1-0.5,1.8c-0.3,0.5-0.5,1.1-0.7,1.8c-0.2,0.6-0.4,1-0.5,1.6c-0.1,0.5-0.7,1.1-0.8,1.6c-0.2,0.6-0.4,1-0.4,1.7
		c0,0.3-0.2,1.1-0.3,1.6c-0.2,0.6-0.5,1-0.5,1.8c0,0.5-0.2,1.1-0.2,1.7c0,0.6,0,1.2,0,1.8c0,0.7,0.1,1.2,0.1,1.9c0,0.6,0,1.2,0,1.8
		c0,0.6-0.1,1.1-0.1,1.7c0,0.6,0,1.2,0,1.9c0,0.2,0,0.4,0,0.6c0,0.6-0.4,1-0.2,1.6c0.2,0.7,0.4,1.3,0.5,1.9c0.2,0.6,0.6,0.8,0.8,1.2
		c0.2,0.3,0.8,0.7,1,1c0.4,0.4,0.6,0.4,0.9,1c0.2,0.4,0.6,0.7,1,0.8c0.4,0.2,0.5,0.9,0.4,1.2c-0.1,0.5-0.7,1.1-1,1.7
		c-0.4,0.7-0.3,1.5-0.3,2.3c0,0.5,0.7,0.7,1.1,0.9c0.5,0.2,0.8,0.5,0.8,1c0,0.2,0.4,0.8,0.4,1.2c0,0.7,0.3,1.1,0.2,1.6
		c-0.2,0.6,0.1,1.2,0.2,1.8c0.1,0.5,0.7,0.9,0.9,1.3c0.3,0.5,0.7,0.7,0.8,1.1c0.1,0.4,0.8,0.9,1.1,1.2c0.5,0.5,0.9,0.8,1.3,1.2
		c0.3,0.3,0.5,0.4,0.6,0.8c0,0,0.8,0.5,0.9,0.6c0.3,0.3,0.7,0.4,0.9,1c0.1,0.4-0.4,1.2-0.4,1.8c0,0.7-0.2,0.8-0.6,1.2
		c-0.3,0.3-0.7,0.7-1,0.9c-0.2,0.2-0.4,0.4-0.6,0.5c-0.2,0.7-0.6,0.9-0.6,1.7c0,0.4,0.3,0.9,0.5,1.2c0.3,0.5,0.8,0.8,1.3,1
		c0.4,0.2,1.2,0.1,1.8,0.1c0.6,0,1.3,0.1,1.8-0.2c0.8-0.4,1.2-0.6,1.4-1.4c0.2-0.8,0.8-1.5,1.2-2c0.2-0.3,0.5-0.8,0.6-1
		c0.1-0.1,0.3-0.2,0.4-0.4c0.2-0.2,0.6-1.5,0.7-1.7c0.2-0.6,0.4-1.3,0.9-1.9c0.3-0.4,0.7-1.2,0.9-1.7c0.3-0.6,1.1-1,1.6-1.5
		c0.3-0.3,0.5-0.9,0.7-1.2c0.2-0.3,0.4-0.9,0.6-1.3c0.4-0.7,0.6-1.5,1-2.2c0.1-0.1,0-0.2,0-0.4c0-0.2,0.2-0.4,0.3-0.6
		c0.2-0.4,0.4-1,0.7-1.3c0.4-0.5,0.5-1.4,0.5-2c0-0.8-0.1-1.6,0.2-2.1c0.3-0.5,0.1-1.5,0.1-2.1c0-0.5-0.6-0.9-0.7-1.4
		c-0.1-0.4-0.3-0.8-0.5-1.1c-0.2-0.4-0.7-1.3-1-1.8c-0.4-0.7-1.1-2-1.1-3.1c0-0.7-0.2-1.2-0.3-1.7c-0.1-0.5,0-1.3,0.2-1.7
		c0.3-0.5,0.1-1.2,0.3-1.6c0-0.1-0.6-1.4-0.6-1.4c-0.2-0.3-0.2-0.6-0.3-0.8c-0.5-0.9-0.9-1.8-1.8-2.4c-0.4-0.3-0.6-0.5-0.9-0.8
		c-0.5-0.5-0.7-0.9-1.2-1.3c-0.3-0.3-0.5-1.2-0.6-1.5c-0.2-0.7-0.7-1.3-1-1.9c-0.4-0.7,0-1,0-1.7c0-0.9,0.4-1.6,0.1-2.2
		c-0.2-0.5-0.1-1.4-0.1-2c0-0.6,0.2-1.1,0.5-1.7c0.3-0.5,0.6-1.4,0.5-1.7c-0.2-0.6,0-1.4-0.1-1.9c-0.2-0.7-0.1-1.2-0.4-1.8
		c-0.3-0.6,0.1-1.4,0.1-2c0-0.9,0.6-1.7,0.6-2.6c0-0.6,0.1-1.3,0.1-1.9c0-0.7,0.2-1.3,0.3-1.9c0.2-0.8,0.6-0.9-0.1-1.2
		c-0.4-0.2-0.1-0.2-0.2-0.5"/>
	<path id="path3291" sodipodi:nodetypes="cssssssssssssssssssssssc" class="st3" d="M349.6,597c-2-0.8-1.5,0.3-2.3,0.7
		c-0.7,0.3-1,0.7-1.4,1.1c-0.5,0.5-0.7,0.8-0.7,1.5c0,0.5,0.5,0.8,0.9,1c0.4,0.2,0.5,0.6,0.8,0.9c0.2,0.3,0.4,0.9,0.5,1.1
		c0.2,0.6,0.2,1.1,0.3,1.6c0.2,0.6,0.6,0.9,0.8,1.5c0.2,0.4,0.5,1,0.6,1.4c0.2,0.6,0.4,0.7,0.7,1c0.6,0.5,0.5,0.9,1.3,1
		c1.3,0.2,1.8,0.6,3.2,0.6c0.7,0,0.8,0,1.3-0.2c0.5-0.2,0.7-0.1,1-0.6c0.4-0.8,0.3-0.6-0.4-1.2c-0.5-0.5-0.6-0.6-0.8-1.2
		c-0.2-0.6-0.2-1-0.6-1.5c-0.4-0.5-0.8-0.9-1.2-1.2c-0.5-0.3-0.9-1.3-1.1-1.8c-0.2-0.4-0.8-0.5-1.1-0.9c-0.3-0.5-0.9-0.8-1.3-1.3
		c-0.4-0.4-0.5-0.7-0.7-1.1C349.2,599.1,349.7,597.4,349.6,597z"/>
	<path id="path3295" sodipodi:nodetypes="csssssssssssssssssssssssssssssssssssssssssssssssssssc" class="st3" d="M372.6,513.2
		c1.1,0,2,0.1,2.8-0.3c0.8-0.4,1.3-0.5,2-1.1c0.5-0.5,1.1-0.8,1.6-1.2c0.3-0.3,0.8-0.2,1.4-0.2c0.7,0,0.8,0.3,0.8,0.9
		c0,0.7-0.1,0.9,0.6,0.9c1.5,0,3.3,0.4,4.9,0.4c0.7,0,1.3,0,2,0c1.3,0,2.7,0,4,0c0.7,0,1.5,0,2.2,0c0.8,0,1.5,0,2.3,0
		c0.6,0,1.1-0.1,1.7-0.1c1.1,0,1.2-3,2.7-1.3c0.3,0.3-0.2,1-0.2,1.4c0,0.5,0.6,0.9,0.6,1.4c0,0.2,0.8,1.2,0.9,1.4
		c0.2,0.5,0.7,0.9,0.7,1.4c0,0.2,0.5,1.1,0.6,1.5c0.1,0.4-0.9,1.7-1.3,1.9c-0.7,0.3-1.1,0.5-1.5,0.8c-0.1,0.1-0.1,1.5-0.1,1.7
		c0,0.5-0.3,1.3-0.3,1.9c0,0.5,0.2,1,0.5,1.3c0.3,0.3,0.1,1.3,0,1.7c-0.1,0.6-0.4,0.6-1.1,0.7c-0.6,0.1,0,1.2-0.3,1.7
		c-0.2,0.4-0.2,1.2-0.2,1.7c0,0.6,0,1.1,0,1.7c0,0.6,0,1.2,0,1.8c0,0.6,0.4,0.6,0.9,0.8c0.7,0.3,0.5,0.5,0.8,1.1
		c0.5,0.9,0.4,1.1-0.5,1.5c-0.6,0.2-1,0.3-1.6,0.5c-0.8,0.2-1,0.5-0.8,1.2c0.2,0.6,0.5,0.4,0.5,1.1c0,0.5-0.2,1.4-0.6,1.8
		c-0.8,0.7-1.1,0.7-2.4,0.7c-0.6,0-1.1,0-1.7,0c-1,0-2.1,0-3.1,0c-1,0-1.9,0-2.9,0c-0.7,0-1.4,0-2.1,0c-0.5,0-1-0.6-1.4-0.6
		c-0.1,0-0.2-0.1-0.3-0.1c-0.5-0.2-1-0.3-1.3-0.4c-0.4-0.1-0.8-0.3-1.1-0.6c-0.4-0.4-0.9-0.3-1.2-0.6c-0.3-0.3-0.5-0.6-0.7-1
		c-0.3-0.5-0.6-0.6-1-0.9c-0.3-0.2-0.5-0.8-0.6-1.1c-0.4-0.8-0.6-1.4-0.6-2.2c0-0.6,0.2-0.9,0.3-1.4c0-0.1,0.1-0.2,0.1-0.3"/>
	<path id="path3297" sodipodi:nodetypes="cssssssssssssssc" class="st3" d="M372.8,513.3c0.7-0.1,1.9,0.4,2.6,0.4
		c0.6,0,1,0.2,1.5,0.3c0.8,0.2,1.6,0.2,2,0.6c0.4,0.4,0.3,0.5,0.9,0.7c0.5,0.2,1.9,0.2,2.4,0.2c0.6,0,1.3,0,1.9,0c0.7,0,1.5,0,2.2,0
		c1,0,2,0,3,0c0.9,0,1.9,0,2.8,0c0.7,0,1.3,0,2,0c0.6,0,1.2,0,1.8-0.1c0.7-0.1,1.1-0.3,1.7-0.6c0.5-0.2,0.7-0.6,0.8-1.1
		c0.1-0.3,0.9-0.8,1.2-1c0.2-0.2,0-0.4,0.1-0.5"/>
	<path id="path3303" class="st3" d="M399,513.4c0.6-0.5,0,1.5,0,2.3c0,1.3,0,2.7,0,4c0,1.3-0.1,2.6-0.1,3.9c0,0.6-0.1,1-0.1,1.6
		c0,0.9-0.4,1.5-0.6,2.3c-0.2,0.6-0.4,1.1-0.4,1.7c0,0.6-0.3,1-0.5,1.5c-0.3,0.7-0.6,1.3-1,1.9c-0.4,0.6-0.6,1-1.1,1.5
		c-0.4,0.4-0.6,1-1.1,1.5c-0.6,0.5-0.7,1.2-1.6,1.6c-1.7,0.8-3.6,1.4-5.5,1.4c-0.8,0-1.5,0-2.3,0c-0.8,0-1.2-0.3-1.9-0.3
		c-0.1,0-0.1-2.1-0.1-2.3c0-0.6,0-1.2,0-1.8c0-0.6,0-1.1,0-1.7"/>
	<path id="path3305" sodipodi:nodetypes="cssssssc" class="st3" d="M382.8,538.1c0-0.7,1.4,0.3,2.1,0.3c0.9,0,1.7,0,2.6,0
		c1.2,0,2.4,0.1,3.4,0.1c0.9,0,1.4,0.1,2.2,0.3c1,0.2,1.9,0.3,2.8,0.3c0.6,0,1.1,0,1.7,0c0.7,0,1.3,0.1,1.8-0.1"/>
	<path id="path3339" sodipodi:nodetypes="csssssc" class="st3" d="M401.4,512.6c-0.1,1,0,2.2-0.3,3.1c-0.1,0.5,0,1.2,0,1.8
		c0,0.7,0,1.3,0.2,1.7c0.3,0.5,0.2,0.9,0.5,1.4c0.2,0.4-0.2,1.4-0.3,1.9c0,0.1-0.1,0.2-0.1,0.4"/>
	<path id="path3345" class="st4" d="M384.5,515.7v8.9"/>
	<path id="path3347" class="st4" d="M384.6,531.4v6.9"/>
	<path id="path3349" class="st4" d="M386.7,515.3v9.3"/>
	<path id="path3351" class="st4" d="M386.8,530.5v7.8"/>
	<path id="path3353" class="st4" d="M388.9,515.3l0.1,8.3"/>
	<path id="path3357" class="st4" d="M389,529.9v8.3"/>
	<path id="path3359" class="st4" d="M391,515.1v7.1"/>
	<path id="path3361" class="st4" d="M391.3,529.2v8.1"/>
	<path id="path3365" class="st4" d="M393.3,515.4v6.1"/>
	<path id="path3367" class="st4" d="M393.5,528.8v7.1"/>
	<path id="path3369" class="st4" d="M395.7,515.4l0,6.5"/>
	<path id="path3373" class="st3" d="M353.5,525.2c-0.8,0.8-0.6,2.1-1,3.1c-0.3,0.6-0.2,1.4-0.4,2c-0.2,0.9-0.7,1.8-1.5,2.4
		c-0.5,0.3-0.8,1-1,1.5c-0.3,0.5-0.4,1-0.8,1.5c-0.4,0.5-1,1.4-1.1,1.9c-0.2,0.6-0.9,1.2-1.3,1.9c-0.4,0.7-0.7,1.1-1.1,1.8
		c-0.4,0.6-0.5,1.2-0.8,1.9c-0.2,0.6-0.8,1-1.1,1.6c-0.4,0.7-1.1,1.3-1.7,1.8c-0.9,0.6-1.6,1.6-2.2,2.5c-0.4,0.7-0.8,1.1-1.1,1.8
		c-0.3,0.6-0.8,1.2-1.1,1.8c-0.2,0.4-0.4,1-0.6,1.4c-0.3,0.6-0.6,0.6-1,0.9"/>
	<path id="path3381" class="st3" d="M401.8,537.5c0,0.1,0,1.3,0,1.9c0,0.6,0,1.1,0,1.8c0,0.2,0,0.3,0,0.5c0,0.6,0.6,0.9,0.6,1.7
		c0,0.9,0,1.7,0,2.6c0,0.7,0,1.5,0,2.2c0,0.5-0.1,1-0.1,1.5c0,0.7,0,1.4,0.2,1.9c0.2,0.6,0,1.5,0,2.1c0,0.5-0.1,1.2-0.2,1.6
		c-0.2,0.6-0.6,1.4-0.9,1.9c-0.3,0.5-0.8,1.4-0.8,1.9c0,0.6-0.5,1.1-0.5,1.7c0,0.7-0.7,1.3-0.7,2c0,0.5-0.1,1.1-0.1,1.7
		c0,0.6,0,1.2,0,1.9c0,0.7-0.2,1.1-0.2,1.8c0,0.4-0.5,1.2-0.7,1.5c-0.2,0.4-0.5,1-0.8,1.3c-0.4,0.3-0.8,0.8-1,1.2
		c-0.1,0.2-0.9,0.8-1.1,0.9c-0.3,0.2-0.7,1.2-0.7,1.6c0,0.4-0.4,0.9-0.6,1.3c-0.2,0.4-0.5,0.8-0.8,1.1c-0.3,0.3-0.5,1-0.7,1.4
		c-0.3,0.5-0.4,0.8-0.4,1.5c0,0.4-0.2,0.5-0.2,0.8"/>
	<path id="path3383" sodipodi:nodetypes="cssssssc" class="st3" d="M389.2,571.8c0,0.4,0.4,0.7,0.7,1c0.5,0.5,0.7,1,0.8,1.5
		c0.1,0.5,0.5,1,0.7,1.3c0.3,0.5,0.4,0.9,0.5,1.3c0.2,0.6,0.4,0.9,0.2,1.5c-0.1,0.4,0,1,0,1.5c0,0.1,0,0.2,0,0.4"/>
	<path id="path3385" class="st3" d="M396.7,543.7c0,1,0.1,1.7,0.1,2.5c0,0.7,0,1.2-0.3,1.8c-0.4,0.7-0.6,1.8-1,2.5
		c-0.3,0.5-0.4,1-0.4,1.7c0,0.7,0,1.4,0,2c0,0.6-0.2,1.3-0.4,1.9c-0.2,0.7-0.2,1.7-0.2,2.4c0,0.8-0.1,1.4-0.4,2
		c-0.3,0.8-0.6,1.3-0.9,2.1c-0.2,0.6-0.8,1.2-0.9,1.8c-0.2,0.6-0.5,1.1-0.8,1.7c-0.4,0.7-0.8,1.7-1,2.4c-0.1,0.5-0.4,1.1-0.6,1.7
		c-0.2,0.6-0.5,1.1-0.7,1.6c-0.3,0.5-0.5,0.7-0.8,1.2c-0.3,0.6-0.9,1.3-1.3,2c-0.4,0.8-0.9,1.5-1.4,2.1c-0.4,0.5-0.8,1.2-1.1,1.8
		c-0.3,0.5-0.5,1-0.9,1.5c-0.4,0.6-0.8,1.1-1.3,1.6c-0.4,0.4-0.6,0.7-1,1.1c-0.1,0.1-0.2,0.2-0.3,0.3c-0.2,0.2-0.5,0.4-0.7,0.6
		c-0.6,0.5-1,0.6-1.4,1.3c-0.2,0.4-0.2,1-0.2,1.6c0,0.5,0,1,0,1.5c0,1.3-0.1,2.5-0.4,3.8c-0.1,0.6,0,1.4,0,2c0,0.6-0.1,1.2-0.1,1.9
		c0,0.6-0.5,1.4-0.5,2.2c0,0.6-0.3,1.1,0,1.8c0.2,0.3,0,1.3,0.1,1.6c0.1,0.5,0.3,0.9,0.2,1.5c-0.2,0.6-0.1,0.6,0.1,1.3
		c0.1,0.4,1.1,0.9,1.3,1.1c0.3,0.3,1.1,0.6,1.4,0.8c0.3,0.2,1.1,0.5,1.6,0.7c0.5,0.2,1,0,1,0.6c0,0.5-0.7,0.9-1.1,1.4
		c-0.3,0.3-0.9,0.8-1.3,1c-0.6,0.3-1,0.4-1.6,0.6c-0.5,0.1-1.3,0-1.9,0c-0.6,0-1.1,0-1.7,0c-0.6,0-1.5-0.2-2-0.3
		c-0.6-0.1-0.9-0.4-1.4-0.4c-0.6,0-0.9-0.6-1.3-0.7c-0.4-0.1-0.7-0.8-0.8-1.1c0-0.1-0.6-0.5-0.7-0.7c-0.2-0.4,0.7-1,0.9-1.1
		c0.6-0.4,0.9-0.6,1.5-0.9c1.1-0.5,1.1-0.8,2.3-1.1c0.7-0.2,1.6,0,2.3,0c0.5,0,0.9,0,1.4,0"/>
	<path id="path3387" class="st3" d="M374.7,603.8c0.2,0-0.5-1.5-0.7-1.8c-0.3-0.5-0.5-1.1-0.7-1.6c-0.3-0.7-0.7-0.9-1-1.5
		c-0.2-0.4-0.5-0.6-0.5-1.2c0-0.7,0.4-0.9,0.8-1.3c0.6-0.5,0.8-0.8,1.3-1.4c0.3-0.4,0.6-0.9,0.7-1.5c0.2-0.6,0.2-1.3,0.2-1.9
		c0-0.6,0-1.3,0-1.9c0-0.7,0.3-1.7,0.6-2.3c0.3-0.6,0.5-1.1,0.8-1.8c0.2-0.5,0.4-0.9,0.6-1.3c0.2-0.4,0.1-1.1,0-1.5
		c-0.2-0.7,0.2-1.1,0.4-1.9c0.2-0.6,0.6-1,0.7-1.6c0.2-0.6,0.5-0.9,0.6-1.4c0.1-0.4,0.4-1.2,0.7-1.4c0.4-0.4,0.5-0.9,0.9-1.3
		c0.3-0.3,0.5-0.6,0.8-0.9c0.2-0.5,1.5-1.3,1.9-1.8c0.4-0.5,0.7-1,1-1.6c0.3-0.6,0.6-1.1,1-1.6c0.3-0.4,0.7-1.2,0.8-1.7
		c0.1-0.3,0.6-0.8,0.8-1.1c0.2-0.4,0.8-0.8,1.1-1.1c0.6-0.5,0.9-1.1,1.5-1.6c0.4-0.4,0.4-1.1,0.8-1.4c0.4-0.3,0.4-1.4,0.7-1.9
		c0.1-0.2,0.2-0.5,0.3-0.6"/>
	<path id="path3389" class="st3" d="M354.5,605.5c0.3-0.3,0.5,0.6,0.8,0.9c0.8,0.7,2.1,0.6,3.1,0.6c0.7,0,1.4,0.2,2.1,0.2
		c0.8,0,1.4,0.2,2.4,0.2c1.6,0,4.9,0.3,6.6-0.1c0.9-0.2,0.7-1.5,0.5-1.8c-0.4-0.7-0.7-1.7-0.7-2.5c0-0.8-0.2-1.4-0.2-2
		c0-1.3-0.4-2.4-0.6-3.2c-0.1-0.4-0.3-0.8-0.5-1.3c-0.3-0.7-0.6-1.1-0.7-1.8c-0.1-0.5-0.5-1.2-0.7-1.6c-0.4-0.7,0-0.1-0.1-0.4"/>
	<path id="path3391" class="st3" d="M355.4,606.9c0-0.1,2.5-0.5,2.7-0.6c0.6-0.5,1.2,0.2,1.2-1c0-0.7,0-1.4,0-2.1
		c0-0.8,0.5-1.4,0.5-2c0-0.5,0.6-1.4,0.8-1.8c0.4-0.6,0.9-1,1.3-1.5c0.3-0.4,0.6-1,1-1.4c0.4-0.4,0.9-0.9,1.4-1.4
		c0.4-0.4,0.7-0.7,1-1.1c0.5-0.6,1.4-1.3,1.9-1.8c0.5-0.5,0.9-0.9,1.4-1.3c0.5-0.5,0.9-0.7,1.1-1.3c0.2-0.6,0.6-1.2,0.9-1.8
		c0.3-0.6,0.3-1.4,0.6-2c0.3-0.6,0.3-1,0.8-1.5c0.2-0.2,0.4-1,0.5-1.3c0.2-0.8,0.7-1.5,1-2.3c0.3-0.6,0.3-1.3,0.3-2
		c0-0.6-0.1-1.2-0.3-1.6c-0.1-0.2,0.1-0.7,0.1-0.8c-0.3-0.5,0.8-2.4,1.1-2.8c0.4-0.5,0.2-1.5,0.2-2.2c0-0.5-0.1-1-0.1-1.7
		c0-0.7,0-1.5-0.1-2.2c-0.1-0.6,0.5-1.6,0.7-2c0.5-0.9,1.1-2.1,1.1-3.1c0-0.3-0.4-1-0.5-1.5"/>
	<path id="path3393" class="st3" d="M381,541.9c0.3-0.5-0.1,1.8-0.1,3.4c0,0.9,0.2,2.1,0.3,2.7c0.2,0.7,0,1.5,0,2.2
		c0,0.2,0,0.3,0,0.5c0,0.5,0.2,1.5,0.2,2.1c0,0.7,0.1,1.1,0.1,1.8c0,0.9,0,1.8,0,2.7c0,0.9,0,1.7,0,2.6c0,0.7,0.1,1.4-0.1,2
		c-0.2,0.7-0.2,1.8-0.2,2.5c0,0.5-0.5,1.1-0.6,1.7c-0.2,0.9-0.4,1.6-0.7,2.5c-0.2,0.7,0,1.7,0,2.4c0,0.8-0.1,1.8-0.1,2.5
		c0,0.6,0,1.2,0,1.9c0,0.5-0.7,1.7-1,2.1c-0.1,0.1-0.1,0.2-0.1,0.4"/>
	<path id="path3395" class="st3" d="M393.3,543.8c-0.2,0.4-0.1,1.5-0.1,2c0,0.7-0.7,2-0.9,2.7c-0.3,0.9-1.1,1.3-1.7,2
		c-0.4,0.5-1.1,1-1.6,1.5c-0.5,0.4-1,1-1.6,1.5c-0.7,0.5-1.2,0.8-1.7,1.4c-0.4,0.5-1.1,1-1.7,1.3c-0.6,0.3-1.2,0.5-1.7,0.6
		c-0.3,0.1-0.5,0.2-0.8,0.3"/>
	<path id="path3403" sodipodi:nodetypes="csssc" class="st3" d="M345.1,585.6c0.2,0.4,0.1,1.6,0.1,2.3c0,0.7-0.1,1.3-0.1,1.9
		c0,0.6,0,1.2,0,1.9c0,0.4,0,0.3,0,0.7"/>
	<path id="path3405" sodipodi:nodetypes="csssc" class="st3" d="M348.5,596.4c-0.8-0.4,1.6,1,2.5,1.2c1.1,0.3,2.3,0.7,3.6,1
		c1,0.2,2,0.7,2.8,1c0.9,0.4,2,0.3,3,0.3"/>
	<path id="path3407" sodipodi:nodetypes="cssssssssssc" class="st3" d="M373.6,576.4c0.4,0.2-1.2,2.6-1.4,3
		c-0.5,0.7-0.9,1.4-1.3,2.1c-0.4,0.7-0.9,1.3-1.3,2c-0.5,0.9-1.1,1.8-1.8,2.6c-0.4,0.4-0.7,1.1-0.9,1.6c-0.4,0.7-1.3,1.4-1.9,1.9
		c-0.6,0.4-1,1-1.6,1.3c-0.6,0.3-1.1,0.6-1.5,1c-0.5,0.4-0.9,0.7-1.5,0.8c-0.6,0.1-1.1,0-1.7,0.2c-0.3,0.1-0.6,0.1-1,0.1"/>
	<path id="path3411" class="st3" d="M373.3,555.8c0.1,0-0.1,1.4-0.1,1.7c0,1,0,2-0.2,3c-0.2,0.7-0.6,1.1-0.9,1.7
		c-0.3,0.5-0.3,1.3-0.3,1.9c0,0.6-0.4,1.4-0.6,1.8c-0.3,0.6-0.6,1.2-1.1,1.7c-0.4,0.4-0.7,0.8-1.1,1.1c-0.3,0.3-1.6,0.6-2.1,0.6
		c-0.8,0.1-1.7,0.1-2.5,0.1c-0.4,0-0.7,0-1.1,0"/>
	<path id="path3423" class="st3" d="M362.2,556c-0.3-0.3-0.7,0.5-1.1,0.6c-0.5,0.1-1-0.2-1.5-0.4c-0.5-0.1-1-0.2-1.5-0.3
		c-0.3-0.1-0.9-0.7-1-0.8c-0.1-0.2-0.6-0.4-0.8-0.6"/>
	<path id="path3425" class="st3" d="M353.1,559.9c-0.3-0.5,0.6,0.9,0.9,1.4c0.2,0.4,0.3,0.7,0.3,1.4c0,0.8,0.1,1.5,0.3,2.2
		c0.1,0.5,0.4,1.2,0.6,1.7c0.2,0.5,0.2,0.9,0.4,1.3c0.2,0.5,0.3,1.3,0.4,1.8c0.1,0.4,0.2,0.9,0.5,1.1c0.4,0.4,0.5,0.9,0.5,1.4
		c0,0.1,0.4,1.2,0.5,1.3c0.3,0.5,0,1.3-0.1,1.9c0,0.1-0.1,0.1-0.1,0.2c-0.3,0.5-0.4,1.1-0.6,1.7c-0.1,0.4,0,0.8-0.1,1.1"/>
	<path id="path3429" class="st3" d="M353.4,525.9c0.2,0.9,0,1.9,0,2.8c0,0.7,0.1,1.2-0.1,1.9c-0.2,0.8-0.4,1.5-0.7,2.1
		c-0.3,0.5-0.6,1.2-0.6,1.8c0,0.7-0.6,1.7-0.6,2.5c0,0.8,0,1.8-0.2,2.5c-0.2,0.6,0,1.5,0,2.1c0,0.6,0,1.2,0,1.9
		c0,0.9-0.3,1.9-0.3,2.8c0,0.6-0.1,1.2,0,1.8c0.1,0.3,0,1.4,0,1.9c0,0.9,0,1.7,0,2.6c0,0.6,0,1.2,0,1.8c0,0.9,0,1.9,0,2.8
		c0,0.7,0,1.4,0,2.1c0,0.3,0,0.7,0,1c0.1,0.1,0.1,0.3,0.2,0.5c0.2,0.4,0,1.3,0,1.8c0,0.7-0.3,1.1-0.3,1.8c0,0.6,0,1.2,0,1.9
		c0,0.6,0,1.1,0,1.7c0,0.6,0,1.2,0,1.8c0,0.7,0,1.5,0.1,2c0.1,0.5,0.4,1,0.6,1.6c0.1,0.4,0.4,0.9,0.5,1.3c0.1,0.4,0.2,1,0.2,1.6
		c0,0.7,0,1.4,0,2c0,0.7,0,1.4,0,2.1c0,0.7,0.2,1,0.5,1.6c0.2,0.4,0.6,0.6,0.8,1.2c0,0.1-0.1,0.6-0.1,0.8"/>
	<path id="path3431" class="st3" d="M353,528.5c0.1,0.5-0.8,2.5-1.1,3c-0.3,0.5-0.3,1.1-0.5,1.7c-0.1,0.5-0.2,1.2-0.4,1.5
		c-0.3,0.6-0.8,1.6-0.9,2.2c0,0.2-0.1,0.3-0.1,0.5c-0.1,0.6-0.6,1.1-0.8,1.6c-0.2,0.4-0.3,0.8-0.6,1.3c-0.3,0.6-0.7,1.4-0.9,1.8
		c-0.3,0.5-0.4,1.2-0.5,1.7c-0.2,0.6-0.2,1.2-0.4,1.8c-0.1,0.5,0,1.3,0,1.9c0,0.8-0.2,1.9-0.4,2.6c-0.2,0.6-0.3,1.1-0.2,1.6
		c0.1,0.6-0.1,1.2-0.3,1.6c-0.3,0.6-0.5,1.4-0.5,2c0,0.8,0.2,1.1,0.2,1.9c0,0.8,0,1.5,0,2.3c0,0.7,0,1.3-0.1,1.9
		c-0.1,0.6,0,1.4,0.2,1.7c0.2,0.4,0.6,0.9,0.7,1.3c0.2,0.6,0.1,1.6,0.2,2.2c0,0.1,0.1,0.1,0.2,0.1c0.6,0.3,0.1,1.4,0.5,1.9
		c0.3,0.3,0.2,1.2,0.3,1.7c0.1,0.5,0.1,1.2,0.1,1.9c0,0.7,0.1,1.3-0.1,1.9c0,0.1,0,0.3,0,0.5c-0.2,0.6,0,1.5,0,2.1
		c0,0.7,0.1,1.3,0.1,1.9c0,0.5,0.2,1.5,0.4,1.9c0.1,0.2-0.3,1.5-0.3,1.9c0,0.6,0,1.1,0,1.7c0,0.7-0.2,1.1-0.2,1.7"/>
	<path id="path3433" class="st3" d="M345.5,542.1c0,1,0,1.8,0,2.5c0,0.6-0.9,1.2-0.9,2c0,0.4-0.3,1.3-0.4,1.7
		c-0.2,0.7-0.2,1.7-0.2,2.3c0,0.6-0.1,1.2-0.1,1.7c0,0.6-0.6,1.5-0.8,1.9c-0.2,0.4-0.6,0.6-0.7,1.2c-0.1,0.6-0.4,1.3-0.4,1.9
		c0,0.5,0,1,0,1.5c0,0.8,0,1.5,0.2,2.1c0.1,0.5,0.1,0.9,0.1,1.5c0,0.6,0,1.3-0.2,1.9c0,0.1-0.1,0.2-0.1,0.3c-0.2,0.5,0,1.2-0.1,1.7
		c-0.1,0.5-0.2,1-0.2,1.7c0,0.6-0.3,0.9-0.7,1.3c-0.3,0.3-0.4,0.9-0.6,1.2"/>
	<path id="path3439" class="st3" d="M346.4,565.3c0-0.6-0.2,1.2,0.1,1.7c0.2,0.4,0,1.6-0.1,1.9c-0.1,0.6,0,1.1-0.2,1.6
		c-0.2,0.3-0.2,1.2-0.3,1.5c-0.2,0.6-0.5,1.1-0.7,1.8c-0.2,0.6,0,1.4,0,2c0,0.6,0,1.4,0.1,1.9c0.1,0.5,0,1,0,1.6
		c0,0.5,0,0.5-0.2,0.8"/>
	<path id="path3441" class="st3" d="M341.8,571.9c0,0.3,0,0.9,0,1.6c0,0.6,0.2,0.9,0.2,1.3c0,0.5,0,0.9,0,1.4c0,0.7,0.2,1,0.2,1.6
		c0,0.4-0.4,1.1-0.5,1.5c-0.1,0.5-0.3,0.7-0.3,1.3c0,0.2,0,0.3,0,0.5"/>
	<path id="path3443" class="st4" d="M336.2,610.7h68.4"/>
	<path class="st5" d="M381.4,509.7"/>
	<path class="st6" d="M356.1,526.7c0.3-0.9,0.8-1.6,1.4-2.4c0.4-0.6,0.9-1.2,1.6-1.3c0.3-0.1,0.7,0,1,0.1c0.7,0.2,1.3,0.3,2,0.5
		c0.5,0.1,0.9,0.2,1.4,0.3c1.4,0.1,2.8-0.6,4.1-0.4c1.9,0.3,3.4,2.3,5.4,2.1c-1.3,0.7-2.7,1.2-4.1,1.6c-0.6,0.1-1.2,0.3-1.7,0.7
		c-0.4,0.3-0.6,0.7-0.8,1.1c-0.5,0.9-1.2,1.7-2,2.4c-0.2,0.2-0.4,0.4-0.7,0.4c-0.4,0.1-0.7,0-1.1-0.1c-1.3-0.4-2.5-1.2-3.9-1.4
		c-0.8-0.1-2.4-0.1-2.9-1C355.5,528.8,355.9,527.3,356.1,526.7z"/>
	<path class="st6" d="M388.6,524.2c-1.8,0.3-3.7,0.5-5.5,0.5c-0.2,0-0.4,0-0.5,0.1c-0.1,0.1-0.1,0.2-0.1,0.4
		c-0.3,1.5-2.3,2.2-2.6,3.6c1.2,0.3,2.3,1.1,2.9,2.2c0.1,0.1,0.1,0.2,0.2,0.2c0.1,0,0.2,0,0.3,0c0.5-0.2,0.9-0.4,1.3-0.6
		c1.8-0.9,3.8-1.6,5.8-1.9c-0.3,0.1-0.3-4.5-0.4-4.9C389.5,523.9,389.1,524.1,388.6,524.2z"/>
	<path class="st6" d="M375.1,528.7c0.6-0.1,1.2-0.5,1.8-0.7c0.7-0.2,1.5-0.2,2.1-0.5c0.3-0.1,0.6-0.4,0.8-0.6c0.6-0.5,1.2-1,1.9-1.5
		c0.2-0.2,0.4-0.4,0.2-0.6c-0.1-0.1-0.2-0.1-0.3-0.1c-1.3-0.1-2.6-0.1-4,0c-0.5,0-1,0.1-1.4,0.3c-1.2,0.4-2.1,1.4-2.9,2.4
		C372.7,528.4,374.4,528.9,375.1,528.7z"/>
	<path class="st6" d="M356.9,532.5c0.6,0.2,1.2,0.5,1.8,0.7c1.2,0.4,2.5,0.9,3.8,0.6c0.3-0.1,0.6-0.2,0.9-0.1c0.2,0,0.4,0.2,0.5,0.2
		c0.5,0.2,1,0.2,1.5-0.1c-0.1,0.2-0.3,0.4-0.6,0.4c-0.3,0-0.5,0-0.8,0c-0.6,0-1.1,0.4-1.7,0.4c-0.5,0.1-1,0-1.4-0.1
		c-2.1-0.5-4.3-1-5.7-2.6c-0.2-0.2-0.4-0.5-0.3-0.8c0.3,0.1,0.6,0.5,0.9,0.8C356.1,532.2,356.5,532.4,356.9,532.5z"/>
	<path class="st6" d="M374.6,532.6c0,0.3,0,0.7,0.2,1c0.8-0.1,1.6-0.1,2.4-0.2c0.5-0.1,1-0.1,1.4-0.3c0.6-0.2,1.1-0.6,1.6-0.8
		c0.7-0.2,1.5-0.2,2.1-0.6c-0.7-1-1.5-2-2.7-2.4c-1.2-0.4-2.5-0.2-3.7,0.2c-0.8,0.2-0.7,0.6-0.8,1.3
		C374.9,531.3,374.7,531.9,374.6,532.6z"/>
	<path class="st6" d="M367,530.6c0.5-0.8,1.4-1.3,2.3-1.2c0.7,0.1,1.2,0.5,1.8,0.8c0.6,0.3,1.3,0.5,1.9,0.2c0.4-0.2,0.8-0.6,1.3-0.6
		c0.2,0,0.3,0.3,0.3,0.5c-0.1,0.2-0.2,0.4-0.3,0.6c-0.2,0.3-0.2,0.6-0.2,1c-0.1,0.5-0.1,1.1-0.2,1.6c0,0.2,0,0.5-0.2,0.7
		c-0.2,0.4-0.7,0.5-1.2,0.6c-1.4,0.1-2.7-0.1-4-0.6c-0.6-0.3-1.8-0.4-2-1C366.2,532.3,366.5,531.2,367,530.6z"/>
	<path class="st6" d="M397.5,526.9c0.2,0,0.3,0,0.5,0c0.8,0,1.5-0.1,2.3-0.1c0.3,0,0.5,0,0.8,0c0.3,0,0.5,0.2,0.7,0.4c0,0,0,0,0,0.1
		c0,0,0,0.1,0,0.1c-0.1,0.3-0.3,0.7-0.6,0.8c-0.2,0.1-0.5,0-0.7-0.1c-0.2,0-0.4,0-0.6,0c-1,0.1-1.9,0.3-2.9,0.4
		c-0.2-0.3,0-0.6-0.1-0.9c0-0.2-0.1-0.4,0-0.5C397,526.9,397.3,527,397.5,526.9z"/>
	<path class="st6" d="M398.2,524.9c0.2,0,0.5,0,0.7,0c0.4,0,0.8,0,1.1,0c0.3,0,0.6,0,1,0c0.3,0,0.6-0.1,0.9,0c0.2,0,0.4,0.1,0.5,0.2
		c0.1,0,0.2,0.1,0.2,0.2c0.1,0.1,0.1,0.4,0,0.5c0,0.1,0,0.1-0.1,0.2c-0.1,0.1-0.2,0.1-0.3,0.2c-0.4,0.2-0.8,0.3-1.2,0.3
		c-0.3,0-0.6,0-0.9,0c-0.3,0-0.6,0.1-1,0.1c-0.4,0-0.8,0-1.2,0c-0.3,0-0.7,0.2-1,0.2c-0.1,0-0.1,0-0.2,0c-0.1-0.1-0.1-0.2-0.2-0.3
		c0-0.3-0.1-0.5-0.1-0.8c0-0.3-0.1-0.5,0.2-0.5C397.4,525.1,397.8,525,398.2,524.9z"/>
	<path class="st6" d="M398.6,522.8c0.2-0.1,0.4-0.1,0.6-0.1c0.2,0,0.3,0,0.5,0c0.6,0.1,1.2,0,1.9-0.1c0.2,0,0.5-0.1,0.6-0.2
		c0-0.3-0.1-0.5-0.2-0.8c0-0.1-0.1-0.2-0.2-0.2c-0.1,0-0.2,0-0.3,0c-0.4,0-0.9,0-1.3,0c-0.2,0-0.3,0-0.5,0c-0.3,0-0.7,0.1-1,0.1
		c-0.8,0.1-1.7,0.2-2.5,0.3c0.1,0.1,0.2,0.2,0.2,0.4c0,0.1,0,0.2,0,0.3c0,0.2-0.1,0.5,0,0.7c0.1,0.2,0.4,0.1,0.6,0
		C397.6,523.1,398.1,523,398.6,522.8z"/>
	<path class="st6" d="M399.1,524.6c0.2,0,0.4,0,0.5,0c0.2,0,0.5-0.1,0.7-0.1c0.4,0,0.8,0,1.2,0c0.4,0,0.9-0.1,1.3-0.3
		c0.1,0,0.2-0.1,0.3-0.2c0.1-0.2,0-0.4,0-0.6c0-0.1-0.1-0.2-0.2-0.3c-0.1-0.1-0.3-0.2-0.5-0.2c-0.5-0.1-0.9,0-1.4,0.1
		c-0.8,0.1-1.6,0.2-2.4,0.3c-0.4,0-0.7,0-1.1,0.1c-0.3,0.1-0.5,0.1-0.8,0.1c-0.1,0-0.2,0-0.3,0c-0.1,0.1-0.1,0.2,0,0.3
		c0.1,0.2,0.1,0.7,0.2,0.8c0.2,0.1,0.4,0,0.6-0.1C397.9,524.6,398.5,524.6,399.1,524.6z"/>
	<path class="st6" d="M393.6,529c0.2,0,0.3-0.1,0.5-0.1c0.2,0,0.4,0,0.6,0c0.3,0,0.6,0,0.9,0c0.2,0,0.3,0,0.4-0.2
		c0-0.1,0.1-0.2,0.1-0.2c0-0.6,0-1.2-0.1-1.8c0-0.2-0.1-0.4,0-0.6c0-0.1,0.1-0.2,0.2-0.4c0.1-0.3,0.1-0.7,0-1
		c-0.2-0.9-0.5-1.9-0.7-2.8c0-0.1,0-0.1-0.1-0.2c0,0-0.1,0-0.1,0c-0.3,0-0.5,0.1-0.8,0.3c0,0-0.1,0-0.1,0.1c0,0,0,0.1,0,0.1
		c0.2,0.6,0,1.2-0.3,1.7c-0.2,0.3-0.5,0.5-0.9,0.4c-0.1,0-0.3-0.1-0.4-0.2c-0.5-0.3-1-0.5-1.6-0.7c-0.2-0.1-0.4-0.1-0.5,0.1
		c0,0.1,0,0.1,0,0.2c0,0.7,0.2,1.4,0.2,2.1c0,0.2,0,0.4,0,0.7c0,0.2,0.1,0.5,0.1,0.7c0.1,0.4,0.1,0.8,0.2,1.2
		c0.1,0.3,0.4,0.4,0.7,0.4C392.3,529.1,393,529.2,393.6,529z"/>
	<path class="st6" d="M391.9,521.8c0.5-0.1,1-0.1,1.5,0.1c0.1-0.1,0.1-0.2,0.2-0.3c0,0,0-0.1,0-0.1c0,0,0-0.1-0.1-0.1
		c-0.3-0.4-0.6-0.8-0.9-1.2c0,0-0.1-0.1-0.1-0.1c-0.1,0-0.2,0-0.2,0.1c-0.5,0.3-0.9,0.8-1.2,1.3c-0.1,0.2-0.3,0.5,0,0.5
		C391.3,522.1,391.7,521.9,391.9,521.8z"/>
	<path class="st6" d="M393.9,520.7c0,0,0.1,0.1,0.1,0.1c0,0,0,0,0.1,0c0.2-0.2,0.4-0.3,0.5-0.5s0.3-0.5,0.2-0.7
		c0-0.2-0.1-0.4-0.2-0.5c0,0,0,0-0.1-0.1c-0.1,0-0.1,0-0.2,0.1c-0.1,0.1-0.3,0.2-0.4,0.3c-0.4,0.2-0.8,0.4-1.2,0.6
		c0,0-0.1,0.1-0.1,0.1c0,0.1,0.5,0.2,0.6,0.3C393.5,520.3,393.7,520.5,393.9,520.7z"/>
	<path class="st6" d="M390.7,522.6c0-0.2,0.1-0.4,0.3-0.5c0.1,0,0.1,0,0.2,0c0.7,0,1.4,0,2.1,0c0.2,0,0.3,0,0.5,0
		c0.2,0,0.3,0.1,0.4,0.3c0.1,0.1,0,0.3,0,0.5c-0.1,0.3-0.2,0.5-0.4,0.7c-0.1,0.2-0.3,0.3-0.5,0.4c-0.2,0-0.3,0-0.5,0
		c-0.2-0.1-0.5-0.1-0.7-0.2c-0.2-0.1-0.4-0.2-0.5-0.3c-0.2-0.1-0.5-0.2-0.7-0.3C390.5,523.1,390.6,522.9,390.7,522.6z"/>
	
		<ellipse transform="matrix(0.7709 -0.6369 0.6369 0.7709 -246.1061 367.8919)" class="st7" cx="388.4" cy="526.1" rx="0.6" ry="0.6"/>
	
		<ellipse transform="matrix(0.7709 -0.6369 0.6369 0.7709 -249.0287 360.439)" class="st7" cx="376.6" cy="526.4" rx="0.6" ry="0.5"/>
	
		<ellipse transform="matrix(0.7709 -0.6369 0.6369 0.7709 -253.9932 355.963)" class="st7" cx="367.9" cy="531.1" rx="0.7" ry="0.8"/>
	
		<ellipse transform="matrix(0.7709 -0.6369 0.6369 0.7709 -255.5357 356.9806)" class="st7" cx="368.5" cy="533.7" rx="0.3" ry="0.5"/>
	
		<ellipse transform="matrix(0.7709 -0.6369 0.6369 0.7709 -250.4565 359.1393)" class="st6" cx="374" cy="527.8" rx="0.5" ry="0.4"/>
	
		<ellipse transform="matrix(0.7709 -0.6369 0.6369 0.7709 -252.6938 362.6806)" class="st6" cx="377.8" cy="532.6" rx="0.5" ry="0.4"/>
	<path class="st6" d="M372,530.4c0.2-0.1,0.5-0.3,0.5-0.5c0-0.1-0.1-0.2-0.1-0.3c-0.4-0.6-0.7-1.2-1-1.9c-0.2-0.4-0.3-0.8-0.7-1"/>
	<path class="st6" d="M357,524.3c-0.1,0-0.1,0-0.2,0c0,0-0.1,0.1-0.1,0.1c0,0-0.1,0.1-0.1,0.1c-0.1,0.1-0.1,0.1-0.1,0.2
		c-0.1,0.1-0.2,0.3-0.3,0.4c0,0.1,0,0.1,0,0.1c0,0,0,0.1,0,0.1c0,0,0,0.1,0,0.1c0.1-0.2,0.3-0.4,0.4-0.6c0.1-0.1,0.2-0.3,0.3-0.4
		c0.1-0.1,0.1-0.3,0.3-0.3c0.1,0,0.1,0.1,0.1,0.1c-0.1,0.3-0.4,0.5-0.5,0.8c-0.1,0.2-0.2,0.4-0.4,0.5c0,0,0,0-0.1,0c0,0-0.1,0-0.1,0
		s0-0.1-0.1-0.1c0,0,0,0,0-0.1c0,0,0-0.1,0-0.1"/>
	
		<ellipse transform="matrix(0.7709 -0.6369 0.6369 0.7709 -251.2617 350.5008)" class="st8" cx="361.6" cy="524.6" rx="0.6" ry="0.5"/>
	
		<ellipse transform="matrix(0.7709 -0.6369 0.6369 0.7709 -253.0718 353.1891)" class="st7" cx="364.5" cy="528.4" rx="0.4" ry="0.4"/>
	
		<ellipse transform="matrix(0.7709 -0.6369 0.6369 0.7709 -246.1348 370.5006)" class="st6" cx="392" cy="527.4" rx="0.4" ry="0.4"/>
	
		<ellipse transform="matrix(0.7709 -0.6369 0.6369 0.7709 -243.1597 369.7679)" class="st6" cx="392.5" cy="522.9" rx="0.6" ry="0.6"/>
	
		<ellipse transform="matrix(0.7709 -0.6369 0.6369 0.7709 -245.4752 369.8442)" class="st6" cx="391.4" cy="526.2" rx="0.2" ry="0.2"/>
	
		<ellipse transform="matrix(0.7709 -0.6369 0.6369 0.7709 -242.4991 370.5019)" class="st6" cx="393.8" cy="522.4" rx="0.2" ry="0.2"/>
	
		<ellipse transform="matrix(0.7709 -0.6369 0.6369 0.7709 -244.6907 370.0546)" class="st6" cx="392.1" cy="525.2" rx="0.2" ry="0.2"/>
	
		<ellipse transform="matrix(0.7709 -0.6369 0.6369 0.7709 -243.6021 372.1192)" class="st6" cx="395.5" cy="524.7" rx="0.2" ry="0.2"/>
	
		<ellipse transform="matrix(0.7709 -0.6369 0.6369 0.7709 -251.6374 361.5374)" class="st7" cx="376.8" cy="530.6" rx="0.2" ry="0.2"/>
	
		<ellipse transform="matrix(0.7709 -0.6369 0.6369 0.7709 -249.8927 360.3005)" class="st6" cx="375.9" cy="527.5" rx="0.2" ry="0.2"/>
	
		<ellipse transform="matrix(0.7709 -0.6369 0.6369 0.7709 -249.5016 359.3968)" class="st6" cx="374.9" cy="526.6" rx="0.2" ry="0.2"/>
	<path id="path3369_1_" class="st4" d="M395.7,528.3l0,5.7"/>
</g>
<path class="st9" d="M75.5,54.2"/>
<ellipse class="st4" cx="69.6" cy="34.1" rx="2.1" ry="2.1"/>
</svg>
