<?xml version="1.0" encoding="utf-8"?>
<!-- Generator: Adobe Illustrator 24.3.0, SVG Export Plug-In . SVG Version: 6.00 Build 0)  -->
<svg version="1.1"
	 id="svg2" inkscape:output_extension="org.inkscape.output.svg.inkscape" inkscape:version="0.46" sodipodi:docname="Apollo_seal.svg" sodipodi:version="0.32" xmlns:cc="http://creativecommons.org/ns#" xmlns:dc="http://purl.org/dc/elements/1.1/" xmlns:inkscape="http://www.inkscape.org/namespaces/inkscape" xmlns:rdf="http://www.w3.org/1999/02/22-rdf-syntax-ns#" xmlns:sodipodi="http://sodipodi.sourceforge.net/DTD/sodipodi-0.dtd" xmlns:svg="http://www.w3.org/2000/svg"
	 xmlns="http://www.w3.org/2000/svg" xmlns:xlink="http://www.w3.org/1999/xlink" x="0px" y="0px" viewBox="0 0 162.3 162.3"
	 style="enable-background:new 0 0 162.3 162.3;" xml:space="preserve">
<style type="text/css">
	.st0{fill:#FBB03B;stroke:#000000;stroke-miterlimit:10;}
	.st1{fill:none;stroke:#000000;stroke-width:0.5;stroke-miterlimit:10;}
	.st2{fill:#FFFFFF;stroke:#000000;stroke-miterlimit:10;}
	.st3{fill:none;stroke:#000000;stroke-width:3;stroke-linecap:square;}
	.st4{fill:none;stroke:#000000;stroke-linecap:square;}
	.st5{fill:none;}
	.st6{fill:none;stroke:#000000;stroke-linecap:round;}
	.st7{fill:none;stroke:#000000;}
	.st8{fill:#00954C;stroke:#000000;stroke-linecap:round;}
	.st9{fill:#00954C;stroke:#000000;stroke-width:0.75;stroke-miterlimit:10;}
	.st10{fill:#00954C;stroke:#000000;stroke-width:0.5;stroke-miterlimit:10;}
	.st11{fill:#00954C;stroke:#000000;stroke-miterlimit:10;}
	.st12{fill:#CCCCCC;}
</style>
<defs>
	
		<inkscape:perspective  id="perspective10" inkscape:persp3d-origin="372.04724 : 350.78739 : 1" inkscape:vp_x="0 : 526.18109 : 1" inkscape:vp_y="0 : 1000 : 0" inkscape:vp_z="744.09448 : 526.18109 : 1" sodipodi:type="inkscape:persp3d">
		</inkscape:perspective>
	
		<inkscape:perspective  id="perspective2390" inkscape:persp3d-origin="372.04724 : 350.78739 : 1" inkscape:vp_x="0 : 526.18109 : 1" inkscape:vp_y="0 : 1000 : 0" inkscape:vp_z="744.09448 : 526.18109 : 1" sodipodi:type="inkscape:persp3d">
		</inkscape:perspective>
	
		<inkscape:perspective  id="perspective2400" inkscape:persp3d-origin="372.04724 : 350.78739 : 1" inkscape:vp_x="0 : 526.18109 : 1" inkscape:vp_y="0 : 1000 : 0" inkscape:vp_z="744.09448 : 526.18109 : 1" sodipodi:type="inkscape:persp3d">
		</inkscape:perspective>
	
		<inkscape:perspective  id="perspective2467" inkscape:persp3d-origin="372.04724 : 350.78739 : 1" inkscape:vp_x="0 : 526.18109 : 1" inkscape:vp_y="0 : 1000 : 0" inkscape:vp_z="744.09448 : 526.18109 : 1" sodipodi:type="inkscape:persp3d">
		</inkscape:perspective>
</defs>
<path class="st0" d="M73.5,64.6l-3.4,15.2c0,0.4,0,0.9,0,1.6c0.1,1.5,0.2,3.4,1.1,5.2c0.4,0.7,1.2,2,2.9,3.1l2.3,0.5l2.9,0.5h1.1
	v4.7c-0.9,0.2-2.3,0.3-4,0c-3.4-0.6-5.4-2.7-6.3-3.7c-1.6-1.7-2.4-3.4-2.9-4.7l-0.6-1l4.6-19.9v-1"/>
<path class="st0" d="M73.5,64.6c0-0.3,0-0.6,0-1c-0.1-1-0.1-1.6-0.6-2.1C72.5,61.1,72,61,71.8,61c-0.5-0.1-0.9,0-1.1,0
	c-0.3,0.1-0.7,0.1-1.1,0.5c-0.4,0.4-0.5,0.8-0.6,1c-0.1,0.2-0.1,0.6,0,1c0.1,0.5,0.4,0.9,0.6,1c0.2,0.3,0.4,0.4,0.6,0.5
	c0.4,0.3,0.9,0.4,1.1,0.5"/>
<path class="st1" d="M68.9,63.1c0.1,0.3,0.2,0.7,0.6,1c0.2,0.2,0.3,0.4,0.6,0.5c0.5,0.3,1.2,0.3,1.7,0c0.2-0.1,0.4-0.3,0.6-0.5
	c0.4-0.4,0.6-0.7,0.6-1c0-0.5-0.7-0.9-1.1-1c-0.1,0-0.3-0.1-0.6,0c-0.3,0.1-0.5,0.3-0.6,0.5c0,0.1-0.1,0.2,0,0.5c0,0.2,0.2,1,0.6,1
	c0.2,0,0.5-0.3,0.6-0.5c0.1-0.1,0.2-0.4,0-0.5c-0.1-0.1-0.4-0.1-0.6,0"/>
<path class="st2" d="M73.5,67.8"/>
<path class="st2" d="M80.7,68.3c-0.7,0-1.8,0.1-2.6,0c-2.1-0.1-3.8-0.6-5.2-1"/>
<line class="st2" x1="79.7" y1="90.8" x2="79.7" y2="68.3"/>
<line class="st2" x1="78.6" y1="90.9" x2="78.6" y2="68.4"/>
<line class="st2" x1="77.4" y1="90.9" x2="77.4" y2="68.4"/>
<line class="st2" x1="76.3" y1="90.4" x2="76.3" y2="68.3"/>
<line class="st2" x1="75.2" y1="90.4" x2="75.2" y2="67.8"/>
<path class="st0" d="M87.6,64.6L91,79.8c0,0.4,0,0.9,0,1.6c-0.1,1.5-0.2,3.4-1.1,5.2c-0.4,0.7-1.2,2-2.9,3.1l-2.3,0.5l-2.9,0.5h-1.1
	v4.7c0.9,0.2,2.3,0.3,4,0c3.4-0.6,5.4-2.7,6.3-3.7c1.6-1.7,2.4-3.4,2.9-4.7l0.6-1l-4.6-19.9v-1"/>
<path class="st0" d="M87.6,64.6c0-0.3,0-0.6,0-1c0.1-1,0.1-1.6,0.6-2.1c0.4-0.4,0.9-0.5,1.1-0.5c0.5-0.1,0.9,0,1.1,0
	c0.3,0.1,0.7,0.1,1.1,0.5c0.4,0.4,0.5,0.8,0.6,1c0.1,0.2,0.1,0.6,0,1c-0.1,0.5-0.4,0.9-0.6,1c-0.2,0.3-0.4,0.4-0.6,0.5
	c-0.4,0.3-0.9,0.4-1.1,0.5"/>
<path class="st1" d="M92.2,63.1c-0.1,0.3-0.2,0.7-0.6,1c-0.2,0.2-0.3,0.4-0.6,0.5c-0.5,0.3-1.2,0.3-1.7,0c-0.2-0.1-0.4-0.3-0.6-0.5
	c-0.4-0.4-0.6-0.7-0.6-1c0-0.5,0.7-0.9,1.1-1c0.1,0,0.3-0.1,0.6,0c0.3,0.1,0.5,0.3,0.6,0.5c0,0.1,0.1,0.2,0,0.5c0,0.2-0.2,1-0.6,1
	c-0.2,0-0.5-0.3-0.6-0.5c-0.1-0.1-0.2-0.4,0-0.5c0.1-0.1,0.4-0.1,0.6,0"/>
<path class="st2" d="M87.6,67.8"/>
<path class="st2" d="M80.4,68.3c0.7,0,1.8,0.1,2.6,0c2.1-0.1,3.8-0.6,5.2-1"/>
<line class="st2" x1="81.4" y1="90.8" x2="81.4" y2="68.3"/>
<line class="st2" x1="82.5" y1="90.9" x2="82.5" y2="68.4"/>
<line class="st2" x1="83.6" y1="90.9" x2="83.6" y2="68.4"/>
<line class="st2" x1="84.8" y1="90.4" x2="84.8" y2="68.3"/>
<line class="st2" x1="85.9" y1="90.4" x2="85.9" y2="67.8"/>
<sodipodi:namedview  bordercolor="#666666" borderopacity="1.0" gridtolerance="10000" guidetolerance="10" id="base" inkscape:current-layer="layer3" inkscape:cx="81.14286" inkscape:cy="79.180528" inkscape:document-units="px" inkscape:guide-bbox="true" inkscape:pageopacity="0.0" inkscape:pageshadow="2" inkscape:snap-global="false" inkscape:window-height="750" inkscape:window-width="1280" inkscape:window-x="-8" inkscape:window-y="-8" inkscape:zoom="1" objecttolerance="10" pagecolor="#ffffff" showgrid="false" showguides="true">
	<sodipodi:guide  id="guide2476" orientation="1,0" position="373.57143,522.14286"></sodipodi:guide>
	<sodipodi:guide  id="guide2478" orientation="0,1" position="450.71429,501.78572"></sodipodi:guide>
</sodipodi:namedview>
<g id="layer2" transform="translate(-292.42858,-469.43362)" inkscape:groupmode="layer" inkscape:label="Circle">
	
		<path id="path2484_1_" sodipodi:cx="373.57144" sodipodi:cy="550.57648" sodipodi:rx="79.64286" sodipodi:ry="79.64286" sodipodi:type="arc" class="st3" d="
		M298.6,549.9C298.6,549.9,298.6,549.9,298.6,549.9c0-44.1,35.6-79.7,79.6-79.8c44,0,79.7,35.6,79.7,79.6c0,0,0,0,0,0.1"/>
	
		<path id="path2486_1_" sodipodi:cx="373.57144" sodipodi:cy="550.57648" sodipodi:rx="76.071426" sodipodi:ry="76.071426" sodipodi:type="arc" class="st4" d="
		M302.2,549.9c0-42,34.1-76.1,76.1-76.1s76.1,34.1,76.1,76.1"/>
</g>
<g id="layer3" transform="translate(-292.42858,-469.43362)" inkscape:groupmode="layer" inkscape:label="Text">
	<path id="text2489" d="M366.9,484.1c0,0.6,0,1.2,0,1.7c0,0.5,0,0.9-0.1,1.2c0,0.2-0.1,0.3-0.1,0.4c-0.1,0.1-0.1,0.2-0.3,0.2
		c-0.1,0-0.1,0-0.2,0c-0.1,0-0.2,0-0.3,0c-0.1,0-0.1,0-0.2,0c0,0,0,0,0,0.1c0,0.1,0.1,0.1,0.3,0.1c0.3,0,0.6,0,0.9,0
		c0.3,0,0.6,0,0.7,0c0.2,0,0.5,0,0.8,0c0.4,0,0.8,0,1.2,0c0.1,0,0.1,0,0.2,0c0,0,0.1-0.1,0.1-0.1c0-0.1-0.1-0.1-0.2-0.1
		c-0.1,0-0.2,0-0.3,0c-0.1,0-0.2,0-0.3,0c-0.2,0-0.3-0.1-0.4-0.2c-0.1-0.1-0.1-0.3-0.1-0.4c0-0.3,0-0.7,0-1.2c0-0.5,0-1.1,0-1.7
		l0-2.3c0-1,0-1.6,0-2c0-0.4,0-0.6,0-0.8c0-0.2,0-0.4,0.1-0.5c0.1-0.1,0.2-0.2,0.4-0.2c0.1,0,0.1,0,0.2,0c0.1,0,0.1,0,0.2,0
		c0.1,0,0.1,0,0.2,0c0,0,0.1-0.1,0.1-0.1c0,0,0-0.1-0.1-0.1s-0.1,0-0.2,0c-0.3,0-0.5,0-0.9,0c-0.3,0-0.6,0-0.7,0c-0.2,0-0.5,0-0.8,0
		c-0.3,0-0.6,0-0.9,0c-0.1,0-0.2,0-0.2,0c-0.1,0-0.1,0-0.1,0.1c0,0.1,0,0.1,0.1,0.1c0,0,0.1,0,0.2,0c0.1,0,0.2,0,0.2,0
		c0.1,0,0.2,0,0.2,0c0.1,0,0.2,0.1,0.3,0.2c0.1,0.1,0.1,0.3,0.1,0.5c0,0.2,0,0.4,0,0.8c0,0.4,0,1,0,2L366.9,484.1z M359.2,484.5
		c0.1,0,0.1,0,0.1,0.1l0.9,2.8c0,0.1,0,0.1,0,0.2s-0.1,0.1-0.1,0.1c-0.1,0-0.1,0-0.1,0c0,0,0,0,0,0.1c0,0,0,0.1,0.1,0.1
		c0.1,0,0.2,0,0.3,0c0.5,0,1,0.1,1.4,0.1c0.4,0,0.8,0,1,0c0.2,0,0.4,0,0.5,0c0.1,0,0.1,0,0.1-0.1c0,0,0-0.1,0-0.1s-0.1,0-0.1,0
		c-0.1,0-0.2,0-0.3,0c-0.1,0-0.2,0-0.3-0.1c-0.1,0-0.3-0.1-0.5-0.3c-0.2-0.2-0.4-0.6-0.6-1.1c-0.2-0.5-0.4-1.2-0.7-2
		c-0.3-0.8-0.6-1.7-0.9-2.5c-0.3-0.9-0.6-1.6-0.8-2.3c-0.2-0.7-0.4-1.1-0.5-1.3c-0.1-0.2-0.1-0.3-0.2-0.3c0-0.1-0.1-0.1-0.2-0.1
		c-0.1,0-0.1,0-0.2,0.1c-0.1,0.1-0.1,0.2-0.2,0.4l-3.6,8c-0.1,0.3-0.3,0.6-0.5,0.8c-0.2,0.2-0.4,0.3-0.7,0.3c-0.1,0-0.1,0-0.2,0
		s-0.1,0-0.2,0c-0.1,0-0.1,0-0.1,0c0,0,0,0,0,0.1c0,0.1,0,0.1,0.1,0.1c0,0,0.1,0,0.2,0c0.4,0,0.7,0,1,0c0.3,0,0.5,0,0.6,0
		c0.2,0,0.4,0,0.7,0c0.2,0,0.5,0,0.7,0c0.1,0,0.1,0,0.2,0c0,0,0.1-0.1,0.1-0.1c0,0,0-0.1,0-0.1c0,0-0.1,0-0.2,0l-0.2,0
		c-0.2,0-0.3-0.1-0.4-0.1c-0.1-0.1-0.1-0.2-0.1-0.3c0-0.1,0-0.2,0.1-0.3c0-0.1,0.1-0.3,0.2-0.5l0.8-1.8c0,0,0-0.1,0-0.1
		c0,0,0,0,0.1,0L359.2,484.5z M373.6,483.6c0,0.6,0,1.1,0,1.6c0,0.5,0,0.9-0.1,1.1c0,0.2-0.1,0.4-0.1,0.5c-0.1,0.1-0.1,0.2-0.3,0.2
		c-0.1,0-0.1,0-0.2,0s-0.2,0-0.3,0c-0.1,0-0.1,0-0.2,0s0,0,0,0.1c0,0.1,0.1,0.1,0.3,0.1c0.1,0,0.3,0,0.4,0c0.2,0,0.3,0,0.5,0
		c0.2,0,0.3,0,0.4,0c0.1,0,0.2,0,0.3,0c0.2,0,0.4,0,0.6,0c0.2,0,0.5,0,0.7,0.1c0.2,0,0.5,0.1,0.8,0.1c0.3,0,0.5,0,0.7,0
		c1.2,0,2.2-0.2,2.9-0.5c0.7-0.3,1.2-0.6,1.5-1c0.4-0.4,0.7-0.9,1-1.5c0.3-0.6,0.5-1.3,0.5-2.1c0-0.8-0.1-1.4-0.3-2
		c-0.2-0.6-0.5-1-0.8-1.3c-0.7-0.7-1.6-1.2-2.5-1.4c-0.9-0.2-1.8-0.3-2.7-0.2c-0.4,0-0.8,0-1.1,0c-0.4,0-0.6,0-0.9,0
		c-0.2,0-0.5,0-0.8,0s-0.7,0-1.1,0c-0.1,0-0.2,0-0.2,0c0,0-0.1,0-0.1,0.1c0,0,0,0.1,0.1,0.1c0,0,0.1,0,0.2,0c0.1,0,0.2,0,0.3,0
		c0.1,0,0.2,0,0.2,0c0.2,0,0.4,0.1,0.4,0.2c0.1,0.1,0.1,0.3,0.1,0.5c0,0.2,0,0.4,0,0.8c0,0.4,0,1,0,2L373.6,483.6z M375.5,481.2
		c0-0.5,0-1,0-1.5s0-0.8,0-1.1c0-0.1,0-0.1,0-0.2c0,0,0.1-0.1,0.1-0.1c0.1,0,0.2,0,0.4-0.1c0.2,0,0.3,0,0.5,0c0.5,0,1.1,0.1,1.8,0.3
		c0.7,0.2,1.3,0.6,1.9,1.1c0.3,0.3,0.6,0.7,0.8,1.2c0.2,0.5,0.4,1.2,0.4,2.1c0,0.7-0.1,1.3-0.3,1.8c-0.2,0.6-0.5,1-0.9,1.4
		c-0.4,0.3-0.8,0.6-1.3,0.7c-0.5,0.1-1.1,0.2-1.7,0.2c-0.5,0-0.9-0.1-1.2-0.2c-0.3-0.1-0.4-0.2-0.5-0.4c0-0.1-0.1-0.2-0.1-0.4
		c0-0.2,0-0.4,0-0.6c0-0.1,0-0.4,0-0.9c0-0.5,0-1,0-1.7L375.5,481.2z M392,484.5c0.1,0,0.1,0,0.1,0.1l1,2.8c0,0.1,0,0.1,0,0.2
		c0,0.1-0.1,0.1-0.1,0.1c-0.1,0-0.1,0-0.1,0c0,0,0,0,0,0.1c0,0,0,0.1,0.1,0.1c0.1,0,0.2,0,0.3,0c0.5,0,1,0,1.4,0c0.4,0,0.8,0,1,0
		c0.2,0,0.4,0,0.5,0c0.1,0,0.1-0.1,0.1-0.1c0,0,0-0.1,0-0.1c0,0-0.1,0-0.1,0c-0.1,0-0.2,0-0.3,0c-0.1,0-0.2,0-0.3,0
		c-0.1,0-0.3-0.1-0.5-0.3c-0.2-0.2-0.4-0.6-0.6-1.1c-0.2-0.5-0.5-1.2-0.8-2c-0.3-0.8-0.6-1.7-1-2.5c-0.3-0.9-0.6-1.6-0.9-2.3
		c-0.2-0.7-0.4-1.1-0.5-1.3c-0.1-0.1-0.1-0.3-0.2-0.3c0-0.1-0.1-0.1-0.2-0.1c-0.1,0-0.1,0-0.2,0.1c-0.1,0.1-0.1,0.2-0.2,0.4
		l-3.4,8.1c-0.1,0.3-0.3,0.6-0.4,0.8c-0.2,0.2-0.4,0.3-0.7,0.4c-0.1,0-0.1,0-0.2,0c-0.1,0-0.1,0-0.2,0c-0.1,0-0.1,0-0.1,0
		c0,0,0,0,0,0.1c0,0.1,0,0.1,0.1,0.1c0,0,0.1,0,0.2,0c0.4,0,0.7,0,1,0c0.3,0,0.5,0,0.6,0c0.2,0,0.4,0,0.7,0c0.2,0,0.5,0,0.7,0
		c0.1,0,0.1,0,0.2,0c0,0,0.1-0.1,0.1-0.1c0,0,0-0.1,0-0.1c0,0-0.1,0-0.2,0l-0.2,0c-0.2,0-0.3,0-0.4-0.1c-0.1-0.1-0.1-0.2-0.1-0.3
		c0-0.1,0-0.2,0.1-0.3c0-0.1,0.1-0.3,0.2-0.5l0.7-1.8c0,0,0-0.1,0-0.1c0,0,0,0,0.1,0L392,484.5z M356.6,483.3
		C356.6,483.2,356.6,483.2,356.6,483.3C356.6,483.2,356.6,483.2,356.6,483.3l0.9-3c0,0,0,0,0-0.1c0,0,0,0,0,0c0,0,0,0,0,0
		c0,0,0,0,0,0.1l1.2,3.2c0,0,0,0,0,0.1c0,0,0,0-0.1,0L356.6,483.3z M389.5,484.2C389.5,484.2,389.5,484.2,389.5,484.2
		C389.5,484.2,389.5,484.1,389.5,484.2l0.9-3c0,0,0,0,0-0.1c0,0,0,0,0,0c0,0,0,0,0,0c0,0,0,0,0,0.1l1.3,3.1c0,0,0,0,0,0.1
		c0,0,0,0-0.1,0L389.5,484.2z"/>
	
		<path id="path2493" sodipodi:cx="373.92856" sodipodi:cy="550.93359" sodipodi:rx="62.142857" sodipodi:ry="62.142857" sodipodi:type="arc" class="st5" d="
		M147.6,573.9c-15.7-30.5-3.6-68,27-83.6c30.5-15.7,68-3.6,83.6,27c0,0,0,0,0,0c15.7,30.5,3.6,68-27,83.6
		C200.7,616.5,163.3,604.4,147.6,573.9C147.6,573.9,147.6,573.9,147.6,573.9z"/>
</g>
<g id="layer4" transform="translate(-292.42858,-469.43362)" inkscape:groupmode="layer" inkscape:label="Figure">
	<path id="path3273_5_" class="st6" d="M339.4,545.7"/>
	<path id="path3273_6_" class="st6" d="M384.5,530.1c0,0.9,3,1.2,4.5,1.7c1.1,0.4,2.7,0.7,3.9,1.2c1.3,0.5,2.2,1.3,2.9,2.3
		c0.6,0.9,1.7,1.2,2.6,1.7c1.1,0.6,3.3,0.5,4.5,1c1.1,0.4,3.5,0,4.7,0c1.4,0,2.6-0.7,3.4-1c1.2-0.5,2.2-0.3,2.9-1.4
		c0.9-1.4,1.9-1.5,0.8-3.1c-0.6-0.9-1.3-1.1-2.4-1.5c-1.1-0.4-2.7-0.5-3.7-1.2c-1.7-1.2-3.5-2.3-4.5-3.1c-0.9-0.7-2.1-0.3-2.1-1.7
		c0-1.1,1.7-1.5,2.9-1.5c1.5,0,3,0,4.5,0c1.7,0,2.8-0.1,4.2-0.6c1.2-0.4,0-1.9-0.3-2.3c-0.5-0.7-0.5-2.1-0.5-2.9
		c0-0.7,1-1.6,1.3-2.5c0.4-1.3,0.7-1.5,2.4-1.8c1.4-0.3-1.8-1.8-2.1-2c-1-0.7-1.1-1.6-2.4-2.3c-0.7-0.4-1.3-2.1-1.6-2.9
		c-0.3-0.9,0-2.2,0-3.1c0-1.5-0.5-2.2-0.5-3.9c0-2.2,0.6-3.5-1.3-4.8c-1.6-1.2-1.8-1.3-2.6-2.5c-0.4-0.6-2.7-1.6-3.2-1.7
		c-1.3-0.5-3.3-0.2-4.5,0.2c-1.7,0.5-0.6,1.8-2.4,2.1c-0.2,0-0.4,0.1-0.5,0.2c-1.8,0.6-4.2,0.4-6.3,0.4c-1.6,0-3.3,0-4.7,0.2
		c-0.9,0.1-2.2,0.6-2.9,1.2c-1.2,0.9-1.4,1.6-2.4,2c-1.3,0.5,0.9,0.8-0.4,1.8c-1.2,0.9-0.4,0.1-1.1,1.3c-0.5,0.7-1.1,1.3-1.1,2.1
		c0,1.4-0.8,1.7,0.2,2.5c0.9,0.7-2.3,5.4-1.7,6.2c0.9,1.3-0.3,1.6-0.3,2.9c0,1.6-1.7,2.4-2.9,3.3c-1.1,0.8-2.3,1.6-2.9,2.5
		c-0.7,1.1-2,3-2.6,3.9c-0.7,1-0.7,1.9-2.4,2.5c-0.8,0.3-1.3,2-1.8,2.5c-0.8,0.8-0.7,1.5-2.1,2.5c-1.7,1.2-2.2,2.5-3.9,3.9
		c-1.1,0.8-2.8,1.9-3.9,2.7c-1.1,0.8-2.5,1.2-3.9,1.7c-1.5,0.6-2.1,1.3-2.6,2.1c-0.6,0.8-1.8,1.3-2.6,1.9c-1.8,1.3-3.7,0.8-5.3,1.2
		c-3.6,0.9-4.9,5.2-5.4,7.1c-2.2,7.1,3.1,13.6,4.5,15.2"/>
	<path id="path3345_1_" class="st7" d="M430,529.6"/>
	<path id="path3349_1_" class="st7" d="M433.7,528.9"/>
	<path id="path3353_1_" class="st7" d="M440.7,528.9"/>
	<path id="path3359_1_" class="st7" d="M444.2,528.6"/>
	<path id="path3365_1_" class="st7" d="M448,529.1"/>
	<path id="path3387_1_" class="st6" d="M393.6,682.7"/>
	<path class="st2" d="M404.7,526.9"/>
	<path class="st6" d="M390.4,532.8"/>
</g>
<path class="st8" d="M73.1,81.6"/>
<path class="st2" d="M97.8,33.4"/>
<path class="st9" d="M79.2,74.4c-1.8,1.3-3.7,2.5-5.7,3.5c-0.2,0.1-0.4,0.2-0.4,0.4c0,0.1,0,0.3,0.1,0.4c0.5,1.7-1.2,3.5-0.7,5.2
	c1.5-0.3,3.1,0,4.4,0.7c0.1,0.1,0.3,0.1,0.4,0.1c0.1,0,0.3-0.1,0.4-0.2c0.4-0.4,0.7-0.9,1.1-1.4c1.4-1.9,3.2-3.7,5.1-5.2
	c-0.3,0.2-3-4.6-3.2-4.9C80.1,73.6,79.7,74.1,79.2,74.4z"/>
<path class="st9" d="M67.2,86.5c0.6-0.5,1-1.2,1.6-1.7c0.6-0.6,1.5-1,2.1-1.7c0.2-0.3,0.4-0.7,0.6-1.1c0.4-0.9,0.7-1.8,1.1-2.6
	c0.1-0.3,0.2-0.7-0.1-0.7c-0.1,0-0.3,0-0.4,0.1c-1.5,0.6-2.9,1.3-4.3,2.2c-0.5,0.3-1,0.6-1.4,1c-1.1,1.1-1.4,2.6-1.7,4.1
	C64.4,87.4,66.5,87.1,67.2,86.5z"/>
<path class="st9" d="M68.9,90.8c0.2,0.4,0.4,0.8,0.8,0.9c0.8-0.5,1.7-1,2.5-1.6c0.5-0.3,1-0.7,1.4-1.1c0.5-0.5,0.8-1.2,1.3-1.7
	c0.6-0.6,1.5-1,1.9-1.8c-1.3-0.7-2.9-1.3-4.4-1.1c-1.5,0.2-2.9,1.2-3.9,2.2c-0.7,0.7-0.4,1-0.1,1.8C68.5,89.3,68.7,90.1,68.9,90.8z"
	/>
<path class="st10" d="M90.5,72.5c0.2-0.1,0.3-0.2,0.5-0.3c0.8-0.4,1.6-0.9,2.4-1.4c0.3-0.2,0.6-0.3,0.9-0.4s0.7-0.1,0.9,0
	c0,0,0,0,0.1,0c0,0,0,0.1,0,0.1c0.1,0.4,0.1,0.9-0.2,1.2c-0.2,0.2-0.5,0.2-0.8,0.3c-0.2,0.1-0.4,0.2-0.6,0.4c-1,0.7-1.9,1.3-2.9,2
	c-0.4-0.2-0.4-0.7-0.6-1c-0.1-0.2-0.4-0.3-0.3-0.6C89.9,72.8,90.3,72.6,90.5,72.5z"/>
<path class="st10" d="M90.1,70c0.2-0.2,0.5-0.3,0.7-0.4c0.4-0.2,0.8-0.4,1.3-0.6c0.4-0.2,0.7-0.3,1-0.5c0.3-0.2,0.6-0.4,0.9-0.5
	c0.2-0.1,0.5-0.1,0.7-0.1c0.1,0,0.3,0,0.4,0.1c0.2,0.1,0.3,0.3,0.4,0.5c0,0.1,0,0.2,0,0.2c0,0.1-0.1,0.2-0.2,0.3
	c-0.4,0.4-0.7,0.8-1.2,1c-0.3,0.2-0.6,0.3-0.9,0.5c-0.3,0.2-0.6,0.5-1,0.7c-0.4,0.2-0.9,0.4-1.3,0.6c-0.3,0.2-0.6,0.5-1,0.7
	c-0.1,0-0.1,0.1-0.2,0.1c-0.2,0-0.3-0.1-0.4-0.2c-0.2-0.3-0.4-0.5-0.5-0.8c-0.2-0.3-0.4-0.5,0-0.7C89.3,70.7,89.7,70.3,90.1,70z"/>
<path class="st10" d="M89.3,67.6c0.2-0.2,0.4-0.3,0.6-0.5c0.2-0.1,0.4-0.2,0.5-0.2c0.7-0.3,1.3-0.7,2-1.1c0.2-0.2,0.5-0.3,0.5-0.6
	c-0.2-0.3-0.4-0.5-0.7-0.7c-0.1-0.1-0.2-0.1-0.3-0.1c-0.1,0-0.2,0-0.3,0.1c-0.5,0.3-1,0.5-1.4,0.8c-0.2,0.1-0.3,0.2-0.5,0.3
	c-0.3,0.2-0.7,0.4-1,0.7c-0.8,0.6-1.7,1.2-2.5,1.7c0.2,0.1,0.4,0.1,0.5,0.3c0.1,0.1,0.1,0.2,0.1,0.3c0.1,0.2,0.2,0.6,0.4,0.7
	c0.2,0.1,0.5-0.1,0.6-0.3C88.3,68.5,88.8,68,89.3,67.6z"/>
<path class="st10" d="M90.9,69.3c0.2-0.1,0.4-0.2,0.6-0.3c0.3-0.1,0.5-0.4,0.7-0.5c0.4-0.3,0.9-0.4,1.3-0.6c0.5-0.2,0.9-0.6,1.3-1
	c0.1-0.1,0.2-0.2,0.2-0.4c0-0.2-0.2-0.4-0.4-0.6c-0.1-0.1-0.2-0.2-0.3-0.2c-0.2-0.1-0.4,0-0.6,0c-0.5,0.2-1,0.6-1.4,0.9
	c-0.8,0.6-1.6,1.1-2.4,1.5c-0.4,0.2-0.8,0.4-1.1,0.7c-0.3,0.2-0.5,0.4-0.8,0.6c-0.1,0-0.2,0.1-0.3,0.2c-0.1,0.1,0,0.3,0.1,0.4
	c0.2,0.2,0.5,0.7,0.8,0.7c0.2,0.1,0.5-0.2,0.6-0.4C89.6,69.9,90.2,69.5,90.9,69.3z"/>
<path class="st10" d="M87.5,76.9c0.2-0.1,0.3-0.3,0.5-0.4c0.2-0.1,0.4-0.2,0.7-0.3c0.3-0.1,0.7-0.3,1-0.5c0.2-0.1,0.3-0.2,0.4-0.4
	c0-0.1,0-0.2-0.1-0.3c-0.3-0.6-0.7-1.3-1.2-1.8c-0.2-0.2-0.3-0.4-0.4-0.6c0-0.2,0-0.3,0-0.5c0-0.4-0.3-0.7-0.6-1
	c-0.8-0.8-1.6-1.7-2.4-2.5c-0.1-0.1-0.1-0.1-0.2-0.1c-0.1,0-0.1,0-0.2,0.1c-0.3,0.2-0.5,0.4-0.7,0.7c0,0-0.1,0.1,0,0.1
	c0,0,0.1,0.1,0.1,0.1c0.6,0.5,0.8,1.3,0.7,2c-0.1,0.4-0.3,0.8-0.7,0.9c-0.2,0-0.4,0-0.5,0c-0.7,0-1.4,0-2.1,0.1
	c-0.2,0-0.5,0.1-0.5,0.3c0,0.1,0,0.2,0.1,0.2c0.4,0.8,1,1.4,1.5,2.1c0.1,0.2,0.3,0.5,0.4,0.7c0.2,0.2,0.3,0.5,0.5,0.7
	c0.3,0.4,0.6,0.8,0.9,1.1c0.2,0.3,0.7,0.2,1,0.1C86.2,77.6,86.9,77.3,87.5,76.9z"/>
<path class="st10" d="M81.4,70.2c0.5-0.4,1.1-0.6,1.7-0.7c0-0.1,0-0.3,0-0.4c0,0,0-0.1,0-0.1c0,0-0.1-0.1-0.1-0.1
	c-0.6-0.2-1.1-0.5-1.7-0.7c-0.1,0-0.1-0.1-0.2,0c-0.1,0-0.2,0.1-0.2,0.2c-0.4,0.6-0.4,1.3-0.5,2c0,0.2,0,0.6,0.3,0.5
	C80.9,70.7,81.2,70.4,81.4,70.2z"/>
<path class="st10" d="M82.9,68c0,0,0.1,0,0.1,0c0,0,0,0,0.1-0.1c0.1-0.3,0.2-0.6,0.3-0.9c0-0.3,0-0.6-0.2-0.9
	c-0.1-0.2-0.3-0.4-0.6-0.4c0,0-0.1,0-0.1,0c-0.1,0-0.2,0.1-0.2,0.2c-0.1,0.2-0.2,0.3-0.3,0.5c-0.3,0.4-0.7,0.8-0.9,1.3
	c0,0-0.1,0.1,0,0.2c0,0.2,0.7,0,0.8,0C82.3,67.8,82.6,67.8,82.9,68z"/>
<path class="st10" d="M80.6,71.7c-0.1-0.2-0.1-0.5,0-0.7c0.1-0.1,0.1-0.1,0.2-0.1c0.8-0.4,1.5-0.7,2.3-1.2c0.2-0.1,0.4-0.2,0.6-0.3
	s0.4,0,0.6,0.1c0.2,0.1,0.2,0.3,0.3,0.5c0.1,0.3,0.1,0.7,0,1c0,0.3-0.1,0.5-0.3,0.7c-0.2,0.1-0.3,0.2-0.5,0.2
	c-0.3,0.1-0.6,0.1-0.9,0.1c-0.3,0-0.5,0-0.8,0c-0.3,0-0.6,0.1-0.9,0.1C80.7,72.3,80.7,72,80.6,71.7z"/>
<ellipse transform="matrix(9.510522e-02 -0.9955 0.9955 9.510522e-02 1.0765 153.2162)" class="st11" cx="84.8" cy="76" rx="0.4" ry="0.4"/>
<ellipse transform="matrix(0.2695 -0.963 0.963 0.2695 -8.0166 131.5063)" class="st11" cx="82.7" cy="71" rx="0.7" ry="0.8"/>
<ellipse transform="matrix(0.3456 -0.9384 0.9384 0.3456 -15.7909 127.408)" class="st11" cx="83.4" cy="75" rx="0.2" ry="0.3"/>
<ellipse transform="matrix(0.3456 -0.9384 0.9384 0.3456 -10.5754 124.2895)" class="st11" cx="83.8" cy="69.7" rx="0.2" ry="0.3"/>
<ellipse transform="matrix(0.3456 -0.9384 0.9384 0.3456 -14.3645 126.6432)" class="st11" cx="83.6" cy="73.6" rx="0.2" ry="0.3"/>
<ellipse transform="matrix(0.3456 -0.9384 0.9384 0.3456 -9.9106 128.3183)" class="st11" cx="87" cy="71.3" rx="0.2" ry="0.3"/>
<path class="st6" d="M30.7,26.2"/>
<path class="st6" d="M69.4,29.9"/>
<path class="st6" d="M19.6,52.2"/>
<path class="st6" d="M29,27.7"/>
<path class="st6" d="M80.5,63.8"/>
<path class="st8" d="M91.2,76.1"/>
<path d="M21.3,113.4"/>
<rect x="161.2" y="151.1" class="st12" width="0.5" height="0"/>
<path class="st10" d="M81.3,85"/>
<rect x="79.2" y="76.2" transform="matrix(0.6983 -0.7159 0.7159 0.6983 -30.5578 79.9214)" class="st11" width="0.7" height="0.1"/>
<ellipse transform="matrix(0.6983 -0.7159 0.7159 0.6983 -30.2477 80.0432)" class="st11" cx="79.8" cy="75.9" rx="0.2" ry="0.1"/>
<rect x="78.2" y="76.8" transform="matrix(0.6983 -0.7159 0.7159 0.6983 -31.732 80.1376)" class="st11" width="1.9" height="1.9"/>
<rect x="79.6" y="76.6" transform="matrix(0.6983 -0.7159 0.7159 0.6983 -30.7364 80.3522)" class="st11" width="0.8" height="0.1"/>
<ellipse transform="matrix(0.6983 -0.7159 0.7159 0.6983 -30.4156 80.4781)" class="st11" cx="80.3" cy="76.3" rx="0.2" ry="0.1"/>
<rect x="80" y="76.9" transform="matrix(0.6983 -0.7159 0.7159 0.6983 -30.8765 80.7534)" class="st11" width="0.7" height="0.1"/>
<ellipse transform="matrix(0.6983 -0.7159 0.7159 0.6983 -30.5663 80.8752)" class="st11" cx="80.6" cy="76.7" rx="0.2" ry="0.1"/>
<rect x="80.3" y="77.3" transform="matrix(0.6983 -0.7159 0.7159 0.6983 -31.0394 81.1018)" class="st11" width="0.8" height="0.1"/>
<ellipse transform="matrix(0.6983 -0.7159 0.7159 0.6983 -30.7133 81.2298)" class="st11" cx="81" cy="77" rx="0.2" ry="0.1"/>
<rect x="77.7" y="77" transform="matrix(0.6983 -0.7159 0.7159 0.6983 -31.9681 78.9896)" class="st11" width="0.1" height="0.7"/>
<rect x="78.1" y="76.6" transform="matrix(0.6983 -0.7159 0.7159 0.6983 -31.5373 79.1682)" class="st11" width="0.1" height="0.8"/>
<rect x="78.5" y="76.2" transform="matrix(0.6983 -0.7159 0.7159 0.6983 -31.1361 79.3083)" class="st11" width="0.1" height="0.7"/>
<rect x="78.8" y="75.9" transform="matrix(0.6983 -0.7159 0.7159 0.6983 -30.7877 79.4712)" class="st11" width="0.1" height="0.8"/>
<rect x="78.5" y="79.2" transform="matrix(0.6983 -0.7159 0.7159 0.6983 -32.9072 80.3827)" class="st11" width="0.7" height="0.1"/>
<ellipse transform="matrix(0.6983 -0.7159 0.7159 0.6983 -35.7188 74.0177)" class="st11" cx="69.9" cy="79.4" rx="0.2" ry="0.1"/>
<rect x="78.1" y="78.7" transform="matrix(0.6983 -0.7159 0.7159 0.6983 -32.7286 79.952)" class="st11" width="0.8" height="0.1"/>
<ellipse transform="matrix(0.6983 -0.7159 0.7159 0.6983 -35.5508 73.5828)" class="st11" cx="69.5" cy="79" rx="0.2" ry="0.1"/>
<rect x="77.7" y="78.4" transform="matrix(0.6983 -0.7159 0.7159 0.6983 -32.5885 79.5507)" class="st11" width="0.7" height="0.1"/>
<rect x="77.3" y="78" transform="matrix(0.6983 -0.7159 0.7159 0.6983 -32.4256 79.2023)" class="st11" width="0.8" height="0.1"/>
</svg>
