<?xml version="1.0" encoding="utf-8"?>
<!-- Generator: Adobe Illustrator 24.3.0, SVG Export Plug-In . SVG Version: 6.00 Build 0)  -->
<svg version="1.1" id="Layer_1" xmlns="http://www.w3.org/2000/svg" xmlns:xlink="http://www.w3.org/1999/xlink" x="0px" y="0px"
	 viewBox="0 0 260 260" style="enable-background:new 0 0 260 260;" xml:space="preserve">
<style type="text/css">
	.st0{fill:#FFFFFF;stroke:#000000;stroke-miterlimit:10;}
	.st1{fill:none;stroke:#000000;stroke-miterlimit:10;}
</style>
<path class="st0" d="M198.5,66.5"/>
<path class="st1" d="M33.4,49.8c4.3-2.7,9.3-4.1,14.2-5.4c3.6-1,7.8-1.9,11,0.1c1.6,1,2.7,2.5,3.8,4.1c2.2,3,4.3,6.1,6.5,9.1
	c1.5,2.1,3.1,4.3,5,6.1C79.3,69,87.4,71,92.4,76.8c7.1,8.2,6.3,22.1,15.3,28.1c-7.8-1.7-15.5-4.3-22.7-7.8c-3-1.4-6.1-3.1-9.4-3
	c-2.6,0-5.1,1.1-7.5,1.9c-5.3,1.9-10.9,2.9-16.5,3.1c-1.5,0.1-3.1,0-4.5-0.5c-1.8-0.8-3.2-2.4-4.2-4.1c-4.2-6.4-6.5-14.1-11.4-20
	c-2.9-3.5-9.9-8.9-8.8-14.3C23.4,56.4,30.4,51.7,33.4,49.8z"/>
<path class="st1" d="M178.4,153.5c-8.6-5.4-17.2-10.7-24.8-17.3c-0.7-0.6-1.5-1.3-2.4-1.1c-0.7,0.1-1.2,0.6-1.8,1.1
	c-6.4,5.3-17.1,1.1-23.6,6.2c3.9,5.7,5.6,12.8,4.6,19.6c-0.1,0.6-0.2,1.3,0.1,1.9c0.3,0.6,1,0.8,1.6,1.1c2.5,0.9,5.2,1.4,7.8,2
	c10.8,2.5,21.2,6.6,30.9,12c-1.5-0.8,14.4-20.3,15.3-22C183.5,155.7,180.9,155,178.4,153.5z"/>
<path class="st1" d="M106.1,125.4c3.1,1.6,6.8,2,10,3.5c3.7,1.6,6.7,4.6,10.6,5.6c1.8,0.4,3.7,0.4,5.5,0.4c4.4,0,8.8-0.1,13.2-0.1
	c1.3,0,3.1-0.5,3-1.8c0-0.6-0.5-1-0.9-1.5c-5.2-5.1-10.7-9.7-16.7-13.8c-2.1-1.5-4.4-2.9-6.8-3.8c-6.5-2.4-13.6-1.1-20.4,0.2
	C97.3,115.4,102.6,123.6,106.1,125.4z"/>
<path class="st1" d="M22.8,79.2c1.8,3.1,3.5,6.2,5.3,9.3c3.5,6.2,7.3,12.7,13.6,16c1.5,0.8,3.1,1.4,4.1,2.7c0.7,0.9,1,2,1.4,2.9
	c1.2,2.5,3.8,4.3,6.5,4.6c-1.2,0.8-2.8,0.4-4-0.3s-2.1-1.8-3.3-2.7c-2.6-1.9-6-2.4-8.7-4.2c-2.2-1.4-3.9-3.6-5.5-5.7
	c-7.1-9.3-14.5-19.4-15.2-31.1c-0.1-1.6,0.1-3.9,1.6-4.5c1.1,1.6,0.4,4.3,1,6.3C20.4,75,21.6,77.1,22.8,79.2z"/>
<path class="st1" d="M90.8,140c-1.4,1.3-2.7,3-2.7,4.9c3.6,2.6,7.2,5.1,10.9,7.5c2.2,1.4,4.5,2.8,7,3.7c3.1,1.1,6.5,1.2,9.6,2.4
	c3.7,1.4,7,4.3,11,4.8c0.7-6.8,0.5-14.1-3-20c-3.6-6-10-9.7-16.3-12.3c-4.1-1.6-4.8,0.2-8.1,2.7C96.4,135.8,93.3,137.6,90.8,140z"/>
<path class="st1" d="M65.4,104.6c4.7-1.5,10.3-0.4,13.6,3.2c2.5,2.7,3.5,6.3,4.9,9.6s3.6,6.8,7.1,7.8c2.5,0.7,5.6,0.2,7.5,2
	c0.9,0.9,0.3,2.4-0.7,3.1c-1,0.7-2.2,0.9-3.3,1.4c-1.7,0.7-3,2.1-4.3,3.4c-2,2.1-4.1,4.2-6.1,6.3c-0.9,0.9-1.9,1.9-3.1,2.3
	c-2.4,0.9-4.9-0.4-7-1.8c-6.1-4.2-11.2-10-14.4-16.8c-1.7-3.5-6.3-7.9-4.8-11.5C56.4,109.5,61.3,105.9,65.4,104.6z"/>
<path class="st1" d="M44.4,104c-0.2,0.1-0.4,0.2-0.6,0.3c0.5-0.4,0.9-0.7,1.4-1c3.2-2.5,7.3-4.3,11.3-3.4c0.3,0.1,0.7,0.2,1,0.4
	c0.2,0.2,0.4,0.4,0.5,0.6c1.3,1.9,2.6,3.8,3.8,5.7c-3.7,1.3-5.6,5.5-9,7.4"/>
<path class="st1" d="M206.2,196.8c0.7,0.5,1.3,1,2,1.5c3.3,2.6,6.6,5.2,10,7.6c1.2,0.9,2.4,1.7,3.3,2.8c0.9,1.1,1.6,2.5,1.5,4
	c0,0.1,0,0.2-0.1,0.3c-0.1,0.2-0.2,0.3-0.4,0.4c-1.6,1.1-3.6,2.2-5.4,1.4c-1.2-0.5-1.9-1.8-2.8-2.8c-0.8-0.8-1.7-1.4-2.6-2
	c-4.5-2.8-9-5.7-13.5-8.5c0-1.8,2.1-2.7,3-4.3c0.5-0.8,0.8-2.2,1.9-2.3C204.2,194.8,205.4,196.2,206.2,196.8z"/>
<path class="st1" d="M216.6,190.7c1.1,0.7,2,1.5,2.9,2.3c1.5,1.4,3.1,2.8,4.6,4.2c1.3,1.2,2.6,2.3,4.1,3.3c1.3,0.9,2.8,1.6,3.8,2.8
	c0.6,0.8,1,1.8,1.4,2.7c0.2,0.5,0.4,1.1,0.4,1.6c0,1-0.8,1.9-1.7,2.4c-0.3,0.2-0.6,0.4-1,0.4c-0.6,0.1-1.2-0.1-1.8-0.3
	c-2.2-0.8-4.5-1.6-6.4-3c-1.3-0.9-2.4-2-3.7-3c-1.4-1-3.1-1.8-4.5-2.9c-1.7-1.3-3.1-2.9-4.9-4.1c-1.6-1-3.4-1.6-4.9-2.8
	c-0.2-0.2-0.5-0.4-0.6-0.7c-0.3-0.6,0.1-1.3,0.4-1.9c0.8-1.2,1.6-2.5,2.5-3.6c0.8-1.1,1.4-2.3,2.7-1.3
	C212,188.6,214.4,189.4,216.6,190.7z"/>
<path class="st1" d="M225.4,183.2c1,0.4,2.1,0.9,3,1.5c0.7,0.5,1.3,1.2,1.9,1.8c2.4,2.4,5.2,4.4,8,6.2c1,0.7,2.2,1.4,3.5,1.1
	c0.8-1.2,1.4-2.6,1.8-4c0.1-0.5,0.3-1.1,0.1-1.6c-0.2-0.4-0.6-0.8-0.9-1c-1.9-1.5-3.8-3-5.7-4.6c-0.7-0.5-1.3-1.1-2-1.6
	c-1.5-1.1-3.1-2-4.6-2.9c-4-2.3-7.8-4.8-11.6-7.4c0.1,0.8,0.1,1.7-0.3,2.4c-0.3,0.4-0.7,0.6-1.1,0.9c-0.8,0.6-2.3,1.8-2.3,2.8
	c0,1.1,1.4,1.7,2.2,2.1C219.9,180.7,222.6,182,225.4,183.2z"/>
<path class="st1" d="M220.9,192.7c0.7,0.7,1.4,1.4,2.1,2c1.1,0.8,2.3,1.3,3.4,2c1.8,1.2,3.2,2.9,4.8,4.4c1.8,1.6,4.1,2.8,6.4,3.5
	c0.6,0.2,1.3,0.3,1.9,0.1c1-0.3,1.5-1.5,1.9-2.6c0.2-0.6,0.4-1.2,0.4-1.8c0-1-0.6-1.8-1.2-2.5c-1.7-1.9-4.1-3.1-6.3-4.4
	c-3.8-2.1-7.4-4.5-10.8-7.2c-1.6-1.2-3.1-2.5-4.8-3.5c-1.3-0.7-2.8-1.3-3.8-2.4c-0.4-0.4-0.7-0.9-1.2-0.9c-0.6,0-1.1,0.6-1.3,1.2
	c-0.5,1.1-2,3.2-1.8,4.4c0.1,1.1,1.9,1.5,2.7,1.9C216.1,188.4,218.6,190.5,220.9,192.7z"/>
<path class="st1" d="M182.5,192c0.8,0.4,1.7,0.8,2.4,1.4c0.9,0.6,1.7,1.4,2.5,2.2c1.2,1.1,2.5,2.1,3.8,3.1c0.7,0.5,1.6,1,2.4,0.7
	c0.4-0.1,0.8-0.5,1.1-0.8c2.3-2.4,4.2-5,5.7-8c0.5-1,1-2,1.9-2.6c0.6-0.4,1.4-0.5,2.1-0.9c1.7-0.8,2.6-2.6,3.3-4.3
	c2.2-4.8,4.4-9.6,6.6-14.5c0.2-0.4,0.3-0.8,0.2-1.1c-0.1-0.2-0.3-0.4-0.6-0.5c-1.2-0.8-2.6-1.3-4.1-1.5c-0.2,0-0.5-0.1-0.7,0.1
	c-0.2,0.1-0.3,0.4-0.4,0.6c-1.1,3.2-4.1,5.5-7.4,6.2c-1.8,0.4-4,0.2-5.2-1.2c-0.5-0.6-0.8-1.4-1.1-2.1c-1.1-3-2.5-5.9-4-8.7
	c-0.5-0.9-1.4-1.9-2.4-1.6c-0.4,0.1-0.7,0.4-0.9,0.7c-2.6,3-4.2,6.7-6.6,9.9c-0.7,1-1.5,1.9-2.2,2.8c-0.8,1.1-1.4,2.2-2.1,3.4
	c-1.1,1.9-2.3,3.7-3.2,5.6c-0.7,1.4,0.5,3,1.3,4.3C176.9,187.9,179.5,190.4,182.5,192z"/>
<path class="st1" d="M200.5,155.3c2.4,1.3,4.5,3.2,6.1,5.5c0.6-0.1,1.1-0.3,1.7-0.6c0.2-0.1,0.4-0.2,0.5-0.4
	c0.1-0.2,0.1-0.4,0.1-0.6c0.1-2.7,0.2-5.5,0.2-8.2c0-0.3,0-0.6-0.1-0.9c-0.2-0.4-0.8-0.5-1.3-0.6c-3.2-0.4-6.5,0.6-9.6,1.5
	c-1.1,0.3-2.7,1.1-1.6,2.3C197.4,154.2,199.3,154.7,200.5,155.3z"/>
<path class="st1" d="M212.7,157.5c0,0.2,0,0.5,0.2,0.6c0.1,0.1,0.3,0.1,0.4,0.1c1.4,0,2.8-0.1,4.1-0.5s2.6-1.1,3.4-2.2
	c0.7-0.9,1-2,0.9-3.1c0-0.2,0-0.4-0.1-0.5c-0.2-0.4-0.7-0.5-1.1-0.5c-0.9-0.1-1.7-0.1-2.6-0.3c-2.4-0.4-4.6-1.3-7-1.5
	c-0.3,0-0.5,0-0.8,0.1c-0.6,0.4,1.3,2.8,1.6,3.4C212.4,154.5,212.7,156,212.7,157.5z"/>
<path class="st1" d="M192.6,154.5c0.8-0.7,1.9-1.4,2.9-1c0.4,0.1,0.7,0.4,1,0.7c2.9,2.6,5.9,5.1,9,7.4c0.8,0.5,1.5,1.1,2.1,1.8
	c0.6,0.7,0.9,1.7,0.6,2.6c-0.2,0.9-1,1.5-1.7,2c-1.3,0.8-2.8,1.4-4.3,1.7c-1.2,0.3-2.5,0.4-3.5-0.2c-0.8-0.4-1.3-1.1-1.8-1.9
	c-0.8-1.1-1.6-2.2-2.2-3.5c-0.5-1-0.8-2.1-1.2-3.2c-0.6-1.3-1.4-2.4-2.2-3.7C190.4,155.8,191.5,155.5,192.6,154.5z"/>
<circle class="st1" cx="171" cy="161" r="3.5"/>
<ellipse class="st1" cx="120.2" cy="120.7" rx="3.5" ry="2.8"/>
<ellipse class="st1" cx="67.5" cy="109.9" rx="4" ry="4.6"/>
<ellipse class="st1" cx="61" cy="123.5" rx="1.5" ry="3"/>
<ellipse class="st1" cx="105" cy="117.5" rx="2.5" ry="2"/>
<ellipse class="st1" cx="104" cy="151.8" rx="2.5" ry="2.3"/>
<path class="st1" d="M87.2,121.3c1.3,0.3,3.1,0.5,3.8-0.7c0.3-0.4,0.3-1,0.4-1.5c0.4-3.9,1.2-7.8,2.3-11.7c0.6-2.2,1.3-4.6,0.4-6.7"
	/>
<path class="st1" d="M45.7,42.5c-0.4-0.1-0.5-0.5-0.9-0.6c-0.3,0-0.5,0.2-0.8,0.2c-0.2,0.1-0.5,0.1-0.8,0.1c-0.4,0-0.8,0.2-1.2,0.4
	c-0.8,0.3-1.6,0.6-2.5,0.8c-0.4,0.1-0.5,0.2-0.7,0.4c-0.1,0.1-0.3,0.2-0.4,0.4c0,0-0.2,0.4-0.2,0.3c1.3-0.3,2.5-0.6,3.8-0.9
	c0.9-0.2,1.8-0.4,2.6-0.7c0.6-0.2,1.5-1,2-0.2c0.2,0.3,0.2,0.8,0.1,1.1c-1.6,0.7-3.3,0.9-4.9,1.5c-1.1,0.4-2.2,0.9-3.4,1.1
	c-0.1,0-0.3,0-0.4,0c-0.2-0.1-0.2-0.3-0.2-0.5c0-0.2,0-0.4,0-0.6c0.2,0,0.3-0.1,0.3-0.3c0.1-0.2,0.1-0.4,0.1-0.5"/>
<ellipse class="st1" cx="64" cy="60" rx="3.5" ry="2.5"/>
<circle class="st1" cx="62.5" cy="86.5" r="2"/>
<circle class="st1" cx="181.5" cy="179.5" r="2"/>
<ellipse class="st1" cx="199.1" cy="161.9" rx="3.4" ry="3.6"/>
<ellipse class="st1" cx="183.4" cy="172.1" rx="1.1" ry="1.4"/>
<ellipse class="st1" cx="206.7" cy="164.3" rx="1.1" ry="1.4"/>
<ellipse class="st1" cx="189.7" cy="170.3" rx="1.1" ry="1.4"/>
<ellipse class="st1" cx="205.7" cy="180.3" rx="1.1" ry="1.4"/>
<ellipse class="st1" cx="106.7" cy="139.3" rx="1.1" ry="1.4"/>
<ellipse class="st1" cx="113.7" cy="123.3" rx="1.1" ry="1.4"/>
<ellipse class="st1" cx="112.7" cy="115.3" rx="1.1" ry="1.4"/>
</svg>
