<?xml version="1.0" encoding="utf-8"?>
<!-- Generator: Adobe Illustrator 24.3.0, SVG Export Plug-In . SVG Version: 6.00 Build 0)  -->
<svg version="1.1" id="Layer_1" xmlns="http://www.w3.org/2000/svg" xmlns:xlink="http://www.w3.org/1999/xlink" x="0px" y="0px"
	 viewBox="0 0 260 260" style="enable-background:new 0 0 260 260;" xml:space="preserve">
<style type="text/css">
	.st0{fill:#FFFFFF;stroke:#000000;stroke-width:3;stroke-miterlimit:10;}
	.st1{stroke:#000000;stroke-width:3;stroke-miterlimit:10;}
	.st2{font-family:'MyriadPro-Regular';}
	.st3{font-size:27px;}
</style>
<path class="st0" d="M214.5,176.5h-148c-6.6,0-12-5.4-12-12v-127c0-6.6,5.4-12,12-12h148c6.6,0,12,5.4,12,12v127
	C226.5,171.1,221.1,176.5,214.5,176.5z"/>
<polyline class="st1" points="96.3,77.9 160.8,77.9 117.8,137 139.3,137 197.8,62.5 97.5,62.5 97.3,79.8 "/>
<line class="st0" x1="56" y1="47.5" x2="227.5" y2="47.5"/>
<rect x="80.5" y="9.5" class="st0" width="10" height="24"/>
<rect x="186.5" y="8.5" class="st0" width="10" height="24"/>
<text transform="matrix(1 0 0 1 83.3247 164.3125)" class="st2 st3">DECEMBER</text>
</svg>
