<?xml version="1.0" encoding="utf-8"?>
<!-- Generator: Adobe Illustrator 24.3.0, SVG Export Plug-In . SVG Version: 6.00 Build 0)  -->
<svg version="1.1" id="Layer_1" xmlns="http://www.w3.org/2000/svg" xmlns:xlink="http://www.w3.org/1999/xlink" x="0px" y="0px"
	 viewBox="0 0 90 90" style="enable-background:new 0 0 90 90;" xml:space="preserve">
<style type="text/css">
	.st0{fill:none;stroke:#000000;stroke-width:0.5;stroke-miterlimit:10;}
	.st1{fill:none;stroke:#FFFFFF;stroke-width:3;stroke-miterlimit:10;}
	.st2{fill:#FFFFFF;stroke:#FFFFFF;stroke-width:0.75;stroke-miterlimit:10;}
	.st3{fill:#FFFFFF;stroke:#FFFFFF;stroke-miterlimit:10;}
</style>
<path class="st0" d="M206.5,75.5"/>
<path class="st1" d="M44,2c23.5-0.3,42.7,18.9,43,42.8"/>
<path class="st2" d="M48.2,8.3c1.1-1.9,1-4.1,1-4.8h-3.8c-0.1,0.8-0.2,2.9,1,4.8H48.2z"/>
<path class="st2" d="M74.5,22.4c2.1-0.5,3.6-2.1,4.1-2.7L75.9,17c-0.6,0.5-2.2,2-2.7,4.1L74.5,22.4z"/>
<path class="st2" d="M62.5,12.4c1.8-1.2,2.7-3.2,2.9-3.9L62,6.9c-0.4,0.7-1.4,2.6-1.2,4.8L62.5,12.4z"/>
<path class="st2" d="M68.3,16.9c2.1-0.6,3.6-2.2,4.1-2.8l-2.7-2.7c-0.6,0.5-2.2,2-2.7,4.1L68.3,16.9z"/>
<path class="st2" d="M56.2,9.5c1.6-1.5,2-3.6,2.2-4.4l-3.7-1c-0.3,0.7-0.9,2.8-0.3,4.9L56.2,9.5z"/>
<path class="st2" d="M81,41.4c1.8,1.2,4,1.1,4.8,1.1l0.1-3.8c-0.8-0.1-2.9-0.2-4.8,0.8L81,41.4z"/>
<path class="st2" d="M78.7,28.4c2.2-0.1,4-1.3,4.6-1.8l-2.1-3.2c-0.7,0.4-2.6,1.5-3.5,3.4L78.7,28.4z"/>
<path class="st2" d="M79.8,35.1c2.1,0.6,4.2-0.1,4.9-0.3l-1-3.7c-0.8,0.1-2.9,0.6-4.4,2.2L79.8,35.1z"/>
<path class="st1" d="M1.3,45C1,21.6,20.2,2.3,44.1,2"/>
<path class="st2" d="M7.6,40.8c-1.9-1.1-4.1-1-4.8-1v3.8c0.8,0.1,2.9,0.2,4.8-1V40.8z"/>
<path class="st2" d="M21.7,14.5c-0.5-2.1-2.1-3.6-2.7-4.1l-2.7,2.7c0.5,0.6,2,2.2,4.1,2.7L21.7,14.5z"/>
<path class="st2" d="M11.7,26.5c-1.2-1.8-3.2-2.7-3.9-2.9L6.1,27c0.7,0.4,2.6,1.4,4.8,1.2L11.7,26.5z"/>
<path class="st2" d="M16.2,20.7c-0.6-2.1-2.2-3.6-2.8-4.1l-2.7,2.7c0.5,0.6,2,2.2,4.1,2.7L16.2,20.7z"/>
<path class="st2" d="M8.8,32.8c-1.5-1.6-3.6-2-4.4-2.2l-1,3.7c0.7,0.3,2.8,0.9,4.9,0.3L8.8,32.8z"/>
<path class="st2" d="M40.7,8c1.2-1.8,1.1-4,1.1-4.8L38,3.1c-0.1,0.8-0.2,2.9,0.8,4.8L40.7,8z"/>
<path class="st2" d="M27.7,10.3c-0.1-2.2-1.3-4-1.8-4.6l-3.2,2.1c0.4,0.7,1.5,2.6,3.4,3.5L27.7,10.3z"/>
<path class="st2" d="M34.4,9.3c0.6-2.1-0.1-4.2-0.3-4.9l-3.7,1c0.1,0.8,0.6,2.9,2.2,4.4L34.4,9.3z"/>
<path class="st1" d="M44.1,87.5c23.5,0.3,42.7-18.9,43-42.8"/>
<path class="st2" d="M48.3,81.3c1.1,1.9,1,4.1,1,4.8h-3.8c-0.1-0.8-0.2-2.9,1-4.8H48.3z"/>
<path class="st2" d="M74.6,67.1c2.1,0.5,3.6,2.1,4.1,2.7L76,72.6c-0.6-0.5-2.2-2-2.7-4.1L74.6,67.1z"/>
<path class="st2" d="M62.6,77.1c1.8,1.2,2.7,3.2,2.9,3.9l-3.4,1.6c-0.4-0.7-1.4-2.6-1.2-4.8L62.6,77.1z"/>
<path class="st2" d="M68.4,72.7c2.1,0.6,3.6,2.2,4.1,2.8l-2.7,2.7c-0.6-0.5-2.2-2-2.7-4.1L68.4,72.7z"/>
<path class="st2" d="M56.3,80c1.6,1.5,2,3.6,2.2,4.4l-3.7,1c-0.3-0.7-0.9-2.8-0.3-4.9L56.3,80z"/>
<path class="st2" d="M81.1,48.1c1.8-1.2,4-1.1,4.8-1.1l0.1,3.8c-0.8,0.1-2.9,0.2-4.8-0.8L81.1,48.1z"/>
<path class="st2" d="M78.8,61.2c2.2,0.1,4,1.3,4.6,1.8l-2.1,3.2c-0.7-0.4-2.6-1.5-3.5-3.4L78.8,61.2z"/>
<path class="st2" d="M79.9,54.4c2.1-0.6,4.2,0.1,4.9,0.3l-1,3.7c-0.8-0.1-2.9-0.6-4.4-2.2L79.9,54.4z"/>
<path class="st1" d="M1.4,44.5C1.1,68,20.3,87.3,44.2,87.5"/>
<path class="st2" d="M7.6,50.7c-1.9,1.1-4.1,1-4.8,1v-3.8c0.8-0.1,2.9-0.2,4.8,1V50.7z"/>
<path class="st2" d="M21.8,75.1c-0.5,2.1-2.1,3.6-2.7,4.1l-2.7-2.7c0.5-0.6,2-2.2,4.1-2.7L21.8,75.1z"/>
<path class="st2" d="M11.8,63c-1.2,1.8-3.2,2.7-3.9,2.9l-1.6-3.4c0.7-0.4,2.6-1.4,4.8-1.2L11.8,63z"/>
<path class="st2" d="M16.3,68.9c-0.6,2.1-2.2,3.6-2.8,4.1l-2.7-2.7c0.5-0.6,2-2.2,4.1-2.7L16.3,68.9z"/>
<path class="st2" d="M8.9,56.8c-1.5,1.6-3.6,2-4.4,2.2l-1-3.7C4.2,55,6.3,54.4,8.4,55L8.9,56.8z"/>
<path class="st2" d="M40.8,81.6c1.2,1.8,1.1,4,1.1,4.8l-3.8,0.1c-0.1-0.8-0.2-2.9,0.8-4.8L40.8,81.6z"/>
<path class="st2" d="M27.8,79.2c-0.1,2.2-1.3,4-1.8,4.6l-3.2-2.1c0.4-0.7,1.5-2.6,3.4-3.5L27.8,79.2z"/>
<path class="st2" d="M34.5,80.3c0.6,2.1-0.1,4.2-0.3,4.9l-3.7-1c0.1-0.8,0.6-2.9,2.2-4.4L34.5,80.3z"/>
<circle class="st3" cx="22.2" cy="55.5" r="8.4"/>
<polygon class="st3" points="21.3,44 20.2,44.2 19.9,44.3 19.9,44.3 18.9,44.5 18.4,48 18.5,48.6 20.6,48.2 20.7,48.2 21,48.1 
	23.2,47.7 23.2,47.1 "/>
<polygon class="st3" points="23.2,67 24.2,66.8 24.6,66.7 24.6,66.7 25.6,66.5 26.2,63 26,62.4 23.9,62.8 23.8,62.8 23.5,62.8 
	21.2,63.3 21.3,63.9 "/>
<polygon class="st3" points="10.8,56.3 10.9,57.4 11,57.7 11,57.7 11.2,58.7 14.7,59.3 15.3,59.2 14.9,57.1 14.9,56.9 14.9,56.6 
	14.4,54.4 13.8,54.5 "/>
<polygon class="st3" points="33.3,54.4 33.2,53.4 33.1,53.1 33.1,53.1 32.9,52 29.4,51.5 28.8,51.6 29.2,53.7 29.2,53.8 29.2,54.2 
	29.7,56.4 30.3,56.2 "/>
<polygon class="st3" points="30,47.1 29.2,46.5 28.9,46.3 28.9,46.3 28,45.7 25.2,47.8 24.8,48.3 26.6,49.5 26.7,49.5 26.9,49.8 
	28.9,51 29.2,50.5 "/>
<polygon class="st3" points="30.9,62.9 31.5,62.1 31.6,61.8 31.6,61.8 32.2,60.9 30.2,58.1 29.6,57.7 28.5,59.5 28.4,59.6 
	28.2,59.8 26.9,61.8 27.4,62.1 "/>
<polygon class="st3" points="14.7,64.6 15.6,65.2 15.9,65.4 15.9,65.4 16.7,66 19.6,63.9 19.9,63.4 18.2,62.2 18.1,62.1 17.8,61.9 
	15.9,60.7 15.6,61.2 "/>
<polygon class="st3" points="13.2,48.1 12.7,49 12.5,49.2 12.5,49.2 11.9,50.1 14,53 14.5,53.3 15.7,51.5 15.8,51.5 15.9,51.2 
	17.2,49.3 16.7,48.9 "/>
<circle class="st3" cx="67.6" cy="34" r="8.4"/>
<polygon class="st3" points="66.7,22.5 65.6,22.7 65.3,22.8 65.3,22.8 64.3,23 63.8,26.5 63.9,27.1 65.9,26.7 66.1,26.6 66.4,26.6 
	68.6,26.2 68.6,25.6 "/>
<polygon class="st3" points="68.6,45.5 69.6,45.3 69.9,45.2 69.9,45.2 70.9,45 71.6,41.5 71.4,40.9 69.3,41.3 69.2,41.3 68.9,41.3 
	66.6,41.8 66.7,42.4 "/>
<polygon class="st3" points="56.2,34.8 56.3,35.9 56.4,36.2 56.4,36.2 56.6,37.2 60.1,37.8 60.7,37.6 60.3,35.6 60.3,35.4 
	60.2,35.1 59.8,32.9 59.2,33 "/>
<polygon class="st3" points="78.7,32.9 78.6,31.9 78.5,31.6 78.5,31.6 78.2,30.5 74.8,30 74.2,30.1 74.6,32.2 74.6,32.3 74.6,32.6 
	75.1,34.9 75.7,34.7 "/>
<polygon class="st3" points="75.4,25.6 74.6,25 74.3,24.8 74.3,24.8 73.4,24.2 70.6,26.3 70.2,26.8 71.9,28 72.1,28 72.3,28.3 
	74.2,29.5 74.6,29 "/>
<polygon class="st3" points="76.2,41.4 76.9,40.6 77,40.3 77,40.3 77.6,39.4 75.6,36.6 75,36.2 73.9,38 73.8,38.1 73.6,38.3 
	72.3,40.3 72.8,40.6 "/>
<polygon class="st3" points="60.1,43.1 61,43.7 61.2,43.9 61.2,43.9 62.1,44.5 65,42.4 65.3,41.9 63.6,40.7 63.5,40.6 63.2,40.4 
	61.3,39.2 60.9,39.6 "/>
<polygon class="st3" points="58.6,26.6 58.1,27.5 57.9,27.7 57.9,27.7 57.3,28.6 59.4,31.5 59.9,31.8 61.1,30 61.2,30 61.3,29.6 
	62.6,27.8 62.1,27.4 "/>
<circle class="st3" cx="55.6" cy="68" r="8.4"/>
<polygon class="st3" points="54.7,56.5 53.6,56.7 53.3,56.8 53.3,56.8 52.3,57 51.8,60.5 51.9,61.1 53.9,60.7 54.1,60.6 54.4,60.6 
	56.6,60.2 56.6,59.6 "/>
<polygon class="st3" points="56.6,79.5 57.6,79.3 57.9,79.2 57.9,79.2 58.9,79 59.6,75.5 59.4,74.9 57.3,75.3 57.2,75.3 56.9,75.3 
	54.6,75.8 54.7,76.4 "/>
<polygon class="st3" points="44.2,68.8 44.3,69.9 44.4,70.2 44.4,70.2 44.6,71.2 48.1,71.8 48.7,71.6 48.3,69.6 48.3,69.4 
	48.2,69.1 47.8,66.9 47.2,67 "/>
<polygon class="st3" points="66.7,66.9 66.6,65.9 66.5,65.6 66.5,65.6 66.2,64.5 62.8,64 62.2,64.1 62.6,66.2 62.6,66.3 62.6,66.6 
	63.1,68.9 63.7,68.7 "/>
<polygon class="st3" points="63.4,59.6 62.6,59 62.3,58.8 62.3,58.8 61.4,58.2 58.6,60.3 58.2,60.8 59.9,62 60.1,62 60.3,62.3 
	62.2,63.5 62.6,63 "/>
<polygon class="st3" points="64.2,75.4 64.9,74.6 65,74.3 65,74.3 65.6,73.4 63.6,70.6 63,70.2 61.9,72 61.8,72.1 61.6,72.3 
	60.3,74.3 60.8,74.6 "/>
<polygon class="st3" points="48.1,77.1 49,77.7 49.2,77.9 49.2,77.9 50.1,78.5 53,76.4 53.3,75.9 51.6,74.7 51.5,74.6 51.2,74.4 
	49.3,73.2 48.9,73.6 "/>
<polygon class="st3" points="46.6,60.6 46.1,61.5 45.9,61.7 45.9,61.7 45.3,62.6 47.4,65.5 47.9,65.8 49.1,64 49.2,64 49.3,63.6 
	50.6,61.8 50.1,61.4 "/>
<circle class="st3" cx="44.3" cy="44.7" r="9.3"/>
<polygon class="st3" points="43.4,32 42.2,32.3 41.9,32.3 41.9,32.3 40.8,32.5 40.2,36.4 40.2,37.1 42.6,36.7 42.7,36.6 43.1,36.5 
	45.5,36.1 45.4,35.4 "/>
<polygon class="st3" points="45.4,57.5 46.6,57.2 47,57.2 47,57.2 48.1,57 48.8,53.1 48.6,52.4 46.3,52.8 46.1,52.9 45.8,52.9 
	43.3,53.4 43.4,54.1 "/>
<polygon class="st3" points="31.7,45.6 31.9,46.8 32,47.2 32,47.2 32.2,48.3 36.1,49 36.8,48.8 36.3,46.5 36.3,46.3 36.2,46 
	35.7,43.5 35,43.6 "/>
<polygon class="st3" points="56.7,43.5 56.5,42.4 56.4,42.1 56.4,42.1 56.2,40.9 52.4,40.3 51.7,40.4 52.1,42.7 52.2,42.9 
	52.2,43.3 52.7,45.7 53.4,45.6 "/>
<polygon class="st3" points="53,35.4 52.1,34.7 51.8,34.6 51.8,34.6 50.8,33.9 47.7,36.2 47.2,36.8 49.2,38.1 49.4,38.1 49.6,38.4 
	51.8,39.8 52.1,39.2 "/>
<polygon class="st3" points="54,53 54.7,52 54.8,51.8 54.8,51.8 55.5,50.8 53.2,47.6 52.6,47.2 51.3,49.1 51.2,49.3 51.1,49.6 
	49.6,51.7 50.1,52 "/>
<polygon class="st3" points="36.1,54.9 37.1,55.5 37.3,55.7 37.3,55.7 38.3,56.4 41.5,54.1 41.9,53.5 39.9,52.2 39.8,52 39.5,51.9 
	37.4,50.5 37,51 "/>
<polygon class="st3" points="34.4,36.5 33.9,37.5 33.6,37.8 33.6,37.8 33,38.7 35.3,42 35.8,42.3 37.2,40.4 37.3,40.3 37.4,39.9 
	38.9,37.9 38.3,37.5 "/>
</svg>
