<?xml version="1.0" encoding="utf-8"?>
<!-- Generator: Adobe Illustrator 24.3.0, SVG Export Plug-In . SVG Version: 6.00 Build 0)  -->
<svg version="1.1" id="Layer_1" xmlns="http://www.w3.org/2000/svg" xmlns:xlink="http://www.w3.org/1999/xlink" x="0px" y="0px"
	 viewBox="0 0 260 260" style="enable-background:new 0 0 260 260;" xml:space="preserve">
<g>
	<path d="M20.1,93h-9.6l-1.4,6.9H3v-2l11-53.4h2.7l11,53.4v2h-6.1L20.1,93z M15.3,66.7l-2.8,14.4h5.6L15.3,66.7z"/>
	<path d="M51.5,97.9v2h-7l-4.2-16.1h-3.2v16.1c-2.1,0-4.2,0-6.2,0c0-18.2,0-36.4,0-54.7c3.5,0,7.1,0,10.7,0
		c9.6,0.1,11.3,25.9,5.2,35.3L51.5,97.9z M41.5,57.7c-1.5-0.1-3,0-4.5,0c0,4.5,0,9.3,0,13.7h4.5C44.9,71.4,45.1,57.8,41.5,57.7z"/>
	<path d="M52.8,57.7c0-4.2,0-8.4,0-12.5h18.1c0,4.1,0,8.3,0,12.5h-6v42.2c-2.1,0-4.1,0-6.2,0V57.7H52.8z"/>
	<path d="M85.2,87.6v12.3H72.8V87.6h3.1V57.4h-2.9V45.2h11.9v12.2h-2.9v30.2H85.2z"/>
	<path d="M95.6,82.2v17.7c-2.1,0-4.2,0-6.3,0V45.2c5,0,10.2,0,15.2,0c0,4.6,0,7.8,0,12.5h-8.9v12h7.8c0,4.7,0,7.7,0,12.5H95.6z"/>
	<path d="M119.6,87.6v12.3h-12.4V87.6h3.1V57.4h-2.9V45.2h11.9v12.2h-2.9v30.2H119.6z"/>
	<path d="M134.8,44.6c5.1,0,10.5,6.2,11.5,20.8c-2.1,0-4,0-6.1,0c-0.9-5.5-2.7-8.1-5.3-8.1c-3.7,0-6.1,6.2-6.1,15.2
		c0,8.1,2.4,15.1,6.1,15.2c2.6,0,4.8-3,5.4-8.8c2.1,0,4,0,6.1,0c-0.9,15.5-6.4,21.6-11.6,21.6c-6.2,0.1-12.5-9.3-12.5-27.9
		C122.3,53.9,128.6,44.6,134.8,44.6z"/>
	<path d="M161.5,87.6v12.3h-12.4V87.6h3.1V57.4h-2.9V45.2h11.9v12.2h-2.9v30.2H161.5z"/>
	<path d="M180.2,93h-9.6l-1.4,6.9H163v-2l11-53.4h2.7l11,53.4v2h-6.1L180.2,93z M175.3,66.7l-2.8,14.4h5.6L175.3,66.7z"/>
	<path d="M197.2,87.3h8.9c0,4.7,0,7.9,0,12.6c-5,0-10.2,0-15.1,0V45.2c2.1,0,4.1,0,6.3,0C197.2,73.5,197.2,64,197.2,87.3z"/>
	<path d="M16.4,168.1v12.3H4v-12.3h3.1v-30.2H4.3v-12.2h11.9v12.2h-2.9v30.2H16.4z"/>
	<path d="M26.9,153.5v26.9c-2.2,0-4.3,0-6.4,0v-54.9h2.3l12.3,27v-26.8c2.1,0,4.3,0,6.4,0v54.8h-2.2L26.9,153.5z"/>
	<path d="M45.3,138.2c0-4.2,0-8.4,0-12.5h18.1c0,4.1,0,8.3,0,12.5h-6v42.2c-2.1,0-4.1,0-6.2,0v-42.2H45.3z"/>
	<path d="M82.5,138.2c-3.6,0-5.4,0-9,0v7.7h8.3c0,4.1,0,8.3,0,12.4h-8.3c0,3.2,0,6.3,0,9.6c3.6,0,5.7,0,9.3,0c0,4.1,0,8.3,0,12.4
		c-5.7,0-9.9,0-15.5,0c0-18.3,0-36.6,0-54.7c5.6,0,9.5,0,15.2,0C82.5,129.7,82.5,133.9,82.5,138.2z"/>
	<path d="M94.4,167.8h8.9c0,4.7,0,7.9,0,12.6c-5,0-10.2,0-15.1,0v-54.7c2.1,0,4.1,0,6.3,0C94.4,154,94.4,144.5,94.4,167.8z"/>
	<path d="M113.8,167.8h8.9c0,4.7,0,7.9,0,12.6c-5,0-10.2,0-15.1,0v-54.7c2.1,0,4.1,0,6.3,0C113.8,154,113.8,144.5,113.8,167.8z"/>
	<path d="M137.3,168.1v12.3h-12.4v-12.3h3.1v-30.2h-2.9v-12.2h11.9v12.2h-2.9v30.2H137.3z"/>
	<path d="M152.4,125c4.9,0.1,10,5.8,11.2,19.4h-6.1c-1-4.7-2.6-6.6-5.1-6.6c-3.9,0-6.1,6.9-6.1,15.2c0,9.1,2.4,15,6.1,15
		c2.5,0,4.1-1.5,5.2-6.7h-5.2v-12.1H164c0.1,5.5,0.1,10.7-0.7,16c-1.7,11.4-6.4,15.8-10.9,15.8c-6.2,0-12.5-9.3-12.5-28
		C139.9,134.3,146.2,125,152.4,125z"/>
	<path d="M184.2,138.2c-3.6,0-5.4,0-9,0v7.7h8.3c0,4.1,0,8.3,0,12.4h-8.3c0,3.2,0,6.3,0,9.6c3.6,0,5.7,0,9.3,0c0,4.1,0,8.3,0,12.4
		c-5.7,0-9.9,0-15.5,0c0-18.3,0-36.6,0-54.7c5.6,0,9.5,0,15.2,0C184.2,129.7,184.2,133.9,184.2,138.2z"/>
	<path d="M196.3,153.5v26.9c-2.2,0-4.3,0-6.4,0v-54.9h2.3l12.3,27v-26.8c2.1,0,4.3,0,6.4,0v54.8h-2.2L196.3,153.5z"/>
	<path d="M228.1,125c5.1,0,10.5,6.2,11.5,20.8c-2.1,0-4,0-6.1,0c-0.9-5.5-2.7-8-5.3-8c-3.7,0-6.1,6.2-6.1,15.2
		c0,8,2.4,15.1,6.1,15.2c2.6,0,4.8-3,5.4-8.8c2.1,0,4,0,6.1,0c-0.9,15.5-6.4,21.6-11.6,21.6c-6.2,0.1-12.5-9.3-12.5-27.9
		C215.6,134.4,221.9,125,228.1,125z"/>
	<path d="M259.7,138.2c-3.6,0-5.4,0-9,0v7.7h8.3c0,4.1,0,8.3,0,12.4h-8.3c0,3.2,0,6.3,0,9.6c3.6,0,5.7,0,9.3,0c0,4.1,0,8.3,0,12.4
		c-5.7,0-9.9,0-15.5,0c0-18.3,0-36.6,0-54.7c5.6,0,9.5,0,15.2,0C259.7,129.7,259.7,133.9,259.7,138.2z"/>
</g>
</svg>
