<?xml version="1.0" encoding="utf-8"?>
<!-- Generator: Adobe Illustrator 24.3.0, SVG Export Plug-In . SVG Version: 6.00 Build 0)  -->
<svg version="1.1" id="Layer_1" xmlns="http://www.w3.org/2000/svg" xmlns:xlink="http://www.w3.org/1999/xlink" x="0px" y="0px"
	 viewBox="0 0 70 70" style="enable-background:new 0 0 70 70;" xml:space="preserve">
<style type="text/css">
	.st0{fill:#00BBD6;stroke:#000000;stroke-miterlimit:10;}
	.st1{fill:#FFFFFF;stroke:#000000;stroke-miterlimit:10;}
	.st2{fill:#0056D3;stroke:#0056D3;stroke-miterlimit:10;}
	.st3{display:none;}
	.st4{display:inline;}
	.st5{fill:none;stroke:#00AC5F;stroke-miterlimit:10;}
</style>
<polygon class="st0" points="51.9,6.3 69.1,36.3 52.2,66.6 18,66.8 0.7,36.7 17.7,6.5 "/>
<polyline class="st1" points="14.8,35.5 28.4,11.2 31.5,21.9 39.8,8.1 54.3,40.8 "/>
<path class="st2" d="M31.7,21.8c0.3,0.6,0.1,1.4-0.5,1.8c-0.1,0.1-0.2,0.1-0.3,0.2c-0.3,0.3,0.1,0.8,0.3,1.1c0.5,0.8,0,1.8-0.6,2.6
	c-0.3,0.4-0.7,0.8-1.1,1.2c-0.3,0.3-0.6,0.5-0.9,0.8c-0.7,0.9-0.7,2.2-0.1,3.1c0.3,0.5,0.8,1,1.3,1.4c1,1,1.8,2.2,2.4,3.4
	c0.4-0.3,1-0.6,1.5-0.8c-0.6-1.3-1.4-2.4-2.4-3.4c-0.7-0.7-1.6-1.3-1.6-2.2c0-0.7,0.5-1.3,0.9-1.8c0.9-1.2,1.7-2.6,1.3-3.9
	c-0.1-0.4-0.4-0.8-0.4-1.3C31.6,23.5,32.1,22.4,31.7,21.8z"/>
<path class="st1" d="M44.2,35.4l-1.7,1.8l-2.2,0.1c-5.6,0.5-11.2,5.3-11.2,10.8c-0.1,4.3,3.2,7.4,3.6,7.7c0.4,0.3,1.9,1.7,4,2.4
	c1.8,0.6,3.3,0.6,3.7,0.6l0.7-0.1c0.5-0.1,0.9-0.1,1.2-0.1l0,4.1l8.4,0L50.6,47l0-5.5c0.1-0.3,0.4-1.2,0-2.4c-0.5-1.3-1.7-1.8-1.9-2
	l-3.9,0.1"/>
<path class="st1" d="M47.2,21.5"/>
<path class="st1" d="M25.6,45.4l0,8.6c0,1.2,1.4,1.8,2.3,0.9l3.2-3.2l0-4.6l-3.5-2.7C26.8,43.9,25.6,44.5,25.6,45.4z"/>
<g class="st3">
	<g class="st4">
		
			<image style="overflow:visible;enable-background:new    ;" width="1000" height="1000" xlink:href="A635412A.jpg"  transform="matrix(1 0 0 1 -464 -464)">
		</image>
	</g>
</g>
<path class="st1" d="M51.3,62.7l-0.1,2.7l-10,0L41.1,63C41.2,63,51.3,63,51.3,62.7z"/>
<ellipse class="st5" cx="42.3" cy="49.8" rx="0.7" ry="0.7"/>
<path class="st5" d="M41,48.3l-3-2c-0.1,0-0.2,0.1-0.4,0.1c-0.6,0.1-1.1,0.3-1.5,0.1c-0.6-0.3-0.7-1-0.7-1.1c-0.1-0.5,0.1-1,0.4-1.4
	c0.1-0.1,0.3-0.2,0.7-0.6c0.2-0.2,0.4-0.3,0.6-0.4L41,48.3z"/>
<path class="st5" d="M40.5,49.6l-3.2,0.6c0,0.1-0.1,0.2-0.2,0.3c-0.3,0.5-0.5,0.9-0.9,1c-0.5,0.2-1.1-0.2-1.2-0.3
	c-0.4-0.3-0.6-0.7-0.6-1.1c0-0.1,0-0.3,0.1-0.8c0-0.3,0.1-0.5,0.1-0.6L40.5,49.6z"/>
<path class="st5" d="M41.1,50.8l-1.9,2.7c0,0.1,0.1,0.2,0.1,0.3c0.1,0.5,0.3,1,0.1,1.3c-0.3,0.5-0.9,0.6-1,0.6
	c-0.5,0.1-0.9-0.1-1.3-0.4c-0.1-0.1-0.2-0.3-0.5-0.6c-0.2-0.2-0.3-0.4-0.4-0.5L41.1,50.8z"/>
<path class="st5" d="M42.5,51.4l0.6,3.2c0.1,0,0.2,0.1,0.3,0.2c0.5,0.3,0.9,0.5,1,0.9c0.2,0.5-0.2,1.1-0.3,1.1
	c-0.3,0.4-0.7,0.6-1.1,0.6c-0.1,0-0.3,0-0.8-0.1c-0.3,0-0.5-0.1-0.6-0.1L42.5,51.4z"/>
<path class="st5" d="M43.7,50.8l2.7,1.8c0.1,0,0.2-0.1,0.3-0.1c0.5-0.1,1-0.2,1.4-0.1c0.5,0.2,0.6,0.9,0.6,1
	c0.1,0.5-0.1,0.9-0.4,1.2c-0.1,0.1-0.3,0.2-0.6,0.5c-0.2,0.2-0.4,0.3-0.5,0.4L43.7,50.8z"/>
<path class="st5" d="M43.2,49.2l3.2-0.6c0-0.1,0.1-0.2,0.2-0.3c0.3-0.5,0.5-0.9,0.9-1c0.5-0.2,1.1,0.2,1.2,0.3
	c0.4,0.3,0.6,0.7,0.6,1.1c0,0.1,0,0.3-0.1,0.8c0,0.3-0.1,0.5-0.1,0.6L43.2,49.2z"/>
<path class="st5" d="M43.9,48.6l1.4-2.9c0-0.1-0.1-0.2-0.1-0.3c-0.2-0.5-0.4-0.9-0.3-1.3c0.2-0.5,0.8-0.7,0.9-0.8
	c0.4-0.1,0.9-0.1,1.3,0.1c0.1,0.1,0.3,0.2,0.6,0.6c0.2,0.2,0.4,0.3,0.5,0.4L43.9,48.6z"/>
<path class="st5" d="M42.1,48.3L42,45.1c-0.1,0-0.2-0.1-0.3-0.2c-0.4-0.3-0.8-0.6-0.9-1c-0.1-0.5,0.4-1,0.5-1.1
	c0.3-0.3,0.8-0.5,1.2-0.4c0.1,0,0.3,0.1,0.8,0.2c0.3,0.1,0.5,0.1,0.6,0.2L42.1,48.3z"/>
<g>
	<polygon class="st5" points="44.3,39.1 44.3,39.1 44.3,39.1 	"/>
	<polygon class="st5" points="46,36.2 44.8,35 42.5,37.5 42.2,37.2 41.3,38.2 41.9,38.9 41.6,39.2 41.2,38.8 39.1,41.1 40.4,42.3 
		42.5,40 42.2,39.7 42.5,39.4 43.3,40.1 44.3,39.1 43.7,38.6 	"/>
</g>
</svg>
