<?xml version="1.0" encoding="utf-8"?>
<!-- Generator: Adobe Illustrator 24.3.0, SVG Export Plug-In . SVG Version: 6.00 Build 0)  -->
<svg version="1.1" id="Layer_1" xmlns="http://www.w3.org/2000/svg" xmlns:xlink="http://www.w3.org/1999/xlink" x="0px" y="0px"
	 viewBox="0 0 90 90" style="enable-background:new 0 0 90 90;" xml:space="preserve">
<style type="text/css">
	.st0{fill:none;stroke:#000000;stroke-width:0.5;stroke-miterlimit:10;}
	.st1{fill:none;stroke:#404140;stroke-width:2.8;stroke-miterlimit:10;}
	.st2{fill:#FFFFFF;stroke:#FFFFFF;stroke-width:2;stroke-miterlimit:10;}
</style>
<path class="st0" d="M206.5,75.5"/>
<g>
	<path class="st1" d="M1.7,42.1"/>
</g>
<path class="st2" d="M9.1,85.2"/>
<polyline class="st2" points="11.1,9.4 18.8,9.4 18.8,42.4 49,20 49,44 80.7,18.5 "/>
<line class="st2" x1="9.1" y1="77.9" x2="9.1" y2="17"/>
<line class="st2" x1="82.8" y1="28.3" x2="82.8" y2="78.6"/>
<line class="st2" x1="12.8" y1="81.1" x2="78.6" y2="81.1"/>
<rect x="15.4" y="70.4" class="st2" width="7.1" height="6.3"/>
<rect x="14.9" y="57.8" class="st2" width="7.1" height="6.3"/>
<rect x="29.8" y="69.9" class="st2" width="7.1" height="6.3"/>
<rect x="29.3" y="57.3" class="st2" width="7.1" height="6.3"/>
<rect x="43" y="70.3" class="st2" width="7.1" height="6.3"/>
<rect x="56.1" y="69.5" class="st2" width="7.1" height="6.3"/>
<rect x="56.1" y="70.5" class="st2" width="7.1" height="6.3"/>
<path class="st2" d="M59.2,57.1V56h1.3v1.1l1,0.4l0.8-0.8l0.9,0.9l-0.8,0.8l0.4,1h1.1v1.3h-1.1l-0.4,1l0.8,0.8l-0.9,0.9l-0.8-0.8
	l-1,0.4v1.1h-1.3V63l-1-0.4l-0.8,0.8l-0.9-0.9l0.8-0.8l-0.4-1h-1.1v-1.3h1.1l0.4-1l-0.8-0.8l0.9-0.9l0.8,0.8L59.2,57.1z M58.1,60.2
	c0,1,0.8,1.7,1.7,1.7c1,0,1.7-0.8,1.7-1.7c0-1-0.8-1.7-1.7-1.7C58.9,58.5,58.1,59.2,58.1,60.2z"/>
<path class="st2" d="M68.5,49.8v-1.7h2v1.7l1.6,0.7l1.3-1.2l1.4,1.4l-1,1.3l0.7,1.6h1.7v2h-1.7l-0.7,1.6l1.2,1.3l-1.4,1.4l-1.3-1.2
	l-1.6,0.7v1.7h-2v-1.7l-1.6-0.7l-1.3,1.2l-1.4-1.4l1.2-1.3l-0.7-1.6h-1.7v-2h1.7l0.7-1.6l-1.2-1.3l1.4-1.4l1.3,1.2L68.5,49.8z
	 M66.8,54.7c0,1.5,1.2,2.8,2.7,2.8s2.7-1.2,2.7-2.8c0-1.5-1.2-2.8-2.7-2.8S66.8,53.2,66.8,54.7z"/>
<path class="st2" d="M47.1,52.4v-1.7h2v1.7l1.6,0.7l1.3-1.2l1.4,1.4l-1.2,1.3l0.7,1.6h1.7v2h-1.7L52.4,60l1.2,1.3l-1.4,1.4l-1.3-1.2
	l-1.6,0.7v1.7h-2v-1.7l-1.6-0.7l-1.3,1.2L43,61.3l1.2-1.3l-0.7-1.6h-1.7v-2h1.7l0.7-1.6L43,53.5l1.4-1.4l1.3,1.2L47.1,52.4z
	 M45.4,57.3c0,1.5,1.2,2.8,2.7,2.8s2.7-1.2,2.7-2.8c0-1.5-1.2-2.8-2.7-2.8C46.6,54.5,45.4,55.7,45.4,57.3z"/>
</svg>
