<?xml version="1.0" encoding="utf-8"?>
<!-- Generator: Adobe Illustrator 24.3.0, SVG Export Plug-In . SVG Version: 6.00 Build 0)  -->
<svg version="1.1" id="Layer_1" xmlns="http://www.w3.org/2000/svg" xmlns:xlink="http://www.w3.org/1999/xlink" x="0px" y="0px"
	 viewBox="0 0 260 260" style="enable-background:new 0 0 260 260;" xml:space="preserve">
<style type="text/css">
	.st0{fill:#FFFFFF;}
	.st1{fill:#FFFFFF;stroke:#000000;stroke-miterlimit:10;}
	.st2{fill:none;stroke:#000000;stroke-width:0.5;stroke-miterlimit:10;}
	.st3{stroke:#000000;stroke-width:0.5;stroke-miterlimit:10;}
	.st4{fill:#FFFFFF;stroke:#000000;stroke-width:0.75;stroke-miterlimit:10;}
	.st5{fill:#CCCCCC;}
	.st6{fill:#D0F7FC;stroke:#000000;stroke-miterlimit:10;}
	.st7{fill:#001D3B;stroke:#000000;stroke-miterlimit:10;}
	.st8{fill:#8FDAEF;stroke:#000000;stroke-miterlimit:10;}
	.st9{fill:#9BF2EA;stroke:#000000;stroke-miterlimit:10;}
	.st10{fill:#000002;stroke:#000000;stroke-miterlimit:10;}
	.st11{fill:url(#SVGID_1_);stroke:#000000;stroke-miterlimit:10;}
</style>
<rect x="1" y="1" class="st0" width="259" height="258"/>
<polygon points="168,85 169,85 169,85 "/>
<path d="M18.8,109.7"/>
<path class="st1" d="M16.6,155.7h4.7c0.8,0,1.6-0.5,1.8-1.3l18.7-55c0.3-0.9,1.6-0.9,1.9,0l21.1,55.1c0.3,0.7,1,1.2,1.8,1.2H70
	c1.3,0,2.3-1.3,1.8-2.6l-28-73.5c-0.4-1-1.8-1-2.2,0l-26.8,73.5C14.3,154.4,15.2,155.7,16.6,155.7z"/>
<rect x="17.8" y="150.7" width="2" height="2"/>
<path d="M18.8,149.7"/>
<line class="st2" x1="18.8" y1="150.7" x2="23.3" y2="138.2"/>
<polyline class="st3" points="42.8,90.7 24.9,132.5 23.8,137.7 26,136.7 "/>
<rect x="66.6" y="150.7" width="2.3" height="2"/>
<line class="st2" x1="67.7" y1="150.7" x2="62.6" y2="138.2"/>
<polyline class="st3" points="42.8,91.7 60.9,132.7 63.3,138.2 "/>
<line class="st2" x1="63.3" y1="137.2" x2="60.3" y2="136.2"/>
<line class="st2" x1="27.3" y1="135.2" x2="59.3" y2="135.2"/>
<path class="st3" d="M25.8,132.7"/>
<polyline class="st3" points="24.9,132.5 42.8,128.7 60.9,132.7 "/>
<path class="st3" d="M213.3,115.2"/>
<path class="st3" d="M113.3,117.2"/>
<path class="st1" d="M88.2,81.7c1.5,0,3.4,0,4.8,0c1,0,1.9,0.9,1.9,1.9v71.2c0,0.5-0.4,1-1,1h-7.1c-0.5,0-1-0.4-1-0.9
	c0-7.6,0.2-59.2,0.1-70.7C85.9,82.7,86.9,81.7,88.2,81.7z"/>
<polyline class="st3" points="91.3,153.7 90.3,86.7 90.3,77.7 "/>
<path class="st1" d="M143.2,79.7H122c-1.2,0-2.2,1-2.2,2.2l-0.9,69.6c0,1.2,1,2.3,2.2,2.3h22.1c2.3,0,5.8,0.6,9.7-1
	c5.6-2.3,8.9-5.9,10.7-8c7.7-8.7,9.2-18.9,9.7-23c1.4-10.9-1.3-19.2-1.9-21c-1.2-3.4-2.8-7.8-6.8-12c-5.3-5.5-11.8-7.3-14.6-8
	c-2.4-0.6-4.4-0.9-5.8-1h-1V79.7z"/>
<path class="st1" d="M143.4,87.1h-15.6c-1.3,0-2.3,1-2.3,2.3l-0.7,54.7c0,1.6,1.2,2.9,2.8,2.9l15.9,0.7c1.7,0,4.5-0.3,7.5-1.6
	c4.3-1.9,6.8-4.8,8.2-6.5c5.9-7,7.1-15.3,7.5-18.6c1.1-8.8-1-15.5-1.5-17c-0.9-2.7-2.1-6.3-5.2-9.7c-4.1-4.4-9-5.9-11.2-6.5
	c-1.8-0.5-3.4-0.7-4.5-0.8h-0.9V87.1z"/>
<rect x="59.8" y="131.7" width="2.3" height="2"/>
<rect x="58.8" y="134.7" width="2" height="2"/>
<rect x="25.8" y="134.7" width="2" height="2"/>
<rect x="23.8" y="131.7" width="2" height="2"/>
<rect x="22.8" y="136.7" width="2" height="2"/>
<rect x="41.8" y="89.7" width="2" height="2"/>
<rect x="41.8" y="127.7" width="2" height="2"/>
<polyline class="st4" points="160.5,88.5 147.5,82.5 123.5,83.5 122.5,117.5 122.5,150.5 147.5,150.5 158.5,145.5 168.5,130.5 "/>
<rect x="146" y="149.3" width="2.3" height="2"/>
<rect x="122" y="82.3" width="2.3" height="2"/>
<rect x="121" y="116.3" width="2.3" height="2"/>
<rect x="121" y="149.3" width="2.3" height="2"/>
<rect x="146" y="82.3" width="2.3" height="2"/>
<rect x="156" y="144.3" width="2.3" height="2"/>
<rect x="90" y="152.3" width="2.3" height="2"/>
<polyline class="st2" points="167.3,131.2 170.3,113.2 166.8,97.6 160.3,89.2 "/>
<rect x="166" y="130.3" width="2.3" height="2"/>
<rect x="166" y="97.3" width="2.3" height="2"/>
<rect x="159" y="88.3" width="2.3" height="2"/>
<rect x="61.9" y="136.7" width="2.3" height="2"/>
<rect x="169" y="112.3" width="2.3" height="2"/>
<path d="M187.3,106.5"/>
<path class="st1" d="M185,152.5h4.7c0.8,0,1.6-0.5,1.8-1.3l18.7-55c0.3-0.9,1.6-0.9,1.9,0l21.1,55.1c0.3,0.7,1,1.2,1.8,1.2h3.4
	c1.3,0,2.3-1.3,1.8-2.6l-28-73.5c-0.4-1-1.8-1-2.2,0l-26.8,73.5C182.8,151.2,183.7,152.5,185,152.5z"/>
<rect x="186.3" y="147.5" width="2" height="2"/>
<path d="M187.3,146.5"/>
<line class="st2" x1="187.3" y1="147.5" x2="191.8" y2="135"/>
<polyline class="st3" points="211.3,87.5 193.4,129.3 192.3,134.5 194.5,133.5 "/>
<rect x="235" y="147.5" width="2.3" height="2"/>
<line class="st2" x1="236.2" y1="147.5" x2="231.1" y2="135"/>
<polyline class="st3" points="211.3,88.5 229.4,129.5 231.8,135 "/>
<line class="st2" x1="231.8" y1="134" x2="228.8" y2="133"/>
<line class="st2" x1="195.8" y1="132" x2="227.8" y2="132"/>
<path class="st3" d="M194.3,129.5"/>
<polyline class="st3" points="193.4,129.3 211.3,125.5 229.4,129.5 "/>
<rect x="228.3" y="128.5" width="2.3" height="2"/>
<rect x="227.3" y="131.5" width="2" height="2"/>
<rect x="194.3" y="131.5" width="2" height="2"/>
<rect x="192.3" y="128.5" width="2" height="2"/>
<rect x="191.3" y="133.5" width="2" height="2"/>
<rect x="210.3" y="86.5" width="2" height="2"/>
<rect x="210.3" y="124.5" width="2" height="2"/>
<rect x="230.4" y="133.5" width="2.3" height="2"/>
<polygon class="st5" points="294,184 295,184 295,184 "/>
<path class="st3" d="M86.1,72.5"/>
<rect x="92" y="74.9" width="1.5" height="0.2"/>
<ellipse cx="93.6" cy="75" rx="0.4" ry="0.1"/>
<rect x="88.2" y="74.7" width="3.9" height="3.8"/>
<rect x="92" y="76.1" width="1.5" height="0.2"/>
<ellipse cx="93.6" cy="76.2" rx="0.4" ry="0.1"/>
<rect x="92" y="77.2" width="1.5" height="0.2"/>
<ellipse cx="93.6" cy="77.3" rx="0.4" ry="0.1"/>
<rect x="91.9" y="78.2" width="1.6" height="0.2"/>
<ellipse cx="93.6" cy="78.3" rx="0.4" ry="0.1"/>
<rect x="88.4" y="73.3" width="0.2" height="1.5"/>
<ellipse cx="88.5" cy="73.2" rx="0.1" ry="0.4"/>
<rect x="89.6" y="73.3" width="0.2" height="1.5"/>
<ellipse cx="89.7" cy="73.2" rx="0.1" ry="0.4"/>
<rect x="90.7" y="73.3" width="0.2" height="1.5"/>
<ellipse cx="90.8" cy="73.2" rx="0.1" ry="0.4"/>
<rect x="91.7" y="73.3" width="0.2" height="1.6"/>
<ellipse cx="91.8" cy="73.2" rx="0.1" ry="0.4"/>
<rect x="86.8" y="78.2" width="1.5" height="0.2"/>
<ellipse cx="86.7" cy="78.3" rx="0.4" ry="0.1"/>
<rect x="86.8" y="77" width="1.5" height="0.2"/>
<ellipse cx="86.7" cy="77.1" rx="0.4" ry="0.1"/>
<rect x="86.8" y="75.9" width="1.5" height="0.2"/>
<ellipse cx="86.6" cy="76" rx="0.4" ry="0.1"/>
<rect x="86.8" y="74.9" width="1.6" height="0.2"/>
<ellipse cx="86.7" cy="75" rx="0.4" ry="0.1"/>
<path class="st3" d="M39,86.2"/>
<rect x="45" y="88.6" width="1.5" height="0.2"/>
<ellipse cx="46.6" cy="88.7" rx="0.4" ry="0.1"/>
<rect x="41.2" y="88.5" width="3.9" height="3.8"/>
<rect x="44.9" y="89.8" width="1.5" height="0.2"/>
<ellipse cx="46.6" cy="90" rx="0.4" ry="0.1"/>
<rect x="45" y="90.9" width="1.5" height="0.2"/>
<ellipse cx="46.6" cy="91" rx="0.4" ry="0.1"/>
<rect x="44.9" y="91.9" width="1.6" height="0.2"/>
<ellipse cx="46.6" cy="92" rx="0.4" ry="0.1"/>
<rect x="41.3" y="87.1" width="0.2" height="1.5"/>
<ellipse cx="41.4" cy="87" rx="0.1" ry="0.4"/>
<rect x="42.5" y="87.1" width="0.2" height="1.5"/>
<ellipse cx="42.7" cy="87" rx="0.1" ry="0.4"/>
<rect x="43.6" y="87.1" width="0.2" height="1.5"/>
<ellipse cx="43.7" cy="87" rx="0.1" ry="0.4"/>
<rect x="44.6" y="87.1" width="0.2" height="1.6"/>
<ellipse cx="44.7" cy="87" rx="0.1" ry="0.4"/>
<rect x="39.8" y="92" width="1.5" height="0.2"/>
<ellipse cx="39.6" cy="92.1" rx="0.4" ry="0.1"/>
<rect x="39.8" y="90.8" width="1.5" height="0.2"/>
<ellipse cx="39.6" cy="90.9" rx="0.4" ry="0.1"/>
<rect x="39.7" y="89.7" width="1.5" height="0.2"/>
<ellipse cx="39.6" cy="89.8" rx="0.4" ry="0.1"/>
<rect x="39.8" y="88.7" width="1.6" height="0.2"/>
<ellipse cx="39.6" cy="88.8" rx="0.4" ry="0.1"/>
<path class="st3" d="M119,145.2"/>
<rect x="125" y="147.6" width="1.5" height="0.2"/>
<ellipse cx="126.6" cy="147.7" rx="0.4" ry="0.1"/>
<rect x="121.2" y="147.5" width="3.9" height="3.8"/>
<rect x="124.9" y="148.8" width="1.5" height="0.2"/>
<ellipse cx="126.6" cy="149" rx="0.4" ry="0.1"/>
<rect x="125" y="149.9" width="1.5" height="0.2"/>
<ellipse cx="126.6" cy="150" rx="0.4" ry="0.1"/>
<rect x="124.9" y="150.9" width="1.6" height="0.2"/>
<ellipse cx="126.6" cy="151" rx="0.4" ry="0.1"/>
<rect x="121.3" y="146.1" width="0.2" height="1.5"/>
<ellipse cx="121.4" cy="146" rx="0.1" ry="0.4"/>
<rect x="122.5" y="146.1" width="0.2" height="1.5"/>
<ellipse cx="122.7" cy="146" rx="0.1" ry="0.4"/>
<rect x="123.6" y="146.1" width="0.2" height="1.5"/>
<ellipse cx="123.7" cy="146" rx="0.1" ry="0.4"/>
<rect x="124.6" y="146.1" width="0.2" height="1.6"/>
<ellipse cx="124.7" cy="146" rx="0.1" ry="0.4"/>
<rect x="119.8" y="151" width="1.5" height="0.2"/>
<ellipse cx="119.6" cy="151.1" rx="0.4" ry="0.1"/>
<rect x="119.8" y="149.8" width="1.5" height="0.2"/>
<ellipse cx="119.6" cy="149.9" rx="0.4" ry="0.1"/>
<rect x="119.7" y="148.7" width="1.5" height="0.2"/>
<ellipse cx="119.6" cy="148.8" rx="0.4" ry="0.1"/>
<rect x="119.8" y="147.7" width="1.6" height="0.2"/>
<ellipse cx="119.6" cy="147.8" rx="0.4" ry="0.1"/>
<path class="st3" d="M207.6,83.4"/>
<rect x="213.5" y="85.8" width="1.5" height="0.2"/>
<ellipse cx="215.1" cy="85.9" rx="0.4" ry="0.1"/>
<rect x="209.7" y="85.7" width="3.9" height="3.8"/>
<rect x="213.4" y="87" width="1.5" height="0.2"/>
<ellipse cx="215.1" cy="87.2" rx="0.4" ry="0.1"/>
<rect x="213.5" y="88.1" width="1.5" height="0.2"/>
<ellipse cx="215.1" cy="88.2" rx="0.4" ry="0.1"/>
<rect x="213.4" y="89.1" width="1.6" height="0.2"/>
<ellipse cx="215.1" cy="89.2" rx="0.4" ry="0.1"/>
<rect x="209.8" y="84.3" width="0.2" height="1.5"/>
<ellipse cx="210" cy="84.2" rx="0.1" ry="0.4"/>
<rect x="211.1" y="84.3" width="0.2" height="1.5"/>
<ellipse cx="211.2" cy="84.2" rx="0.1" ry="0.4"/>
<rect x="212.2" y="84.3" width="0.2" height="1.5"/>
<ellipse cx="212.3" cy="84.2" rx="0.1" ry="0.4"/>
<rect x="213.1" y="84.3" width="0.2" height="1.6"/>
<ellipse cx="213.2" cy="84.2" rx="0.1" ry="0.4"/>
<rect x="208.3" y="89.2" width="1.5" height="0.2"/>
<ellipse cx="208.1" cy="89.3" rx="0.4" ry="0.1"/>
<rect x="208.3" y="88" width="1.5" height="0.2"/>
<ellipse cx="208.1" cy="88.1" rx="0.4" ry="0.1"/>
<rect x="208.2" y="86.9" width="1.5" height="0.2"/>
<ellipse cx="208.1" cy="87" rx="0.4" ry="0.1"/>
<rect x="208.3" y="85.9" width="1.6" height="0.2"/>
<ellipse cx="208.1" cy="86" rx="0.4" ry="0.1"/>
<rect x="13" y="9.6" class="st6" width="30.6" height="27.7"/>
<rect x="50.6" y="8.7" class="st7" width="30.6" height="27.7"/>
<rect x="90.1" y="9" class="st8" width="30.6" height="27.7"/>
<rect x="135" y="9.4" class="st9" width="30.6" height="27.7"/>
<rect x="176.8" y="8.7" class="st10" width="30.6" height="27.7"/>
<linearGradient id="SVGID_1_" gradientUnits="userSpaceOnUse" x1="7.7325" y1="208.5987" x2="258.8153" y2="208.5987">
	<stop  offset="0" style="stop-color:#001D3B"/>
	<stop  offset="0.2603" style="stop-color:#000002"/>
	<stop  offset="0.494" style="stop-color:#8FDAEF"/>
	<stop  offset="0.6932" style="stop-color:#FFFFFF"/>
	<stop  offset="1" style="stop-color:#D0F7FC"/>
</linearGradient>
<rect x="7.7" y="183.8" class="st11" width="251.1" height="49.5"/>
</svg>
