<?xml version="1.0" encoding="utf-8"?>
<!-- Generator: Adobe Illustrator 24.3.0, SVG Export Plug-In . SVG Version: 6.00 Build 0)  -->
<svg version="1.1" id="Layer_1" xmlns="http://www.w3.org/2000/svg" xmlns:xlink="http://www.w3.org/1999/xlink" x="0px" y="0px"
	 viewBox="0 0 260 260" style="enable-background:new 0 0 260 260;" xml:space="preserve">
<style type="text/css">
	.st0{fill:none;stroke:#000000;stroke-width:3;stroke-miterlimit:10;}
	.st1{fill:#555555;stroke:#000000;stroke-width:3;stroke-miterlimit:10;}
</style>
<path class="st0" d="M136.1,89.5c-4.1-4.3-9.1-8.9-15-8.6c-1.9,0.1-3.7,0.7-5.4,1.3c-4.5,1.6-9.3,4.1-10.6,8.7
	c-0.3,1-0.4,2.1-0.8,3.1c-1.7,3.7-7.4,3.8-9.6,7.3c-0.8,1.2-1,2.8-1.9,3.9c-0.9,1.1-2.2,1.6-3.5,2.1c-7.1,2.5-14.1,5.1-21.2,7.6
	c0.8-0.3,1.2,0,1.8,0.6c0.5,0.6,0.8,1.5,1,2.2c2.6,9,6.1,17.7,10.6,26c0.6,1.1,1.2,2.2,2.2,3c1.8,1.4,4.3,1.4,6.4,0.6
	c0,0,3.1-0.9,5.5-3.8c3.6-4.5,3.1-13.5-1.3-23"/>
<path class="st0" d="M98.4,135c0,3.4,0.8,6.9,2.9,9.5s5.6,4.4,8.9,3.8c2.1-0.4,4-1.5,5.8-2.6c0.7-0.5,1.5-0.9,2.1-1.6
	c1.6-1.8,1.6-4.5,1.4-6.9c-0.3-4.5-0.8-9.1-2.8-13.1c-1.5-3-3.8-5.6-4.8-8.8c-0.6-1.9-0.6-4.1-1.6-5.9"/>
<path class="st0" d="M109.6,114.2c2.4,2.9,5.9,7.5,9,13.7c4.4,8.8,4.3,13.4,9,15.8c5.4,2.8,12.5,0.3,15.3-0.7
	c6.5-2.4,10.2-6.7,11.7-8.6c-3.6-7.7-7-14.8-10.6-22.3c-1.9-4-4.2-8.9-9.8-12.6c-2.2-1.5-4.4-2.4-5.9-2.9"/>
<path class="st0" d="M140.3,93.8c-0.2,1.6-0.5,3.3-0.7,4.9l2.1,7.7c2,5.5,5.5,14.6,10.1,22c0.8,1.2,2,3.1,4.2,3.8
	c4,1.3,8.5-1.8,10.8-4.2c4.3-4.5,4.5-10.4,4.5-13.6c0.3-16-12.2-28.8-16.1-32.5c-0.1-4.8-3.6-8.7-8-9.4c-5.7-0.9-10,6.3-10.8,7.7
	c-0.9,1.5-1.4,2.9-1.7,3.8"/>
<path class="st0" d="M79.6,138.6c3.9-0.3,7.8-1.9,10.8-4.4"/>
<path class="st0" d="M99.5,140.7c3.6,0.9,7.6-0.3,10-3"/>
<path class="st0" d="M126.4,137.3c5.7-1.5,11.4-3.2,17-5.1"/>
<path class="st0" d="M152.9,82.2c-3.6-0.1-7.2,1.1-10.1,3.2"/>
<path class="st0" d="M155.7,86.4c-5,0.3-9.9,1.6-14.3,3.8"/>
<path class="st0" d="M142,124.7c2.4,0.8,4.9-1,7.1-2.2c2.1-1.1,4.5-1.8,6.9-2"/>
<path class="st0" d="M169.3,99.6c2,0.1,4,0.1,6,0.2c3.3,0.1,6.6,0.2,9.7,1.3c3.5,1.2,6.6,3.7,8,7c1.4,3.4,0.9,7.6-1.6,10.3
	c-0.8,0.8-1.7,1.5-2.7,2.1c-3.4,2.2-6.8,4.2-10.3,6.1"/>
<path class="st0" d="M172.8,114.3c1.8,0.1,3.7,0.4,5.3,1.2c1.6,0.8,3,2.4,3.1,4.2c0.1,1.4-0.6,2.7-1.3,3.9c-0.8,1.4-1.6,2.8-2.5,4.2
	c-0.7,1.1-1.4,2.1-2.5,2.7c-2.1,1-4.8-0.3-7,0.6c-0.2-1.2-0.4-2.3-0.7-3.5"/>
<path class="st0" d="M135.9,83.1c-1.2,0.7-2.2,1.8-2.8,3"/>
<path class="st1" d="M225.2,58.5c2.6,8.1,6.4,23.1,4.8,41.7c-0.7,8.1-2.3,14.9-3.9,20.3l-13.1,2.3l-11.3-37.2l-31.8,14.7l-12-20.9
	l49.4-18.6c-2.2-2.3-5.8-5.3-10.7-7.5c-14.9-6.8-28.6-0.1-30.3-4c-1.4-3.1,6.2-10.8,14.7-13.7c9.8-3.3,18.7,0.4,21.8,1.8
	c6.5,2.7,10.5,6.8,13.4,9.8c4.7,4.8,7.6,9.5,9.4,12.9L225.2,58.5z"/>
<ellipse class="st1" cx="221" cy="121.4" rx="8.4" ry="8.2"/>
<path class="st1" d="M75.1,132.1c-11.5,0.7-17.5,4.4-21,7.7c-1.3,1.2-2,2.2-4.9,5c-5.1,4.9-7.9,7.6-12.2,9.3
	c-1.8,0.7-6.3-0.9-10.2-0.8v-0.5"/>
<path class="st1" d="M69.9,115.4"/>
<path class="st1" d="M75.8,132.3l-7.6-17.5c-9.3,6.8-16.3,7.9-21,7.6c-1.8-0.1-2.9-0.4-7-0.7c-7-0.5-10.9-0.7-15.4,0.7
	c-1.9,0.6-4.7,1.8-7.7,4.2l10.1,26.9"/>
</svg>
