<?xml version="1.0" encoding="utf-8"?>
<!-- Generator: Adobe Illustrator 24.3.0, SVG Export Plug-In . SVG Version: 6.00 Build 0)  -->
<svg version="1.1" id="Layer_1" xmlns="http://www.w3.org/2000/svg" xmlns:xlink="http://www.w3.org/1999/xlink" x="0px" y="0px"
	 viewBox="0 0 70 70" style="enable-background:new 0 0 70 70;" xml:space="preserve">
<style type="text/css">
	.st0{fill:#00BBD6;stroke:#000000;stroke-miterlimit:10;}
	.st1{display:none;}
	.st2{display:inline;}
	.st3{fill:#FFFFFF;stroke:#000000;stroke-miterlimit:10;}
	.st4{fill:#FFFFFF;stroke:#000000;stroke-width:0.75;stroke-miterlimit:10;}
	.st5{fill:none;stroke:#000000;stroke-miterlimit:10;}
	.st6{fill:none;stroke:#00AC5F;stroke-width:0.75;stroke-miterlimit:10;}
	.st7{fill:none;stroke:#000000;stroke-width:0.75;stroke-miterlimit:10;}
	.st8{opacity:0.4;stroke:#000000;stroke-miterlimit:10;}
</style>
<polygon class="st0" points="52.7,5.5 70.3,35.3 53,65.3 18,65.5 0.3,35.6 17.7,5.6 "/>
<g class="st1">
	<g class="st2">
		<image style="overflow:visible;" width="1000" height="1000" xlink:href="4CEFD5BD.jpg"  transform="matrix(1 0 0 1 -464 -464)">
		</image>
	</g>
</g>
<polyline class="st3" points="32.3,18.7 32.3,14.1 32.3,9.6 38.4,9.6 40.5,9.6 40.5,14 40.5,18.5 "/>
<line class="st3" x1="8.9" y1="49.5" x2="60.9" y2="49.6"/>
<line class="st3" x1="11.8" y1="52.3" x2="56.6" y2="52.3"/>
<line class="st3" x1="18.7" y1="56.6" x2="49.5" y2="56.6"/>
<line class="st3" x1="24.9" y1="60.6" x2="47.7" y2="60.6"/>
<path class="st3" d="M21.7,33.6V23.3c0-2.7,2.2-4.9,4.9-4.9h18.7c2.7,0,4.9,2.2,4.9,4.9v6.1L50,33.6"/>
<rect x="40" y="21.4" class="st4" width="2.1" height="2"/>
<rect x="45" y="21.4" class="st4" width="2.1" height="2"/>
<line class="st5" x1="32.1" y1="14.1" x2="40.4" y2="14.1"/>
<rect x="24.7" y="21.2" class="st4" width="2.1" height="2"/>
<rect x="30.4" y="21.3" class="st4" width="2.1" height="2"/>
<path class="st3" d="M36,26.4c0,0,20.9,11.8,20.8,12.3c-0.9,3.7-3,6.5-4.8,8.3l-1.8,2.3l-14.6,0.3v-23"/>
<path class="st6" d="M23.7,14.2"/>
<path class="st3" d="M60.1,49.4L7.9,49.6l27.7-0.1v-23L14.9,37.4c0.1,0.4,0.1,0.8,0.3,1.3c0.9,3.7,3,6.5,4.8,8.3l1.8,2.3"/>
<polyline class="st7" points="27.7,38.5 36.1,34.3 43.7,38.5 "/>
<polyline class="st4" points="26.1,13.9 26.1,18 29.1,18 29.1,14.1 "/>
<polyline class="st4" points="43.4,14 43.4,18.1 46.4,18.1 46.4,14.2 "/>
<path class="st8" d="M35.4,49.2c3.2,4.8,6.1,9.7,8.7,14.8c0.2,0.4,0.4,0.8,0.8,1.1c0.2,0.1,0.5,0.2,0.7,0.2c2.2,0.3,4.4-1.2,6.6-0.8
	c-0.2-0.9,0.1-1.8,0.6-2.5c0.5-0.7,1.2-1.3,1.8-2c2.8-3.1,3.8-7.4,6.1-10.9c1.3-2,3-3.7,3.9-5.9c0.4-1,0.6-2.1,1.3-2.8
	c0.5-0.5,1.3-0.9,1.4-1.6c-3.6,0.4-7.2,0.5-10.9,0.3c-0.4,1.7-1,3.3-1.4,5c-0.1,0.5-0.3,1.1-0.6,1.6c-0.7,1-2.2,1.3-2.9,2.4
	c-0.2,0.3-0.3,0.6-0.6,0.9c-0.4,0.4-1.1,0.4-1.7,0.4C46.1,49.3,43,49.1,40,49C38.4,49,36.8,48.8,35.4,49.2z"/>
</svg>
