<?xml version="1.0" encoding="utf-8"?>
<!-- Generator: Adobe Illustrator 24.3.0, SVG Export Plug-In . SVG Version: 6.00 Build 0)  -->
<svg version="1.1" id="Layer_1" xmlns="http://www.w3.org/2000/svg" xmlns:xlink="http://www.w3.org/1999/xlink" x="0px" y="0px"
	 viewBox="0 0 260 260" style="enable-background:new 0 0 260 260;" xml:space="preserve">
<style type="text/css">
	.st0{stroke:#000000;stroke-miterlimit:10;}
	.st1{fill:none;stroke:#000000;stroke-width:2;stroke-miterlimit:10;}
</style>
<g>
	<rect x="30.5" y="98.5" width="8" height="24"/>
	<path d="M38,99v23h-7V99H38 M39,98h-9v25h9V98L39,98z"/>
</g>
<g>
	<rect x="42.3" y="90.5" width="8" height="38.8"/>
	<path d="M49.8,91v37.8h-7V91H49.8 M50.8,90h-9v39.8h9V90L50.8,90z"/>
</g>
<g>
	<rect x="54.3" y="103.5" width="8" height="18"/>
	<path d="M61.8,104v17h-7v-17H61.8 M62.8,103h-9v19h9V103L62.8,103z"/>
</g>
<g>
	<rect x="68.4" y="90.6" width="8" height="40"/>
	<path d="M75.9,91.1v39h-7v-39H75.9 M76.9,90.1h-9v41h9V90.1L76.9,90.1z"/>
</g>
<g>
	<rect x="80.2" y="74.5" width="8" height="64.2"/>
	<path d="M87.7,75v63.2h-7V75H87.7 M88.7,74h-9v65.2h9V74L88.7,74z"/>
</g>
<g>
	<rect x="92.2" y="95.8" width="8" height="30.1"/>
	<path d="M99.7,96.3v29.1h-7V96.3H99.7 M100.7,95.3h-9v31.1h9V95.3L100.7,95.3z"/>
</g>
<g>
	<rect x="105.2" y="87.5" width="8" height="46.3"/>
	<path d="M112.7,88v45.3h-7V88H112.7 M113.7,87h-9v47.3h9V87L113.7,87z"/>
</g>
<g>
	<rect x="117.2" y="103" width="8" height="21.6"/>
	<path d="M124.7,103.5v20.6h-7v-20.6H124.7 M125.7,102.5h-9v22.6h9V102.5L125.7,102.5z"/>
</g>
<g>
	<rect x="131.3" y="87.6" width="8" height="47.7"/>
	<path d="M138.8,88.1v46.7h-7V88.1H138.8 M139.8,87.1h-9v48.7h9V87.1L139.8,87.1z"/>
</g>
<g>
	<rect x="146.3" y="68.5" width="8" height="80.9"/>
	<path d="M153.8,69v79.9h-7V69H153.8 M154.8,68h-9v81.9h9V68L154.8,68z"/>
</g>
<g>
	<rect x="158.3" y="93.3" width="8" height="38.1"/>
	<path d="M165.8,93.8v37.1h-7V93.8H165.8 M166.8,92.8h-9v39.1h9V92.8L166.8,92.8z"/>
</g>
<g>
	<rect x="181.3" y="92.2" width="8" height="38.8"/>
	<path d="M188.8,92.7v37.8h-7V92.7H188.8 M189.8,91.7h-9v39.8h9V91.7L189.8,91.7z"/>
</g>
<g>
	<rect x="193.3" y="105.2" width="8" height="18"/>
	<path d="M200.8,105.7v17h-7v-17H200.8 M201.8,104.7h-9v19h9V104.7L201.8,104.7z"/>
</g>
<g>
	<rect x="207.4" y="92.3" width="8" height="40"/>
	<path d="M214.9,92.8v39h-7v-39H214.9 M215.9,91.8h-9v41h9V91.8L215.9,91.8z"/>
</g>
<g>
	<rect x="219.2" y="76.2" width="8" height="64.2"/>
	<path d="M226.7,76.7v63.2h-7V76.7H226.7 M227.7,75.7h-9v65.2h9V75.7L227.7,75.7z"/>
</g>
<g>
	<rect x="231.2" y="97.5" width="8" height="30.1"/>
	<path d="M238.7,98v29.1h-7V98H238.7 M239.7,97h-9v31.1h9V97L239.7,97z"/>
</g>
<g>
	<rect x="170.5" y="104.5" width="8" height="18"/>
	<path d="M178,105v17h-7v-17H178 M179,104h-9v19h9V104L179,104z"/>
</g>
<g>
	<rect x="7.4" y="99.9" width="8" height="24"/>
	<path d="M14.9,100.4v23h-7v-23H14.9 M15.9,99.4h-9v25h9V99.4L15.9,99.4z"/>
</g>
<g>
	<rect x="19.2" y="91.9" width="8" height="38.8"/>
	<path d="M26.7,92.4v37.8h-7V92.4H26.7 M27.7,91.4h-9v39.8h9V91.4L27.7,91.4z"/>
</g>
<g>
	<rect x="243.3" y="92.3" width="8" height="40"/>
	<path d="M250.8,92.8v39h-7v-39H250.8 M251.8,91.8h-9v41h9V91.8L251.8,91.8z"/>
</g>
<line class="st0" x1="6.5" y1="110.5" x2="251.5" y2="111.5"/>
<ellipse class="st0" cx="66.5" cy="36" rx="5" ry="3.5"/>
<polyline class="st1" points="88.3,35 88.3,16 69.5,18.5 69.5,37.5 "/>
<ellipse class="st0" cx="85.3" cy="34.3" rx="5" ry="3.2"/>
<polygon class="st0" points="69.5,23.1 87.5,20.5 88.3,16 69.5,18.5 "/>
<ellipse class="st0" cx="153.9" cy="34.8" rx="5" ry="3.5"/>
<polyline class="st1" points="175.7,33.9 175.7,14.9 156.9,17.3 156.9,36.3 "/>
<ellipse class="st0" cx="172.7" cy="33.1" rx="5" ry="3.2"/>
<polygon class="st0" points="156.9,22 174.9,19.3 175.7,14.9 156.9,17.3 "/>
</svg>
