<?xml version="1.0" encoding="utf-8"?>
<!-- Generator: Adobe Illustrator 24.3.0, SVG Export Plug-In . SVG Version: 6.00 Build 0)  -->
<svg version="1.1" id="Layer_1" xmlns="http://www.w3.org/2000/svg" xmlns:xlink="http://www.w3.org/1999/xlink" x="0px" y="0px"
	 viewBox="0 0 70 70" style="enable-background:new 0 0 70 70;" xml:space="preserve">
<style type="text/css">
	.st0{display:none;}
	.st1{display:inline;}
	.st2{fill:#FFFFFF;stroke:#00AC5F;stroke-miterlimit:10;}
	.st3{fill:#FFFFFF;stroke:#FF4B59;stroke-miterlimit:10;}
</style>
<g class="st0">
	<g class="st1">
		<image style="overflow:visible;" width="1000" height="1000" xlink:href="1A7D0E30.jpg"  transform="matrix(1 0 0 1 -464 -464)">
		</image>
	</g>
</g>
<path class="st2" d="M37.5,12.1c0-0.1,0.2-0.8-0.2-1.4c0,0-0.5-0.8-1.1-0.7c-0.5,0-1.1,0.6-1.1,1.5l-1.6,18.5l1.4,6.9l2.4,0.5
	l0.3-12.5C37.4,17.7,37.3,13.2,37.5,12.1z"/>
<path class="st2" d="M58.1,55.1c0.1,0.1,0.6,0.6,1.3,0.6c0,0,0.9,0,1.2-0.5c0.3-0.5,0-1.2-0.6-1.7L45.3,42.1l-6.5-2.6l-1.7,1.8
	l10.3,7C55.5,53.2,58.4,55.4,58.1,55.1z"/>
<path class="st2" d="M10.6,53.4c-0.1,0.1-0.8,0.3-1.1,1c0,0-0.4,0.8,0,1.3c0.3,0.4,1.2,0.5,1.9,0l17.3-9.7l5.3-5.2L33,38.6
	l-11.3,7.3C13.6,51.7,10.1,53.6,10.6,53.4z"/>
<path class="st3" d="M38.3,39.1c0,1.2-1,2.3-2.3,2.3s-2.3-1-2.3-2.3s1-2.3,2.3-2.3c0.5,0,0.9,0.1,1.2,0.4
	C37.9,37.6,38.3,38.3,38.3,39.1z"/>
</svg>
