<?xml version="1.0" encoding="utf-8"?>
<!-- Generator: Adobe Illustrator 24.3.0, SVG Export Plug-In . SVG Version: 6.00 Build 0)  -->
<svg version="1.1" xmlns="http://www.w3.org/2000/svg" xmlns:xlink="http://www.w3.org/1999/xlink" x="0px" y="0px"
	 viewBox="0 0 240 144" style="enable-background:new 0 0 240 144;" xml:space="preserve">
<style type="text/css">
	.st0{filter:url(#Adobe_OpacityMaskFilter);}
	.st1{fill:url(#SVGID_2_);}
	.st2{opacity:0.18;mask:url(#SVGID_1_);fill:url(#SVGID_3_);}
	.st3{display:none;}
	.st4{display:inline;fill:url(#SVGID_4_);}
	.st5{display:inline;fill:url(#SVGID_5_);}
	.st6{display:inline;fill:url(#SVGID_6_);}
	.st7{display:inline;fill:url(#SVGID_7_);}
</style>
<g id="BG">
	<defs>
		<filter id="Adobe_OpacityMaskFilter" filterUnits="userSpaceOnUse" x="-1.2" y="-31.8" width="278.5" height="173.6">
			<feColorMatrix  type="matrix" values="1 0 0 0 0  0 1 0 0 0  0 0 1 0 0  0 0 0 1 0"/>
		</filter>
	</defs>
	<mask maskUnits="userSpaceOnUse" x="-1.2" y="-31.8" width="278.5" height="173.6" id="SVGID_1_">
		<g class="st0">
			
				<radialGradient id="SVGID_2_" cx="181.3406" cy="96.1822" r="95.9333" fx="277.2735" fy="96.483" gradientUnits="userSpaceOnUse">
				<stop  offset="5.419115e-02" style="stop-color:#3FA9F5"/>
				<stop  offset="0.1146" style="stop-color:#5CB6F7"/>
				<stop  offset="0.2177" style="stop-color:#87C9F9"/>
				<stop  offset="0.326" style="stop-color:#ACDAFB"/>
				<stop  offset="0.4385" style="stop-color:#CAE7FC"/>
				<stop  offset="0.5564" style="stop-color:#E2F2FD"/>
				<stop  offset="0.6822" style="stop-color:#F2F9FE"/>
				<stop  offset="0.8213" style="stop-color:#FCFEFF"/>
				<stop  offset="1" style="stop-color:#FFFFFF"/>
			</radialGradient>
			<polygon class="st1" points="69.1,0 -7,75.2 83.3,174.8 263.6,85.8 255.3,-14.2 			"/>
		</g>
	</mask>
	
		<radialGradient id="SVGID_3_" cx="179.3544" cy="77.3304" r="85.9644" fx="265.3183" fy="77.6" gradientTransform="matrix(1.0743 0 0 1.1165 -5.250319e-02 -16.7624)" gradientUnits="userSpaceOnUse">
		<stop  offset="5.419115e-02" style="stop-color:#3FA9F5"/>
		<stop  offset="0.1146" style="stop-color:#5CB6F7"/>
		<stop  offset="0.2177" style="stop-color:#87C9F9"/>
		<stop  offset="0.326" style="stop-color:#ACDAFB"/>
		<stop  offset="0.4385" style="stop-color:#CAE7FC"/>
		<stop  offset="0.5564" style="stop-color:#E2F2FD"/>
		<stop  offset="0.6822" style="stop-color:#F2F9FE"/>
		<stop  offset="0.8213" style="stop-color:#FCFEFF"/>
		<stop  offset="1" style="stop-color:#FFFFFF"/>
	</radialGradient>
	<path class="st2" d="M277.3-9.6v-0.5l-12.7-7.6l-23.5-14.1h-1.5l-4,2.4l-4.1-2.4h-1.5l-4,2.4l-4.1-2.4h-1.5l-4,2.4l-4.1-2.4h-1.5
		l-4,2.4l-4.1-2.4H201l-4,2.4l-4.1-2.4h-1.5l-4,2.4l-4.1-2.4h-1.5l-4,2.4l-4.1-2.4H172l-4,2.4l-4.1-2.4h-1.5l-4,2.4l-4.1-2.4h-1.5
		l-4,2.4l-4.1-2.4h-1.5l-23.3,14.1L47.4,26L-1.2,55.4v0.5l1-0.6L4.2,58l-4.4,2.6l-1-0.6v0.5l0.5,0.3l-0.5,0.3v0.5l1-0.6l4.4,2.6
		l-4.4,2.6l-1-0.6v0.5l0.6,0.3L-1.2,67v0.5l1-0.6l4.4,2.6l-4.4,2.6l-1-0.6v0.5l0.6,0.4l-0.6,0.4v0.5l1-0.6l4.4,2.6L-0.1,78l-1.1-0.6
		v0.5l0.6,0.4l-0.6,0.4v0.5l1.1-0.7l4.4,2.6l-4.4,2.6l-1.1-0.7v0.5l49.1,29.5l47.6,28.6h0.9l-4.2-2.5l4.4-2.6l4.4,2.6l-4.2,2.5h0.9
		l3.7-2.3l3.8,2.3h0.9l-4.2-2.5l4.4-2.6l4.4,2.6l-4.2,2.5h0.9l3.7-2.3l3.8,2.3h0.9l-4.2-2.5l4.4-2.6l4.4,2.6l-4.2,2.5h0.9l3.7-2.3
		l3.8,2.3h0.9l-4.2-2.5l4.4-2.6l4.4,2.6l-4.2,2.5h0.9l3.7-2.3l3.8,2.3h0.9l-4.2-2.5l4.4-2.6l4.4,2.6l-4.2,2.5h0.9l3.7-2.3l3.8,2.3
		h0.9l-4.2-2.5l4.4-2.6l4.4,2.6l-4.2,2.5h0.9l3.7-2.3l3.8,2.3h0.9l-4.2-2.5l4.4-2.6l4.4,2.6l-4.2,2.5h0.9l3.7-2.3l3.8,2.3h0.9
		l-4.2-2.5l4.4-2.6l4.4,2.6l-4.2,2.5h0.9l3.7-2.3l3.8,2.3h0.9l-4.2-2.5l4.4-2.6l4.4,2.6l-4.2,2.5h0.9l3.7-2.3l3.8,2.3h0.9l-4.2-2.5
		l4.4-2.6l4.4,2.6l-4.2,2.5h0.9l3.7-2.3l3.8,2.3h0.9l-4.2-2.5l4.4-2.6l4.4,2.6l-4.2,2.5h0.9l3.7-2.3l3.8,2.3h0.9l-4.2-2.5l4.4-2.6
		l4.4,2.6l-4.2,2.5h0.9l3.7-2.3l3.8,2.3h0.9l-4.2-2.5l4.4-2.6l4.4,2.6l-4.2,2.5h0.9l3.7-2.3l3.8,2.3h0.9l-4.2-2.5l4.4-2.6l4.4,2.6
		l-4.2,2.5h0.9l3.7-2.3l3.8,2.3h0.9l-4.2-2.5l4.4-2.6l4.4,2.6l-4.2,2.5h0.9l3.7-2.3l3.8,2.3h0.9l-4.2-2.5l4.4-2.6l4.4,2.6l-4.2,2.5
		h0.9l3.7-2.3l3.8,2.3h0.9l-4.2-2.5l4.4-2.6l4.4,2.6l-4.2,2.5h0.9l3.7-2.3l3.8,2.3h0.9l-4.2-2.5l4.4-2.6l4.4,2.6l-4.2,2.5h0.9
		l3.7-2.3l3.8,2.3h0.9l-4.2-2.5l4.4-2.6l4.4,2.6l-4.2,2.5h0.9l3.7-2.3l2.3,1.4v-0.5l-1.9-1.1l1.9-1.1v-0.5l-2.3,1.4l-4.4-2.6
		l4.4-2.6l2.3,1.4v-0.5l-1.9-1.1l1.9-1.2v-0.5l-2.3,1.4l-4.4-2.6l4.4-2.6l2.4,1.4v-0.5l-1.9-1.2l1.9-1.2V126l-2.4,1.4l-4.4-2.6
		l4.4-2.6l2.4,1.4V123l-2-1.2l2-1.2v-0.5l-2.4,1.5l-4.4-2.6l4.4-2.6l2.4,1.5v-0.5l-2-1.2l2-1.2v-0.5l-2.4,1.5l-4.4-2.6l4.4-2.6
		l2.5,1.5v-0.5l-2-1.2l2-1.2v-0.5l-2.5,1.5l-4.4-2.6l4.4-2.6l2.5,1.5v-0.5l-2.1-1.2l2.1-1.2v-0.5l-2.5,1.5l-4.4-2.6l4.4-2.6l2.5,1.5
		v-0.5l-2.1-1.3l2.1-1.3v-0.5l-2.5,1.5l-4.4-2.6l4.4-2.6l2.6,1.5v-0.5l-2.1-1.3l2.1-1.3V91l-2.6,1.5l-4.4-2.6l4.4-2.6l2.6,1.6v-0.5
		l-2.2-1.3l2.2-1.3v-0.5l-2.6,1.6l-4.4-2.6l4.4-2.6l2.6,1.6v-0.5l-2.2-1.3l2.2-1.3v-0.5l-2.6,1.6l-4.4-2.6l4.4-2.6l2.7,1.6v-0.5
		l-2.2-1.3l2.2-1.3v-0.5l-2.7,1.6l-4.4-2.6l4.4-2.6l2.7,1.6v-0.5l-2.3-1.4l2.3-1.4v-0.5l-2.7,1.6l-4.4-2.6l4.4-2.6l2.7,1.6v-0.5
		l-2.3-1.4l2.3-1.4v-0.5l-2.7,1.6l-4.4-2.6l4.4-2.6l2.7,1.7v-0.5l-2.3-1.4l2.3-1.4V56l-2.8,1.7l-4.4-2.6l4.4-2.6l2.8,1.7v-0.5
		l-2.3-1.4l2.3-1.4v-0.5l-2.8,1.7l-4.4-2.6l4.4-2.6l2.8,1.7v-0.5l-2.4-1.4l2.4-1.4v-0.5l-2.8,1.7l-4.4-2.6l4.4-2.6l2.8,1.7V42
		l-2.4-1.4l2.4-1.5v-0.5l-2.8,1.7l-4.4-2.6l4.4-2.6l2.9,1.7v-0.5l-2.4-1.5l2.4-1.5v-0.5l-2.9,1.7l-4.4-2.6l4.4-2.6l2.9,1.7v-0.5
		l-2.5-1.5l2.5-1.5v-0.5l-2.9,1.8l-4.4-2.6l4.4-2.6l2.9,1.8v-0.5l-2.5-1.5l2.5-1.5v-0.5l-2.9,1.8l-4.4-2.6l4.4-2.6l3,1.8v-0.5
		l-2.5-1.5l2.5-1.5v-0.5l-3,1.8l-4.4-2.6l4.4-2.6l3,1.8v-0.5l-2.6-1.5l2.6-1.6V9.4l-3,1.8l-4.4-2.6l4.4-2.6l3,1.8V7.3l-2.6-1.6
		l2.6-1.6V3.6l-3,1.8l-4.4-2.6l4.4-2.6l3.1,1.8V1.5l-2.6-1.6l2.6-1.6v-0.5l-3.1,1.9L269.8-3l4.4-2.6l3.1,1.9v-0.5l-2.7-1.6l2.7-1.6
		V-8l-3.1,1.9l-4.4-2.6l4.4-2.6L277.3-9.6z M268.9-14.6l-4.4,2.6l-4.4-2.6l4.4-2.6L268.9-14.6z M101.4,63.8l4.4-2.6l4.4,2.6
		l-4.4,2.6L101.4,63.8z M105.4,66.7l-4.4,2.6l-4.4-2.6L101,64L105.4,66.7z M120.7,58l4.4-2.6l4.4,2.6l-4.4,2.6L120.7,58z
		 M124.7,60.9l-4.4,2.6l-4.4-2.6l4.4-2.6L124.7,60.9z M139.9,52.2l4.4-2.6l4.4,2.6l-4.4,2.6L139.9,52.2z M143.9,55.1l-4.4,2.6
		l-4.4-2.6l4.4-2.6L143.9,55.1z M149.2,52.4l4.4,2.6l-4.4,2.6l-4.4-2.6L149.2,52.4z M149.6,52.2l4.4-2.6l4.4,2.6l-4.4,2.6
		L149.6,52.2z M158.8,52.4l4.4,2.6l-4.4,2.6l-4.4-2.6L158.8,52.4z M159.2,52.2l4.4-2.6l4.4,2.6l-4.4,2.6L159.2,52.2z M168.4,52.4
		l4.4,2.6l-4.4,2.6l-4.4-2.6L168.4,52.4z M168.9,52.2l4.4-2.6l4.4,2.6l-4.4,2.6L168.9,52.2z M178.1,52.4l4.4,2.6l-4.4,2.6l-4.4-2.6
		L178.1,52.4z M178.5,52.2l4.4-2.6l4.4,2.6l-4.4,2.6L178.5,52.2z M187.7,52.4l4.4,2.6l-4.4,2.6l-4.4-2.6L187.7,52.4z M188.1,52.2
		l4.4-2.6l4.4,2.6l-4.4,2.6L188.1,52.2z M197.4,52.4l4.4,2.6l-4.4,2.6l-4.4-2.6L197.4,52.4z M197.8,52.2l4.4-2.6l4.4,2.6l-4.4,2.6
		L197.8,52.2z M202.2,49l-4.4-2.6l4.4-2.6l4.4,2.6L202.2,49z M201.7,49.3l-4.4,2.6l-4.4-2.6l4.4-2.6L201.7,49.3z M192.5,49l-4.4-2.6
		l4.4-2.6l4.4,2.6L192.5,49z M192.1,49.3l-4.4,2.6l-4.4-2.6l4.4-2.6L192.1,49.3z M182.9,49l-4.4-2.6l4.4-2.6l4.4,2.6L182.9,49z
		 M182.4,49.3l-4.4,2.6l-4.4-2.6l4.4-2.6L182.4,49.3z M173.2,49l-4.4-2.6l4.4-2.6l4.4,2.6L173.2,49z M172.8,49.3l-4.4,2.6l-4.4-2.6
		l4.4-2.6L172.8,49.3z M163.6,49l-4.4-2.6l4.4-2.6l4.4,2.6L163.6,49z M163.2,49.3l-4.4,2.6l-4.4-2.6l4.4-2.6L163.2,49.3z M154,49
		l-4.4-2.6l4.4-2.6l4.4,2.6L154,49z M153.5,49.3l-4.4,2.6l-4.4-2.6l4.4-2.6L153.5,49.3z M144.3,49l-4.4-2.6l4.4-2.6l4.4,2.6
		L144.3,49z M143.9,49.3l-4.4,2.6l-4.4-2.6l4.4-2.6L143.9,49.3z M139.1,52.2l-4.4,2.6l-4.4-2.6l4.4-2.6L139.1,52.2z M134.3,55.1
		l-4.4,2.6l-4.4-2.6l4.4-2.6L134.3,55.1z M129.9,58.2l4.4,2.6l-4.4,2.6l-4.4-2.6L129.9,58.2z M130.3,58l4.4-2.6l4.4,2.6l-4.4,2.6
		L130.3,58z M139.5,58.2l4.4,2.6l-4.4,2.6l-4.4-2.6L139.5,58.2z M140,58l4.4-2.6l4.4,2.6l-4.4,2.6L140,58z M149.2,58.2l4.4,2.6
		l-4.4,2.6l-4.4-2.6L149.2,58.2z M149.6,58l4.4-2.6l4.4,2.6l-4.4,2.6L149.6,58z M158.8,58.2l4.4,2.6l-4.4,2.6l-4.4-2.6L158.8,58.2z
		 M159.3,58l4.4-2.6L168,58l-4.4,2.6L159.3,58z M168.5,58.2l4.4,2.6l-4.4,2.6l-4.4-2.6L168.5,58.2z M168.9,58l4.4-2.6l4.4,2.6
		l-4.4,2.6L168.9,58z M178.1,58.2l4.4,2.6l-4.4,2.6l-4.4-2.6L178.1,58.2z M178.5,58l4.4-2.6l4.4,2.6l-4.4,2.6L178.5,58z M187.7,58.2
		l4.4,2.6l-4.4,2.6l-4.4-2.6L187.7,58.2z M188.2,58l4.4-2.6L197,58l-4.4,2.6L188.2,58z M197.4,58.2l4.4,2.6l-4.4,2.6l-4.4-2.6
		L197.4,58.2z M197.8,58l4.4-2.6l4.4,2.6l-4.4,2.6L197.8,58z M207,58.2l4.4,2.6l-4.4,2.6l-4.4-2.6L207,58.2z M207,57.7l-4.4-2.6
		l4.4-2.6l4.4,2.6L207,57.7z M207,51.9l-4.4-2.6l4.4-2.6l4.4,2.6L207,51.9z M207,46.1l-4.4-2.6l4.4-2.6l4.4,2.6L207,46.1z
		 M202.1,43.2l-4.4-2.6l4.4-2.6l4.4,2.6L202.1,43.2z M201.7,43.4l-4.4,2.6l-4.4-2.6l4.4-2.6L201.7,43.4z M192.5,43.2l-4.4-2.6
		l4.4-2.6l4.4,2.6L192.5,43.2z M192.1,43.4l-4.4,2.6l-4.4-2.6l4.4-2.6L192.1,43.4z M182.8,43.2l-4.4-2.6l4.4-2.6l4.4,2.6L182.8,43.2
		z M182.4,43.4l-4.4,2.6l-4.4-2.6l4.4-2.6L182.4,43.4z M173.2,43.2l-4.4-2.6l4.4-2.6l4.4,2.6L173.2,43.2z M172.8,43.4l-4.4,2.6
		l-4.4-2.6l4.4-2.6L172.8,43.4z M163.6,43.2l-4.4-2.6l4.4-2.6l4.4,2.6L163.6,43.2z M163.1,43.4l-4.4,2.6l-4.4-2.6l4.4-2.6
		L163.1,43.4z M153.9,43.2l-4.4-2.6l4.4-2.6l4.4,2.6L153.9,43.2z M153.5,43.4l-4.4,2.6l-4.4-2.6l4.4-2.6L153.5,43.4z M144.3,43.2
		l-4.4-2.6l4.4-2.6l4.4,2.6L144.3,43.2z M143.9,43.4l-4.4,2.6l-4.4-2.6l4.4-2.6L143.9,43.4z M139.1,46.4l-4.4,2.6l-4.4-2.6l4.4-2.6
		L139.1,46.4z M134.2,49.3l-4.4,2.6l-4.4-2.6l4.4-2.6L134.2,49.3z M129.4,52.2l-4.4,2.6l-4.4-2.6l4.4-2.6L129.4,52.2z M124.6,55.1
		l-4.4,2.6l-4.4-2.6l4.4-2.6L124.6,55.1z M119.8,58l-4.4,2.6l-4.4-2.6l4.4-2.6L119.8,58z M115,60.9l-4.4,2.6l-4.4-2.6l4.4-2.6
		L115,60.9z M110.7,64l4.4,2.6l-4.4,2.6l-4.4-2.6L110.7,64z M111.1,63.8l4.4-2.6l4.4,2.6l-4.4,2.6L111.1,63.8z M120.3,64l4.4,2.6
		l-4.4,2.6l-4.4-2.6L120.3,64z M120.7,63.8l4.4-2.6l4.4,2.6l-4.4,2.6L120.7,63.8z M129.9,64l4.4,2.6l-4.4,2.6l-4.4-2.6L129.9,64z
		 M130.4,63.8l4.4-2.6l4.4,2.6l-4.4,2.6L130.4,63.8z M139.6,64l4.4,2.6l-4.4,2.6l-4.4-2.6L139.6,64z M140,63.8l4.4-2.6l4.4,2.6
		l-4.4,2.6L140,63.8z M149.2,64l4.4,2.6l-4.4,2.6l-4.4-2.6L149.2,64z M149.7,63.8l4.4-2.6l4.4,2.6l-4.4,2.6L149.7,63.8z M158.9,64
		l4.4,2.6l-4.4,2.6l-4.4-2.6L158.9,64z M159.3,63.8l4.4-2.6l4.4,2.6l-4.4,2.6L159.3,63.8z M168.5,64l4.4,2.6l-4.4,2.6l-4.4-2.6
		L168.5,64z M168.9,63.8l4.4-2.6l4.4,2.6l-4.4,2.6L168.9,63.8z M178.1,64l4.4,2.6l-4.4,2.6l-4.4-2.6L178.1,64z M178.6,63.8l4.4-2.6
		l4.4,2.6l-4.4,2.6L178.6,63.8z M187.8,64l4.4,2.6l-4.4,2.6l-4.4-2.6L187.8,64z M188.2,63.8l4.4-2.6l4.4,2.6l-4.4,2.6L188.2,63.8z
		 M197.4,64l4.4,2.6l-4.4,2.6l-4.4-2.6L197.4,64z M197.9,63.8l4.4-2.6l4.4,2.6l-4.4,2.6L197.9,63.8z M207.1,64l4.4,2.6l-4.4,2.6
		l-4.4-2.6L207.1,64z M207.5,63.8l4.4-2.6l4.4,2.6l-4.4,2.6L207.5,63.8z M211.9,60.6l-4.4-2.6l4.4-2.6l4.4,2.6L211.9,60.6z
		 M211.8,54.8l-4.4-2.6l4.4-2.6l4.4,2.6L211.8,54.8z M211.8,49l-4.4-2.6l4.4-2.6l4.4,2.6L211.8,49z M211.8,43.2l-4.4-2.6l4.4-2.6
		l4.4,2.6L211.8,43.2z M211.7,37.4l-4.4-2.6l4.4-2.6l4.4,2.6L211.7,37.4z M211.3,37.6l-4.4,2.6l-4.4-2.6l4.4-2.6L211.3,37.6z
		 M202.1,37.4l-4.4-2.6l4.4-2.6l4.4,2.6L202.1,37.4z M201.7,37.6l-4.4,2.6l-4.4-2.6l4.4-2.6L201.7,37.6z M192.5,37.4l-4.4-2.6
		l4.4-2.6l4.4,2.6L192.5,37.4z M192,37.6l-4.4,2.6l-4.4-2.6l4.4-2.6L192,37.6z M182.8,37.4l-4.4-2.6l4.4-2.6l4.4,2.6L182.8,37.4z
		 M182.4,37.6l-4.4,2.6l-4.4-2.6L178,35L182.4,37.6z M173.2,37.4l-4.4-2.6l4.4-2.6l4.4,2.6L173.2,37.4z M172.7,37.6l-4.4,2.6
		l-4.4-2.6l4.4-2.6L172.7,37.6z M163.5,37.4l-4.4-2.6l4.4-2.6l4.4,2.6L163.5,37.4z M163.1,37.6l-4.4,2.6l-4.4-2.6l4.4-2.6
		L163.1,37.6z M153.9,37.4l-4.4-2.6l4.4-2.6l4.4,2.6L153.9,37.4z M153.5,37.6l-4.4,2.6l-4.4-2.6l4.4-2.6L153.5,37.6z M144.3,37.4
		l-4.4-2.6l4.4-2.6l4.4,2.6L144.3,37.4z M143.8,37.6l-4.4,2.6l-4.4-2.6l4.4-2.6L143.8,37.6z M139,40.5l-4.4,2.6l-4.4-2.6l4.4-2.6
		L139,40.5z M134.2,43.4l-4.4,2.6l-4.4-2.6l4.4-2.6L134.2,43.4z M129.4,46.4L125,49l-4.4-2.6l4.4-2.6L129.4,46.4z M124.6,49.3
		l-4.4,2.6l-4.4-2.6l4.4-2.6L124.6,49.3z M119.8,52.2l-4.4,2.6l-4.4-2.6l4.4-2.6L119.8,52.2z M115,55.1l-4.4,2.6l-4.4-2.6l4.4-2.6
		L115,55.1z M110.2,58l-4.4,2.6l-4.4-2.6l4.4-2.6L110.2,58z M105.4,60.9l-4.4,2.6l-4.4-2.6l4.4-2.6L105.4,60.9z M100.6,63.8
		l-4.4,2.6l-4.4-2.6l4.4-2.6L100.6,63.8z M95.8,66.7l-4.4,2.6L87,66.7l4.4-2.6L95.8,66.7z M91,69.6l-4.4,2.6l-4.4-2.6l4.4-2.6
		L91,69.6z M91.4,69.8l4.4,2.6l-4.4,2.6L87,72.5L91.4,69.8z M91.8,69.6l4.4-2.6l4.4,2.6l-4.4,2.6L91.8,69.6z M101.1,69.8l4.4,2.6
		l-4.4,2.6l-4.4-2.6L101.1,69.8z M101.5,69.6l4.4-2.6l4.4,2.6l-4.4,2.6L101.5,69.6z M110.7,69.8l4.4,2.6l-4.4,2.6l-4.4-2.6
		L110.7,69.8z M111.1,69.6l4.4-2.6l4.4,2.6l-4.4,2.6L111.1,69.6z M120.3,69.8l4.4,2.6l-4.4,2.6l-4.4-2.6L120.3,69.8z M120.8,69.6
		l4.4-2.6l4.4,2.6l-4.4,2.6L120.8,69.6z M130,69.8l4.4,2.6l-4.4,2.6l-4.4-2.6L130,69.8z M130.4,69.6l4.4-2.6l4.4,2.6l-4.4,2.6
		L130.4,69.6z M139.6,69.8l4.4,2.6l-4.4,2.6l-4.4-2.6L139.6,69.8z M140,69.6l4.4-2.6l4.4,2.6l-4.4,2.6L140,69.6z M149.3,69.8
		l4.4,2.6l-4.4,2.6l-4.4-2.6L149.3,69.8z M149.7,69.6l4.4-2.6l4.4,2.6l-4.4,2.6L149.7,69.6z M158.9,69.8l4.4,2.6l-4.4,2.6l-4.4-2.6
		L158.9,69.8z M159.3,69.6l4.4-2.6l4.4,2.6l-4.4,2.6L159.3,69.6z M168.5,69.8l4.4,2.6l-4.4,2.6l-4.4-2.6L168.5,69.8z M169,69.6
		l4.4-2.6l4.4,2.6l-4.4,2.6L169,69.6z M178.2,69.8l4.4,2.6l-4.4,2.6l-4.4-2.6L178.2,69.8z M178.6,69.6l4.4-2.6l4.4,2.6l-4.4,2.6
		L178.6,69.6z M187.8,69.8l4.4,2.6l-4.4,2.6l-4.4-2.6L187.8,69.8z M188.2,69.6l4.4-2.6l4.4,2.6l-4.4,2.6L188.2,69.6z M197.5,69.8
		l4.4,2.6l-4.4,2.6l-4.4-2.6L197.5,69.8z M197.9,69.6l4.4-2.6l4.4,2.6l-4.4,2.6L197.9,69.6z M207.1,69.8l4.4,2.6l-4.4,2.6l-4.4-2.6
		L207.1,69.8z M207.5,69.6l4.4-2.6l4.4,2.6l-4.4,2.6L207.5,69.6z M216.7,69.8l4.4,2.6l-4.4,2.6l-4.4-2.6L216.7,69.8z M216.7,69.3
		l-4.4-2.6l4.4-2.6l4.4,2.6L216.7,69.3z M216.7,63.5l-4.4-2.6l4.4-2.6l4.4,2.6L216.7,63.5z M216.7,57.7l-4.4-2.6l4.4-2.6l4.4,2.6
		L216.7,57.7z M216.6,51.9l-4.4-2.6l4.4-2.6l4.4,2.6L216.6,51.9z M216.6,46.1l-4.4-2.6l4.4-2.6l4.4,2.6L216.6,46.1z M216.6,40.3
		l-4.4-2.6l4.4-2.6l4.4,2.6L216.6,40.3z M216.5,34.5l-4.4-2.6l4.4-2.6l4.4,2.6L216.5,34.5z M211.7,31.6l-4.4-2.6l4.4-2.6l4.4,2.6
		L211.7,31.6z M211.3,31.8l-4.4,2.6l-4.4-2.6l4.4-2.6L211.3,31.8z M202.1,31.6l-4.4-2.6l4.4-2.6l4.4,2.6L202.1,31.6z M201.6,31.8
		l-4.4,2.6l-4.4-2.6l4.4-2.6L201.6,31.8z M192.4,31.6l-4.4-2.6l4.4-2.6l4.4,2.6L192.4,31.6z M192,31.8l-4.4,2.6l-4.4-2.6l4.4-2.6
		L192,31.8z M182.8,31.6l-4.4-2.6l4.4-2.6l4.4,2.6L182.8,31.6z M182.4,31.8l-4.4,2.6l-4.4-2.6l4.4-2.6L182.4,31.8z M173.1,31.6
		l-4.4-2.6l4.4-2.6l4.4,2.6L173.1,31.6z M172.7,31.8l-4.4,2.6l-4.4-2.6l4.4-2.6L172.7,31.8z M163.5,31.6l-4.4-2.6l4.4-2.6l4.4,2.6
		L163.5,31.6z M163.1,31.8l-4.4,2.6l-4.4-2.6l4.4-2.6L163.1,31.8z M153.9,31.6l-4.4-2.6l4.4-2.6l4.4,2.6L153.9,31.6z M153.4,31.8
		l-4.4,2.6l-4.4-2.6l4.4-2.6L153.4,31.8z M144.2,31.6l-4.4-2.6l4.4-2.6l4.4,2.6L144.2,31.6z M143.8,31.8l-4.4,2.6l-4.4-2.6l4.4-2.6
		L143.8,31.8z M139,34.7l-4.4,2.6l-4.4-2.6l4.4-2.6L139,34.7z M134.2,37.6l-4.4,2.6l-4.4-2.6l4.4-2.6L134.2,37.6z M129.4,40.5
		l-4.4,2.6l-4.4-2.6l4.4-2.6L129.4,40.5z M124.6,43.5l-4.4,2.6l-4.4-2.6l4.4-2.6L124.6,43.5z M119.8,46.4l-4.4,2.6l-4.4-2.6l4.4-2.6
		L119.8,46.4z M115,49.3l-4.4,2.6l-4.4-2.6l4.4-2.6L115,49.3z M110.2,52.2l-4.4,2.6l-4.4-2.6l4.4-2.6L110.2,52.2z M105.4,55.1
		l-4.4,2.6l-4.4-2.6l4.4-2.6L105.4,55.1z M100.6,58l-4.4,2.6L91.8,58l4.4-2.6L100.6,58z M95.7,60.9l-4.4,2.6L87,60.9l4.4-2.6
		L95.7,60.9z M90.9,63.8l-4.4,2.6l-4.4-2.6l4.4-2.6L90.9,63.8z M86.1,66.7l-4.4,2.6l-4.4-2.6l4.4-2.6L86.1,66.7z M81.3,69.6L77,72.2
		l-4.4-2.6l4.4-2.6L81.3,69.6z M81.8,69.8l4.4,2.6l-4.4,2.6l-4.4-2.6L81.8,69.8z M86.6,72.7l4.4,2.6L86.6,78l-4.4-2.6L86.6,72.7z
		 M91.4,75.6l4.4,2.6l-4.4,2.6l-4.4-2.6L91.4,75.6z M91.9,75.4l4.4-2.6l4.4,2.6L96.3,78L91.9,75.4z M101.1,75.6l4.4,2.6l-4.4,2.6
		l-4.4-2.6L101.1,75.6z M101.5,75.4l4.4-2.6l4.4,2.6l-4.4,2.6L101.5,75.4z M110.7,75.6l4.4,2.6l-4.4,2.6l-4.4-2.6L110.7,75.6z
		 M111.2,75.4l4.4-2.6l4.4,2.6l-4.4,2.6L111.2,75.4z M120.4,75.6l4.4,2.6l-4.4,2.6l-4.4-2.6L120.4,75.6z M120.8,75.4l4.4-2.6
		l4.4,2.6l-4.4,2.6L120.8,75.4z M130,75.6l4.4,2.6l-4.4,2.6l-4.4-2.6L130,75.6z M130.4,75.4l4.4-2.6l4.4,2.6l-4.4,2.6L130.4,75.4z
		 M139.6,75.6l4.4,2.6l-4.4,2.6l-4.4-2.6L139.6,75.6z M140.1,75.4l4.4-2.6l4.4,2.6l-4.4,2.6L140.1,75.4z M149.3,75.6l4.4,2.6
		l-4.4,2.6l-4.4-2.6L149.3,75.6z M149.7,75.4l4.4-2.6l4.4,2.6l-4.4,2.6L149.7,75.4z M158.9,75.6l4.4,2.6l-4.4,2.6l-4.4-2.6
		L158.9,75.6z M159.4,75.4l4.4-2.6l4.4,2.6l-4.4,2.6L159.4,75.4z M168.6,75.6l4.4,2.6l-4.4,2.6l-4.4-2.6L168.6,75.6z M169,75.4
		l4.4-2.6l4.4,2.6l-4.4,2.6L169,75.4z M178.2,75.6l4.4,2.6l-4.4,2.6l-4.4-2.6L178.2,75.6z M178.6,75.4l4.4-2.6l4.4,2.6L183,78
		L178.6,75.4z M187.8,75.6l4.4,2.6l-4.4,2.6l-4.4-2.6L187.8,75.6z M188.3,75.4l4.4-2.6l4.4,2.6l-4.4,2.6L188.3,75.4z M197.5,75.6
		l4.4,2.6l-4.4,2.6l-4.4-2.6L197.5,75.6z M197.9,75.4l4.4-2.6l4.4,2.6l-4.4,2.6L197.9,75.4z M207.1,75.6l4.4,2.6l-4.4,2.6l-4.4-2.6
		L207.1,75.6z M207.6,75.4l4.4-2.6l4.4,2.6L212,78L207.6,75.4z M216.8,75.6l4.4,2.6l-4.4,2.6l-4.4-2.6L216.8,75.6z M217.2,75.4
		l4.4-2.6l4.4,2.6l-4.4,2.6L217.2,75.4z M221.6,72.2l-4.4-2.6l4.4-2.6l4.4,2.6L221.6,72.2z M221.5,66.4l-4.4-2.6l4.4-2.6l4.4,2.6
		L221.5,66.4z M221.5,60.6l-4.4-2.6l4.4-2.6l4.4,2.6L221.5,60.6z M221.5,54.8l-4.4-2.6l4.4-2.6l4.4,2.6L221.5,54.8z M221.4,49
		l-4.4-2.6l4.4-2.6l4.4,2.6L221.4,49z M221.4,43.2l-4.4-2.6l4.4-2.6l4.4,2.6L221.4,43.2z M221.4,37.4l-4.4-2.6l4.4-2.6l4.4,2.6
		L221.4,37.4z M221.3,31.6l-4.4-2.6l4.4-2.6l4.4,2.6L221.3,31.6z M221.3,25.8l-4.4-2.6l4.4-2.6l4.4,2.6L221.3,25.8z M220.9,26
		l-4.4,2.6l-4.4-2.6l4.4-2.6L220.9,26z M211.7,25.8l-4.4-2.6l4.4-2.6l4.4,2.6L211.7,25.8z M211.2,26l-4.4,2.6l-4.4-2.6l4.4-2.6
		L211.2,26z M202,25.8l-4.4-2.6l4.4-2.6l4.4,2.6L202,25.8z M201.6,26l-4.4,2.6l-4.4-2.6l4.4-2.6L201.6,26z M192.4,25.8l-4.4-2.6
		l4.4-2.6l4.4,2.6L192.4,25.8z M192,26l-4.4,2.6l-4.4-2.6l4.4-2.6L192,26z M182.8,25.8l-4.4-2.6l4.4-2.6l4.4,2.6L182.8,25.8z
		 M182.3,26l-4.4,2.6l-4.4-2.6l4.4-2.6L182.3,26z M173.1,25.8l-4.4-2.6l4.4-2.6l4.4,2.6L173.1,25.8z M172.7,26l-4.4,2.6l-4.4-2.6
		l4.4-2.6L172.7,26z M163.5,25.8l-4.4-2.6l4.4-2.6l4.4,2.6L163.5,25.8z M163,26l-4.4,2.6l-4.4-2.6l4.4-2.6L163,26z M153.8,25.8
		l-4.4-2.6l4.4-2.6l4.4,2.6L153.8,25.8z M153.4,26l-4.4,2.6l-4.4-2.6l4.4-2.6L153.4,26z M144.2,25.8l-4.4-2.6l4.4-2.6l4.4,2.6
		L144.2,25.8z M143.8,26l-4.4,2.6L135,26l4.4-2.6L143.8,26z M139,28.9l-4.4,2.6l-4.4-2.6l4.4-2.6L139,28.9z M134.2,31.8l-4.4,2.6
		l-4.4-2.6l4.4-2.6L134.2,31.8z M129.3,34.7l-4.4,2.6l-4.4-2.6l4.4-2.6L129.3,34.7z M124.5,37.6l-4.4,2.6l-4.4-2.6l4.4-2.6
		L124.5,37.6z M119.7,40.5l-4.4,2.6l-4.4-2.6l4.4-2.6L119.7,40.5z M114.9,43.4l-4.4,2.6l-4.4-2.6l4.4-2.6L114.9,43.4z M110.1,46.4
		l-4.4,2.6l-4.4-2.6l4.4-2.6L110.1,46.4z M105.3,49.3l-4.4,2.6l-4.4-2.6l4.4-2.6L105.3,49.3z M100.5,52.2l-4.4,2.6l-4.4-2.6l4.4-2.6
		L100.5,52.2z M95.7,55.1l-4.4,2.6l-4.4-2.6l4.4-2.6L95.7,55.1z M90.9,58l-4.4,2.6L82.1,58l4.4-2.6L90.9,58z M86.1,60.9l-4.4,2.6
		l-4.4-2.6l4.4-2.6L86.1,60.9z M81.3,63.8l-4.4,2.6l-4.4-2.6l4.4-2.6L81.3,63.8z M76.5,66.7l-4.4,2.6l-4.4-2.6l4.4-2.6L76.5,66.7z
		 M71.7,69.6l-4.4,2.6l-4.4-2.6l4.4-2.6L71.7,69.6z M72.1,69.8l4.4,2.6l-4.4,2.6l-4.4-2.6L72.1,69.8z M77,72.7l4.4,2.6L77,78
		l-4.4-2.6L77,72.7z M81.8,75.6l4.4,2.6l-4.4,2.6l-4.4-2.6L81.8,75.6z M86.6,78.6l4.4,2.6l-4.4,2.6l-4.4-2.6L86.6,78.6z M91.5,81.5
		l4.4,2.6l-4.4,2.6l-4.4-2.6L91.5,81.5z M91.9,81.2l4.4-2.6l4.4,2.6l-4.4,2.6L91.9,81.2z M101.1,81.5l4.4,2.6l-4.4,2.6l-4.4-2.6
		L101.1,81.5z M101.5,81.2l4.4-2.6l4.4,2.6l-4.4,2.6L101.5,81.2z M110.8,81.5l4.4,2.6l-4.4,2.6l-4.4-2.6L110.8,81.5z M111.2,81.2
		l4.4-2.6l4.4,2.6l-4.4,2.6L111.2,81.2z M120.4,81.5l4.4,2.6l-4.4,2.6l-4.4-2.6L120.4,81.5z M120.8,81.2l4.4-2.6l4.4,2.6l-4.4,2.6
		L120.8,81.2z M130,81.5l4.4,2.6l-4.4,2.6l-4.4-2.6L130,81.5z M130.5,81.2l4.4-2.6l4.4,2.6l-4.4,2.6L130.5,81.2z M139.7,81.5
		l4.4,2.6l-4.4,2.6l-4.4-2.6L139.7,81.5z M140.1,81.2l4.4-2.6l4.4,2.6l-4.4,2.6L140.1,81.2z M149.3,81.5l4.4,2.6l-4.4,2.6l-4.4-2.6
		L149.3,81.5z M149.7,81.2l4.4-2.6l4.4,2.6l-4.4,2.6L149.7,81.2z M159,81.5l4.4,2.6l-4.4,2.6l-4.4-2.6L159,81.5z M159.4,81.2
		l4.4-2.6l4.4,2.6l-4.4,2.6L159.4,81.2z M168.6,81.5l4.4,2.6l-4.4,2.6l-4.4-2.6L168.6,81.5z M169,81.2l4.4-2.6l4.4,2.6l-4.4,2.6
		L169,81.2z M178.2,81.5l4.4,2.6l-4.4,2.6l-4.4-2.6L178.2,81.5z M178.7,81.2l4.4-2.6l4.4,2.6l-4.4,2.6L178.7,81.2z M187.9,81.5
		l4.4,2.6l-4.4,2.6l-4.4-2.6L187.9,81.5z M188.3,81.2l4.4-2.6l4.4,2.6l-4.4,2.6L188.3,81.2z M197.5,81.5l4.4,2.6l-4.4,2.6l-4.4-2.6
		L197.5,81.5z M197.9,81.2l4.4-2.6l4.4,2.6l-4.4,2.6L197.9,81.2z M207.2,81.5l4.4,2.6l-4.4,2.6l-4.4-2.6L207.2,81.5z M207.6,81.2
		l4.4-2.6l4.4,2.6l-4.4,2.6L207.6,81.2z M216.8,81.5l4.4,2.6l-4.4,2.6l-4.4-2.6L216.8,81.5z M217.2,81.2l4.4-2.6l4.4,2.6l-4.4,2.6
		L217.2,81.2z M226.4,81.5l4.4,2.6l-4.4,2.6l-4.4-2.6L226.4,81.5z M226.4,80.9l-4.4-2.6l4.4-2.6l4.4,2.6L226.4,80.9z M226.4,75.1
		l-4.4-2.6l4.4-2.6l4.4,2.6L226.4,75.1z M226.4,69.3l-4.4-2.6l4.4-2.6l4.4,2.6L226.4,69.3z M226.3,63.5l-4.4-2.6l4.4-2.6l4.4,2.6
		L226.3,63.5z M226.3,57.7l-4.4-2.6l4.4-2.6l4.4,2.6L226.3,57.7z M226.3,51.9l-4.4-2.6l4.4-2.6l4.4,2.6L226.3,51.9z M226.2,46.1
		l-4.4-2.6l4.4-2.6l4.4,2.6L226.2,46.1z M226.2,40.3l-4.4-2.6l4.4-2.6l4.4,2.6L226.2,40.3z M226.2,34.5l-4.4-2.6l4.4-2.6l4.4,2.6
		L226.2,34.5z M226.1,28.7l-4.4-2.6l4.4-2.6l4.4,2.6L226.1,28.7z M226.1,22.9l-4.4-2.6l4.4-2.6l4.4,2.6L226.1,22.9z M221.3,20
		l-4.4-2.6l4.4-2.6l4.4,2.6L221.3,20z M220.8,20.2l-4.4,2.6l-4.4-2.6l4.4-2.6L220.8,20.2z M211.6,20l-4.4-2.6l4.4-2.6l4.4,2.6
		L211.6,20z M211.2,20.2l-4.4,2.6l-4.4-2.6l4.4-2.6L211.2,20.2z M202,20l-4.4-2.6l4.4-2.6l4.4,2.6L202,20z M201.6,20.2l-4.4,2.6
		l-4.4-2.6l4.4-2.6L201.6,20.2z M192.4,20l-4.4-2.6l4.4-2.6l4.4,2.6L192.4,20z M191.9,20.2l-4.4,2.6l-4.4-2.6l4.4-2.6L191.9,20.2z
		 M182.7,20l-4.4-2.6l4.4-2.6l4.4,2.6L182.7,20z M182.3,20.2l-4.4,2.6l-4.4-2.6l4.4-2.6L182.3,20.2z M173.1,20l-4.4-2.6l4.4-2.6
		l4.4,2.6L173.1,20z M172.6,20.2l-4.4,2.6l-4.4-2.6l4.4-2.6L172.6,20.2z M163.4,20l-4.4-2.6l4.4-2.6l4.4,2.6L163.4,20z M163,20.2
		l-4.4,2.6l-4.4-2.6l4.4-2.6L163,20.2z M153.8,20l-4.4-2.6l4.4-2.6l4.4,2.6L153.8,20z M153.4,20.2l-4.4,2.6l-4.4-2.6l4.4-2.6
		L153.4,20.2z M144.2,20l-4.4-2.6l4.4-2.6l4.4,2.6L144.2,20z M143.7,20.2l-4.4,2.6l-4.4-2.6l4.4-2.6L143.7,20.2z M138.9,23.1
		l-4.4,2.6l-4.4-2.6l4.4-2.6L138.9,23.1z M134.1,26l-4.4,2.6l-4.4-2.6l4.4-2.6L134.1,26z M129.3,28.9l-4.4,2.6l-4.4-2.6l4.4-2.6
		L129.3,28.9z M124.5,31.8l-4.4,2.6l-4.4-2.6l4.4-2.6L124.5,31.8z M119.7,34.7l-4.4,2.6l-4.4-2.6l4.4-2.6L119.7,34.7z M114.9,37.6
		l-4.4,2.6l-4.4-2.6l4.4-2.6L114.9,37.6z M110.1,40.5l-4.4,2.6l-4.4-2.6l4.4-2.6L110.1,40.5z M105.3,43.4l-4.4,2.6l-4.4-2.6l4.4-2.6
		L105.3,43.4z M100.5,46.4L96.1,49l-4.4-2.6l4.4-2.6L100.5,46.4z M95.7,49.3l-4.4,2.6l-4.4-2.6l4.4-2.6L95.7,49.3z M90.9,52.2
		l-4.4,2.6l-4.4-2.6l4.4-2.6L90.9,52.2z M86.1,55.1l-4.4,2.6l-4.4-2.6l4.4-2.6L86.1,55.1z M81.3,58l-4.4,2.6L72.5,58l4.4-2.6
		L81.3,58z M76.5,60.9l-4.4,2.6l-4.4-2.6l4.4-2.6L76.5,60.9z M71.7,63.8l-4.4,2.6l-4.4-2.6l4.4-2.6L71.7,63.8z M66.9,66.7l-4.4,2.6
		l-4.4-2.6l4.4-2.6L66.9,66.7z M62.1,69.6l-4.4,2.6l-4.4-2.6l4.4-2.6L62.1,69.6z M62.5,69.8l4.4,2.6l-4.4,2.6l-4.4-2.6L62.5,69.8z
		 M67.3,72.7l4.4,2.6L67.4,78L63,75.4L67.3,72.7z M72.2,75.6l4.4,2.6l-4.4,2.6l-4.4-2.6L72.2,75.6z M77,78.6l4.4,2.6L77,83.8
		l-4.4-2.6L77,78.6z M81.8,81.5l4.4,2.6l-4.4,2.6l-4.4-2.6L81.8,81.5z M86.7,84.4l4.4,2.6l-4.4,2.6L82.3,87L86.7,84.4z M91.5,87.3
		l4.4,2.6l-4.4,2.6l-4.4-2.6L91.5,87.3z M91.9,87l4.4-2.6l4.4,2.6l-4.4,2.6L91.9,87z M101.1,87.3l4.4,2.6l-4.4,2.6l-4.4-2.6
		L101.1,87.3z M101.6,87l4.4-2.6l4.4,2.6l-4.4,2.6L101.6,87z M110.8,87.3l4.4,2.6l-4.4,2.6l-4.4-2.6L110.8,87.3z M111.2,87l4.4-2.6
		L120,87l-4.4,2.6L111.2,87z M120.4,87.3l4.4,2.6l-4.4,2.6l-4.4-2.6L120.4,87.3z M120.9,87l4.4-2.6l4.4,2.6l-4.4,2.6L120.9,87z
		 M130.1,87.3l4.4,2.6l-4.4,2.6l-4.4-2.6L130.1,87.3z M130.5,87l4.4-2.6l4.4,2.6l-4.4,2.6L130.5,87z M139.7,87.3l4.4,2.6l-4.4,2.6
		l-4.4-2.6L139.7,87.3z M140.1,87l4.4-2.6l4.4,2.6l-4.4,2.6L140.1,87z M149.3,87.3l4.4,2.6l-4.4,2.6l-4.4-2.6L149.3,87.3z M149.8,87
		l4.4-2.6l4.4,2.6l-4.4,2.6L149.8,87z M159,87.3l4.4,2.6l-4.4,2.6l-4.4-2.6L159,87.3z M159.4,87l4.4-2.6l4.4,2.6l-4.4,2.6L159.4,87z
		 M168.6,87.3l4.4,2.6l-4.4,2.6l-4.4-2.6L168.6,87.3z M169.1,87l4.4-2.6l4.4,2.6l-4.4,2.6L169.1,87z M178.3,87.3l4.4,2.6l-4.4,2.6
		l-4.4-2.6L178.3,87.3z M178.7,87l4.4-2.6l4.4,2.6l-4.4,2.6L178.7,87z M187.9,87.3l4.4,2.6l-4.4,2.6l-4.4-2.6L187.9,87.3z M188.3,87
		l4.4-2.6l4.4,2.6l-4.4,2.6L188.3,87z M197.5,87.3l4.4,2.6l-4.4,2.6l-4.4-2.6L197.5,87.3z M198,87l4.4-2.6l4.4,2.6l-4.4,2.6L198,87z
		 M207.2,87.3l4.4,2.6l-4.4,2.6l-4.4-2.6L207.2,87.3z M207.6,87l4.4-2.6l4.4,2.6l-4.4,2.6L207.6,87z M216.8,87.3l4.4,2.6l-4.4,2.6
		l-4.4-2.6L216.8,87.3z M217.3,87l4.4-2.6L226,87l-4.4,2.6L217.3,87z M226.5,87.3l4.4,2.6l-4.4,2.6l-4.4-2.6L226.5,87.3z M226.9,87
		l4.4-2.6l4.4,2.6l-4.4,2.6L226.9,87z M231.3,83.8l-4.4-2.6l4.4-2.6l4.4,2.6L231.3,83.8z M231.2,78l-4.4-2.6l4.4-2.6l4.4,2.6
		L231.2,78z M231.2,72.2l-4.4-2.6l4.4-2.6l4.4,2.6L231.2,72.2z M231.2,66.4l-4.4-2.6l4.4-2.6l4.4,2.6L231.2,66.4z M231.1,60.6
		l-4.4-2.6l4.4-2.6l4.4,2.6L231.1,60.6z M231.1,54.8l-4.4-2.6l4.4-2.6l4.4,2.6L231.1,54.8z M231.1,49l-4.4-2.6l4.4-2.6l4.4,2.6
		L231.1,49z M231,43.2l-4.4-2.6l4.4-2.6l4.4,2.6L231,43.2z M231,37.4l-4.4-2.6l4.4-2.6l4.4,2.6L231,37.4z M231,31.6l-4.4-2.6
		l4.4-2.6l4.4,2.6L231,31.6z M231,25.8l-4.4-2.6l4.4-2.6l4.4,2.6L231,25.8z M230.9,20l-4.4-2.6l4.4-2.6l4.4,2.6L230.9,20z
		 M230.9,14.2l-4.4-2.6l4.4-2.6l4.4,2.6L230.9,14.2z M230.5,14.4l-4.4,2.6l-4.4-2.6l4.4-2.6L230.5,14.4z M221.2,14.2l-4.4-2.6
		l4.4-2.6l4.4,2.6L221.2,14.2z M220.8,14.4l-4.4,2.6l-4.4-2.6l4.4-2.6L220.8,14.4z M211.6,14.2l-4.4-2.6l4.4-2.6l4.4,2.6L211.6,14.2
		z M211.2,14.4l-4.4,2.6l-4.4-2.6l4.4-2.6L211.2,14.4z M202,14.2l-4.4-2.6l4.4-2.6l4.4,2.6L202,14.2z M201.5,14.4l-4.4,2.6l-4.4-2.6
		l4.4-2.6L201.5,14.4z M192.3,14.2l-4.4-2.6l4.4-2.6l4.4,2.6L192.3,14.2z M191.9,14.4l-4.4,2.6l-4.4-2.6l4.4-2.6L191.9,14.4z
		 M182.7,14.2l-4.4-2.6l4.4-2.6l4.4,2.6L182.7,14.2z M182.3,14.4l-4.4,2.6l-4.4-2.6l4.4-2.6L182.3,14.4z M173,14.2l-4.4-2.6l4.4-2.6
		l4.4,2.6L173,14.2z M172.6,14.4l-4.4,2.6l-4.4-2.6l4.4-2.6L172.6,14.4z M163.4,14.2l-4.4-2.6l4.4-2.6l4.4,2.6L163.4,14.2z
		 M163,14.4l-4.4,2.6l-4.4-2.6l4.4-2.6L163,14.4z M153.8,14.2l-4.4-2.6l4.4-2.6l4.4,2.6L153.8,14.2z M153.3,14.4l-4.4,2.6l-4.4-2.6
		l4.4-2.6L153.3,14.4z M144.1,14.2l-4.4-2.6l4.4-2.6l4.4,2.6L144.1,14.2z M143.7,14.4l-4.4,2.6l-4.4-2.6l4.4-2.6L143.7,14.4z
		 M138.9,17.3l-4.4,2.6l-4.4-2.6l4.4-2.6L138.9,17.3z M134.1,20.2l-4.4,2.6l-4.4-2.6l4.4-2.6L134.1,20.2z M129.3,23.1l-4.4,2.6
		l-4.4-2.6l4.4-2.6L129.3,23.1z M124.5,26l-4.4,2.6l-4.4-2.6l4.4-2.6L124.5,26z M119.7,28.9l-4.4,2.6l-4.4-2.6l4.4-2.6L119.7,28.9z
		 M114.9,31.8l-4.4,2.6l-4.4-2.6l4.4-2.6L114.9,31.8z M110.1,34.7l-4.4,2.6l-4.4-2.6l4.4-2.6L110.1,34.7z M105.3,37.6l-4.4,2.6
		l-4.4-2.6l4.4-2.6L105.3,37.6z M100.5,40.5l-4.4,2.6l-4.4-2.6l4.4-2.6L100.5,40.5z M95.7,43.4l-4.4,2.6l-4.4-2.6l4.4-2.6L95.7,43.4
		z M90.8,46.4L86.5,49l-4.4-2.6l4.4-2.6L90.8,46.4z M86,49.3l-4.4,2.6l-4.4-2.6l4.4-2.6L86,49.3z M81.2,52.2l-4.4,2.6l-4.4-2.6
		l4.4-2.6L81.2,52.2z M76.4,55.1l-4.4,2.6l-4.4-2.6l4.4-2.6L76.4,55.1z M71.6,58l-4.4,2.6L62.9,58l4.4-2.6L71.6,58z M66.8,60.9
		l-4.4,2.6l-4.4-2.6l4.4-2.6L66.8,60.9z M62,63.8l-4.4,2.6l-4.4-2.6l4.4-2.6L62,63.8z M57.2,66.7l-4.4,2.6l-4.4-2.6l4.4-2.6
		L57.2,66.7z M52.4,69.6L48,72.2l-4.4-2.6l4.4-2.6L52.4,69.6z M52.8,69.8l4.4,2.6l-4.4,2.6l-4.4-2.6L52.8,69.8z M57.7,72.7l4.4,2.6
		L57.7,78l-4.4-2.6L57.7,72.7z M62.5,75.6l4.4,2.6l-4.4,2.6l-4.4-2.6L62.5,75.6z M67.4,78.6l4.4,2.6l-4.4,2.6L63,81.2L67.4,78.6z
		 M72.2,81.5l4.4,2.6l-4.4,2.6l-4.4-2.6L72.2,81.5z M77,84.4l4.4,2.6l-4.4,2.6L72.7,87L77,84.4z M81.9,87.3l4.4,2.6l-4.4,2.6
		l-4.4-2.6L81.9,87.3z M86.7,90.2l4.4,2.6l-4.4,2.6l-4.4-2.6L86.7,90.2z M91.5,93.1l4.4,2.6l-4.4,2.6l-4.4-2.6L91.5,93.1z M92,92.8
		l4.4-2.6l4.4,2.6l-4.4,2.6L92,92.8z M101.2,93.1l4.4,2.6l-4.4,2.6l-4.4-2.6L101.2,93.1z M101.6,92.8l4.4-2.6l4.4,2.6l-4.4,2.6
		L101.6,92.8z M110.8,93.1l4.4,2.6l-4.4,2.6l-4.4-2.6L110.8,93.1z M111.2,92.8l4.4-2.6l4.4,2.6l-4.4,2.6L111.2,92.8z M120.5,93.1
		l4.4,2.6l-4.4,2.6l-4.4-2.6L120.5,93.1z M120.9,92.8l4.4-2.6l4.4,2.6l-4.4,2.6L120.9,92.8z M130.1,93.1l4.4,2.6l-4.4,2.6l-4.4-2.6
		L130.1,93.1z M130.5,92.8l4.4-2.6l4.4,2.6l-4.4,2.6L130.5,92.8z M139.7,93.1l4.4,2.6l-4.4,2.6l-4.4-2.6L139.7,93.1z M140.2,92.8
		l4.4-2.6l4.4,2.6l-4.4,2.6L140.2,92.8z M149.4,93.1l4.4,2.6l-4.4,2.6l-4.4-2.6L149.4,93.1z M149.8,92.8l4.4-2.6l4.4,2.6l-4.4,2.6
		L149.8,92.8z M159,93.1l4.4,2.6l-4.4,2.6l-4.4-2.6L159,93.1z M159.4,92.8l4.4-2.6l4.4,2.6l-4.4,2.6L159.4,92.8z M168.7,93.1
		l4.4,2.6l-4.4,2.6l-4.4-2.6L168.7,93.1z M169.1,92.8l4.4-2.6l4.4,2.6l-4.4,2.6L169.1,92.8z M178.3,93.1l4.4,2.6l-4.4,2.6l-4.4-2.6
		L178.3,93.1z M178.7,92.8l4.4-2.6l4.4,2.6l-4.4,2.6L178.7,92.8z M187.9,93.1l4.4,2.6l-4.4,2.6l-4.4-2.6L187.9,93.1z M188.4,92.8
		l4.4-2.6l4.4,2.6l-4.4,2.6L188.4,92.8z M197.6,93.1l4.4,2.6l-4.4,2.6l-4.4-2.6L197.6,93.1z M198,92.8l4.4-2.6l4.4,2.6l-4.4,2.6
		L198,92.8z M207.2,93.1l4.4,2.6l-4.4,2.6l-4.4-2.6L207.2,93.1z M207.6,92.8l4.4-2.6l4.4,2.6l-4.4,2.6L207.6,92.8z M216.9,93.1
		l4.4,2.6l-4.4,2.6l-4.4-2.6L216.9,93.1z M217.3,92.8l4.4-2.6l4.4,2.6l-4.4,2.6L217.3,92.8z M226.5,93.1l4.4,2.6l-4.4,2.6l-4.4-2.6
		L226.5,93.1z M226.9,92.8l4.4-2.6l4.4,2.6l-4.4,2.6L226.9,92.8z M236.1,93.1l4.4,2.6l-4.4,2.6l-4.4-2.6L236.1,93.1z M236.1,92.5
		l-4.4-2.6l4.4-2.6l4.4,2.6L236.1,92.5z M236.1,86.7l-4.4-2.6l4.4-2.6l4.4,2.6L236.1,86.7z M236.1,80.9l-4.4-2.6l4.4-2.6l4.4,2.6
		L236.1,80.9z M236,75.1l-4.4-2.6l4.4-2.6l4.4,2.6L236,75.1z M236,69.3l-4.4-2.6L236,64l4.4,2.6L236,69.3z M236,63.5l-4.4-2.6
		l4.4-2.6l4.4,2.6L236,63.5z M235.9,57.7l-4.4-2.6l4.4-2.6l4.4,2.6L235.9,57.7z M235.9,51.9l-4.4-2.6l4.4-2.6l4.4,2.6L235.9,51.9z
		 M235.9,46.1l-4.4-2.6l4.4-2.6l4.4,2.6L235.9,46.1z M235.9,40.3l-4.4-2.6l4.4-2.6l4.4,2.6L235.9,40.3z M235.8,34.5l-4.4-2.6
		l4.4-2.6l4.4,2.6L235.8,34.5z M235.8,28.7l-4.4-2.6l4.4-2.6l4.4,2.6L235.8,28.7z M235.8,22.9l-4.4-2.6l4.4-2.6l4.4,2.6L235.8,22.9z
		 M235.7,17.1l-4.4-2.6l4.4-2.6l4.4,2.6L235.7,17.1z M235.7,11.2l-4.4-2.6l4.4-2.6l4.4,2.6L235.7,11.2z M230.9,8.3l-4.4-2.6l4.4-2.6
		l4.4,2.6L230.9,8.3z M230.4,8.6l-4.4,2.6l-4.4-2.6L226,6L230.4,8.6z M221.2,8.3l-4.4-2.6l4.4-2.6l4.4,2.6L221.2,8.3z M220.8,8.6
		l-4.4,2.6L212,8.6l4.4-2.6L220.8,8.6z M211.6,8.3l-4.4-2.6l4.4-2.6l4.4,2.6L211.6,8.3z M211.1,8.6l-4.4,2.6l-4.4-2.6l4.4-2.6
		L211.1,8.6z M201.9,8.3l-4.4-2.6l4.4-2.6l4.4,2.6L201.9,8.3z M201.5,8.6l-4.4,2.6l-4.4-2.6l4.4-2.6L201.5,8.6z M192.3,8.3l-4.4-2.6
		l4.4-2.6l4.4,2.6L192.3,8.3z M191.9,8.6l-4.4,2.6l-4.4-2.6l4.4-2.6L191.9,8.6z M182.7,8.3l-4.4-2.6l4.4-2.6l4.4,2.6L182.7,8.3z
		 M182.2,8.6l-4.4,2.6l-4.4-2.6l4.4-2.6L182.2,8.6z M173,8.3l-4.4-2.6l4.4-2.6l4.4,2.6L173,8.3z M172.6,8.6l-4.4,2.6l-4.4-2.6
		l4.4-2.6L172.6,8.6z M163.4,8.3L159,5.7l4.4-2.6l4.4,2.6L163.4,8.3z M162.9,8.6l-4.4,2.6l-4.4-2.6l4.4-2.6L162.9,8.6z M153.7,8.3
		l-4.4-2.6l4.4-2.6l4.4,2.6L153.7,8.3z M153.3,8.6l-4.4,2.6l-4.4-2.6l4.4-2.6L153.3,8.6z M144.1,8.3l-4.4-2.6l4.4-2.6l4.4,2.6
		L144.1,8.3z M143.7,8.6l-4.4,2.6l-4.4-2.6l4.4-2.6L143.7,8.6z M138.9,11.5l-4.4,2.6l-4.4-2.6l4.4-2.6L138.9,11.5z M134.1,14.4
		l-4.4,2.6l-4.4-2.6l4.4-2.6L134.1,14.4z M129.3,17.3l-4.4,2.6l-4.4-2.6l4.4-2.6L129.3,17.3z M124.4,20.2l-4.4,2.6l-4.4-2.6l4.4-2.6
		L124.4,20.2z M119.6,23.1l-4.4,2.6l-4.4-2.6l4.4-2.6L119.6,23.1z M114.8,26l-4.4,2.6l-4.4-2.6l4.4-2.6L114.8,26z M110,28.9
		l-4.4,2.6l-4.4-2.6l4.4-2.6L110,28.9z M105.2,31.8l-4.4,2.6l-4.4-2.6l4.4-2.6L105.2,31.8z M100.4,34.7l-4.4,2.6l-4.4-2.6l4.4-2.6
		L100.4,34.7z M95.6,37.6l-4.4,2.6l-4.4-2.6l4.4-2.6L95.6,37.6z M90.8,40.5l-4.4,2.6L82,40.5l4.4-2.6L90.8,40.5z M86,43.4l-4.4,2.6
		l-4.4-2.6l4.4-2.6L86,43.4z M81.2,46.4L76.8,49l-4.4-2.6l4.4-2.6L81.2,46.4z M76.4,49.3L72,51.9l-4.4-2.6l4.4-2.6L76.4,49.3z
		 M71.6,52.2l-4.4,2.6l-4.4-2.6l4.4-2.6L71.6,52.2z M66.8,55.1l-4.4,2.6L58,55.1l4.4-2.6L66.8,55.1z M62,58l-4.4,2.6L53.2,58
		l4.4-2.6L62,58z M57.2,60.9l-4.4,2.6l-4.4-2.6l4.4-2.6L57.2,60.9z M52.4,63.8L48,66.4l-4.4-2.6l4.4-2.6L52.4,63.8z M47.6,66.7
		l-4.4,2.6l-4.4-2.6l4.4-2.6L47.6,66.7z M42.8,69.6l-4.4,2.6L34,69.6l4.4-2.6L42.8,69.6z M43.2,69.8l4.4,2.6l-4.4,2.6l-4.4-2.6
		L43.2,69.8z M48,72.7l4.4,2.6L48.1,78l-4.4-2.6L48,72.7z M52.9,75.6l4.4,2.6l-4.4,2.6l-4.4-2.6L52.9,75.6z M57.7,78.6l4.4,2.6
		l-4.4,2.6l-4.4-2.6L57.7,78.6z M62.6,81.5l4.4,2.6l-4.4,2.6l-4.4-2.6L62.6,81.5z M67.4,84.4l4.4,2.6l-4.4,2.6L63,87L67.4,84.4z
		 M72.2,87.3l4.4,2.6l-4.4,2.6l-4.4-2.6L72.2,87.3z M77.1,90.2l4.4,2.6l-4.4,2.6l-4.4-2.6L77.1,90.2z M81.9,93.1l4.4,2.6l-4.4,2.6
		l-4.4-2.6L81.9,93.1z M86.7,96l4.4,2.6l-4.4,2.6l-4.4-2.6L86.7,96z M91.6,98.9l4.4,2.6l-4.4,2.6l-4.4-2.6L91.6,98.9z M92,98.6
		l4.4-2.6l4.4,2.6l-4.4,2.6L92,98.6z M101.2,98.9l4.4,2.6l-4.4,2.6l-4.4-2.6L101.2,98.9z M101.6,98.6L106,96l4.4,2.6l-4.4,2.6
		L101.6,98.6z M110.8,98.9l4.4,2.6l-4.4,2.6l-4.4-2.6L110.8,98.9z M111.3,98.6l4.4-2.6l4.4,2.6l-4.4,2.6L111.3,98.6z M120.5,98.9
		l4.4,2.6l-4.4,2.6l-4.4-2.6L120.5,98.9z M120.9,98.6l4.4-2.6l4.4,2.6l-4.4,2.6L120.9,98.6z M130.1,98.9l4.4,2.6l-4.4,2.6l-4.4-2.6
		L130.1,98.9z M130.6,98.6l4.4-2.6l4.4,2.6l-4.4,2.6L130.6,98.6z M139.8,98.9l4.4,2.6l-4.4,2.6l-4.4-2.6L139.8,98.9z M140.2,98.6
		l4.4-2.6l4.4,2.6l-4.4,2.6L140.2,98.6z M149.4,98.9l4.4,2.6l-4.4,2.6l-4.4-2.6L149.4,98.9z M149.8,98.6l4.4-2.6l4.4,2.6l-4.4,2.6
		L149.8,98.6z M159,98.9l4.4,2.6l-4.4,2.6l-4.4-2.6L159,98.9z M159.5,98.6l4.4-2.6l4.4,2.6l-4.4,2.6L159.5,98.6z M168.7,98.9
		l4.4,2.6l-4.4,2.6l-4.4-2.6L168.7,98.9z M169.1,98.6l4.4-2.6l4.4,2.6l-4.4,2.6L169.1,98.6z M178.3,98.9l4.4,2.6l-4.4,2.6l-4.4-2.6
		L178.3,98.9z M178.8,98.6l4.4-2.6l4.4,2.6l-4.4,2.6L178.8,98.6z M188,98.9l4.4,2.6l-4.4,2.6l-4.4-2.6L188,98.9z M188.4,98.6
		l4.4-2.6l4.4,2.6l-4.4,2.6L188.4,98.6z M197.6,98.9l4.4,2.6l-4.4,2.6l-4.4-2.6L197.6,98.9z M198,98.6l4.4-2.6l4.4,2.6l-4.4,2.6
		L198,98.6z M207.2,98.9l4.4,2.6l-4.4,2.6l-4.4-2.6L207.2,98.9z M207.7,98.6l4.4-2.6l4.4,2.6l-4.4,2.6L207.7,98.6z M216.9,98.9
		l4.4,2.6l-4.4,2.6l-4.4-2.6L216.9,98.9z M217.3,98.6l4.4-2.6l4.4,2.6l-4.4,2.6L217.3,98.6z M226.5,98.9l4.4,2.6l-4.4,2.6l-4.4-2.6
		L226.5,98.9z M227,98.6l4.4-2.6l4.4,2.6l-4.4,2.6L227,98.6z M236.2,98.9l4.4,2.6l-4.4,2.6l-4.4-2.6L236.2,98.9z M236.6,98.6L241,96
		l4.4,2.6l-4.4,2.6L236.6,98.6z M241,95.4l-4.4-2.6l4.4-2.6l4.4,2.6L241,95.4z M240.9,89.6l-4.4-2.6l4.4-2.6l4.4,2.6L240.9,89.6z
		 M240.9,83.8l-4.4-2.6l4.4-2.6l4.4,2.6L240.9,83.8z M240.9,78l-4.4-2.6l4.4-2.6l4.4,2.6L240.9,78z M240.8,72.2l-4.4-2.6l4.4-2.6
		l4.4,2.6L240.8,72.2z M240.8,66.4l-4.4-2.6l4.4-2.6l4.4,2.6L240.8,66.4z M240.8,60.6l-4.4-2.6l4.4-2.6l4.4,2.6L240.8,60.6z
		 M240.7,54.8l-4.4-2.6l4.4-2.6l4.4,2.6L240.7,54.8z M240.7,49l-4.4-2.6l4.4-2.6l4.4,2.6L240.7,49z M240.7,43.2l-4.4-2.6l4.4-2.6
		l4.4,2.6L240.7,43.2z M240.7,37.4l-4.4-2.6l4.4-2.6l4.4,2.6L240.7,37.4z M240.6,31.6l-4.4-2.6l4.4-2.6l4.4,2.6L240.6,31.6z
		 M240.6,25.8l-4.4-2.6l4.4-2.6l4.4,2.6L240.6,25.8z M240.6,20l-4.4-2.6l4.4-2.6l4.4,2.6L240.6,20z M240.5,14.2l-4.4-2.6l4.4-2.6
		l4.4,2.6L240.5,14.2z M240.5,8.3l-4.4-2.6l4.4-2.6l4.4,2.6L240.5,8.3z M240.5,2.5l-4.4-2.6l4.4-2.6l4.4,2.6L240.5,2.5z M240,2.8
		l-4.4,2.6l-4.4-2.6l4.4-2.6L240,2.8z M230.8,2.5l-4.4-2.6l4.4-2.6l4.4,2.6L230.8,2.5z M230.4,2.8L226,5.4l-4.4-2.6l4.4-2.6
		L230.4,2.8z M221.2,2.5l-4.4-2.6l4.4-2.6l4.4,2.6L221.2,2.5z M220.8,2.8l-4.4,2.6L212,2.8l4.4-2.6L220.8,2.8z M211.5,2.5l-4.4-2.6
		l4.4-2.6l4.4,2.6L211.5,2.5z M211.1,2.8l-4.4,2.6l-4.4-2.6l4.4-2.6L211.1,2.8z M201.9,2.5l-4.4-2.6l4.4-2.6l4.4,2.6L201.9,2.5z
		 M201.5,2.8l-4.4,2.6l-4.4-2.6l4.4-2.6L201.5,2.8z M192.3,2.5l-4.4-2.6l4.4-2.6l4.4,2.6L192.3,2.5z M191.8,2.8l-4.4,2.6l-4.4-2.6
		l4.4-2.6L191.8,2.8z M182.6,2.5l-4.4-2.6l4.4-2.6l4.4,2.6L182.6,2.5z M182.2,2.8l-4.4,2.6l-4.4-2.6l4.4-2.6L182.2,2.8z M173,2.5
		l-4.4-2.6l4.4-2.6l4.4,2.6L173,2.5z M172.6,2.8l-4.4,2.6l-4.4-2.6l4.4-2.6L172.6,2.8z M163.3,2.5l-4.4-2.6l4.4-2.6l4.4,2.6
		L163.3,2.5z M162.9,2.8l-4.4,2.6l-4.4-2.6l4.4-2.6L162.9,2.8z M153.7,2.5l-4.4-2.6l4.4-2.6l4.4,2.6L153.7,2.5z M153.3,2.8l-4.4,2.6
		l-4.4-2.6l4.4-2.6L153.3,2.8z M144.1,2.5l-4.4-2.6l4.4-2.6l4.4,2.6L144.1,2.5z M143.6,2.8l-4.4,2.6l-4.4-2.6l4.4-2.6L143.6,2.8z
		 M138.8,5.7l-4.4,2.6l-4.4-2.6l4.4-2.6L138.8,5.7z M134,8.6l-4.4,2.6l-4.4-2.6l4.4-2.6L134,8.6z M129.2,11.5l-4.4,2.6l-4.4-2.6
		l4.4-2.6L129.2,11.5z M124.4,14.4l-4.4,2.6l-4.4-2.6l4.4-2.6L124.4,14.4z M119.6,17.3l-4.4,2.6l-4.4-2.6l4.4-2.6L119.6,17.3z
		 M114.8,20.2l-4.4,2.6l-4.4-2.6l4.4-2.6L114.8,20.2z M110,23.1l-4.4,2.6l-4.4-2.6l4.4-2.6L110,23.1z M105.2,26l-4.4,2.6L96.4,26
		l4.4-2.6L105.2,26z M100.4,28.9L96,31.6l-4.4-2.6l4.4-2.6L100.4,28.9z M95.6,31.8l-4.4,2.6l-4.4-2.6l4.4-2.6L95.6,31.8z M90.8,34.7
		l-4.4,2.6L82,34.7l4.4-2.6L90.8,34.7z M86,37.6l-4.4,2.6l-4.4-2.6l4.4-2.6L86,37.6z M81.2,40.5l-4.4,2.6l-4.4-2.6l4.4-2.6
		L81.2,40.5z M76.4,43.4L72,46.1l-4.4-2.6l4.4-2.6L76.4,43.4z M71.6,46.4L67.2,49l-4.4-2.6l4.4-2.6L71.6,46.4z M66.8,49.3l-4.4,2.6
		L58,49.3l4.4-2.6L66.8,49.3z M62,52.2l-4.4,2.6l-4.4-2.6l4.4-2.6L62,52.2z M57.2,55.1l-4.4,2.6l-4.4-2.6l4.4-2.6L57.2,55.1z
		 M52.4,58L48,60.6L43.6,58l4.4-2.6L52.4,58z M47.5,60.9l-4.4,2.6l-4.4-2.6l4.4-2.6L47.5,60.9z M42.7,63.8l-4.4,2.6L34,63.8l4.4-2.6
		L42.7,63.8z M37.9,66.7l-4.4,2.6l-4.4-2.6l4.4-2.6L37.9,66.7z M33.1,69.6l-4.4,2.6l-4.4-2.6l4.4-2.6L33.1,69.6z M33.6,69.8l4.4,2.6
		l-4.4,2.6l-4.4-2.6L33.6,69.8z M38.4,72.7l4.4,2.6L38.4,78L34,75.4L38.4,72.7z M43.2,75.6l4.4,2.6l-4.4,2.6l-4.4-2.6L43.2,75.6z
		 M48.1,78.6l4.4,2.6l-4.4,2.6l-4.4-2.6L48.1,78.6z M52.9,81.5l4.4,2.6l-4.4,2.6l-4.4-2.6L52.9,81.5z M57.7,84.4l4.4,2.6l-4.4,2.6
		L53.4,87L57.7,84.4z M62.6,87.3l4.4,2.6l-4.4,2.6l-4.4-2.6L62.6,87.3z M67.4,90.2l4.4,2.6l-4.4,2.6L63,92.8L67.4,90.2z M72.3,93.1
		l4.4,2.6l-4.4,2.6l-4.4-2.6L72.3,93.1z M77.1,96l4.4,2.6l-4.4,2.6l-4.4-2.6L77.1,96z M81.9,98.9l4.4,2.6l-4.4,2.6l-4.4-2.6
		L81.9,98.9z M86.8,101.8l4.4,2.6l-4.4,2.6l-4.4-2.6L86.8,101.8z M91.6,104.7l4.4,2.6l-4.4,2.6l-4.4-2.6L91.6,104.7z M92,104.4
		l4.4-2.6l4.4,2.6l-4.4,2.6L92,104.4z M101.2,104.7l4.4,2.6l-4.4,2.6l-4.4-2.6L101.2,104.7z M101.7,104.4l4.4-2.6l4.4,2.6l-4.4,2.6
		L101.7,104.4z M110.9,104.7l4.4,2.6l-4.4,2.6l-4.4-2.6L110.9,104.7z M111.3,104.4l4.4-2.6l4.4,2.6l-4.4,2.6L111.3,104.4z
		 M120.5,104.7l4.4,2.6l-4.4,2.6l-4.4-2.6L120.5,104.7z M121,104.4l4.4-2.6l4.4,2.6l-4.4,2.6L121,104.4z M130.2,104.7l4.4,2.6
		l-4.4,2.6l-4.4-2.6L130.2,104.7z M130.6,104.4l4.4-2.6l4.4,2.6l-4.4,2.6L130.6,104.4z M139.8,104.7l4.4,2.6l-4.4,2.6l-4.4-2.6
		L139.8,104.7z M140.2,104.4l4.4-2.6l4.4,2.6l-4.4,2.6L140.2,104.4z M149.4,104.7l4.4,2.6l-4.4,2.6l-4.4-2.6L149.4,104.7z
		 M149.9,104.4l4.4-2.6l4.4,2.6l-4.4,2.6L149.9,104.4z M159.1,104.7l4.4,2.6l-4.4,2.6l-4.4-2.6L159.1,104.7z M159.5,104.4l4.4-2.6
		l4.4,2.6l-4.4,2.6L159.5,104.4z M168.7,104.7l4.4,2.6l-4.4,2.6l-4.4-2.6L168.7,104.7z M169.2,104.4l4.4-2.6l4.4,2.6l-4.4,2.6
		L169.2,104.4z M178.4,104.7l4.4,2.6l-4.4,2.6l-4.4-2.6L178.4,104.7z M178.8,104.4l4.4-2.6l4.4,2.6l-4.4,2.6L178.8,104.4z
		 M188,104.7l4.4,2.6L188,110l-4.4-2.6L188,104.7z M188.4,104.4l4.4-2.6l4.4,2.6l-4.4,2.6L188.4,104.4z M197.6,104.7l4.4,2.6
		l-4.4,2.6l-4.4-2.6L197.6,104.7z M198.1,104.4l4.4-2.6l4.4,2.6l-4.4,2.6L198.1,104.4z M207.3,104.7l4.4,2.6l-4.4,2.6l-4.4-2.6
		L207.3,104.7z M207.7,104.4l4.4-2.6l4.4,2.6l-4.4,2.6L207.7,104.4z M216.9,104.7l4.4,2.6l-4.4,2.6l-4.4-2.6L216.9,104.7z
		 M217.4,104.4l4.4-2.6l4.4,2.6l-4.4,2.6L217.4,104.4z M226.6,104.7l4.4,2.6l-4.4,2.6l-4.4-2.6L226.6,104.7z M227,104.4l4.4-2.6
		l4.4,2.6l-4.4,2.6L227,104.4z M236.2,104.7l4.4,2.6l-4.4,2.6l-4.4-2.6L236.2,104.7z M236.6,104.4l4.4-2.6l4.4,2.6l-4.4,2.6
		L236.6,104.4z M245.8,104.7l4.4,2.6l-4.4,2.6l-4.4-2.6L245.8,104.7z M245.8,104.2l-4.4-2.6l4.4-2.6l4.4,2.6L245.8,104.2z
		 M245.8,98.4l-4.4-2.6l4.4-2.6l4.4,2.6L245.8,98.4z M245.8,92.5l-4.4-2.6l4.4-2.6l4.4,2.6L245.8,92.5z M245.7,86.7l-4.4-2.6
		l4.4-2.6l4.4,2.6L245.7,86.7z M245.7,80.9l-4.4-2.6l4.4-2.6l4.4,2.6L245.7,80.9z M245.7,75.1l-4.4-2.6l4.4-2.6l4.4,2.6L245.7,75.1z
		 M245.6,69.3l-4.4-2.6l4.4-2.6l4.4,2.6L245.6,69.3z M245.6,63.5l-4.4-2.6l4.4-2.6l4.4,2.6L245.6,63.5z M245.6,57.7l-4.4-2.6
		l4.4-2.6l4.4,2.6L245.6,57.7z M245.6,51.9l-4.4-2.6l4.4-2.6l4.4,2.6L245.6,51.9z M245.5,46.1l-4.4-2.6l4.4-2.6l4.4,2.6L245.5,46.1z
		 M245.5,40.3l-4.4-2.6l4.4-2.6l4.4,2.6L245.5,40.3z M245.5,34.5l-4.4-2.6l4.4-2.6l4.4,2.6L245.5,34.5z M245.4,28.7L241,26l4.4-2.6
		l4.4,2.6L245.4,28.7z M245.4,22.9l-4.4-2.6l4.4-2.6l4.4,2.6L245.4,22.9z M245.4,17.1l-4.4-2.6l4.4-2.6l4.4,2.6L245.4,17.1z
		 M245.3,11.2l-4.4-2.6l4.4-2.6l4.4,2.6L245.3,11.2z M245.3,5.4l-4.4-2.6l4.4-2.6l4.4,2.6L245.3,5.4z M245.3-0.4L240.9-3l4.4-2.6
		l4.4,2.6L245.3-0.4z M240.4-3.3L236-5.9l4.4-2.6l4.4,2.6L240.4-3.3z M240-3l-4.4,2.6L231.2-3l4.4-2.6L240-3z M230.8-3.3l-4.4-2.6
		l4.4-2.6l4.4,2.6L230.8-3.3z M230.4-3L226-0.4L221.6-3l4.4-2.6L230.4-3z M221.2-3.3l-4.4-2.6l4.4-2.6l4.4,2.6L221.2-3.3z M220.7-3
		l-4.4,2.6L212-3l4.4-2.6L220.7-3z M211.5-3.3l-4.4-2.6l4.4-2.6l4.4,2.6L211.5-3.3z M211.1-3l-4.4,2.6L202.3-3l4.4-2.6L211.1-3z
		 M201.9-3.3l-4.4-2.6l4.4-2.6l4.4,2.6L201.9-3.3z M201.4-3l-4.4,2.6L192.7-3l4.4-2.6L201.4-3z M192.2-3.3l-4.4-2.6l4.4-2.6l4.4,2.6
		L192.2-3.3z M191.8-3l-4.4,2.6L183-3l4.4-2.6L191.8-3z M182.6-3.3l-4.4-2.6l4.4-2.6l4.4,2.6L182.6-3.3z M182.2-3l-4.4,2.6L173.4-3
		l4.4-2.6L182.2-3z M173-3.3l-4.4-2.6l4.4-2.6l4.4,2.6L173-3.3z M172.5-3l-4.4,2.6L163.8-3l4.4-2.6L172.5-3z M163.3-3.3l-4.4-2.6
		l4.4-2.6l4.4,2.6L163.3-3.3z M162.9-3l-4.4,2.6L154.1-3l4.4-2.6L162.9-3z M153.7-3.3l-4.4-2.6l4.4-2.6l4.4,2.6L153.7-3.3z M153.2-3
		l-4.4,2.6L144.5-3l4.4-2.6L153.2-3z M144-3.3l-4.4-2.6l4.4-2.6l4.4,2.6L144-3.3z M143.6-3l-4.4,2.6L134.8-3l4.4-2.6L143.6-3z
		 M138.8-0.1l-4.4,2.6L130-0.1l4.4-2.6L138.8-0.1z M134,2.8l-4.4,2.6l-4.4-2.6l4.4-2.6L134,2.8z M129.2,5.7l-4.4,2.6l-4.4-2.6
		l4.4-2.6L129.2,5.7z M124.4,8.6l-4.4,2.6l-4.4-2.6L120,6L124.4,8.6z M119.6,11.5l-4.4,2.6l-4.4-2.6l4.4-2.6L119.6,11.5z
		 M114.8,14.4l-4.4,2.6l-4.4-2.6l4.4-2.6L114.8,14.4z M110,17.3l-4.4,2.6l-4.4-2.6l4.4-2.6L110,17.3z M105.2,20.2l-4.4,2.6l-4.4-2.6
		l4.4-2.6L105.2,20.2z M100.4,23.1L96,25.8l-4.4-2.6l4.4-2.6L100.4,23.1z M95.6,26l-4.4,2.6L86.8,26l4.4-2.6L95.6,26z M90.8,28.9
		l-4.4,2.6L82,28.9l4.4-2.6L90.8,28.9z M85.9,31.8l-4.4,2.6l-4.4-2.6l4.4-2.6L85.9,31.8z M81.1,34.7l-4.4,2.6l-4.4-2.6l4.4-2.6
		L81.1,34.7z M76.3,37.6L72,40.3l-4.4-2.6l4.4-2.6L76.3,37.6z M71.5,40.5l-4.4,2.6l-4.4-2.6l4.4-2.6L71.5,40.5z M66.7,43.4l-4.4,2.6
		L58,43.4l4.4-2.6L66.7,43.4z M61.9,46.4L57.6,49l-4.4-2.6l4.4-2.6L61.9,46.4z M57.1,49.3l-4.4,2.6l-4.4-2.6l4.4-2.6L57.1,49.3z
		 M52.3,52.2l-4.4,2.6l-4.4-2.6l4.4-2.6L52.3,52.2z M47.5,55.1l-4.4,2.6l-4.4-2.6l4.4-2.6L47.5,55.1z M42.7,58l-4.4,2.6L33.9,58
		l4.4-2.6L42.7,58z M37.9,60.9l-4.4,2.6l-4.4-2.6l4.4-2.6L37.9,60.9z M33.1,63.8l-4.4,2.6l-4.4-2.6l4.4-2.6L33.1,63.8z M28.3,66.7
		l-4.4,2.6l-4.4-2.6l4.4-2.6L28.3,66.7z M23.9,69.8l4.4,2.6L24,75.1l-4.4-2.6L23.9,69.8z M28.8,72.7l4.4,2.6L28.8,78l-4.4-2.6
		L28.8,72.7z M33.6,75.6l4.4,2.6l-4.4,2.6l-4.4-2.6L33.6,75.6z M38.4,78.6l4.4,2.6l-4.4,2.6l-4.4-2.6L38.4,78.6z M43.3,81.5l4.4,2.6
		l-4.4,2.6l-4.4-2.6L43.3,81.5z M48.1,84.4l4.4,2.6l-4.4,2.6L43.7,87L48.1,84.4z M52.9,87.3l4.4,2.6L53,92.5l-4.4-2.6L52.9,87.3z
		 M57.8,90.2l4.4,2.6l-4.4,2.6l-4.4-2.6L57.8,90.2z M62.6,93.1l4.4,2.6l-4.4,2.6l-4.4-2.6L62.6,93.1z M67.4,96l4.4,2.6l-4.4,2.6
		l-4.4-2.6L67.4,96z M72.3,98.9l4.4,2.6l-4.4,2.6l-4.4-2.6L72.3,98.9z M77.1,101.8l4.4,2.6l-4.4,2.6l-4.4-2.6L77.1,101.8z M82,104.7
		l4.4,2.6L82,110l-4.4-2.6L82,104.7z M86.8,107.6l4.4,2.6l-4.4,2.6l-4.4-2.6L86.8,107.6z M91.6,110.5l4.4,2.6l-4.4,2.6l-4.4-2.6
		L91.6,110.5z M92.1,110.2l4.4-2.6l4.4,2.6l-4.4,2.6L92.1,110.2z M101.3,110.5l4.4,2.6l-4.4,2.6l-4.4-2.6L101.3,110.5z M101.7,110.2
		l4.4-2.6l4.4,2.6l-4.4,2.6L101.7,110.2z M110.9,110.5l4.4,2.6l-4.4,2.6l-4.4-2.6L110.9,110.5z M111.3,110.2l4.4-2.6l4.4,2.6
		l-4.4,2.6L111.3,110.2z M120.6,110.5l4.4,2.6l-4.4,2.6l-4.4-2.6L120.6,110.5z M121,110.2l4.4-2.6l4.4,2.6l-4.4,2.6L121,110.2z
		 M130.2,110.5l4.4,2.6l-4.4,2.6l-4.4-2.6L130.2,110.5z M130.6,110.2l4.4-2.6l4.4,2.6l-4.4,2.6L130.6,110.2z M139.8,110.5l4.4,2.6
		l-4.4,2.6l-4.4-2.6L139.8,110.5z M140.3,110.2l4.4-2.6l4.4,2.6l-4.4,2.6L140.3,110.2z M149.5,110.5l4.4,2.6l-4.4,2.6l-4.4-2.6
		L149.5,110.5z M149.9,110.2l4.4-2.6l4.4,2.6l-4.4,2.6L149.9,110.2z M159.1,110.5l4.4,2.6l-4.4,2.6l-4.4-2.6L159.1,110.5z
		 M159.5,110.2l4.4-2.6l4.4,2.6l-4.4,2.6L159.5,110.2z M168.8,110.5l4.4,2.6l-4.4,2.6l-4.4-2.6L168.8,110.5z M169.2,110.2l4.4-2.6
		l4.4,2.6l-4.4,2.6L169.2,110.2z M178.4,110.5l4.4,2.6l-4.4,2.6l-4.4-2.6L178.4,110.5z M178.8,110.2l4.4-2.6l4.4,2.6l-4.4,2.6
		L178.8,110.2z M188,110.5l4.4,2.6l-4.4,2.6l-4.4-2.6L188,110.5z M188.5,110.2l4.4-2.6l4.4,2.6l-4.4,2.6L188.5,110.2z M197.7,110.5
		l4.4,2.6l-4.4,2.6l-4.4-2.6L197.7,110.5z M198.1,110.2l4.4-2.6l4.4,2.6l-4.4,2.6L198.1,110.2z M207.3,110.5l4.4,2.6l-4.4,2.6
		l-4.4-2.6L207.3,110.5z M207.7,110.2l4.4-2.6l4.4,2.6l-4.4,2.6L207.7,110.2z M217,110.5l4.4,2.6l-4.4,2.6l-4.4-2.6L217,110.5z
		 M217.4,110.2l4.4-2.6l4.4,2.6l-4.4,2.6L217.4,110.2z M226.6,110.5l4.4,2.6l-4.4,2.6l-4.4-2.6L226.6,110.5z M227,110.2l4.4-2.6
		l4.4,2.6l-4.4,2.6L227,110.2z M236.2,110.5l4.4,2.6l-4.4,2.6l-4.4-2.6L236.2,110.5z M236.7,110.2l4.4-2.6l4.4,2.6l-4.4,2.6
		L236.7,110.2z M245.9,110.5l4.4,2.6l-4.4,2.6l-4.4-2.6L245.9,110.5z M246.3,110.2l4.4-2.6l4.4,2.6l-4.4,2.6L246.3,110.2z
		 M250.7,107.1l-4.4-2.6l4.4-2.6l4.4,2.6L250.7,107.1z M250.6,101.3l-4.4-2.6l4.4-2.6l4.4,2.6L250.6,101.3z M250.6,95.4l-4.4-2.6
		l4.4-2.6l4.4,2.6L250.6,95.4z M250.6,89.6l-4.4-2.6l4.4-2.6L255,87L250.6,89.6z M250.5,83.8l-4.4-2.6l4.4-2.6l4.4,2.6L250.5,83.8z
		 M250.5,78l-4.4-2.6l4.4-2.6l4.4,2.6L250.5,78z M250.5,72.2l-4.4-2.6l4.4-2.6l4.4,2.6L250.5,72.2z M250.5,66.4l-4.4-2.6l4.4-2.6
		l4.4,2.6L250.5,66.4z M250.4,60.6L246,58l4.4-2.6l4.4,2.6L250.4,60.6z M250.4,54.8l-4.4-2.6l4.4-2.6l4.4,2.6L250.4,54.8z M250.4,49
		l-4.4-2.6l4.4-2.6l4.4,2.6L250.4,49z M250.3,43.2l-4.4-2.6l4.4-2.6l4.4,2.6L250.3,43.2z M250.3,37.4l-4.4-2.6l4.4-2.6l4.4,2.6
		L250.3,37.4z M250.3,31.6l-4.4-2.6l4.4-2.6l4.4,2.6L250.3,31.6z M250.2,25.8l-4.4-2.6l4.4-2.6l4.4,2.6L250.2,25.8z M250.2,20
		l-4.4-2.6l4.4-2.6l4.4,2.6L250.2,20z M250.2,14.2l-4.4-2.6l4.4-2.6l4.4,2.6L250.2,14.2z M250.1,8.3l-4.4-2.6l4.4-2.6l4.4,2.6
		L250.1,8.3z M250.1,2.5l-4.4-2.6l4.4-2.6l4.4,2.6L250.1,2.5z M250.1-3.3l-4.4-2.6l4.4-2.6l4.4,2.6L250.1-3.3z M245.2-6.2l-4.4-2.6
		l4.4-2.6l4.4,2.6L245.2-6.2z M240.4-9.1l-4.4-2.6l4.4-2.6l4.4,2.6L240.4-9.1z M240-8.8l-4.4,2.6l-4.4-2.6l4.4-2.6L240-8.8z
		 M230.8-9.1l-4.4-2.6l4.4-2.6l4.4,2.6L230.8-9.1z M230.3-8.8L226-6.2l-4.4-2.6l4.4-2.6L230.3-8.8z M221.1-9.1l-4.4-2.6l4.4-2.6
		l4.4,2.6L221.1-9.1z M220.7-8.8l-4.4,2.6l-4.4-2.6l4.4-2.6L220.7-8.8z M211.5-9.1l-4.4-2.6l4.4-2.6l4.4,2.6L211.5-9.1z M211.1-8.8
		l-4.4,2.6l-4.4-2.6l4.4-2.6L211.1-8.8z M201.8-9.1l-4.4-2.6l4.4-2.6l4.4,2.6L201.8-9.1z M201.4-8.8L197-6.2l-4.4-2.6l4.4-2.6
		L201.4-8.8z M192.2-9.1l-4.4-2.6l4.4-2.6l4.4,2.6L192.2-9.1z M191.8-8.8l-4.4,2.6L183-8.8l4.4-2.6L191.8-8.8z M182.6-9.1l-4.4-2.6
		l4.4-2.6l4.4,2.6L182.6-9.1z M182.1-8.8l-4.4,2.6l-4.4-2.6l4.4-2.6L182.1-8.8z M172.9-9.1l-4.4-2.6l4.4-2.6l4.4,2.6L172.9-9.1z
		 M172.5-8.8l-4.4,2.6l-4.4-2.6l4.4-2.6L172.5-8.8z M163.3-9.1l-4.4-2.6l4.4-2.6l4.4,2.6L163.3-9.1z M162.9-8.8l-4.4,2.6l-4.4-2.6
		l4.4-2.6L162.9-8.8z M153.6-9.1l-4.4-2.6l4.4-2.6l4.4,2.6L153.6-9.1z M153.2-8.8l-4.4,2.6l-4.4-2.6l4.4-2.6L153.2-8.8z M144-9.1
		l-4.4-2.6l4.4-2.6l4.4,2.6L144-9.1z M143.6-8.8l-4.4,2.6l-4.4-2.6l4.4-2.6L143.6-8.8z M138.8-5.9l-4.4,2.6L130-5.9l4.4-2.6
		L138.8-5.9z M134-3l-4.4,2.6L125.2-3l4.4-2.6L134-3z M129.2-0.1l-4.4,2.6l-4.4-2.6l4.4-2.6L129.2-0.1z M124.4,2.8L120,5.4l-4.4-2.6
		l4.4-2.6L124.4,2.8z M119.6,5.7l-4.4,2.6l-4.4-2.6l4.4-2.6L119.6,5.7z M114.7,8.6l-4.4,2.6L106,8.6l4.4-2.6L114.7,8.6z M109.9,11.5
		l-4.4,2.6l-4.4-2.6l4.4-2.6L109.9,11.5z M105.1,14.4l-4.4,2.6l-4.4-2.6l4.4-2.6L105.1,14.4z M100.3,17.3L96,20l-4.4-2.6l4.4-2.6
		L100.3,17.3z M95.5,20.2l-4.4,2.6l-4.4-2.6l4.4-2.6L95.5,20.2z M90.7,23.1l-4.4,2.6l-4.4-2.6l4.4-2.6L90.7,23.1z M85.9,26l-4.4,2.6
		L77.1,26l4.4-2.6L85.9,26z M81.1,28.9l-4.4,2.6l-4.4-2.6l4.4-2.6L81.1,28.9z M76.3,31.8l-4.4,2.6l-4.4-2.6l4.4-2.6L76.3,31.8z
		 M71.5,34.7l-4.4,2.6l-4.4-2.6l4.4-2.6L71.5,34.7z M66.7,37.6l-4.4,2.6l-4.4-2.6l4.4-2.6L66.7,37.6z M61.9,40.5l-4.4,2.6l-4.4-2.6
		l4.4-2.6L61.9,40.5z M57.1,43.4l-4.4,2.6l-4.4-2.6l4.4-2.6L57.1,43.4z M52.3,46.4L47.9,49l-4.4-2.6l4.4-2.6L52.3,46.4z M47.5,49.3
		l-4.4,2.6l-4.4-2.6l4.4-2.6L47.5,49.3z M42.7,52.2l-4.4,2.6l-4.4-2.6l4.4-2.6L42.7,52.2z M37.9,55.1l-4.4,2.6l-4.4-2.6l4.4-2.6
		L37.9,55.1z M33.1,58l-4.4,2.6L24.3,58l4.4-2.6L33.1,58z M28.3,60.9l-4.4,2.6l-4.4-2.6l4.4-2.6L28.3,60.9z M23.5,63.8l-4.4,2.6
		l-4.4-2.6l4.4-2.6L23.5,63.8z M19.1,66.9l4.4,2.6l-4.4,2.6l-4.4-2.6L19.1,66.9z M19.1,72.7l4.4,2.6L19.2,78l-4.4-2.6L19.1,72.7z
		 M24,75.6l4.4,2.6L24,80.9l-4.4-2.6L24,75.6z M28.8,78.6l4.4,2.6l-4.4,2.6l-4.4-2.6L28.8,78.6z M33.6,81.5l4.4,2.6l-4.4,2.6
		l-4.4-2.6L33.6,81.5z M38.5,84.4l4.4,2.6l-4.4,2.6L34.1,87L38.5,84.4z M43.3,87.3l4.4,2.6l-4.4,2.6l-4.4-2.6L43.3,87.3z M48.1,90.2
		l4.4,2.6l-4.4,2.6l-4.4-2.6L48.1,90.2z M53,93.1l4.4,2.6L53,98.4l-4.4-2.6L53,93.1z M57.8,96l4.4,2.6l-4.4,2.6l-4.4-2.6L57.8,96z
		 M62.6,98.9l4.4,2.6l-4.4,2.6l-4.4-2.6L62.6,98.9z M67.5,101.8l4.4,2.6l-4.4,2.6l-4.4-2.6L67.5,101.8z M72.3,104.7l4.4,2.6
		l-4.4,2.6l-4.4-2.6L72.3,104.7z M77.2,107.6l4.4,2.6l-4.4,2.6l-4.4-2.6L77.2,107.6z M82,110.5l4.4,2.6l-4.4,2.6l-4.4-2.6L82,110.5z
		 M86.8,113.4l4.4,2.6l-4.4,2.6l-4.4-2.6L86.8,113.4z M91.7,116.3l4.4,2.6l-4.4,2.6l-4.4-2.6L91.7,116.3z M92.1,116l4.4-2.6l4.4,2.6
		l-4.4,2.6L92.1,116z M101.3,116.3l4.4,2.6l-4.4,2.6l-4.4-2.6L101.3,116.3z M101.7,116l4.4-2.6l4.4,2.6l-4.4,2.6L101.7,116z
		 M110.9,116.3l4.4,2.6l-4.4,2.6l-4.4-2.6L110.9,116.3z M111.4,116l4.4-2.6l4.4,2.6l-4.4,2.6L111.4,116z M120.6,116.3l4.4,2.6
		l-4.4,2.6l-4.4-2.6L120.6,116.3z M121,116l4.4-2.6l4.4,2.6l-4.4,2.6L121,116z M130.2,116.3l4.4,2.6l-4.4,2.6l-4.4-2.6L130.2,116.3z
		 M130.7,116l4.4-2.6l4.4,2.6l-4.4,2.6L130.7,116z M139.9,116.3l4.4,2.6l-4.4,2.6l-4.4-2.6L139.9,116.3z M140.3,116l4.4-2.6l4.4,2.6
		l-4.4,2.6L140.3,116z M149.5,116.3l4.4,2.6l-4.4,2.6l-4.4-2.6L149.5,116.3z M149.9,116l4.4-2.6l4.4,2.6l-4.4,2.6L149.9,116z
		 M159.1,116.3l4.4,2.6l-4.4,2.6l-4.4-2.6L159.1,116.3z M159.6,116l4.4-2.6l4.4,2.6l-4.4,2.6L159.6,116z M168.8,116.3l4.4,2.6
		l-4.4,2.6l-4.4-2.6L168.8,116.3z M169.2,116l4.4-2.6l4.4,2.6l-4.4,2.6L169.2,116z M178.4,116.3l4.4,2.6l-4.4,2.6l-4.4-2.6
		L178.4,116.3z M178.9,116l4.4-2.6l4.4,2.6l-4.4,2.6L178.9,116z M188.1,116.3l4.4,2.6l-4.4,2.6l-4.4-2.6L188.1,116.3z M188.5,116
		l4.4-2.6l4.4,2.6l-4.4,2.6L188.5,116z M197.7,116.3l4.4,2.6l-4.4,2.6l-4.4-2.6L197.7,116.3z M198.1,116l4.4-2.6l4.4,2.6l-4.4,2.6
		L198.1,116z M207.3,116.3l4.4,2.6l-4.4,2.6l-4.4-2.6L207.3,116.3z M207.8,116l4.4-2.6l4.4,2.6l-4.4,2.6L207.8,116z M217,116.3
		l4.4,2.6l-4.4,2.6l-4.4-2.6L217,116.3z M217.4,116l4.4-2.6l4.4,2.6l-4.4,2.6L217.4,116z M226.6,116.3l4.4,2.6l-4.4,2.6l-4.4-2.6
		L226.6,116.3z M227.1,116l4.4-2.6l4.4,2.6l-4.4,2.6L227.1,116z M236.3,116.3l4.4,2.6l-4.4,2.6l-4.4-2.6L236.3,116.3z M236.7,116
		l4.4-2.6l4.4,2.6l-4.4,2.6L236.7,116z M245.9,116.3l4.4,2.6l-4.4,2.6l-4.4-2.6L245.9,116.3z M246.3,116l4.4-2.6l4.4,2.6l-4.4,2.6
		L246.3,116z M255.5,116.3l4.4,2.6l-4.4,2.6l-4.4-2.6L255.5,116.3z M255.5,115.8l-4.4-2.6l4.4-2.6l4.4,2.6L255.5,115.8z M255.5,110
		l-4.4-2.6l4.4-2.6l4.4,2.6L255.5,110z M255.5,104.2l-4.4-2.6l4.4-2.6l4.4,2.6L255.5,104.2z M255.4,98.4l-4.4-2.6l4.4-2.6l4.4,2.6
		L255.4,98.4z M255.4,92.5l-4.4-2.6l4.4-2.6l4.4,2.6L255.4,92.5z M255.4,86.7l-4.4-2.6l4.4-2.6l4.4,2.6L255.4,86.7z M255.4,80.9
		l-4.4-2.6l4.4-2.6l4.4,2.6L255.4,80.9z M255.3,75.1l-4.4-2.6l4.4-2.6l4.4,2.6L255.3,75.1z M255.3,69.3l-4.4-2.6l4.4-2.6l4.4,2.6
		L255.3,69.3z M255.3,63.5l-4.4-2.6l4.4-2.6l4.4,2.6L255.3,63.5z M255.2,57.7l-4.4-2.6l4.4-2.6l4.4,2.6L255.2,57.7z M255.2,51.9
		l-4.4-2.6l4.4-2.6l4.4,2.6L255.2,51.9z M255.2,46.1l-4.4-2.6l4.4-2.6l4.4,2.6L255.2,46.1z M255.1,40.3l-4.4-2.6l4.4-2.6l4.4,2.6
		L255.1,40.3z M255.1,34.5l-4.4-2.6l4.4-2.6l4.4,2.6L255.1,34.5z M255.1,28.7l-4.4-2.6l4.4-2.6l4.4,2.6L255.1,28.7z M255,22.9
		l-4.4-2.6l4.4-2.6l4.4,2.6L255,22.9z M255,17.1l-4.4-2.6l4.4-2.6l4.4,2.6L255,17.1z M255,11.2l-4.4-2.6l4.4-2.6l4.4,2.6L255,11.2z
		 M254.9,5.4l-4.4-2.6l4.4-2.6l4.4,2.6L254.9,5.4z M254.9-0.4L250.5-3l4.4-2.6l4.4,2.6L254.9-0.4z M254.9-6.2l-4.4-2.6l4.4-2.6
		l4.4,2.6L254.9-6.2z M250-9.1l-4.4-2.6l4.4-2.6l4.4,2.6L250-9.1z M245.2-12l-4.4-2.6l4.4-2.6l4.4,2.6L245.2-12z M240.4-14.9
		l-4.4-2.6l4.4-2.6l4.4,2.6L240.4-14.9z M239.9-14.6l-4.4,2.6l-4.4-2.6l4.4-2.6L239.9-14.6z M230.7-14.9l-4.4-2.6l4.4-2.6l4.4,2.6
		L230.7-14.9z M230.3-14.6l-4.4,2.6l-4.4-2.6l4.4-2.6L230.3-14.6z M221.1-14.9l-4.4-2.6l4.4-2.6l4.4,2.6L221.1-14.9z M220.7-14.6
		l-4.4,2.6l-4.4-2.6l4.4-2.6L220.7-14.6z M211.5-14.9l-4.4-2.6l4.4-2.6l4.4,2.6L211.5-14.9z M211-14.6l-4.4,2.6l-4.4-2.6l4.4-2.6
		L211-14.6z M201.8-14.9l-4.4-2.6l4.4-2.6l4.4,2.6L201.8-14.9z M201.4-14.6L197-12l-4.4-2.6l4.4-2.6L201.4-14.6z M192.2-14.9
		l-4.4-2.6l4.4-2.6l4.4,2.6L192.2-14.9z M191.7-14.6l-4.4,2.6l-4.4-2.6l4.4-2.6L191.7-14.6z M182.5-14.9l-4.4-2.6l4.4-2.6l4.4,2.6
		L182.5-14.9z M182.1-14.6l-4.4,2.6l-4.4-2.6l4.4-2.6L182.1-14.6z M172.9-14.9l-4.4-2.6l4.4-2.6l4.4,2.6L172.9-14.9z M172.5-14.6
		l-4.4,2.6l-4.4-2.6l4.4-2.6L172.5-14.6z M163.3-14.9l-4.4-2.6l4.4-2.6l4.4,2.6L163.3-14.9z M162.8-14.6l-4.4,2.6l-4.4-2.6l4.4-2.6
		L162.8-14.6z M153.6-14.9l-4.4-2.6l4.4-2.6l4.4,2.6L153.6-14.9z M153.2-14.6l-4.4,2.6l-4.4-2.6l4.4-2.6L153.2-14.6z M144-14.9
		l-4.4-2.6l4.4-2.6l4.4,2.6L144-14.9z M143.5-14.6l-4.4,2.6l-4.4-2.6l4.4-2.6L143.5-14.6z M138.7-11.7l-4.4,2.6l-4.4-2.6l4.4-2.6
		L138.7-11.7z M133.9-8.8l-4.4,2.6l-4.4-2.6l4.4-2.6L133.9-8.8z M129.1-5.9l-4.4,2.6l-4.4-2.6l4.4-2.6L129.1-5.9z M124.3-3L120-0.4
		L115.6-3l4.4-2.6L124.3-3z M119.5-0.1l-4.4,2.6l-4.4-2.6l4.4-2.6L119.5-0.1z M114.7,2.8l-4.4,2.6l-4.4-2.6l4.4-2.6L114.7,2.8z
		 M109.9,5.7l-4.4,2.6l-4.4-2.6l4.4-2.6L109.9,5.7z M105.1,8.6l-4.4,2.6l-4.4-2.6l4.4-2.6L105.1,8.6z M100.3,11.5l-4.4,2.6l-4.4-2.6
		l4.4-2.6L100.3,11.5z M95.5,14.4l-4.4,2.6l-4.4-2.6l4.4-2.6L95.5,14.4z M90.7,17.3L86.3,20l-4.4-2.6l4.4-2.6L90.7,17.3z M85.9,20.2
		l-4.4,2.6l-4.4-2.6l4.4-2.6L85.9,20.2z M81.1,23.1l-4.4,2.6l-4.4-2.6l4.4-2.6L81.1,23.1z M76.3,26l-4.4,2.6L67.5,26l4.4-2.6
		L76.3,26z M71.5,28.9l-4.4,2.6l-4.4-2.6l4.4-2.6L71.5,28.9z M66.7,31.8l-4.4,2.6l-4.4-2.6l4.4-2.6L66.7,31.8z M61.9,34.7l-4.4,2.6
		l-4.4-2.6l4.4-2.6L61.9,34.7z M57.1,37.6l-4.4,2.6l-4.4-2.6l4.4-2.6L57.1,37.6z M52.3,40.5l-4.4,2.6l-4.4-2.6l4.4-2.6L52.3,40.5z
		 M47.5,43.4l-4.4,2.6l-4.4-2.6l4.4-2.6L47.5,43.4z M42.6,46.4L38.3,49l-4.4-2.6l4.4-2.6L42.6,46.4z M37.8,49.3l-4.4,2.6l-4.4-2.6
		l4.4-2.6L37.8,49.3z M33,52.2l-4.4,2.6l-4.4-2.6l4.4-2.6L33,52.2z M28.2,55.1l-4.4,2.6l-4.4-2.6l4.4-2.6L28.2,55.1z M23.4,58
		l-4.4,2.6L14.7,58l4.4-2.6L23.4,58z M18.6,60.9l-4.4,2.6l-4.4-2.6l4.4-2.6L18.6,60.9z M14.3,64l4.4,2.6l-4.4,2.6l-4.4-2.6L14.3,64z
		 M14.3,69.8l4.4,2.6l-4.4,2.6l-4.4-2.6L14.3,69.8z M14.3,75.6l4.4,2.6l-4.4,2.6l-4.4-2.6L14.3,75.6z M19.2,78.6l4.4,2.6l-4.4,2.6
		l-4.4-2.6L19.2,78.6z M24,81.5l4.4,2.6L24,86.7l-4.4-2.6L24,81.5z M28.8,84.4l4.4,2.6l-4.4,2.6L24.5,87L28.8,84.4z M33.7,87.3
		l4.4,2.6l-4.4,2.6l-4.4-2.6L33.7,87.3z M38.5,90.2l4.4,2.6l-4.4,2.6l-4.4-2.6L38.5,90.2z M43.3,93.1l4.4,2.6l-4.4,2.6L39,95.7
		L43.3,93.1z M48.2,96l4.4,2.6l-4.4,2.6l-4.4-2.6L48.2,96z M53,98.9l4.4,2.6l-4.4,2.6l-4.4-2.6L53,98.9z M57.8,101.8l4.4,2.6
		l-4.4,2.6l-4.4-2.6L57.8,101.8z M62.7,104.7l4.4,2.6l-4.4,2.6l-4.4-2.6L62.7,104.7z M67.5,107.6l4.4,2.6l-4.4,2.6l-4.4-2.6
		L67.5,107.6z M72.3,110.5l4.4,2.6l-4.4,2.6l-4.4-2.6L72.3,110.5z M77.2,113.4l4.4,2.6l-4.4,2.6l-4.4-2.6L77.2,113.4z M82,116.3
		l4.4,2.6l-4.4,2.6l-4.4-2.6L82,116.3z M86.9,119.2l4.4,2.6l-4.4,2.6l-4.4-2.6L86.9,119.2z M91.7,122.1l4.4,2.6l-4.4,2.6l-4.4-2.6
		L91.7,122.1z M92.1,121.8l4.4-2.6l4.4,2.6l-4.4,2.6L92.1,121.8z M101.3,122.1l4.4,2.6l-4.4,2.6l-4.4-2.6L101.3,122.1z M101.8,121.8
		l4.4-2.6l4.4,2.6l-4.4,2.6L101.8,121.8z M111,122.1l4.4,2.6l-4.4,2.6l-4.4-2.6L111,122.1z M111.4,121.8l4.4-2.6l4.4,2.6l-4.4,2.6
		L111.4,121.8z M120.6,122.1l4.4,2.6l-4.4,2.6l-4.4-2.6L120.6,122.1z M121,121.8l4.4-2.6l4.4,2.6l-4.4,2.6L121,121.8z M130.3,122.1
		l4.4,2.6l-4.4,2.6l-4.4-2.6L130.3,122.1z M130.7,121.8l4.4-2.6l4.4,2.6l-4.4,2.6L130.7,121.8z M139.9,122.1l4.4,2.6l-4.4,2.6
		l-4.4-2.6L139.9,122.1z M140.3,121.8l4.4-2.6l4.4,2.6l-4.4,2.6L140.3,121.8z M149.5,122.1l4.4,2.6l-4.4,2.6l-4.4-2.6L149.5,122.1z
		 M150,121.8l4.4-2.6l4.4,2.6l-4.4,2.6L150,121.8z M159.2,122.1l4.4,2.6l-4.4,2.6l-4.4-2.6L159.2,122.1z M159.6,121.8l4.4-2.6
		l4.4,2.6l-4.4,2.6L159.6,121.8z M168.8,122.1l4.4,2.6l-4.4,2.6l-4.4-2.6L168.8,122.1z M169.2,121.8l4.4-2.6l4.4,2.6l-4.4,2.6
		L169.2,121.8z M178.5,122.1l4.4,2.6l-4.4,2.6l-4.4-2.6L178.5,122.1z M178.9,121.8l4.4-2.6l4.4,2.6l-4.4,2.6L178.9,121.8z
		 M188.1,122.1l4.4,2.6l-4.4,2.6l-4.4-2.6L188.1,122.1z M188.5,121.8l4.4-2.6l4.4,2.6l-4.4,2.6L188.5,121.8z M197.7,122.1l4.4,2.6
		l-4.4,2.6l-4.4-2.6L197.7,122.1z M198.2,121.8l4.4-2.6l4.4,2.6l-4.4,2.6L198.2,121.8z M207.4,122.1l4.4,2.6l-4.4,2.6l-4.4-2.6
		L207.4,122.1z M207.8,121.8l4.4-2.6l4.4,2.6l-4.4,2.6L207.8,121.8z M217,122.1l4.4,2.6l-4.4,2.6l-4.4-2.6L217,122.1z M217.4,121.8
		l4.4-2.6l4.4,2.6l-4.4,2.6L217.4,121.8z M226.7,122.1l4.4,2.6l-4.4,2.6l-4.4-2.6L226.7,122.1z M227.1,121.8l4.4-2.6l4.4,2.6
		l-4.4,2.6L227.1,121.8z M236.3,122.1l4.4,2.6l-4.4,2.6l-4.4-2.6L236.3,122.1z M236.7,121.8l4.4-2.6l4.4,2.6l-4.4,2.6L236.7,121.8z
		 M245.9,122.1l4.4,2.6l-4.4,2.6l-4.4-2.6L245.9,122.1z M246.4,121.8l4.4-2.6l4.4,2.6l-4.4,2.6L246.4,121.8z M255.6,122.1l4.4,2.6
		l-4.4,2.6l-4.4-2.6L255.6,122.1z M256,121.8l4.4-2.6l4.4,2.6l-4.4,2.6L256,121.8z M260.4,118.7L256,116l4.4-2.6l4.4,2.6
		L260.4,118.7z M260.3,112.9l-4.4-2.6l4.4-2.6l4.4,2.6L260.3,112.9z M260.3,107.1l-4.4-2.6l4.4-2.6l4.4,2.6L260.3,107.1z
		 M260.3,101.3l-4.4-2.6l4.4-2.6l4.4,2.6L260.3,101.3z M260.3,95.4l-4.4-2.6l4.4-2.6l4.4,2.6L260.3,95.4z M260.2,89.6l-4.4-2.6
		l4.4-2.6l4.4,2.6L260.2,89.6z M260.2,83.8l-4.4-2.6l4.4-2.6l4.4,2.6L260.2,83.8z M260.2,78l-4.4-2.6l4.4-2.6l4.4,2.6L260.2,78z
		 M260.1,72.2l-4.4-2.6l4.4-2.6l4.4,2.6L260.1,72.2z M260.1,66.4l-4.4-2.6l4.4-2.6l4.4,2.6L260.1,66.4z M260.1,60.6l-4.4-2.6
		l4.4-2.6l4.4,2.6L260.1,60.6z M260,54.8l-4.4-2.6l4.4-2.6l4.4,2.6L260,54.8z M260,49l-4.4-2.6l4.4-2.6l4.4,2.6L260,49z M260,43.2
		l-4.4-2.6l4.4-2.6l4.4,2.6L260,43.2z M259.9,37.4l-4.4-2.6l4.4-2.6l4.4,2.6L259.9,37.4z M259.9,31.6l-4.4-2.6l4.4-2.6l4.4,2.6
		L259.9,31.6z M259.9,25.8l-4.4-2.6l4.4-2.6l4.4,2.6L259.9,25.8z M259.8,20l-4.4-2.6l4.4-2.6l4.4,2.6L259.8,20z M259.8,14.2
		l-4.4-2.6l4.4-2.6l4.4,2.6L259.8,14.2z M259.8,8.3l-4.4-2.6l4.4-2.6l4.4,2.6L259.8,8.3z M259.7,2.5l-4.4-2.6l4.4-2.6l4.4,2.6
		L259.7,2.5z M259.7-3.3l-4.4-2.6l4.4-2.6l4.4,2.6L259.7-3.3z M259.7-9.1l-4.4-2.6l4.4-2.6l4.4,2.6L259.7-9.1z M254.9-12l-4.4-2.6
		l4.4-2.6l4.4,2.6L254.9-12z M250-14.9l-4.4-2.6l4.4-2.6l4.4,2.6L250-14.9z M245.2-17.8l-4.4-2.6l4.4-2.6l4.4,2.6L245.2-17.8z
		 M240.3-20.7l-4.4-2.6l4.4-2.6l4.4,2.6L240.3-20.7z M239.9-20.4l-4.4,2.6l-4.4-2.6l4.4-2.6L239.9-20.4z M230.7-20.7l-4.4-2.6
		l4.4-2.6l4.4,2.6L230.7-20.7z M230.3-20.4l-4.4,2.6l-4.4-2.6l4.4-2.6L230.3-20.4z M221.1-20.7l-4.4-2.6L221-26l4.4,2.6L221.1-20.7z
		 M220.6-20.4l-4.4,2.6l-4.4-2.6l4.4-2.6L220.6-20.4z M211.4-20.7l-4.4-2.6l4.4-2.6l4.4,2.6L211.4-20.7z M211-20.4l-4.4,2.6
		l-4.4-2.6l4.4-2.6L211-20.4z M201.8-20.7l-4.4-2.6l4.4-2.6l4.4,2.6L201.8-20.7z M201.3-20.4l-4.4,2.6l-4.4-2.6l4.4-2.6L201.3-20.4z
		 M192.1-20.7l-4.4-2.6l4.4-2.6l4.4,2.6L192.1-20.7z M191.7-20.4l-4.4,2.6l-4.4-2.6l4.4-2.6L191.7-20.4z M182.5-20.7l-4.4-2.6
		l4.4-2.6l4.4,2.6L182.5-20.7z M182.1-20.4l-4.4,2.6l-4.4-2.6l4.4-2.6L182.1-20.4z M172.9-20.7l-4.4-2.6l4.4-2.6l4.4,2.6L172.9-20.7
		z M172.4-20.4l-4.4,2.6l-4.4-2.6l4.4-2.6L172.4-20.4z M163.2-20.7l-4.4-2.6l4.4-2.6l4.4,2.6L163.2-20.7z M162.8-20.4l-4.4,2.6
		l-4.4-2.6l4.4-2.6L162.8-20.4z M153.6-20.7l-4.4-2.6l4.4-2.6l4.4,2.6L153.6-20.7z M153.1-20.4l-4.4,2.6l-4.4-2.6l4.4-2.6
		L153.1-20.4z M143.9-20.7l-4.4-2.6l4.4-2.6l4.4,2.6L143.9-20.7z M143.5-20.4l-4.4,2.6l-4.4-2.6l4.4-2.6L143.5-20.4z M138.7-17.5
		l-4.4,2.6l-4.4-2.6l4.4-2.6L138.7-17.5z M133.9-14.6l-4.4,2.6l-4.4-2.6l4.4-2.6L133.9-14.6z M129.1-11.7l-4.4,2.6l-4.4-2.6l4.4-2.6
		L129.1-11.7z M124.3-8.8l-4.4,2.6l-4.4-2.6l4.4-2.6L124.3-8.8z M119.5-5.9l-4.4,2.6l-4.4-2.6l4.4-2.6L119.5-5.9z M114.7-3l-4.4,2.6
		L105.9-3l4.4-2.6L114.7-3z M109.9-0.1l-4.4,2.6l-4.4-2.6l4.4-2.6L109.9-0.1z M105.1,2.8l-4.4,2.6l-4.4-2.6l4.4-2.6L105.1,2.8z
		 M100.3,5.7l-4.4,2.6l-4.4-2.6l4.4-2.6L100.3,5.7z M95.5,8.6l-4.4,2.6l-4.4-2.6L91.1,6L95.5,8.6z M90.7,11.5l-4.4,2.6l-4.4-2.6
		l4.4-2.6L90.7,11.5z M85.9,14.4l-4.4,2.6l-4.4-2.6l4.4-2.6L85.9,14.4z M81.1,17.3L76.7,20l-4.4-2.6l4.4-2.6L81.1,17.3z M76.2,20.2
		l-4.4,2.6l-4.4-2.6l4.4-2.6L76.2,20.2z M71.4,23.1l-4.4,2.6l-4.4-2.6l4.4-2.6L71.4,23.1z M66.6,26l-4.4,2.6L57.9,26l4.4-2.6
		L66.6,26z M61.8,28.9l-4.4,2.6l-4.4-2.6l4.4-2.6L61.8,28.9z M57,31.8l-4.4,2.6l-4.4-2.6l4.4-2.6L57,31.8z M52.2,34.7l-4.4,2.6
		l-4.4-2.6l4.4-2.6L52.2,34.7z M47.4,37.6L43,40.3l-4.4-2.6L43,35L47.4,37.6z M42.6,40.5l-4.4,2.6l-4.4-2.6l4.4-2.6L42.6,40.5z
		 M37.8,43.5l-4.4,2.6L29,43.4l4.4-2.6L37.8,43.5z M33,46.4L28.6,49l-4.4-2.6l4.4-2.6L33,46.4z M28.2,49.3l-4.4,2.6l-4.4-2.6
		l4.4-2.6L28.2,49.3z M23.4,52.2L19,54.8l-4.4-2.6l4.4-2.6L23.4,52.2z M18.6,55.1l-4.4,2.6l-4.4-2.6l4.4-2.6L18.6,55.1z M13.8,58
		l-4.4,2.6L5,58l4.4-2.6L13.8,58z M9.4,61.1l4.4,2.6l-4.4,2.6l-4.4-2.6L9.4,61.1z M9.5,66.9l4.4,2.6l-4.4,2.6l-4.4-2.6L9.5,66.9z
		 M9.5,72.7l4.4,2.6L9.5,78l-4.4-2.6L9.5,72.7z M9.5,78.6l4.4,2.6l-4.4,2.6l-4.4-2.6L9.5,78.6z M14.4,81.5l4.4,2.6l-4.4,2.6L10,84.1
		L14.4,81.5z M19.2,84.4l4.4,2.6l-4.4,2.6L14.8,87L19.2,84.4z M24,87.3l4.4,2.6l-4.4,2.6l-4.4-2.6L24,87.3z M28.9,90.2l4.4,2.6
		l-4.4,2.6l-4.4-2.6L28.9,90.2z M33.7,93.1l4.4,2.6l-4.4,2.6l-4.4-2.6L33.7,93.1z M38.5,96l4.4,2.6l-4.4,2.6l-4.4-2.6L38.5,96z
		 M43.4,98.9l4.4,2.6l-4.4,2.6l-4.4-2.6L43.4,98.9z M48.2,101.8l4.4,2.6l-4.4,2.6l-4.4-2.6L48.2,101.8z M53,104.7l4.4,2.6l-4.4,2.6
		l-4.4-2.6L53,104.7z M57.9,107.6l4.4,2.6l-4.4,2.6l-4.4-2.6L57.9,107.6z M62.7,110.5l4.4,2.6l-4.4,2.6l-4.4-2.6L62.7,110.5z
		 M67.5,113.4l4.4,2.6l-4.4,2.6l-4.4-2.6L67.5,113.4z M72.4,116.3l4.4,2.6l-4.4,2.6l-4.4-2.6L72.4,116.3z M77.2,119.2l4.4,2.6
		l-4.4,2.6l-4.4-2.6L77.2,119.2z M82.1,122.1l4.4,2.6l-4.4,2.6l-4.4-2.6L82.1,122.1z M86.9,125l4.4,2.6l-4.4,2.6l-4.4-2.6L86.9,125z
		 M91.7,127.9l4.4,2.6l-4.4,2.6l-4.4-2.6L91.7,127.9z M92.2,127.6l4.4-2.6l4.4,2.6l-4.4,2.6L92.2,127.6z M101.4,127.9l4.4,2.6
		l-4.4,2.6l-4.4-2.6L101.4,127.9z M101.8,127.6l4.4-2.6l4.4,2.6l-4.4,2.6L101.8,127.6z M111,127.9l4.4,2.6l-4.4,2.6l-4.4-2.6
		L111,127.9z M111.4,127.6l4.4-2.6l4.4,2.6l-4.4,2.6L111.4,127.6z M120.6,127.9l4.4,2.6l-4.4,2.6l-4.4-2.6L120.6,127.9z
		 M121.1,127.6l4.4-2.6l4.4,2.6l-4.4,2.6L121.1,127.6z M130.3,127.9l4.4,2.6l-4.4,2.6l-4.4-2.6L130.3,127.9z M130.7,127.6l4.4-2.6
		l4.4,2.6l-4.4,2.6L130.7,127.6z M139.9,127.9l4.4,2.6l-4.4,2.6l-4.4-2.6L139.9,127.9z M140.4,127.6l4.4-2.6l4.4,2.6l-4.4,2.6
		L140.4,127.6z M149.6,127.9l4.4,2.6l-4.4,2.6l-4.4-2.6L149.6,127.9z M150,127.6l4.4-2.6l4.4,2.6l-4.4,2.6L150,127.6z M159.2,127.9
		l4.4,2.6l-4.4,2.6l-4.4-2.6L159.2,127.9z M159.6,127.6l4.4-2.6l4.4,2.6l-4.4,2.6L159.6,127.6z M168.8,127.9l4.4,2.6l-4.4,2.6
		l-4.4-2.6L168.8,127.9z M169.3,127.6l4.4-2.6l4.4,2.6l-4.4,2.6L169.3,127.6z M178.5,127.9l4.4,2.6l-4.4,2.6l-4.4-2.6L178.5,127.9z
		 M178.9,127.6l4.4-2.6l4.4,2.6l-4.4,2.6L178.9,127.6z M188.1,127.9l4.4,2.6l-4.4,2.6l-4.4-2.6L188.1,127.9z M188.6,127.6l4.4-2.6
		l4.4,2.6l-4.4,2.6L188.6,127.6z M197.8,127.9l4.4,2.6l-4.4,2.6l-4.4-2.6L197.8,127.9z M198.2,127.6l4.4-2.6l4.4,2.6l-4.4,2.6
		L198.2,127.6z M207.4,127.9l4.4,2.6l-4.4,2.6l-4.4-2.6L207.4,127.9z M207.8,127.6l4.4-2.6l4.4,2.6l-4.4,2.6L207.8,127.6z
		 M217,127.9l4.4,2.6l-4.4,2.6l-4.4-2.6L217,127.9z M217.5,127.6l4.4-2.6l4.4,2.6l-4.4,2.6L217.5,127.6z M226.7,127.9l4.4,2.6
		l-4.4,2.6l-4.4-2.6L226.7,127.9z M227.1,127.6l4.4-2.6l4.4,2.6l-4.4,2.6L227.1,127.6z M236.3,127.9l4.4,2.6l-4.4,2.6l-4.4-2.6
		L236.3,127.9z M236.8,127.6l4.4-2.6l4.4,2.6l-4.4,2.6L236.8,127.6z M246,127.9l4.4,2.6l-4.4,2.6l-4.4-2.6L246,127.9z M246.4,127.6
		l4.4-2.6l4.4,2.6l-4.4,2.6L246.4,127.6z M255.6,127.9l4.4,2.6l-4.4,2.6l-4.4-2.6L255.6,127.9z M256,127.6l4.4-2.6l4.4,2.6l-4.4,2.6
		L256,127.6z M265.2,127.9l4.4,2.6l-4.4,2.6l-4.4-2.6L265.2,127.9z M265.2,127.4l-4.4-2.6l4.4-2.6l4.4,2.6L265.2,127.4z
		 M265.2,121.6l-4.4-2.6l4.4-2.6l4.4,2.6L265.2,121.6z M265.2,115.8l-4.4-2.6l4.4-2.6l4.4,2.6L265.2,115.8z M265.1,110l-4.4-2.6
		l4.4-2.6l4.4,2.6L265.1,110z M265.1,104.2l-4.4-2.6l4.4-2.6l4.4,2.6L265.1,104.2z M265.1,98.4l-4.4-2.6l4.4-2.6l4.4,2.6L265.1,98.4
		z M265.1,92.5l-4.4-2.6l4.4-2.6l4.4,2.6L265.1,92.5z M265,86.7l-4.4-2.6l4.4-2.6l4.4,2.6L265,86.7z M265,80.9l-4.4-2.6l4.4-2.6
		l4.4,2.6L265,80.9z M265,75.1l-4.4-2.6l4.4-2.6l4.4,2.6L265,75.1z M264.9,69.3l-4.4-2.6l4.4-2.6l4.4,2.6L264.9,69.3z M264.9,63.5
		l-4.4-2.6l4.4-2.6l4.4,2.6L264.9,63.5z M264.9,57.7l-4.4-2.6l4.4-2.6l4.4,2.6L264.9,57.7z M264.8,51.9l-4.4-2.6l4.4-2.6l4.4,2.6
		L264.8,51.9z M264.8,46.1l-4.4-2.6l4.4-2.6l4.4,2.6L264.8,46.1z M264.8,40.3l-4.4-2.6l4.4-2.6l4.4,2.6L264.8,40.3z M264.7,34.5
		l-4.4-2.6l4.4-2.6l4.4,2.6L264.7,34.5z M264.7,28.7l-4.4-2.6l4.4-2.6l4.4,2.6L264.7,28.7z M264.7,22.9l-4.4-2.6l4.4-2.6l4.4,2.6
		L264.7,22.9z M264.6,17.1l-4.4-2.6l4.4-2.6l4.4,2.6L264.6,17.1z M264.6,11.2l-4.4-2.6l4.4-2.6l4.4,2.6L264.6,11.2z M264.6,5.4
		l-4.4-2.6l4.4-2.6l4.4,2.6L264.6,5.4z M264.6-0.4L260.2-3l4.4-2.6l4.4,2.6L264.6-0.4z M264.5-6.2l-4.4-2.6l4.4-2.6l4.4,2.6
		L264.5-6.2z M264-17.5l-4.4,2.6l-4.4-2.6l4.4-2.6L264-17.5z M259.2-20.4l-4.4,2.6l-4.4-2.6l4.4-2.6L259.2-20.4z M254.4-23.3
		l-4.4,2.6l-4.4-2.6L250-26L254.4-23.3z M249.5-26.2l-4.4,2.6l-4.4-2.6l4.4-2.6L249.5-26.2z M240.3-31.8l4.4,2.6l-4.4,2.6l-4.4-2.6
		L240.3-31.8z M235.5-28.9l4.4,2.6l-4.4,2.6l-4.4-2.6L235.5-28.9z M230.6-31.8l4.4,2.6l-4.4,2.6l-4.4-2.6L230.6-31.8z M225.8-28.9
		l4.4,2.6l-4.4,2.6l-4.4-2.6L225.8-28.9z M221-31.8l4.4,2.6l-4.4,2.6l-4.4-2.6L221-31.8z M216.2-28.9l4.4,2.6l-4.4,2.6l-4.4-2.6
		L216.2-28.9z M211.4-31.8l4.4,2.6l-4.4,2.6l-4.4-2.6L211.4-31.8z M206.6-28.9l4.4,2.6l-4.4,2.6l-4.4-2.6L206.6-28.9z M201.7-31.8
		l4.4,2.6l-4.4,2.6l-4.4-2.6L201.7-31.8z M196.9-28.9l4.4,2.6l-4.4,2.6l-4.4-2.6L196.9-28.9z M192.1-31.8l4.4,2.6l-4.4,2.6l-4.4-2.6
		L192.1-31.8z M187.3-28.9l4.4,2.6l-4.4,2.6l-4.4-2.6L187.3-28.9z M182.4-31.8l4.4,2.6l-4.4,2.6l-4.4-2.6L182.4-31.8z M177.6-28.9
		l4.4,2.6l-4.4,2.6l-4.4-2.6L177.6-28.9z M172.8-31.8l4.4,2.6l-4.4,2.6l-4.4-2.6L172.8-31.8z M168-28.9l4.4,2.6l-4.4,2.6l-4.4-2.6
		L168-28.9z M163.2-31.8l4.4,2.6l-4.4,2.6l-4.4-2.6L163.2-31.8z M158.4-28.9l4.4,2.6l-4.4,2.6l-4.4-2.6L158.4-28.9z M153.5-31.8
		l4.4,2.6l-4.4,2.6l-4.4-2.6L153.5-31.8z M148.7-28.9l4.4,2.6l-4.4,2.6l-4.4-2.6L148.7-28.9z M143.9-31.8l4.4,2.6l-4.4,2.6l-4.4-2.6
		L143.9-31.8z M139.1-28.9l4.4,2.6l-4.4,2.6l-4.4-2.6L139.1-28.9z M134.3-26l4.4,2.6l-4.4,2.6l-4.4-2.6L134.3-26z M129.5-23.1
		l4.4,2.6l-4.4,2.6l-4.4-2.6L129.5-23.1z M124.7-20.2l4.4,2.6l-4.4,2.6l-4.4-2.6L124.7-20.2z M119.9-17.3l4.4,2.6l-4.4,2.6l-4.4-2.6
		L119.9-17.3z M115.1-14.4l4.4,2.6l-4.4,2.6l-4.4-2.6L115.1-14.4z M110.3-11.5l4.4,2.6l-4.4,2.6l-4.4-2.6L110.3-11.5z M105.4-8.6
		l4.4,2.6l-4.4,2.6l-4.4-2.6L105.4-8.6z M100.6-5.6L105-3l-4.4,2.6L96.3-3L100.6-5.6z M95.8-2.7l4.4,2.6l-4.4,2.6l-4.4-2.6L95.8-2.7
		z M91,0.2l4.4,2.6l-4.4,2.6l-4.4-2.6L91,0.2z M86.2,3.1l4.4,2.6l-4.4,2.6l-4.4-2.6L86.2,3.1z M81.4,6l4.4,2.6l-4.4,2.6l-4.4-2.6
		L81.4,6z M76.6,8.9l4.4,2.6l-4.4,2.6l-4.4-2.6L76.6,8.9z M71.8,11.8l4.4,2.6l-4.4,2.6l-4.4-2.6L71.8,11.8z M67,14.7l4.4,2.6L67,20
		l-4.4-2.6L67,14.7z M62.2,17.6l4.4,2.6l-4.4,2.6l-4.4-2.6L62.2,17.6z M57.4,20.5l4.4,2.6l-4.4,2.6L53,23.1L57.4,20.5z M52.6,23.4
		L57,26l-4.4,2.6L48.2,26L52.6,23.4z M47.8,26.3l4.4,2.6l-4.4,2.6l-4.4-2.6L47.8,26.3z M43,29.2l4.4,2.6L43,34.5l-4.4-2.6L43,29.2z
		 M38.2,32.1l4.4,2.6l-4.4,2.6l-4.4-2.6L38.2,32.1z M33.4,35l4.4,2.6l-4.4,2.6L29,37.6L33.4,35z M28.6,37.9l4.4,2.6l-4.4,2.6
		l-4.4-2.6L28.6,37.9z M23.8,40.8l4.4,2.6l-4.4,2.6l-4.4-2.6L23.8,40.8z M19,43.7l4.4,2.6L19,49l-4.4-2.6L19,43.7z M14.2,46.6
		l4.4,2.6l-4.4,2.6l-4.4-2.6L14.2,46.6z M9.4,49.5l4.4,2.6l-4.4,2.6L5,52.2L9.4,49.5z M0.2,55.1l4.4-2.6L9,55.1l-4.4,2.6L0.2,55.1z
		 M0.2,60.9l4.4-2.6L9,60.9l-4.4,2.6L0.2,60.9z M0.2,66.7L4.6,64L9,66.7l-4.4,2.6L0.2,66.7z M0.3,72.5l4.4-2.6L9,72.5l-4.4,2.6
		L0.3,72.5z M0.3,78.3l4.4-2.6l4.4,2.6l-4.4,2.6L0.3,78.3z M0.3,84.1l4.4-2.6l4.4,2.6l-4.4,2.6L0.3,84.1z M5.2,87l4.4-2.6l4.4,2.6
		l-4.4,2.6L5.2,87z M10,89.9l4.4-2.6l4.4,2.6l-4.4,2.6L10,89.9z M14.8,92.8l4.4-2.6l4.4,2.6l-4.4,2.6L14.8,92.8z M19.7,95.7l4.4-2.6
		l4.4,2.6l-4.4,2.6L19.7,95.7z M24.5,98.6l4.4-2.6l4.4,2.6l-4.4,2.6L24.5,98.6z M29.4,101.5l4.4-2.6l4.4,2.6l-4.4,2.6L29.4,101.5z
		 M34.2,104.4l4.4-2.6l4.4,2.6l-4.4,2.6L34.2,104.4z M39,107.3l4.4-2.6l4.4,2.6l-4.4,2.6L39,107.3z M43.9,110.2l4.4-2.6l4.4,2.6
		l-4.4,2.6L43.9,110.2z M48.7,113.1l4.4-2.6l4.4,2.6l-4.4,2.6L48.7,113.1z M53.5,116l4.4-2.6l4.4,2.6l-4.4,2.6L53.5,116z
		 M58.4,118.9l4.4-2.6l4.4,2.6l-4.4,2.6L58.4,118.9z M63.2,121.8l4.4-2.6l4.4,2.6l-4.4,2.6L63.2,121.8z M68,124.7l4.4-2.6l4.4,2.6
		l-4.4,2.6L68,124.7z M72.9,127.6l4.4-2.6l4.4,2.6l-4.4,2.6L72.9,127.6z M77.7,130.6l4.4-2.6l4.4,2.6l-4.4,2.6L77.7,130.6z
		 M82.5,133.5l4.4-2.6l4.4,2.6l-4.4,2.6L82.5,133.5z M91.8,139l-4.4-2.6l4.4-2.6l4.4,2.6L91.8,139z M96.6,136.1l-4.4-2.6l4.4-2.6
		l4.4,2.6L96.6,136.1z M101.4,139l-4.4-2.6l4.4-2.6l4.4,2.6L101.4,139z M106.2,136.1l-4.4-2.6l4.4-2.6l4.4,2.6L106.2,136.1z
		 M111.1,139l-4.4-2.6l4.4-2.6l4.4,2.6L111.1,139z M115.9,136.1l-4.4-2.6l4.4-2.6l4.4,2.6L115.9,136.1z M120.7,139l-4.4-2.6l4.4-2.6
		l4.4,2.6L120.7,139z M125.5,136.1l-4.4-2.6l4.4-2.6l4.4,2.6L125.5,136.1z M130.3,139l-4.4-2.6l4.4-2.6l4.4,2.6L130.3,139z
		 M135.1,136.1l-4.4-2.6l4.4-2.6l4.4,2.6L135.1,136.1z M140,139l-4.4-2.6l4.4-2.6l4.4,2.6L140,139z M144.8,136.1l-4.4-2.6l4.4-2.6
		l4.4,2.6L144.8,136.1z M149.6,139l-4.4-2.6l4.4-2.6l4.4,2.6L149.6,139z M154.4,136.1l-4.4-2.6l4.4-2.6l4.4,2.6L154.4,136.1z
		 M159.3,139l-4.4-2.6l4.4-2.6l4.4,2.6L159.3,139z M164.1,136.1l-4.4-2.6l4.4-2.6l4.4,2.6L164.1,136.1z M168.9,139l-4.4-2.6l4.4-2.6
		l4.4,2.6L168.9,139z M173.7,136.1l-4.4-2.6l4.4-2.6l4.4,2.6L173.7,136.1z M178.5,139l-4.4-2.6l4.4-2.6l4.4,2.6L178.5,139z
		 M183.4,136.1l-4.4-2.6l4.4-2.6l4.4,2.6L183.4,136.1z M188.2,139l-4.4-2.6l4.4-2.6l4.4,2.6L188.2,139z M193,136.1l-4.4-2.6l4.4-2.6
		l4.4,2.6L193,136.1z M197.8,139l-4.4-2.6l4.4-2.6l4.4,2.6L197.8,139z M202.6,136.1l-4.4-2.6l4.4-2.6l4.4,2.6L202.6,136.1z
		 M207.5,139l-4.4-2.6l4.4-2.6l4.4,2.6L207.5,139z M212.3,136.1l-4.4-2.6l4.4-2.6l4.4,2.6L212.3,136.1z M217.1,139l-4.4-2.6l4.4-2.6
		l4.4,2.6L217.1,139z M221.9,136.1l-4.4-2.6l4.4-2.6l4.4,2.6L221.9,136.1z M226.7,139l-4.4-2.6l4.4-2.6l4.4,2.6L226.7,139z
		 M231.6,136.1l-4.4-2.6l4.4-2.6l4.4,2.6L231.6,136.1z M236.4,139l-4.4-2.6l4.4-2.6l4.4,2.6L236.4,139z M241.2,136.1l-4.4-2.6
		l4.4-2.6l4.4,2.6L241.2,136.1z M246,139l-4.4-2.6l4.4-2.6l4.4,2.6L246,139z M250.8,136.1l-4.4-2.6l4.4-2.6l4.4,2.6L250.8,136.1z
		 M255.7,139l-4.4-2.6l4.4-2.6l4.4,2.6L255.7,139z M260.5,136.1l-4.4-2.6l4.4-2.6l4.4,2.6L260.5,136.1z M265.3,139l-4.4-2.6l4.4-2.6
		l4.4,2.6L265.3,139z M274.5,133.5l-4.4,2.6l-4.4-2.6l4.4-2.6L274.5,133.5z M274.5,127.6l-4.4,2.6l-4.4-2.6l4.4-2.6L274.5,127.6z
		 M274.4,121.8l-4.4,2.6l-4.4-2.6l4.4-2.6L274.4,121.8z M274.4,116l-4.4,2.6l-4.4-2.6l4.4-2.6L274.4,116z M274.4,110.2l-4.4,2.6
		l-4.4-2.6l4.4-2.6L274.4,110.2z M274.3,104.4l-4.4,2.6l-4.4-2.6l4.4-2.6L274.3,104.4z M274.3,98.6l-4.4,2.6l-4.4-2.6l4.4-2.6
		L274.3,98.6z M274.3,92.8l-4.4,2.6l-4.4-2.6l4.4-2.6L274.3,92.8z M274.2,87l-4.4,2.6l-4.4-2.6l4.4-2.6L274.2,87z M274.2,81.2
		l-4.4,2.6l-4.4-2.6l4.4-2.6L274.2,81.2z M274.2,75.4l-4.4,2.6l-4.4-2.6l4.4-2.6L274.2,75.4z M274.1,69.6l-4.4,2.6l-4.4-2.6l4.4-2.6
		L274.1,69.6z M274.1,63.8l-4.4,2.6l-4.4-2.6l4.4-2.6L274.1,63.8z M274.1,58l-4.4,2.6l-4.4-2.6l4.4-2.6L274.1,58z M274,52.2
		l-4.4,2.6l-4.4-2.6l4.4-2.6L274,52.2z M274,46.4l-4.4,2.6l-4.4-2.6l4.4-2.6L274,46.4z M274,40.5l-4.4,2.6l-4.4-2.6l4.4-2.6
		L274,40.5z M273.9,34.7l-4.4,2.6l-4.4-2.6l4.4-2.6L273.9,34.7z M273.9,28.9l-4.4,2.6l-4.4-2.6l4.4-2.6L273.9,28.9z M273.9,23.1
		l-4.4,2.6l-4.4-2.6l4.4-2.6L273.9,23.1z M273.9,17.3l-4.4,2.6l-4.4-2.6l4.4-2.6L273.9,17.3z M273.8,11.5l-4.4,2.6l-4.4-2.6l4.4-2.6
		L273.8,11.5z M273.8,5.7l-4.4,2.6L265,5.7l4.4-2.6L273.8,5.7z M273.8-0.1l-4.4,2.6L265-0.1l4.4-2.6L273.8-0.1z M273.7-5.9l-4.4,2.6
		L265-5.9l4.4-2.6L273.7-5.9z M269.3-9.1l-4.4-2.6l4.4-2.6l4.4,2.6L269.3-9.1z"/>
</g>
<g id="Object" class="st3">
	<linearGradient id="SVGID_4_" gradientUnits="userSpaceOnUse" x1="214.5831" y1="106.6722" x2="214.5822" y2="106.6717">
		<stop  offset="0" style="stop-color:#FAFBFD"/>
		<stop  offset="1" style="stop-color:#F0F6FA"/>
	</linearGradient>
	<line class="st4" x1="214.6" y1="106.7" x2="214.6" y2="106.7"/>
	<linearGradient id="SVGID_5_" gradientUnits="userSpaceOnUse" x1="214.5835" y1="106.6734" x2="214.5817" y2="106.6724">
		<stop  offset="0" style="stop-color:#FAFBFD"/>
		<stop  offset="1" style="stop-color:#F0F6FA"/>
	</linearGradient>
	<line class="st5" x1="214.6" y1="106.7" x2="214.6" y2="106.7"/>
	<linearGradient id="SVGID_6_" gradientUnits="userSpaceOnUse" x1="214.3692" y1="92.2012" x2="214.3682" y2="92.2006">
		<stop  offset="0" style="stop-color:#FAFBFD"/>
		<stop  offset="1" style="stop-color:#F0F6FA"/>
	</linearGradient>
	<line class="st6" x1="214.4" y1="92.2" x2="214.4" y2="92.2"/>
	<linearGradient id="SVGID_7_" gradientUnits="userSpaceOnUse" x1="214.3696" y1="92.2023" x2="214.3677" y2="92.2013">
		<stop  offset="0" style="stop-color:#FAFBFD"/>
		<stop  offset="1" style="stop-color:#F0F6FA"/>
	</linearGradient>
	<line class="st7" x1="214.4" y1="92.2" x2="214.4" y2="92.2"/>
</g>
<g id="Text">
</g>
</svg>
