<?xml version="1.0" encoding="utf-8"?>
<!-- Generator: Adobe Illustrator 24.3.0, SVG Export Plug-In . SVG Version: 6.00 Build 0)  -->
<svg version="1.1" id="Layer_1" xmlns="http://www.w3.org/2000/svg" xmlns:xlink="http://www.w3.org/1999/xlink" x="0px" y="0px"
	 viewBox="0 0 260 260" style="enable-background:new 0 0 260 260;" xml:space="preserve">
<style type="text/css">
	.st0{fill:url(#SVGID_1_);}
	.st1{clip-path:url(#SVGID_3_);}
	.st2{fill:url(#SVGID_4_);}
	.st3{fill:url(#SVGID_5_);}
	.st4{fill:#151F21;}
	.st5{fill:url(#SVGID_6_);}
	.st6{fill:url(#SVGID_7_);}
	.st7{fill:url(#SVGID_8_);}
	.st8{fill:url(#SVGID_9_);}
	.st9{fill:url(#SVGID_10_);}
	.st10{fill:url(#SVGID_11_);}
	.st11{fill:url(#SVGID_12_);}
	.st12{fill:url(#SVGID_13_);}
	.st13{fill:url(#SVGID_14_);}
	.st14{fill:url(#SVGID_15_);}
	.st15{fill:url(#SVGID_16_);}
	.st16{fill:url(#SVGID_17_);}
	.st17{fill:url(#SVGID_18_);}
	.st18{fill:url(#SVGID_19_);}
	.st19{fill:url(#SVGID_20_);}
	.st20{fill:url(#SVGID_21_);}
	.st21{fill:url(#SVGID_22_);}
	.st22{fill:url(#SVGID_23_);}
	.st23{fill:url(#SVGID_24_);}
	.st24{fill:url(#SVGID_25_);}
	.st25{fill:url(#SVGID_26_);}
	.st26{fill:url(#SVGID_27_);}
	.st27{fill:url(#SVGID_28_);}
	.st28{fill:url(#SVGID_29_);}
	.st29{fill:url(#SVGID_30_);}
	.st30{enable-background:new    ;}
	.st31{fill:url(#SVGID_31_);}
	.st32{fill:url(#SVGID_32_);}
	.st33{fill:url(#SVGID_33_);}
	.st34{fill:url(#SVGID_34_);}
	.st35{fill:#E2E2E2;}
	.st36{fill:#E3E8ED;}
	.st37{fill:#C6CBD0;}
	.st38{fill:url(#SVGID_35_);}
	.st39{fill:url(#SVGID_36_);}
	.st40{fill:url(#SVGID_37_);}
	.st41{fill:url(#SVGID_38_);}
	.st42{fill:url(#SVGID_39_);}
	.st43{fill:url(#SVGID_40_);}
	.st44{fill:url(#SVGID_41_);}
	.st45{fill:url(#SVGID_42_);}
	.st46{fill:url(#SVGID_43_);}
	.st47{fill:url(#SVGID_44_);}
	.st48{fill:url(#SVGID_45_);}
	.st49{fill:url(#SVGID_46_);}
	.st50{fill:url(#SVGID_47_);}
	.st51{fill:url(#SVGID_48_);}
	.st52{fill:url(#SVGID_49_);}
	.st53{fill:url(#SVGID_50_);}
	.st54{fill:url(#SVGID_51_);}
	.st55{fill:url(#SVGID_52_);}
	.st56{fill:url(#SVGID_53_);}
	.st57{fill:url(#SVGID_54_);}
	.st58{fill:url(#SVGID_55_);}
	.st59{fill:#E2E7EC;}
	.st60{fill:url(#SVGID_56_);}
	.st61{fill:url(#SVGID_57_);}
	.st62{fill:url(#SVGID_58_);}
	.st63{fill:url(#SVGID_59_);}
	.st64{fill:url(#SVGID_60_);}
	.st65{fill:url(#SVGID_61_);}
	.st66{fill:url(#SVGID_62_);}
	.st67{fill:url(#SVGID_63_);}
	.st68{fill:url(#SVGID_64_);}
	.st69{fill:url(#SVGID_65_);}
	.st70{fill:url(#SVGID_66_);}
	.st71{fill:url(#SVGID_67_);}
	.st72{fill:#D7DCE1;}
	.st73{fill:url(#SVGID_68_);}
	.st74{fill:url(#SVGID_69_);}
	.st75{fill:url(#SVGID_70_);}
	.st76{fill:url(#SVGID_71_);}
	.st77{fill:url(#SVGID_72_);}
	.st78{fill:url(#SVGID_73_);}
	.st79{fill:url(#SVGID_74_);}
	.st80{fill:url(#SVGID_75_);}
	.st81{fill:url(#SVGID_76_);}
	.st82{fill:url(#SVGID_77_);}
	.st83{fill:url(#SVGID_78_);}
	.st84{fill:url(#SVGID_79_);}
	.st85{fill:url(#SVGID_80_);}
	.st86{fill:url(#SVGID_81_);}
	.st87{fill:url(#SVGID_82_);}
	.st88{fill:url(#SVGID_83_);}
	.st89{fill:url(#SVGID_84_);}
	.st90{fill:none;}
</style>
<g>
	<linearGradient id="SVGID_1_" gradientUnits="userSpaceOnUse" x1="141.0518" y1="271.2325" x2="144.974" y2="146.5106">
		<stop  offset="0" style="stop-color:#0A599D"/>
		<stop  offset="0.1484" style="stop-color:#0F5293"/>
		<stop  offset="0.6967" style="stop-color:#1E3A73"/>
		<stop  offset="1" style="stop-color:#243167"/>
	</linearGradient>
	<path class="st0" d="M184.6,197.7c-23.3-13.5-61.1-13.5-84.2,0c-23.2,13.5-23,35.3,0.3,48.8c23.3,13.5,61.1,13.5,84.2,0
		C208,233.1,207.9,211.2,184.6,197.7"/>
	<g>
		<defs>
			<path id="SVGID_2_" d="M244.1,173.5L236.5,3.7L59.7-6.1l-67.8,173l46.6,91.7l44.6-33.4l0.3,0c1.2,7.8,7,15.4,17.3,21.4
				c23.3,13.5,61.1,13.5,84.2,0c8.2-4.8,13.5-10.6,15.8-16.8l0.1,0L244.1,173.5z"/>
		</defs>
		<clipPath id="SVGID_3_">
			<use xlink:href="#SVGID_2_"  style="overflow:visible;"/>
		</clipPath>
		<g class="st1">
			<g>
				
					<radialGradient id="SVGID_4_" cx="949.199" cy="45.7066" r="52.5872" gradientTransform="matrix(1 1.400000e-03 -1.400000e-03 1 -817.0881 -0.1985)" gradientUnits="userSpaceOnUse">
					<stop  offset="0" style="stop-color:#00E3FF"/>
					<stop  offset="0.164" style="stop-color:#00B1D7"/>
					<stop  offset="0.3815" style="stop-color:#0076A7"/>
					<stop  offset="0.5818" style="stop-color:#004782"/>
					<stop  offset="0.758" style="stop-color:#002567"/>
					<stop  offset="0.9034" style="stop-color:#001056"/>
					<stop  offset="1" style="stop-color:#000950"/>
				</radialGradient>
				<path class="st2" d="M156.3,49c-12.2-19.8-32.1-5.8-32.1-5.8c-1.1,3.1,10.8,41.4,15,45.6c-3.1,4.1-1.5,6.4-0.7,7.8
					c2.4,4.2,8.7,7.5,8.7,7.5s3.8,2.4,3.3-2.5c-0.2-2.3-1.6-2.5-3.2-2.8l1.8-0.8c-1.8-4.2,0.3-10.8,2.3-15.4c1.2-1.4,4.1-7.1,4.4-9
					c3.2-2.9,4.1-6.1,3.1-8.2c-0.6-1.3-0.5-3.2-0.4-5.8C158.6,55.8,157.9,52.2,156.3,49z M147.1,98.6c-1.8-0.4-3.8-1.1-4.9-5
					c-0.9-3.2,2.3-5.2,5.6-7.8C146.5,90.1,145.6,94.9,147.1,98.6z"/>
				
					<radialGradient id="SVGID_5_" cx="908.2437" cy="144.9965" r="69.907" gradientTransform="matrix(1 1.400000e-03 -1.400000e-03 1 -817.0881 -0.1985)" gradientUnits="userSpaceOnUse">
					<stop  offset="0" style="stop-color:#00E3FF"/>
					<stop  offset="0.164" style="stop-color:#00B1D7"/>
					<stop  offset="0.3815" style="stop-color:#0076A7"/>
					<stop  offset="0.5818" style="stop-color:#004782"/>
					<stop  offset="0.758" style="stop-color:#002567"/>
					<stop  offset="0.9034" style="stop-color:#001056"/>
					<stop  offset="1" style="stop-color:#000950"/>
				</radialGradient>
				<path class="st3" d="M109.2,152.6c-0.5-0.7-1.7-1.1-2.4-1.6c-1.5-1.1-3.6-2.4-5.5-2.4c0,0-2.8,8.6-3.1,9.7
					c-20.5,12.7-10.3,23.3-18.7,38.6c-0.8-0.7-2.1-0.9-2.8-0.3c0,0-5.4,6.3-9.1,7.3c0.2,0.1,0.3,0.3,0.5,0.4c-0.5-0.1-0.8-0.1-1.1,0
					c-1.6,0.9-7.2,12-7.6,13.4c-0.4,1.3-1.7,7.9-1.7,9.1c0,1.2,0.6,1.1,0.6,1.1s0.1,0.3,0.2,0c0.2-3.6,2.1-8.5,2.8-9.5
					c0.7-1.1,0.9,0,0.7,0.4c-3,6-2.5,8.5-2.8,9.8s0.4,2.3,0.8,1.5c0.4-0.9,2.2-9.8,3.2-10.3c1-0.6,1.2-0.3,0,2
					c-2,4.5-1.8,6.9-1.9,7.9c-0.1,1,0.7,1.1,1.1,0.3c0.5-3.6,2.8-9,3-9.4c0.3-0.4,0.7,0.5,0,1.9c-1.1,3.2-2.2,7-1.9,7.2
					c0.3,0.2,1.4-2.1,2.2-3.6c0.8-1.5,5.7-8.4,6.4-9c0.7-0.6,3.5-3.5,3.8-6c0.3-2.3,0.8-3-0.1-2.9c1.6-2.9,3-5.5,3.8-6.7
					c3.1-4.4,6.8-8.5,10.1-12.8c5.2-6.8,4.5-12.6,12.5-20.7c2.6-2.6,4.9-5.6,6.5-9c0.1-0.1,0.1-0.2,0.2-0.4c0.4-0.9,2.2-2.9,2.4-3.9
					C111.7,153.4,110.1,153.8,109.2,152.6z M73.5,207.1c-1.1-0.7-2.4-1.5-3.6-2.1c2.2-1.5,4.6-3.4,5.6-4.5c0.8-0.8,1.7-0.8,2.4-0.7
					C76.4,202.6,74.9,205,73.5,207.1z"/>
				<g>
					<path class="st4" d="M68,203.3c0.7,0,2,0.4,1.5,1.4c-0.3,0.6-1.1,1.5-1.7,1.8c-2,0.7-3.5,1.2-6.4,1.7c-3,0.5-4.4,0.2-4.4,0.2
						c-1.6,0.1,0.2-1.4,1-2.1c1.1-0.9,3.5-1.1,4.9-1.4c1.1-0.3,2.2-0.5,3.3-0.8C66.6,203.9,67.1,203.3,68,203.3z"/>
					<g>
						
							<linearGradient id="SVGID_6_" gradientUnits="userSpaceOnUse" x1="874.552" y1="205.1554" x2="874.8862" y2="208.2108" gradientTransform="matrix(1 1.400000e-03 -1.400000e-03 1 -817.0881 -0.1985)">
							<stop  offset="0" style="stop-color:#FFFEF9"/>
							<stop  offset="0.5912" style="stop-color:#CFCFCD"/>
							<stop  offset="1" style="stop-color:#B3B3B3"/>
						</linearGradient>
						<path class="st5" d="M59.3,205.4c0.1-0.2,0.2-0.4,0.2-0.6c-1.6,1.2-3.4,2-4.4,3.9c-0.6,1,3.4,0.5,3.9,0.1c0-0.5-0.1-1.2,0-1.7
							C59,206.5,59.1,205.9,59.3,205.4z"/>
						
							<linearGradient id="SVGID_7_" gradientUnits="userSpaceOnUse" x1="880.9556" y1="203.0132" x2="880.9078" y2="207.7394" gradientTransform="matrix(1 1.400000e-03 -1.400000e-03 1 -817.0881 -0.1985)">
							<stop  offset="0" style="stop-color:#FFFEF9"/>
							<stop  offset="0.5912" style="stop-color:#CFCFCD"/>
							<stop  offset="1" style="stop-color:#B3B3B3"/>
						</linearGradient>
						<path class="st6" d="M64.1,203.2c1.1-0.2,2.4-1.1,3.3-0.2c0.8,0.4,0.8,5.5-1.9,5.9c-2.7,0.4-4.6-0.3-6.2-0.1
							c-0.1-0.5,0-1.1,0-1.7c0.1-0.7,0-1.9,0.6-2.5c0.3-0.3,0.7-0.4,1.1-0.6C61.9,203.8,62.8,203.7,64.1,203.2z"/>
					</g>
				</g>
				<g>
					<g>
						
							<linearGradient id="SVGID_8_" gradientUnits="userSpaceOnUse" x1="881.2507" y1="220.0263" x2="882.4123" y2="220.5514" gradientTransform="matrix(1 1.400000e-03 -1.400000e-03 1 -817.0881 -0.1985)">
							<stop  offset="0" style="stop-color:#FFFEF9"/>
							<stop  offset="0.5912" style="stop-color:#CFCFCD"/>
							<stop  offset="1" style="stop-color:#B3B3B3"/>
						</linearGradient>
						<path class="st7" d="M64.5,223.4c0.3-0.8,0.7-1.6,1.1-2.4c0.2-0.5,0.1-1-0.3-1.3c0,0,0,0,0,0c-0.5-0.3-1.2-0.1-1.5,0.4
							c-0.3,0.8-0.7,1.5-1,2.3c0.2,0.1,0.3,0.2,0.5,0.3C63.7,223,64.1,223.2,64.5,223.4z"/>
						
							<linearGradient id="SVGID_9_" gradientUnits="userSpaceOnUse" x1="879.9497" y1="223.7465" x2="880.8727" y2="224.1125" gradientTransform="matrix(1 1.400000e-03 -1.400000e-03 1 -817.0881 -0.1985)">
							<stop  offset="0" style="stop-color:#FFFEF9"/>
							<stop  offset="0.5912" style="stop-color:#CFCFCD"/>
							<stop  offset="1" style="stop-color:#B3B3B3"/>
						</linearGradient>
						<path class="st8" d="M64.4,223.8c-0.4-0.2-0.9-0.4-1.3-0.7c-0.2-0.1-0.3-0.2-0.5-0.3c-0.3,0.8-0.7,1.6-0.9,2.4
							c-0.1,0.3-0.2,0.7-0.3,1c0.6,0.3,1.2,0.5,1.8,0.8c0.1-0.3,0.1-0.7,0.2-1C63.8,225.3,64.1,224.6,64.4,223.8z"/>
						
							<linearGradient id="SVGID_10_" gradientUnits="userSpaceOnUse" x1="879.0881" y1="227.7219" x2="879.9792" y2="227.8651" gradientTransform="matrix(1 1.400000e-03 -1.400000e-03 1 -817.0881 -0.1985)">
							<stop  offset="0" style="stop-color:#FFFEF9"/>
							<stop  offset="0.5912" style="stop-color:#CFCFCD"/>
							<stop  offset="1" style="stop-color:#B3B3B3"/>
						</linearGradient>
						<path class="st9" d="M61.1,229.7c-0.1,0.7,0.5,1.4,1.2,1c0,0,0,0,0,0c0.3-0.1,0.4-0.4,0.5-0.7c0.1-0.8,0.3-1.7,0.5-2.5
							c-0.6-0.2-1.2-0.5-1.8-0.7C61.2,227.8,61.1,228.8,61.1,229.7z"/>
						
							<linearGradient id="SVGID_11_" gradientUnits="userSpaceOnUse" x1="876.0132" y1="221.4363" x2="876.984" y2="221.8501" gradientTransform="matrix(1 1.400000e-03 -1.400000e-03 1 -817.0881 -0.1985)">
							<stop  offset="0" style="stop-color:#FFFEF9"/>
							<stop  offset="0.5912" style="stop-color:#CFCFCD"/>
							<stop  offset="1" style="stop-color:#B3B3B3"/>
						</linearGradient>
						<path class="st10" d="M59.7,223.7c0.2-0.8,0.5-1.5,0.8-2.3c-0.2-0.1-0.4-0.3-0.6-0.4c-0.4-0.3-0.8-0.6-1.2-0.9
							c-0.2,0.9-0.5,1.8-0.7,2.9c-0.1,0.4-0.2,0.9-0.3,1.5c0.5,0.3,1,0.5,1.5,0.8C59.4,224.7,59.5,224.2,59.7,223.7z"/>
						
							<linearGradient id="SVGID_12_" gradientUnits="userSpaceOnUse" x1="875.4931" y1="225.6088" x2="876.1773" y2="225.7361" gradientTransform="matrix(1 1.400000e-03 -1.400000e-03 1 -817.0881 -0.1985)">
							<stop  offset="0" style="stop-color:#FFFEF9"/>
							<stop  offset="0.5912" style="stop-color:#CFCFCD"/>
							<stop  offset="1" style="stop-color:#B3B3B3"/>
						</linearGradient>
						<path class="st11" d="M58.7,228.4c0.3-0.4,0.1-0.7,0.5-2.8c-0.5-0.3-1-0.5-1.4-0.8C57.5,226.6,57.5,228.6,58.7,228.4z"/>
						
							<linearGradient id="SVGID_13_" gradientUnits="userSpaceOnUse" x1="877.2849" y1="217.0726" x2="878.4783" y2="217.7569" gradientTransform="matrix(1 1.400000e-03 -1.400000e-03 1 -817.0881 -0.1985)">
							<stop  offset="0" style="stop-color:#FFFEF9"/>
							<stop  offset="0.5912" style="stop-color:#CFCFCD"/>
							<stop  offset="1" style="stop-color:#B3B3B3"/>
						</linearGradient>
						<path class="st12" d="M60.6,221c0.4-0.9,0.8-1.9,1.3-2.7c0.3-0.5,0.2-1.2-0.2-1.6c0,0,0,0,0,0c-0.7-0.7-1.9-0.4-2.2,0.6
							c-0.2,0.9-0.5,1.7-0.7,2.5c0.4,0.3,0.9,0.6,1.3,0.9C60.2,220.8,60.4,220.9,60.6,221z"/>
						
							<linearGradient id="SVGID_14_" gradientUnits="userSpaceOnUse" x1="879.1729" y1="218.5711" x2="880.5255" y2="219.3349" gradientTransform="matrix(1 1.400000e-03 -1.400000e-03 1 -817.0881 -0.1985)">
							<stop  offset="0" style="stop-color:#FFFEF9"/>
							<stop  offset="0.5912" style="stop-color:#CFCFCD"/>
							<stop  offset="1" style="stop-color:#B3B3B3"/>
						</linearGradient>
						<path class="st13" d="M63.8,219.8c0.3-0.5,0.2-1-0.3-1.4c0,0,0,0,0,0c-0.6-0.5-1.4-0.2-1.7,0.4c-0.3,0.8-0.7,1.6-1,2.4
							c0.6,0.4,1.2,0.7,1.7,1.1C62.9,221.4,63.3,220.6,63.8,219.8z"/>
						
							<linearGradient id="SVGID_15_" gradientUnits="userSpaceOnUse" x1="877.883" y1="222.6044" x2="878.9333" y2="223.0977" gradientTransform="matrix(1 1.400000e-03 -1.400000e-03 1 -817.0881 -0.1985)">
							<stop  offset="0" style="stop-color:#FFFEF9"/>
							<stop  offset="0.5912" style="stop-color:#CFCFCD"/>
							<stop  offset="1" style="stop-color:#B3B3B3"/>
						</linearGradient>
						<path class="st14" d="M62.4,222.7c-0.6-0.4-1.2-0.7-1.7-1.1c-0.3,0.8-0.6,1.6-0.8,2.4c-0.1,0.5-0.2,1-0.3,1.4
							c0.5,0.2,0.9,0.5,1.4,0.7c0.1,0.1,0.2,0.1,0.4,0.2c0.1-0.4,0.2-0.7,0.3-1C61.8,224.3,62.1,223.5,62.4,222.7z"/>
						
							<linearGradient id="SVGID_16_" gradientUnits="userSpaceOnUse" x1="876.879" y1="227.09" x2="877.8338" y2="227.4083" gradientTransform="matrix(1 1.400000e-03 -1.400000e-03 1 -817.0881 -0.1985)">
							<stop  offset="0" style="stop-color:#FFFEF9"/>
							<stop  offset="0.5912" style="stop-color:#CFCFCD"/>
							<stop  offset="1" style="stop-color:#B3B3B3"/>
						</linearGradient>
						<path class="st15" d="M59.4,225.8c-0.2,1.1-0.2,2.2-0.3,2.9c-0.1,0.3-0.2,1.3,0.1,1.5c0,0,0,0,0,0c0.5,0.5,1.2,0.2,1.3-0.6
							c0.1-0.9,0.4-2,0.6-3c-0.2-0.1-0.3-0.1-0.5-0.2C60.3,226.2,59.9,226,59.4,225.8z"/>
						
							<linearGradient id="SVGID_17_" gradientUnits="userSpaceOnUse" x1="883.4956" y1="221.0848" x2="885.0551" y2="221.9759" gradientTransform="matrix(1 1.400000e-03 -1.400000e-03 1 -817.0881 -0.1985)">
							<stop  offset="0" style="stop-color:#FFFEF9"/>
							<stop  offset="0.5912" style="stop-color:#CFCFCD"/>
							<stop  offset="1" style="stop-color:#B3B3B3"/>
						</linearGradient>
						<path class="st16" d="M67.1,224.7c0.4-0.6,0.9-1.2,1.3-1.8c0.5-0.7,0.1-1.7-0.7-1.9c-0.8-0.2-1.7-0.2-2.1,0.8
							c-0.3,0.6-0.5,1.3-0.7,1.9c0.6,0.3,1.2,0.6,1.9,0.9C66.9,224.6,67,224.6,67.1,224.7z"/>
						
							<linearGradient id="SVGID_18_" gradientUnits="userSpaceOnUse" x1="882.0248" y1="224.6234" x2="883.0114" y2="225.244" gradientTransform="matrix(1 1.400000e-03 -1.400000e-03 1 -817.0881 -0.1985)">
							<stop  offset="0" style="stop-color:#FFFEF9"/>
							<stop  offset="0.5912" style="stop-color:#CFCFCD"/>
							<stop  offset="1" style="stop-color:#B3B3B3"/>
						</linearGradient>
						<path class="st17" d="M66.6,224.9c-0.6-0.3-1.3-0.6-1.9-0.9c-0.3,0.7-0.5,1.5-0.7,2.2c-0.1,0.4-0.2,0.7-0.3,1
							c0.2,0.1,0.5,0.2,0.7,0.3c0.2,0.1,0.4,0.2,0.7,0.2c0.5-0.9,1.1-1.8,1.7-2.8C66.8,224.9,66.7,224.9,66.6,224.9z"/>
						
							<linearGradient id="SVGID_19_" gradientUnits="userSpaceOnUse" x1="880.8738" y1="227.6129" x2="881.7648" y2="227.9947" gradientTransform="matrix(1 1.400000e-03 -1.400000e-03 1 -817.0881 -0.1985)">
							<stop  offset="0" style="stop-color:#FFFEF9"/>
							<stop  offset="0.5912" style="stop-color:#CFCFCD"/>
							<stop  offset="1" style="stop-color:#B3B3B3"/>
						</linearGradient>
						<path class="st18" d="M63.6,227.6c-0.1,0.4-0.2,0.9-0.3,1.6c-0.2,0.9,0.6,1,0.8,0.5c0.2-0.5,0.5-1.1,0.8-1.7
							c-0.2-0.1-0.4-0.1-0.6-0.2C64.1,227.8,63.9,227.7,63.6,227.6z"/>
						
							<linearGradient id="SVGID_20_" gradientUnits="userSpaceOnUse" x1="878.5156" y1="214.6334" x2="900.58" y2="203.9817" gradientTransform="matrix(1 1.400000e-03 -1.400000e-03 1 -817.0881 -0.1985)">
							<stop  offset="0" style="stop-color:#FFFEF9"/>
							<stop  offset="0.5912" style="stop-color:#CFCFCD"/>
							<stop  offset="1" style="stop-color:#B3B3B3"/>
						</linearGradient>
						<path class="st19" d="M75.5,206.6c-1.9-1-3.4-0.9-4.8-1.9c-0.8-0.6-1.7-1.4-2.7-1.7c-3.9,2.3-6.3,7.4-7.8,11.6
							c0.6,0.6,1.2,1.1,1.9,1.7c1,0.9,2.1,1.7,3.1,2.5c0.4,0.3,0.8,0.6,1.3,0.8c0,0,0-0.1,0.1-0.1c0,0,0,0.1,0,0.1
							c0.7,0.4,1.4,0.9,2.1,1.2c0.3,0.1,0.5,0.2,0.8,0.4c0.4-0.6,0.9-1.3,1.4-1.9c2.1-2.6,3.6-3.1,5.5-7.3
							C77.1,210.3,77.1,207.4,75.5,206.6z"/>
					</g>
				</g>
				<g>
					
						<radialGradient id="SVGID_21_" cx="912.301" cy="143.982" r="61.4051" gradientTransform="matrix(1 1.400000e-03 -1.400000e-03 1 -817.0881 -0.1985)" gradientUnits="userSpaceOnUse">
						<stop  offset="0" style="stop-color:#00E3FF"/>
						<stop  offset="0.164" style="stop-color:#00B1D7"/>
						<stop  offset="0.3815" style="stop-color:#0076A7"/>
						<stop  offset="0.5818" style="stop-color:#004782"/>
						<stop  offset="0.758" style="stop-color:#002567"/>
						<stop  offset="0.9034" style="stop-color:#001056"/>
						<stop  offset="1" style="stop-color:#000950"/>
					</radialGradient>
					<path class="st20" d="M130.5,95.6c-7.9-11.8-16.3-3.8-17.2-1.4c-0.8,1.4-0.8,1.1,0.5,1.4c0.4,0.1-7.3,14.8-6,15.3
						c-0.8,3-2.2,7.6-3.9,24.6c-0.3,3.1,0.9,6.5,0.1,8.6c-0.6,0.3-1.1,0.7-1.4,1.2c-0.7,1.5-1.3,3.1-1.8,4.8l10.1,5.8
						c2.1-3.5,4.5-7.2,4.5-7.2c0.2-0.6,0.2-1.1,0.2-1.5c0.4-11.3,4.6-15,7.5-21.9l5.2,6.8C128.2,131.9,142.2,116.7,130.5,95.6z"/>
					
						<linearGradient id="SVGID_22_" gradientUnits="userSpaceOnUse" x1="919.6301" y1="126.4572" x2="925.5899" y2="127.5984" gradientTransform="matrix(1 1.400000e-03 -1.400000e-03 1 -817.0881 -0.1985)">
						<stop  offset="0" style="stop-color:#FFFEF9"/>
						<stop  offset="0.5912" style="stop-color:#CFCFCD"/>
						<stop  offset="1" style="stop-color:#B3B3B3"/>
					</linearGradient>
					<path class="st21" d="M116.7,151.3c-5.2,3-14.2-0.6-14.9-4.6c-1.4-1.6-1.2-15.4,1.1-28.8c2.2,2.7,5.2,4.3,8.9,4.4
						c0.2,0,0.4,0,0.6,0c8.9,0,14.3-6.9,17.4-12.7c0,1.8-0.3,3.6-0.6,5.3C125.3,134,119.5,149.7,116.7,151.3z"/>
					
						<linearGradient id="SVGID_23_" gradientUnits="userSpaceOnUse" x1="923.7489" y1="103.1307" x2="928.3139" y2="104.272" gradientTransform="matrix(1 1.400000e-03 -1.400000e-03 1 -817.0881 -0.1985)">
						<stop  offset="0" style="stop-color:#FFFEF9"/>
						<stop  offset="0.5912" style="stop-color:#CFCFCD"/>
						<stop  offset="1" style="stop-color:#B3B3B3"/>
					</linearGradient>
					<path class="st22" d="M111.9,120.1c-4.4-0.2-7-2.6-8.5-5.3c2.5-12.7,6.8-24.1,13.4-22.8c0,0,10.4,1.9,12.6,13.3
						C127.1,110.9,121.7,120.5,111.9,120.1z"/>
				</g>
				
					<radialGradient id="SVGID_24_" cx="928.7798" cy="96.1248" r="87.227" gradientTransform="matrix(1 1.400000e-03 -1.400000e-03 1 -817.0881 -0.1985)" gradientUnits="userSpaceOnUse">
					<stop  offset="0" style="stop-color:#00E3FF"/>
					<stop  offset="0.164" style="stop-color:#00B1D7"/>
					<stop  offset="0.3815" style="stop-color:#0076A7"/>
					<stop  offset="0.5818" style="stop-color:#004782"/>
					<stop  offset="0.758" style="stop-color:#002567"/>
					<stop  offset="0.9034" style="stop-color:#001056"/>
					<stop  offset="1" style="stop-color:#000950"/>
				</radialGradient>
				<path class="st23" d="M157.1,173.3c1.4-14.6,18-34.1,14.9-71.7c0.2,0.6-1.4-0.2-1.5-0.3c-7.6-3.6-14.5-5.5-22.9-6
					c-8.7-0.6-14.1-3.1-7.2-17.9c-4.4,2.1-6.7,4.8-11.2,9.3c-14.1,6.3-14.5,6.7-16.2,9.3c-2.1,3.7-1.6,11.2,0,35.4l-5.2,13.3
					c0,0,0.6,18.8,9.6,37.5l37.8-0.7C155.7,177.8,156.6,174.4,157.1,173.3z"/>
				
					<radialGradient id="SVGID_25_" cx="940.4982" cy="326.3288" r="39.034" gradientTransform="matrix(1 1.400000e-03 -1.400000e-03 1 -817.0881 -0.1985)" gradientUnits="userSpaceOnUse">
					<stop  offset="0" style="stop-color:#00E3FF"/>
					<stop  offset="0.164" style="stop-color:#00B1D7"/>
					<stop  offset="0.3815" style="stop-color:#0076A7"/>
					<stop  offset="0.5818" style="stop-color:#004782"/>
					<stop  offset="0.758" style="stop-color:#002567"/>
					<stop  offset="0.9034" style="stop-color:#001056"/>
					<stop  offset="1" style="stop-color:#000950"/>
				</radialGradient>
				<path class="st24" d="M135.7,326.8l-10-2.7c0.1,1,0.1,2,0.2,3c-2.8,5.7-5.1,9.9-9.4,14.7c-2.3,2.5-5.6,4.8-8.6,7.3
					c-6.8,2.6-5.1,3-7.1,3.8c0.5,7.6,9.2,7.3,14.2,6.4c5-0.9,5-1.2,8-3.8c-1.1-0.6-3.5-2.7-4.2-3.6c3.6-1.7,10.7-3.6,12.9-6.4
					c4.3-5.4,4.5-5,4.2-12C135.7,331.2,135.7,329,135.7,326.8z"/>
				
					<radialGradient id="SVGID_26_" cx="933.1491" cy="221.4466" r="76.8432" gradientTransform="matrix(1 1.400000e-03 -1.400000e-03 1 -817.0881 -0.1985)" gradientUnits="userSpaceOnUse">
					<stop  offset="0" style="stop-color:#00E3FF"/>
					<stop  offset="0.164" style="stop-color:#00B1D7"/>
					<stop  offset="0.3815" style="stop-color:#0076A7"/>
					<stop  offset="0.5818" style="stop-color:#004782"/>
					<stop  offset="0.758" style="stop-color:#002567"/>
					<stop  offset="0.9034" style="stop-color:#001056"/>
					<stop  offset="1" style="stop-color:#000950"/>
				</radialGradient>
				<path class="st25" d="M141.1,263.9c0.1-0.6,0-0.8-0.1-1.3c0.6-9.9-0.3-19.5-0.9-29.4c0.3,0.7,0.7,1.4,1,2l-8-53.3l-15.7,0.3
					c0.4,0.9,0.9,1.8,1.4,2.8c-1.2,2.8-2.7,9.4-4.6,7.8c1.4,1.7,2.2,1,3.6,2.7c-2.1,7.6-7.6,11.7-6.7,20.1c1.6,14.8-2.8,8,10.1,47.3
					c0.1,6.5-0.9,3.9-0.5,12.3c0.6,13.3,4.1,33.4,4.9,49l10,2.7C135.5,306.1,138.3,284.5,141.1,263.9z"/>
				
					<radialGradient id="SVGID_27_" cx="1035.0984" cy="202.1906" r="161.8208" gradientTransform="matrix(1 1.400000e-03 -1.400000e-03 1 -817.0881 -0.1985)" gradientUnits="userSpaceOnUse">
					<stop  offset="0" style="stop-color:#00E3FF"/>
					<stop  offset="0.164" style="stop-color:#00B1D7"/>
					<stop  offset="0.3815" style="stop-color:#0076A7"/>
					<stop  offset="0.5818" style="stop-color:#004782"/>
					<stop  offset="0.758" style="stop-color:#002567"/>
					<stop  offset="0.9034" style="stop-color:#001056"/>
					<stop  offset="1" style="stop-color:#000950"/>
				</radialGradient>
				<path class="st26" d="M182.8,300.8c-6.4-7.4-12-12.4-6.1-30.9c1.2-20.9,5.6-52.8-6.7-74.4c-4.1-3.8-8.4-4.3-12.6-2.6
					c-2.6-1.7-2.7-6.7-2.2-11.4l-22.2,0.4l8,53.3c0.7,1.3,1.3,2.5,2.2,4c10.1,17,9,34.6,15.4,53.6c6,17.6,10.4,38.4,7.6,57.1l11.3,5
					C181.2,336.6,186.8,320.1,182.8,300.8z"/>
				
					<radialGradient id="SVGID_28_" cx="976.6811" cy="360.3116" r="30.9058" gradientTransform="matrix(1 1.400000e-03 -1.400000e-03 1 -817.0881 -0.1985)" gradientUnits="userSpaceOnUse">
					<stop  offset="0" style="stop-color:#00E3FF"/>
					<stop  offset="0.164" style="stop-color:#00B1D7"/>
					<stop  offset="0.3815" style="stop-color:#0076A7"/>
					<stop  offset="0.5818" style="stop-color:#004782"/>
					<stop  offset="0.758" style="stop-color:#002567"/>
					<stop  offset="0.9034" style="stop-color:#001056"/>
					<stop  offset="1" style="stop-color:#000950"/>
				</radialGradient>
				<path class="st27" d="M177.4,365.7c-0.3-1.8-0.6-3.7-0.8-5.5c0.3-1.7,0.6-3.5,0.9-5.2l-11.3-5c-0.2,1.4-0.4,2.9-0.7,4.3
					c-1.5,6.9-3.5,7.6-6,13.1c-1.3,2.9-5.5,5.4-7.5,7.8c-2.1,4-5.8,2.5-6.8,6.4c-1.1,4.7,5.3,7.5,9.2,7.2c7.7-0.6,11.9-3.7,16.3-7.8
					c0.9-1.3,1.9-5.2,2.9-6.6c1.5-0.7,3.2-2,3.7-3.5c0.5-1.5-0.1-2.5,0-3.7C177.7,366.5,177.5,366.3,177.4,365.7z"/>
				<g>
					
						<linearGradient id="SVGID_29_" gradientUnits="userSpaceOnUse" x1="908.6639" y1="157.2964" x2="915.8918" y2="165.0316" gradientTransform="matrix(1 1.400000e-03 -1.400000e-03 1 -817.0881 -0.1985)">
						<stop  offset="0" style="stop-color:#FFFEF9"/>
						<stop  offset="0.5912" style="stop-color:#CFCFCD"/>
						<stop  offset="1" style="stop-color:#B3B3B3"/>
					</linearGradient>
					<path class="st28" d="M85.4,169.8c-0.4-0.2-0.7-0.5-1-0.7c4.5-8.7,10.9-16.7,14.3-17.8c3.5-2.4,8,6.5,9.3,11.7
						c0,0.1,0,0.2,0,0.3C101.2,167.2,90.4,172.4,85.4,169.8z"/>
					
						<linearGradient id="SVGID_30_" gradientUnits="userSpaceOnUse" x1="901.7837" y1="178.4302" x2="909.0117" y2="182.9952" gradientTransform="matrix(1 1.400000e-03 -1.400000e-03 1 -817.0881 -0.1985)">
						<stop  offset="0" style="stop-color:#FFFEF9"/>
						<stop  offset="0.5912" style="stop-color:#CFCFCD"/>
						<stop  offset="1" style="stop-color:#B3B3B3"/>
					</linearGradient>
					<path class="st29" d="M85.8,172.3c5.5,1.6,15-2.5,21.7-6.3c-1.3,4.1-4.8,8.8-4.8,8.8c-0.8,0.6-20.5,27-22.5,28.1
						c-1.9,1.1-7.5-2.1-7.7-4.3c-0.1-2.1,6.3-18.3,10.8-27.6c0.5,0.4,1,0.7,1.7,1C85.3,172.1,85.5,172.2,85.8,172.3z"/>
				</g>
				<g>
					<g class="st30">
						
							<radialGradient id="SVGID_31_" cx="973.6729" cy="60.1623" r="17.0415" gradientTransform="matrix(1 1.400000e-03 -1.400000e-03 1 -817.0881 -0.1985)" gradientUnits="userSpaceOnUse">
							<stop  offset="0" style="stop-color:#00E3FF"/>
							<stop  offset="0.164" style="stop-color:#00B1D7"/>
							<stop  offset="0.3815" style="stop-color:#0076A7"/>
							<stop  offset="0.5818" style="stop-color:#004782"/>
							<stop  offset="0.758" style="stop-color:#002567"/>
							<stop  offset="0.9034" style="stop-color:#001056"/>
							<stop  offset="1" style="stop-color:#000950"/>
						</radialGradient>
						<path class="st31" d="M151.5,70.1c0-0.3,0.1-0.6,0.1-0.9c0,0,0-0.1,0-0.1c0.1-0.3,0.2-0.7,0.3-1c0,0,0,0,0,0
							c0.1-0.3,0.3-0.7,0.4-1c0,0,0,0,0,0c0.2-0.3,0.3-0.6,0.5-1c0,0,0-0.1,0.1-0.1c0.2-0.3,0.4-0.5,0.5-0.8c0-0.1,0.1-0.1,0.1-0.2
							c0.2-0.2,0.3-0.4,0.5-0.5c0.1-0.1,0.1-0.2,0.2-0.2c0.2-0.2,0.5-0.4,0.7-0.6c0.3-0.2,0.5-0.3,0.7-0.4c0,0,0.1,0,0.1-0.1
							c0.2-0.1,0.5-0.2,0.7-0.2c0,0,0,0,0.1,0c0.2,0,0.5-0.1,0.7,0c0,0,0,0,0,0c0.2,0,0.4,0.1,0.6,0.2l-1.4-0.7c0,0,0,0,0,0
							c-0.1,0-0.1-0.1-0.2-0.1c-0.1,0-0.2,0-0.2-0.1c-0.1,0-0.1,0-0.2,0c0,0,0,0,0,0c0,0,0,0-0.1,0c-0.1,0-0.2,0-0.3,0
							c-0.1,0-0.2,0-0.3,0c0,0-0.1,0-0.1,0c0,0,0,0-0.1,0c-0.1,0-0.1,0-0.2,0c-0.1,0-0.2,0.1-0.4,0.1c-0.1,0-0.1,0-0.2,0.1
							c0,0-0.1,0-0.1,0.1c-0.1,0-0.1,0-0.2,0.1c-0.2,0.1-0.4,0.2-0.6,0.3c-0.3,0.2-0.5,0.4-0.7,0.6c-0.1,0.1-0.1,0.2-0.2,0.2
							c-0.1,0.1-0.2,0.2-0.3,0.4c0,0.1-0.1,0.1-0.1,0.2c0,0.1-0.1,0.1-0.1,0.2c0,0.1-0.1,0.1-0.1,0.2c-0.1,0.1-0.2,0.3-0.3,0.4
							c0,0.1-0.1,0.1-0.1,0.2c0,0,0,0.1,0,0.1c0,0.1-0.1,0.1-0.1,0.2c-0.1,0.1-0.1,0.3-0.2,0.4c-0.1,0.1-0.1,0.2-0.2,0.4
							c0,0,0,0,0,0c0,0,0,0,0,0c0,0.1-0.1,0.2-0.1,0.3c-0.1,0.1-0.1,0.2-0.1,0.4c0,0.1-0.1,0.2-0.1,0.4c0,0,0,0,0,0c0,0,0,0,0,0
							c0,0.1-0.1,0.3-0.1,0.4c0,0.1-0.1,0.3-0.1,0.4c0,0.1,0,0.1,0,0.2c0,0,0,0.1,0,0.1c0,0,0,0.1,0,0.1c0,0.2-0.1,0.3-0.1,0.5
							c0,0.1,0,0.2,0,0.3c0,0.1,0,0.1,0,0.2c0,0,0,0.1,0,0.1c0,0.3,0,0.6,0,0.8c0.1,1.3,0.7,2.2,1.5,2.6l1.4,0.7
							c-0.8-0.4-1.3-1.3-1.5-2.6c0-0.3,0-0.6,0-1C151.5,70.2,151.5,70.1,151.5,70.1z"/>
						<g>
							
								<radialGradient id="SVGID_32_" cx="972.6163" cy="65.4458" r="35.0905" gradientTransform="matrix(1 1.400000e-03 -1.400000e-03 1 -817.0881 -0.1985)" gradientUnits="userSpaceOnUse">
								<stop  offset="0" style="stop-color:#00E3FF"/>
								<stop  offset="0.164" style="stop-color:#00B1D7"/>
								<stop  offset="0.3815" style="stop-color:#0076A7"/>
								<stop  offset="0.5818" style="stop-color:#004782"/>
								<stop  offset="0.758" style="stop-color:#002567"/>
								<stop  offset="0.9034" style="stop-color:#001056"/>
								<stop  offset="1" style="stop-color:#000950"/>
							</radialGradient>
							<path class="st32" d="M155,63.6c2.2-1.6,4.2-0.7,4.4,2c0.3,2.7-1.3,6.1-3.5,7.6c-2.2,1.6-4.2,0.7-4.4-2
								C151.2,68.5,152.8,65.1,155,63.6z"/>
						</g>
					</g>
				</g>
				<g>
					<g>
						<g>
							
								<linearGradient id="SVGID_33_" gradientUnits="userSpaceOnUse" x1="940.3014" y1="245.1121" x2="959.9142" y2="244.4358" gradientTransform="matrix(1 1.400000e-03 -1.400000e-03 1 -817.0881 -0.1985)">
								<stop  offset="0" style="stop-color:#FFFEF9"/>
								<stop  offset="0.144" style="stop-color:#F4F4EF"/>
								<stop  offset="0.3936" style="stop-color:#D8D7D4"/>
								<stop  offset="0.7166" style="stop-color:#ABAAA8"/>
								<stop  offset="1" style="stop-color:#7D7D7D"/>
							</linearGradient>
							<path class="st33" d="M129.1,224.1c-3.5-1.5-6.8-1-10,1.7c-4,3.3-7,9.3-8.9,14.4c2.5,12.4,5.9,20.7,7.5,23.4
								c5.3,4.9,20.6,6.4,25.9,3.8c5.1-12.3,6-19.3,4-25.2C144.5,236.1,139,228.4,129.1,224.1z"/>
							
								<linearGradient id="SVGID_34_" gradientUnits="userSpaceOnUse" x1="924.2784" y1="214.0886" x2="941.2704" y2="208.6359" gradientTransform="matrix(1 1.400000e-03 -1.400000e-03 1 -817.0881 -0.1985)">
								<stop  offset="0" style="stop-color:#FFFEF9"/>
								<stop  offset="0.144" style="stop-color:#F4F4EF"/>
								<stop  offset="0.3936" style="stop-color:#D8D7D4"/>
								<stop  offset="0.7166" style="stop-color:#ABAAA8"/>
								<stop  offset="1" style="stop-color:#7D7D7D"/>
							</linearGradient>
							<path class="st34" d="M130,222.1c2.5,1.1,4.7,2.4,6.7,3.8c-5.8-7.3-13.7-16.4-21-33.1c-0.6-1.4-2.4-1.9-3.6-0.9
								c-0.3,0.3-0.6,0.5-1,0.9c-2.5,2.4-3.3,5-3.4,8.5c-0.7,13.5,0.3,25.3,1.9,34.9c0.7-1.5,1.4-3,2-4.2
								C116.7,222.7,123.3,219.2,130,222.1z"/>
						</g>
					</g>
					<path class="st35" d="M107.6,201.2c-0.7,13.5,0.3,25.3,1.9,34.9c0.7-1.5,1.4-3,2-4.2c1.6-3,3.4-5.3,5.3-7.1
						c-1-17.4-2.2-30.1-2.2-32.6c-0.8-0.7-2-0.7-2.9,0c-0.3,0.3-0.6,0.5-1,0.9C108.3,195.6,107.8,197.8,107.6,201.2z"/>
					<path class="st36" d="M120.6,265.5c-1.6-12.3-2.7-25.6-3.5-37.6c-3,3.4-5.3,8.1-6.8,12.3c2.5,12.4,5.9,20.7,7.5,23.4
						C118.5,264.3,119.5,264.9,120.6,265.5z"/>
				</g>
				<g>
					<path class="st37" d="M122.8,328.9c-0.1-0.1-0.2-0.1-0.3-0.2C122.6,328.7,122.7,328.8,122.8,328.9z"/>
					<path class="st37" d="M124.4,329.5c-0.3-0.1-0.5-0.2-0.8-0.3C123.8,329.3,124.1,329.4,124.4,329.5z"/>
					<path class="st37" d="M123.5,329.2c-0.2-0.1-0.4-0.2-0.5-0.2C123.1,329.1,123.3,329.1,123.5,329.2z"/>
					
						<linearGradient id="SVGID_35_" gradientUnits="userSpaceOnUse" x1="945.2584" y1="290.3104" x2="958.1084" y2="292.0012" gradientTransform="matrix(1 1.400000e-03 -1.400000e-03 1 -817.0881 -0.1985)">
						<stop  offset="0" style="stop-color:#FFFEF9"/>
						<stop  offset="0.144" style="stop-color:#F4F4EF"/>
						<stop  offset="0.3936" style="stop-color:#D8D7D4"/>
						<stop  offset="0.7166" style="stop-color:#ABAAA8"/>
						<stop  offset="1" style="stop-color:#7D7D7D"/>
					</linearGradient>
					<path class="st38" d="M122.6,283.9c1.5,7.5,2.4,15.2,2.7,22.8c0,0.1,0.1,0.2,0.2,0.2c4.2-0.1,9.3,2.5,15.3,7.8
						c0.1,0.1,0.3,0,0.3-0.1c0.8-4.4,1.5-9.1,2.2-13.6c2.2-14.1-6.3-27.8-20-31.6c-1.4-0.4-2.5-0.5-3.2-0.5c0.1,0,0.1,0,0.2,0
						C121,274.3,121.7,279.3,122.6,283.9z"/>
					
						<linearGradient id="SVGID_36_" gradientUnits="userSpaceOnUse" x1="943.958" y1="318.3969" x2="955.4553" y2="322.7929" gradientTransform="matrix(1 1.400000e-03 -1.400000e-03 1 -817.0881 -0.1985)">
						<stop  offset="0" style="stop-color:#FFFEF9"/>
						<stop  offset="0.144" style="stop-color:#F4F4EF"/>
						<stop  offset="0.3936" style="stop-color:#D8D7D4"/>
						<stop  offset="0.7166" style="stop-color:#ABAAA8"/>
						<stop  offset="1" style="stop-color:#7D7D7D"/>
					</linearGradient>
					<path class="st39" d="M125.4,309.1c0.2,6.8-0.1,13.6-1,20.4c4.1,1.3,12.7,2.3,12.7,2.3c1-1.5,2.2-7.2,3.6-14.3
						C133.3,310.8,128.4,309,125.4,309.1z"/>
					<path class="st36" d="M121.9,307c-0.1-2.5-0.3-5.1-0.5-7.7C121.6,302,121.7,304.6,121.9,307z"/>
					<path class="st36" d="M123.6,329.3C123.6,329.2,123.5,329.2,123.6,329.3C123.5,329.2,123.6,329.2,123.6,329.3z"/>
					<path class="st36" d="M122.1,318.8c0-1,0-2,0-3C122.1,316.8,122.1,317.8,122.1,318.8z"/>
					<path class="st36" d="M122.5,328.7c-0.1-0.1-0.2-0.2-0.2-0.3C122.3,328.5,122.4,328.6,122.5,328.7z"/>
					<path class="st36" d="M120.1,269c-0.1,0-0.2,0-0.3,0c-0.3,0.1-0.5,0.2-0.8,0.3c0.2-0.1,0.5-0.2,0.8-0.3
						C120,269,120.1,269,120.1,269z"/>
					<path class="st36" d="M123,329c-0.1,0-0.1-0.1-0.2-0.1C122.8,328.9,122.9,328.9,123,329z"/>
					<polygon class="st36" points="124.4,329.5 124.4,329.5 124.4,329.5 					"/>
					<path class="st36" d="M117.2,274.9c0-0.7,0-1.3,0.1-2C117.2,273.6,117.2,274.3,117.2,274.9z"/>
					
						<linearGradient id="SVGID_37_" gradientUnits="userSpaceOnUse" x1="921.4741" y1="263.1396" x2="977.2692" y2="341.7598" gradientTransform="matrix(1 1.400000e-03 -1.400000e-03 1 -817.0881 -0.1985)">
						<stop  offset="0" style="stop-color:#FFFEF9"/>
						<stop  offset="0.144" style="stop-color:#F4F4EF"/>
						<stop  offset="0.3936" style="stop-color:#D8D7D4"/>
						<stop  offset="0.7166" style="stop-color:#ABAAA8"/>
						<stop  offset="1" style="stop-color:#7D7D7D"/>
					</linearGradient>
					<path class="st40" d="M125.3,306.9c-0.3-7.7-1.2-15.4-2.7-23c-0.9-4.6-1.7-9.7-2.3-15c-0.1,0-0.1,0-0.2,0c-0.1,0-0.2,0-0.3,0
						c-0.3,0.1-0.5,0.2-0.8,0.3c-1.1,0.6-1.6,2.1-1.8,3.7c-0.1,0.6-0.1,1.3-0.1,2c0,0.7,0.1,1.3,0.1,1.9c0.2,1.8,0.5,3.3,0.5,3.3
						c0.4,1.2,0.7,2.4,1,3.6c0.3,1.2,0.6,2.5,0.8,3.8c0.4,1.9,0.7,3.9,1,5.9c0.3,2,0.5,4,0.7,5.9c0.2,2.6,0.4,5.2,0.5,7.7
						c0,0.2,0,0.5,0,0.7c0.3-0.1,0.5-0.3,0.8-0.4C123.5,307.1,124.4,307,125.3,306.9z"/>
					
						<linearGradient id="SVGID_38_" gradientUnits="userSpaceOnUse" x1="908.9597" y1="272.0197" x2="964.7559" y2="350.6414" gradientTransform="matrix(1 1.400000e-03 -1.400000e-03 1 -817.0881 -0.1985)">
						<stop  offset="0" style="stop-color:#FFFEF9"/>
						<stop  offset="0.144" style="stop-color:#F4F4EF"/>
						<stop  offset="0.3936" style="stop-color:#D8D7D4"/>
						<stop  offset="0.7166" style="stop-color:#ABAAA8"/>
						<stop  offset="1" style="stop-color:#7D7D7D"/>
					</linearGradient>
					<path class="st41" d="M123.4,309.5c-0.5,0.2-1,0.4-1.4,0.8c0.1,1.9,0.1,3.8,0.1,5.5c0,1.1,0,2.1,0,3c0,5.3-0.1,9,0.1,9.6
						c0,0.1,0.1,0.2,0.2,0.3c0.1,0.1,0.2,0.1,0.3,0.2c0.1,0,0.1,0.1,0.2,0.1c0.2,0.1,0.3,0.2,0.5,0.2c0,0,0.1,0,0.1,0
						c0.2,0.1,0.5,0.2,0.8,0.3c0,0,0,0,0,0c0.8-6.8,1.1-13.6,1-20.4C124.6,309.2,124,309.3,123.4,309.5z"/>
				</g>
				<g>
					<g>
						
							<linearGradient id="SVGID_39_" gradientUnits="userSpaceOnUse" x1="970.9228" y1="216.1845" x2="989.5632" y2="216.3113" gradientTransform="matrix(1 1.400000e-03 -1.400000e-03 1 -817.0881 -0.1985)">
							<stop  offset="0" style="stop-color:#FFFEF9"/>
							<stop  offset="0.144" style="stop-color:#F4F4EF"/>
							<stop  offset="0.3936" style="stop-color:#D8D7D4"/>
							<stop  offset="0.7166" style="stop-color:#ABAAA8"/>
							<stop  offset="1" style="stop-color:#7D7D7D"/>
						</linearGradient>
						<path class="st42" d="M163.7,213.6c6.7-0.6,11.8,4.4,15.4,10.4c-0.1-18.4-2.7-33.4-15-30.9c0,0-19.1,3.8-21,34.3
							c-0.3,5-0.2,9.8,0.3,14.5C146.5,231.2,153,214.9,163.7,213.6z"/>
						
							<linearGradient id="SVGID_40_" gradientUnits="userSpaceOnUse" x1="971.5063" y1="249.8077" x2="991.9219" y2="247.2716" gradientTransform="matrix(1 1.400000e-03 -1.400000e-03 1 -817.0881 -0.1985)">
							<stop  offset="0" style="stop-color:#FFFEF9"/>
							<stop  offset="0.144" style="stop-color:#F4F4EF"/>
							<stop  offset="0.3936" style="stop-color:#D8D7D4"/>
							<stop  offset="0.7166" style="stop-color:#ABAAA8"/>
							<stop  offset="1" style="stop-color:#7D7D7D"/>
						</linearGradient>
						<path class="st43" d="M163.9,215.7c-11.2,1.4-17.6,22.9-19.8,31.8c3.4,20.6,13.1,35.4,17.5,36.1c5.8,1,15.5-4.2,16.8-9.5
							c-1.5-10.5,0.4-29,0.6-45.7C175.7,221.8,170.6,215.1,163.9,215.7z"/>
					</g>
					<path class="st35" d="M157.6,196.1c-5.7,3.9-13.3,12.6-14.5,31.3c-0.3,5-0.2,9.8,0.3,14.5c1.9-6.5,5-15,9.6-21
						C153.4,212.1,154.8,203.6,157.6,196.1z"/>
					<path class="st35" d="M144.2,247.6c3.4,20.6,13.1,35.4,17.5,36.1c0,0-9.2-29.9-8.8-58.8C148.4,232.2,145.5,242.2,144.2,247.6z"
						/>
					<g>
						<g class="st30">
							
								<linearGradient id="SVGID_41_" gradientUnits="userSpaceOnUse" x1="985.9803" y1="195.2177" x2="983.6978" y2="209.2932" gradientTransform="matrix(1 1.400000e-03 -1.400000e-03 1 -817.0881 -0.1985)">
								<stop  offset="0" style="stop-color:#00E3FF"/>
								<stop  offset="0.164" style="stop-color:#00B1D7"/>
								<stop  offset="0.3815" style="stop-color:#0076A7"/>
								<stop  offset="0.5818" style="stop-color:#004782"/>
								<stop  offset="0.758" style="stop-color:#002567"/>
								<stop  offset="0.9034" style="stop-color:#001056"/>
								<stop  offset="1" style="stop-color:#000950"/>
							</linearGradient>
							<path class="st44" d="M166.7,206.8c-0.1-0.3-0.2-0.6-0.3-0.9c0,0,0-0.1,0-0.1c-0.1-0.3-0.2-0.7-0.2-1c0,0,0,0,0,0
								c-0.1-0.4-0.1-0.7-0.1-1.1c0,0,0,0,0,0c0-0.4,0-0.7,0-1.1c0,0,0-0.1,0-0.1c0-0.3,0.1-0.6,0.1-1c0-0.1,0-0.1,0-0.2
								c0-0.2,0.1-0.5,0.2-0.7c0-0.1,0.1-0.2,0.1-0.3c0.1-0.3,0.2-0.6,0.4-0.9c0.1-0.3,0.3-0.5,0.5-0.7c0,0,0.1-0.1,0.1-0.1
								c0.2-0.2,0.3-0.4,0.5-0.5c0,0,0,0,0,0c0.2-0.1,0.4-0.3,0.6-0.3c0,0,0,0,0,0c0.2-0.1,0.4-0.1,0.6-0.1l-1.6,0.1c0,0,0,0,0,0
								c-0.1,0-0.2,0-0.2,0c-0.1,0-0.2,0-0.2,0.1c0,0-0.1,0-0.1,0.1c0,0,0,0,0,0c0,0,0,0,0,0c-0.1,0-0.2,0.1-0.2,0.1
								c-0.1,0-0.2,0.1-0.2,0.1c0,0,0,0-0.1,0.1c0,0,0,0,0,0c0,0-0.1,0.1-0.1,0.1c-0.1,0.1-0.2,0.2-0.3,0.3c0,0-0.1,0.1-0.1,0.1
								c0,0-0.1,0.1-0.1,0.1c0,0.1-0.1,0.1-0.1,0.2c-0.1,0.2-0.2,0.4-0.3,0.6c-0.1,0.3-0.3,0.6-0.4,0.9c0,0.1-0.1,0.2-0.1,0.3
								c0,0.2-0.1,0.3-0.1,0.5c0,0.1,0,0.2,0,0.2c0,0.1,0,0.1,0,0.2c0,0.1,0,0.2,0,0.2c0,0.2,0,0.4-0.1,0.5c0,0.1,0,0.1,0,0.2
								c0,0,0,0.1,0,0.1c0,0.1,0,0.1,0,0.2c0,0.1,0,0.3,0,0.4c0,0.1,0,0.3,0,0.4c0,0,0,0,0,0c0,0,0,0,0,0c0,0.1,0,0.2,0,0.3
								c0,0.1,0,0.3,0,0.4c0,0.1,0,0.2,0.1,0.4c0,0,0,0,0,0c0,0,0,0,0,0c0,0.1,0,0.3,0.1,0.4c0,0.1,0.1,0.3,0.1,0.4
								c0,0.1,0,0.1,0.1,0.2c0,0,0,0.1,0,0.1c0,0,0,0.1,0,0.1c0.1,0.2,0.1,0.3,0.2,0.5c0,0.1,0.1,0.2,0.1,0.3c0,0,0,0.1,0.1,0.1
								c0,0,0,0.1,0.1,0.1c0.1,0.3,0.3,0.5,0.4,0.7c0.7,1.1,1.6,1.6,2.5,1.6l1.6-0.1c-0.9,0-1.8-0.5-2.5-1.6
								c-0.2-0.3-0.3-0.6-0.5-0.9C166.7,206.9,166.7,206.8,166.7,206.8z"/>
							<g>
								
									<linearGradient id="SVGID_42_" gradientUnits="userSpaceOnUse" x1="985.7374" y1="199.5425" x2="997.15" y2="228.4545" gradientTransform="matrix(1 1.400000e-03 -1.400000e-03 1 -817.0881 -0.1985)">
									<stop  offset="0" style="stop-color:#00E3FF"/>
									<stop  offset="0.164" style="stop-color:#00B1D7"/>
									<stop  offset="0.3815" style="stop-color:#0076A7"/>
									<stop  offset="0.5818" style="stop-color:#004782"/>
									<stop  offset="0.758" style="stop-color:#002567"/>
									<stop  offset="0.9034" style="stop-color:#001056"/>
									<stop  offset="1" style="stop-color:#000950"/>
								</linearGradient>
								<path class="st45" d="M166.8,199.4c1.2-2.4,3.4-2.5,4.9-0.3c1.5,2.2,1.6,6,0.4,8.4c-1.2,2.4-3.4,2.5-4.9,0.3
									C165.8,205.5,165.6,201.8,166.8,199.4z"/>
							</g>
						</g>
					</g>
				</g>
				<g>
					
						<linearGradient id="SVGID_43_" gradientUnits="userSpaceOnUse" x1="977.2509" y1="367.6895" x2="987.7756" y2="376.439" gradientTransform="matrix(1 1.400000e-03 -1.400000e-03 1 -817.0881 -0.1985)">
						<stop  offset="0" style="stop-color:#FFFEF9"/>
						<stop  offset="0.144" style="stop-color:#F4F4EF"/>
						<stop  offset="0.3936" style="stop-color:#D8D7D4"/>
						<stop  offset="0.7166" style="stop-color:#ABAAA8"/>
						<stop  offset="1" style="stop-color:#7D7D7D"/>
					</linearGradient>
					<path class="st46" d="M180.8,367.8c-0.6-2.5-3.6-3.1-5.8-3.4c-1.7-0.3-3.4-0.4-5-1c-1.7-0.6-3-1.8-4.7-2.4
						c-2.9-1-4.8,3.6-5.9,5.5c-1.8,3-4.1,5.8-6.8,8.1c-1.8,1.5-4.1,3.7-2.1,6.1c3.2,3.6,9.6,4.1,14,3.1c5.3-1.2,10.1-4.2,13.5-8.5
						c1.1-1.4,2-2.8,2.7-4.5C180.9,369.5,181,368.6,180.8,367.8z"/>
					
						<linearGradient id="SVGID_44_" gradientUnits="userSpaceOnUse" x1="964.9426" y1="378.4582" x2="973.3117" y2="385.5593" gradientTransform="matrix(1 1.400000e-03 -1.400000e-03 1 -817.0881 -0.1985)">
						<stop  offset="0" style="stop-color:#FFFEF9"/>
						<stop  offset="0.144" style="stop-color:#F4F4EF"/>
						<stop  offset="0.3936" style="stop-color:#D8D7D4"/>
						<stop  offset="0.7166" style="stop-color:#ABAAA8"/>
						<stop  offset="1" style="stop-color:#7D7D7D"/>
					</linearGradient>
					<path class="st47" d="M148.7,381.9c-0.9-1.1-1.3-2.3-1.3-3.5c-4.1,3.5-9.2,9.9,3.3,11c4.8,0.5,11.7-1.8,15.7-4.4
						C159.2,386.9,151.5,385.1,148.7,381.9z"/>
					<g>
						<g class="st30">
							
								<linearGradient id="SVGID_45_" gradientUnits="userSpaceOnUse" x1="994.9606" y1="363.4667" x2="992.2236" y2="375.8149" gradientTransform="matrix(1 1.400000e-03 -1.400000e-03 1 -817.0881 -0.1985)">
								<stop  offset="0" style="stop-color:#00E3FF"/>
								<stop  offset="0.164" style="stop-color:#00B1D7"/>
								<stop  offset="0.3815" style="stop-color:#0076A7"/>
								<stop  offset="0.5818" style="stop-color:#004782"/>
								<stop  offset="0.758" style="stop-color:#002567"/>
								<stop  offset="0.9034" style="stop-color:#001056"/>
								<stop  offset="1" style="stop-color:#000950"/>
							</linearGradient>
							<path class="st48" d="M175,371c0-0.2,0-0.4,0.1-0.5c0,0,0,0,0-0.1c0-0.2,0.1-0.4,0.2-0.6c0,0,0,0,0,0
								c0.1-0.2,0.1-0.4,0.2-0.6c0,0,0,0,0,0c0.1-0.2,0.2-0.4,0.3-0.5c0,0,0,0,0,0c0.1-0.2,0.2-0.3,0.3-0.5c0,0,0-0.1,0.1-0.1
								c0.1-0.1,0.2-0.2,0.3-0.3c0,0,0.1-0.1,0.1-0.1c0.1-0.1,0.3-0.3,0.4-0.4c0.1-0.1,0.3-0.2,0.4-0.2c0,0,0.1,0,0.1,0
								c0.1-0.1,0.3-0.1,0.4-0.1c0,0,0,0,0,0c0.1,0,0.3,0,0.4,0c0,0,0,0,0,0c0.1,0,0.2,0,0.4,0.1l-0.8-0.4c0,0,0,0,0,0
								c0,0-0.1,0-0.1,0c0,0-0.1,0-0.1,0c0,0-0.1,0-0.1,0c0,0,0,0,0,0c0,0,0,0,0,0c0,0-0.1,0-0.1,0c-0.1,0-0.1,0-0.2,0
								c0,0,0,0-0.1,0c0,0,0,0,0,0c0,0-0.1,0-0.1,0c-0.1,0-0.1,0-0.2,0.1c0,0-0.1,0-0.1,0c0,0-0.1,0-0.1,0c0,0-0.1,0-0.1,0
								c-0.1,0.1-0.2,0.1-0.3,0.2c-0.1,0.1-0.3,0.2-0.4,0.4c0,0-0.1,0.1-0.1,0.1c-0.1,0.1-0.1,0.1-0.2,0.2c0,0-0.1,0.1-0.1,0.1
								c0,0,0,0.1-0.1,0.1c0,0-0.1,0.1-0.1,0.1c-0.1,0.1-0.1,0.2-0.2,0.3c0,0,0,0.1-0.1,0.1c0,0,0,0,0,0c0,0,0,0.1-0.1,0.1
								c0,0.1-0.1,0.1-0.1,0.2c0,0.1-0.1,0.1-0.1,0.2c0,0,0,0,0,0c0,0,0,0,0,0c0,0.1-0.1,0.1-0.1,0.2c0,0.1-0.1,0.1-0.1,0.2
								c0,0.1,0,0.1-0.1,0.2c0,0,0,0,0,0c0,0,0,0,0,0c0,0.1,0,0.1-0.1,0.2c0,0.1,0,0.2-0.1,0.2c0,0,0,0.1,0,0.1c0,0,0,0,0,0.1
								c0,0,0,0.1,0,0.1c0,0.1,0,0.2,0,0.3c0,0.1,0,0.1,0,0.2c0,0,0,0.1,0,0.1c0,0,0,0.1,0,0.1c0,0.2,0,0.3,0,0.5
								c0.1,0.8,0.4,1.3,0.9,1.5l0.8,0.4c-0.5-0.2-0.8-0.7-0.9-1.5C175,371.4,175,371.3,175,371C175,371,175,371,175,371z"/>
							<g>
								
									<linearGradient id="SVGID_46_" gradientUnits="userSpaceOnUse" x1="906.8557" y1="557.4614" x2="905.6463" y2="574.3608" gradientTransform="matrix(0.9621 -0.2728 0.2728 0.9621 -847.9448 77.677)">
									<stop  offset="0" style="stop-color:#00E3FF"/>
									<stop  offset="0.164" style="stop-color:#00B1D7"/>
									<stop  offset="0.3815" style="stop-color:#0076A7"/>
									<stop  offset="0.5818" style="stop-color:#004782"/>
									<stop  offset="0.758" style="stop-color:#002567"/>
									<stop  offset="0.9034" style="stop-color:#001056"/>
									<stop  offset="1" style="stop-color:#000950"/>
								</linearGradient>
								<path class="st49" d="M177,367.2c1.3-0.9,2.4-0.4,2.6,1.2c0.1,1.5-0.8,3.5-2,4.4c-1.3,0.9-2.4,0.4-2.6-1.1
									C174.9,370.1,175.8,368.1,177,367.2z"/>
							</g>
						</g>
					</g>
				</g>
				<g>
					
						<linearGradient id="SVGID_47_" gradientUnits="userSpaceOnUse" x1="934.072" y1="339.6993" x2="944.3855" y2="353.0562" gradientTransform="matrix(1 1.400000e-03 -1.400000e-03 1 -817.0881 -0.1985)">
						<stop  offset="0" style="stop-color:#FFFEF9"/>
						<stop  offset="0.144" style="stop-color:#F4F4EF"/>
						<stop  offset="0.3936" style="stop-color:#D8D7D4"/>
						<stop  offset="0.7166" style="stop-color:#ABAAA8"/>
						<stop  offset="1" style="stop-color:#7D7D7D"/>
					</linearGradient>
					<path class="st50" d="M133.9,337.6c-3.4-0.6-6.6-1.6-10-2.6c-2.2-0.7-3.4,0.7-4.7,2.2c-2.6,3-5.3,5.9-8.3,8.5
						c-1.6,1.4-3.4,2.8-5.2,4c-1.2,0.8-3.5,2.2-1.9,3.8c3.8,4,11.2,3.2,16.1,2.5c3.8-0.6,7.5-1.7,11-3.4c3.3-1.6,7.2-3.5,8.4-7.2
						c1-3.1-0.4-7-3.9-7.6C134.7,337.7,134.3,337.6,133.9,337.6z"/>
					
						<linearGradient id="SVGID_48_" gradientUnits="userSpaceOnUse" x1="917.9266" y1="350.386" x2="929.4235" y2="360.023" gradientTransform="matrix(1 1.400000e-03 -1.400000e-03 1 -817.0881 -0.1985)">
						<stop  offset="0" style="stop-color:#FFFEF9"/>
						<stop  offset="0.144" style="stop-color:#F4F4EF"/>
						<stop  offset="0.3936" style="stop-color:#D8D7D4"/>
						<stop  offset="0.7166" style="stop-color:#ABAAA8"/>
						<stop  offset="1" style="stop-color:#7D7D7D"/>
					</linearGradient>
					<path class="st51" d="M102.1,355c-0.8-0.8-1-1.9-1-2.9c-2.2,1.2-5.9,3.5-4.2,5.8c3.2,4.4,17.2,5.2,22.7,0.6
						c0.1-0.1,0.1-0.1,0.2-0.2C112.7,359.6,104,357,102.1,355z"/>
					<g>
						<g class="st30">
							
								<linearGradient id="SVGID_49_" gradientUnits="userSpaceOnUse" x1="952.4834" y1="337.5248" x2="948.1234" y2="347.3588" gradientTransform="matrix(1 1.400000e-03 -1.400000e-03 1 -817.0881 -0.1985)">
								<stop  offset="0" style="stop-color:#00E3FF"/>
								<stop  offset="0.164" style="stop-color:#00B1D7"/>
								<stop  offset="0.3815" style="stop-color:#0076A7"/>
								<stop  offset="0.5818" style="stop-color:#004782"/>
								<stop  offset="0.758" style="stop-color:#002567"/>
								<stop  offset="0.9034" style="stop-color:#001056"/>
								<stop  offset="1" style="stop-color:#000950"/>
							</linearGradient>
							<path class="st52" d="M132.1,344.1c0-0.2,0.1-0.4,0.1-0.5c0,0,0,0,0,0c0-0.2,0.1-0.4,0.2-0.6c0,0,0,0,0,0
								c0.1-0.2,0.2-0.4,0.3-0.6c0,0,0,0,0,0c0.1-0.2,0.2-0.4,0.3-0.5c0,0,0,0,0,0c0.1-0.2,0.2-0.3,0.3-0.4c0,0,0.1-0.1,0.1-0.1
								c0.1-0.1,0.2-0.2,0.3-0.3c0,0,0.1-0.1,0.1-0.1c0.1-0.1,0.3-0.2,0.4-0.3c0.1-0.1,0.3-0.2,0.4-0.2c0,0,0.1,0,0.1,0
								c0.1-0.1,0.3-0.1,0.4-0.1c0,0,0,0,0,0c0.1,0,0.3,0,0.4,0c0,0,0,0,0,0c0.1,0,0.2,0.1,0.4,0.1l-0.8-0.4c0,0,0,0,0,0
								c0,0-0.1,0-0.1-0.1c0,0-0.1,0-0.1,0c0,0-0.1,0-0.1,0c0,0,0,0,0,0c0,0,0,0,0,0c0,0-0.1,0-0.1,0c-0.1,0-0.1,0-0.2,0
								c0,0,0,0-0.1,0c0,0,0,0,0,0c0,0-0.1,0-0.1,0c-0.1,0-0.1,0-0.2,0.1c0,0-0.1,0-0.1,0c0,0-0.1,0-0.1,0c0,0-0.1,0-0.1,0
								c-0.1,0.1-0.2,0.1-0.3,0.2c-0.2,0.1-0.3,0.2-0.4,0.3c0,0-0.1,0.1-0.1,0.1c-0.1,0.1-0.1,0.1-0.2,0.2c0,0-0.1,0.1-0.1,0.1
								c0,0-0.1,0.1-0.1,0.1c0,0-0.1,0.1-0.1,0.1c-0.1,0.1-0.1,0.2-0.2,0.2c0,0,0,0.1-0.1,0.1c0,0,0,0,0,0c0,0,0,0.1-0.1,0.1
								c0,0.1-0.1,0.1-0.1,0.2c0,0.1-0.1,0.1-0.1,0.2c0,0,0,0,0,0c0,0,0,0,0,0c0,0.1-0.1,0.1-0.1,0.2c0,0.1-0.1,0.1-0.1,0.2
								c0,0.1-0.1,0.1-0.1,0.2c0,0,0,0,0,0c0,0,0,0,0,0c0,0.1-0.1,0.1-0.1,0.2c0,0.1,0,0.2-0.1,0.2c0,0,0,0.1,0,0.1c0,0,0,0,0,0.1
								c0,0,0,0.1,0,0.1c0,0.1,0,0.2-0.1,0.3c0,0.1,0,0.1,0,0.2c0,0,0,0.1,0,0.1c0,0,0,0.1,0,0.1c0,0.2,0,0.3,0,0.5
								c0,0.8,0.3,1.3,0.8,1.5l0.8,0.4c-0.4-0.2-0.7-0.8-0.8-1.5C132,344.5,132,344.3,132.1,344.1
								C132.1,344.1,132.1,344.1,132.1,344.1z"/>
							<g>
								
									<linearGradient id="SVGID_50_" gradientUnits="userSpaceOnUse" x1="892.8185" y1="486.275" x2="891.8638" y2="501.6154" gradientTransform="matrix(0.9765 -0.2153 0.2153 0.9765 -842.6212 57.4208)">
									<stop  offset="0" style="stop-color:#00E3FF"/>
									<stop  offset="0.164" style="stop-color:#00B1D7"/>
									<stop  offset="0.3815" style="stop-color:#0076A7"/>
									<stop  offset="0.5818" style="stop-color:#004782"/>
									<stop  offset="0.758" style="stop-color:#002567"/>
									<stop  offset="0.9034" style="stop-color:#001056"/>
									<stop  offset="1" style="stop-color:#000950"/>
								</linearGradient>
								<path class="st53" d="M134.2,340.4c1.3-0.8,2.4-0.3,2.5,1.3c0.1,1.5-0.9,3.5-2.2,4.3c-1.3,0.8-2.4,0.3-2.5-1.2
									C132,343.2,132.9,341.2,134.2,340.4z"/>
							</g>
						</g>
					</g>
				</g>
				
					<linearGradient id="SVGID_51_" gradientUnits="userSpaceOnUse" x1="938.1512" y1="209.4921" x2="964.527" y2="207.8436" gradientTransform="matrix(1 1.400000e-03 -1.400000e-03 1 -817.0881 -0.1985)">
					<stop  offset="0" style="stop-color:#FAFBFD"/>
					<stop  offset="1" style="stop-color:#F0F6FA"/>
				</linearGradient>
				<path class="st54" d="M160.9,191.9c0,0-20.7,6.8-19.5,37.1c0,1.4-23.9-12.7-27.4-37.6C114,191.3,124.3,200.3,160.9,191.9z"/>
				<g>
					<g>
						<g>
							
								<linearGradient id="SVGID_52_" gradientUnits="userSpaceOnUse" x1="984.688" y1="342.6677" x2="995.3397" y2="345.8378" gradientTransform="matrix(1 1.400000e-03 -1.400000e-03 1 -817.0881 -0.1985)">
								<stop  offset="0" style="stop-color:#FFFEF9"/>
								<stop  offset="0.144" style="stop-color:#F4F4EF"/>
								<stop  offset="0.3936" style="stop-color:#D8D7D4"/>
								<stop  offset="0.7166" style="stop-color:#ABAAA8"/>
								<stop  offset="1" style="stop-color:#7D7D7D"/>
							</linearGradient>
							<path class="st55" d="M166.8,333.6c-1.2,0.4-2.1,1.2-2.8,2.2c0,7.8-0.8,16.1-0.1,17.7c0.8,2,14.7,3.7,14.9,2.6
								c0.5-3.1,1.7-8.4,3.3-14.3C174,333.6,169.3,332.8,166.8,333.6z"/>
							
								<linearGradient id="SVGID_53_" gradientUnits="userSpaceOnUse" x1="981.5005" y1="311.3111" x2="1000.5218" y2="311.0575" gradientTransform="matrix(1 1.400000e-03 -1.400000e-03 1 -817.0881 -0.1985)">
								<stop  offset="0" style="stop-color:#FFFEF9"/>
								<stop  offset="0.144" style="stop-color:#F4F4EF"/>
								<stop  offset="0.3936" style="stop-color:#D8D7D4"/>
								<stop  offset="0.7166" style="stop-color:#ABAAA8"/>
								<stop  offset="1" style="stop-color:#7D7D7D"/>
							</linearGradient>
							<path class="st56" d="M166.1,331.5c4.3-1.4,9.8,1.2,16.6,7.8c0.4-1.6,0.8-3.1,1.3-4.7c1.8-6.5,2.6-13.3,2.2-20.1
								c-0.7-10.5-3.7-14.6-6.4-19c-3.9-6.3-9.8-11.4-16.8-9.9c-1.3,0.3-2.5,0.9-3.3,1.8c-1.8,1.8-4.2,5.4-2.5,10.9
								c2,5.2,6.6,18.5,6.7,31.3c0.1,1,0.1,2,0.1,3C164.6,332.2,165.3,331.8,166.1,331.5z"/>
						</g>
						<g>
							<g class="st30">
								
									<linearGradient id="SVGID_54_" gradientUnits="userSpaceOnUse" x1="991.2166" y1="291.0382" x2="992.6115" y2="310.1858" gradientTransform="matrix(1 1.400000e-03 -1.400000e-03 1 -817.0881 -0.1985)">
									<stop  offset="0" style="stop-color:#00E3FF"/>
									<stop  offset="0.164" style="stop-color:#00B1D7"/>
									<stop  offset="0.3815" style="stop-color:#0076A7"/>
									<stop  offset="0.5818" style="stop-color:#004782"/>
									<stop  offset="0.758" style="stop-color:#002567"/>
									<stop  offset="0.9034" style="stop-color:#001056"/>
									<stop  offset="1" style="stop-color:#000950"/>
								</linearGradient>
								<path class="st57" d="M174.5,303.6c-0.2-0.2-0.4-0.5-0.6-0.7c0,0,0,0-0.1-0.1c-0.2-0.3-0.4-0.6-0.6-0.9c0,0,0,0,0,0
									c-0.2-0.3-0.3-0.7-0.5-1c0,0,0,0,0,0c-0.1-0.3-0.3-0.7-0.4-1c0,0,0-0.1,0-0.1c-0.1-0.3-0.2-0.6-0.2-0.9c0-0.1,0-0.1,0-0.2
									c0-0.2-0.1-0.5-0.1-0.7c0-0.1,0-0.2,0-0.3c0-0.3,0-0.7,0-1c0-0.3,0.1-0.6,0.2-0.8c0-0.1,0-0.1,0-0.1
									c0.1-0.2,0.2-0.5,0.3-0.6c0,0,0,0,0-0.1c0.1-0.2,0.3-0.4,0.4-0.5c0,0,0,0,0,0c0.2-0.1,0.4-0.3,0.6-0.3l-1.5,0.6c0,0,0,0,0,0
									c-0.1,0-0.1,0.1-0.2,0.1c-0.1,0-0.1,0.1-0.2,0.1c0,0-0.1,0.1-0.1,0.1c0,0,0,0,0,0c0,0,0,0,0,0c-0.1,0.1-0.1,0.1-0.2,0.2
									c-0.1,0.1-0.1,0.1-0.2,0.2c0,0,0,0.1-0.1,0.1c0,0,0,0,0,0.1c0,0-0.1,0.1-0.1,0.1c-0.1,0.1-0.1,0.2-0.2,0.3
									c0,0.1,0,0.1-0.1,0.2c0,0,0,0.1,0,0.1c0,0.1,0,0.1-0.1,0.2c-0.1,0.2-0.1,0.4-0.1,0.6c0,0.3-0.1,0.6,0,1c0,0.1,0,0.2,0,0.3
									c0,0.2,0,0.3,0,0.5c0,0.1,0,0.2,0,0.2c0,0.1,0,0.1,0,0.2c0,0.1,0,0.2,0,0.2c0,0.2,0.1,0.3,0.1,0.5c0,0.1,0,0.1,0.1,0.2
									c0,0,0,0.1,0,0.1c0,0.1,0,0.1,0.1,0.2c0,0.1,0.1,0.3,0.1,0.4c0,0.1,0.1,0.3,0.1,0.4c0,0,0,0,0,0c0,0,0,0,0,0
									c0,0.1,0.1,0.2,0.1,0.3c0.1,0.1,0.1,0.2,0.2,0.4c0.1,0.1,0.1,0.2,0.2,0.3c0,0,0,0,0,0c0,0,0,0,0,0c0.1,0.1,0.1,0.2,0.2,0.4
									c0.1,0.1,0.2,0.2,0.2,0.4c0,0.1,0.1,0.1,0.1,0.2c0,0,0,0,0.1,0.1c0,0,0.1,0.1,0.1,0.1c0.1,0.1,0.2,0.3,0.3,0.4
									c0.1,0.1,0.1,0.1,0.2,0.2c0,0,0.1,0.1,0.1,0.1c0,0,0.1,0.1,0.1,0.1c0.2,0.2,0.4,0.4,0.6,0.6c1.1,0.8,2.1,1,2.9,0.7l1.5-0.6
									c-0.8,0.3-1.8,0.1-2.9-0.7c-0.3-0.2-0.5-0.4-0.7-0.7C174.5,303.6,174.5,303.6,174.5,303.6z"/>
								<g>
									
										<linearGradient id="SVGID_55_" gradientUnits="userSpaceOnUse" x1="990.3792" y1="294.0398" x2="1008.1323" y2="318.6404" gradientTransform="matrix(1 1.400000e-03 -1.400000e-03 1 -817.0881 -0.1985)">
										<stop  offset="0" style="stop-color:#00E3FF"/>
										<stop  offset="0.164" style="stop-color:#00B1D7"/>
										<stop  offset="0.3815" style="stop-color:#0076A7"/>
										<stop  offset="0.5818" style="stop-color:#004782"/>
										<stop  offset="0.758" style="stop-color:#002567"/>
										<stop  offset="0.9034" style="stop-color:#001056"/>
										<stop  offset="1" style="stop-color:#000950"/>
									</linearGradient>
									<path class="st58" d="M172.1,296.5c0.4-2.7,2.4-3.5,4.5-1.9c2.1,1.6,3.6,5.1,3.2,7.8c-0.4,2.7-2.4,3.5-4.5,1.9
										C173.2,302.7,171.7,299.2,172.1,296.5z"/>
								</g>
							</g>
						</g>
					</g>
					<path class="st35" d="M165.9,354.7c1.3-6.7,1.7-14.1,1.5-21.2c-0.2,0-0.4,0.1-0.6,0.2c-1.2,0.4-2.1,1.2-2.8,2.2
						c0,7.8-0.8,16.1-0.1,17.7C164,353.9,164.8,354.3,165.9,354.7z"/>
					<path class="st35" d="M162.9,303.3c-1.8-3.5-3.3-10.2-4.1-14.9c-1.6,2-3.2,5.3-1.8,10c2,5.2,6.6,18.5,6.7,31.3
						c0.1,1,0.1,2,0.1,3c0.6-0.5,1.3-0.9,2.1-1.2c0.4-0.1,0.8-0.2,1.2-0.3C166.9,318.3,164.7,306.7,162.9,303.3z"/>
				</g>
				<g>
					<g class="st30">
						<path class="st37" d="M128.1,192c0,0,0-0.1,0-0.1c0,0,0,0,0,0c0,0,0,0,0,0c0-0.1,0-0.2,0-0.2c0-0.1,0-0.1,0-0.2
							c0,0,0-0.1,0-0.1c0,0,0-0.1,0-0.1c0,0,0-0.1,0-0.1c0,0,0-0.1,0-0.1c0,0,0,0,0,0c0,0,0,0,0,0c0,0,0,0,0-0.1c0,0,0-0.1,0-0.1
							c0,0,0-0.1,0-0.1c0,0,0-0.1,0-0.1c0,0,0,0,0,0c0,0,0,0,0,0c0,0,0,0,0,0c0,0,0-0.1,0-0.1c0,0,0-0.1,0-0.1c0,0,0-0.1,0-0.1
							c0,0,0,0,0-0.1c0,0,0,0,0,0c0,0,0,0,0-0.1c0,0,0,0,0-0.1c0,0,0,0,0,0c0,0,0,0,0,0c0,0,0,0,0,0c0,0,0,0,0-0.1c0,0,0,0-0.1-0.1
							c0,0,0,0,0,0c0,0,0,0,0,0c0,0,0,0,0,0c0,0,0,0-0.1-0.1c0,0,0,0,0,0c0,0,0,0,0,0c0,0,0,0,0,0c0,0,0,0-0.1,0c0,0,0,0,0,0
							c0,0,0,0,0,0c0,0,0,0,0,0c0,0,0,0-0.1,0c0,0,0,0,0,0c0,0,0,0,0,0c0,0,0,0,0,0c0,0-0.1,0-0.1,0c0,0,0,0,0,0c0,0,0,0,0,0
							c0,0-0.1,0-0.1,0c0,0,0,0,0,0c0,0-0.1,0-0.1,0l-0.3,0c0,0,0.1,0,0.1,0c0,0,0.1,0,0.1,0c0,0,0,0,0,0c0,0,0.1,0,0.1,0
							c0,0,0,0,0,0c0,0,0.1,0,0.1,0.1c0,0,0,0,0,0c0,0,0.1,0.1,0.1,0.1c0,0,0,0,0,0c0,0,0.1,0.1,0.1,0.1c0,0,0,0,0,0
							c0,0,0.1,0.1,0.1,0.1c0,0,0,0,0,0c0,0,0.1,0.1,0.1,0.2c0.1,0.1,0.1,0.2,0.2,0.4c0,0,0,0,0,0c0.1,0.1,0.1,0.3,0.1,0.4
							c0,0,0,0,0,0c0.1,0.3,0.1,0.6,0.1,0.9c0,0,0,0,0,0c0,0.2,0,0.3,0,0.5c0,0,0,0,0,0c0,0.2,0,0.3-0.1,0.4c0,0,0,0,0,0
							c0,0.1-0.1,0.3-0.1,0.4c0,0,0,0,0,0c0,0.1-0.1,0.3-0.2,0.4c0,0.1-0.1,0.1-0.1,0.2c0,0,0,0,0,0c0,0-0.1,0.1-0.1,0.1
							c0,0,0,0,0,0c0,0-0.1,0.1-0.1,0.1c0,0,0,0,0,0c0,0-0.1,0.1-0.1,0.1c0,0,0,0,0,0c0,0-0.1,0.1-0.1,0.1c-0.1,0-0.1,0.1-0.2,0.1
							c0,0,0,0,0,0c-0.1,0-0.1,0-0.2,0l0.3,0c0.1,0,0.1,0,0.2,0c0,0,0,0,0,0c0.1,0,0.1,0,0.2-0.1c0,0,0,0,0,0c0,0,0.1,0,0.1-0.1
							c0,0,0,0,0,0c0,0,0,0,0,0c0,0,0,0,0.1-0.1c0,0,0,0,0,0c0,0,0,0,0,0c0,0,0,0,0,0c0,0,0,0,0.1-0.1c0,0,0,0,0,0c0,0,0,0,0,0
							c0,0,0,0,0,0c0,0,0,0,0-0.1c0,0,0,0,0,0c0,0,0,0,0,0c0,0,0,0,0,0c0,0,0,0,0-0.1c0,0,0,0,0-0.1c0,0,0,0,0,0c0,0,0,0,0-0.1
							c0,0,0-0.1,0-0.1c0,0,0-0.1,0-0.1c0,0,0-0.1,0-0.1c0,0,0-0.1,0-0.1c0,0,0,0,0,0c0,0,0,0,0,0c0,0,0-0.1,0-0.1c0,0,0-0.1,0-0.1
							c0,0,0-0.1,0-0.1c0,0,0-0.1,0-0.1c0,0,0,0,0-0.1c0,0,0,0,0,0c0,0,0,0,0,0c0,0,0-0.1,0-0.1c0,0,0-0.1,0-0.1c0,0,0-0.1,0-0.1
							c0,0,0-0.1,0-0.1c0,0,0,0,0-0.1c0,0,0,0,0,0c0,0,0,0,0,0c0,0,0-0.1,0-0.1c0,0,0-0.1,0-0.1C128.1,192.1,128.1,192,128.1,192z"
							/>
						<g>
							<path class="st59" d="M127.3,190.2c0.6,0.9,0.7,2.5,0.2,3.5c-0.5,1-1.4,1-2,0.1c-0.6-0.9-0.7-2.5-0.2-3.5
								C125.8,189.3,126.7,189.2,127.3,190.2z"/>
						</g>
					</g>
				</g>
				<g>
					
						<linearGradient id="SVGID_56_" gradientUnits="userSpaceOnUse" x1="933.9761" y1="64.1512" x2="969.727" y2="64.1512" gradientTransform="matrix(1 1.400000e-03 -1.400000e-03 1 -817.0881 -0.1985)">
						<stop  offset="0" style="stop-color:#FAFBFD"/>
						<stop  offset="1" style="stop-color:#F0F6FA"/>
					</linearGradient>
					<path class="st60" d="M122.5,43.1c0,0-6.9,6.7-5.6,15c1.8,5,0.6,6.3,0.4,7.5c-0.2,1.1-2,6.6,2.3,11.9c2.6,4.1,1,7,2.6,9.6
						c1.6,2.6,4.8,3.6,9.3,2.4c6.7-1.7,13.1-5.6,15-11.3c2.1-6.2-0.6-13.4,3.8-16.4c3.3-2.3,2.4-5.9-0.1-9
						C147.8,49.7,130.8,34.9,122.5,43.1z"/>
					
						<radialGradient id="SVGID_57_" cx="926.7966" cy="66.7992" r="32.2111" gradientTransform="matrix(1 1.400000e-03 -1.400000e-03 1 -817.0881 -0.1985)" gradientUnits="userSpaceOnUse">
						<stop  offset="0" style="stop-color:#FFFEF9"/>
						<stop  offset="0.5912" style="stop-color:#CFCFCD"/>
						<stop  offset="1" style="stop-color:#B3B3B3"/>
					</radialGradient>
					<path class="st61" d="M122,58.9c-1.1-2.1-3.4-2.8-5.2-3c0,0.7,0,1.4,0.1,2.2c1.8,5,0.6,6.3,0.4,7.5c-0.2,1.1-2,6.6,2.3,11.9
						c2.4,3.9,1.2,6.7,2.4,9.1c-0.7-2.2,0.1-4.8,0.3-6.1c0.2-1.5-0.2-4.6-1.6-5.3c-1.4-0.8-1.3-1.9-1.2-3.2
						C119.6,70.6,124,62.7,122,58.9z"/>
				</g>
				<g>
					
						<linearGradient id="SVGID_58_" gradientUnits="userSpaceOnUse" x1="927.7885" y1="170.7114" x2="974.31" y2="170.7114" gradientTransform="matrix(1 1.400000e-03 -1.400000e-03 1 -817.0881 -0.1985)">
						<stop  offset="0" style="stop-color:#FAFBFD"/>
						<stop  offset="1" style="stop-color:#F0F6FA"/>
					</linearGradient>
					<path class="st62" d="M147.6,173.7c-4.4-2-8.6-4.2-12.9-6.3c-2.1-1.1-4.3-2.1-6.5-2.9c-1.1-0.4-2.2-0.8-3.3-1.1
						c-0.3-0.1-0.5-0.1-0.8-0.1l-0.9-0.1c-0.6-0.1-1.2-0.1-1.7-0.1c-2.3,0-4.7,0.3-7,0.8c-1.4,0.3-2.7,0.7-4,1.2
						c0.3,1.1,0.6,2.2,0.8,3.2c3.2-1.5,6.6-2.4,10.1-2.6c0.6,0,1.2-0.1,1.9,0l0.9,0c0.3,0,0.7,0.1,1,0.1c1.3,0.2,2.4,0.6,3.6,1
						c2.3,0.8,4.5,1.9,6.7,2.9c4.3,2.1,8.5,4.4,12.8,6.7c2.1,1.1,4.2,2.2,6.4,3.3c0.6,0.3,1.1,0.5,1.7,0.8c0.2-1,0.4-2.1,0.7-3.2
						c-0.9-0.3-1.8-0.5-2.7-0.8C152,175.7,149.8,174.7,147.6,173.7z"/>
					
						<linearGradient id="SVGID_59_" gradientUnits="userSpaceOnUse" x1="928.7532" y1="174.639" x2="973.512" y2="174.639" gradientTransform="matrix(1 1.400000e-03 -1.400000e-03 1 -817.0881 -0.1985)">
						<stop  offset="0" style="stop-color:#FAFBFD"/>
						<stop  offset="1" style="stop-color:#F0F6FA"/>
					</linearGradient>
					<path class="st63" d="M147.6,177.8c-4.4-2-8.6-4.2-12.9-6.3c-2.1-1.1-4.3-2.1-6.5-2.9c-1.1-0.4-2.2-0.8-3.3-1.1
						c-0.3-0.1-0.5-0.1-0.8-0.1l-0.9-0.1c-0.6-0.1-1.2-0.1-1.7-0.1c-2.3,0-4.7,0.3-7,0.8c-1,0.2-2,0.5-3.1,0.8
						c0.3,1.1,0.6,2.1,0.8,3.1c2.9-1.2,6-2,9.2-2.1c0.6,0,1.2-0.1,1.9,0l0.9,0c0.3,0,0.7,0.1,1,0.1c1.3,0.2,2.4,0.6,3.6,1
						c2.3,0.8,4.5,1.9,6.7,2.9c4.3,2.1,8.5,4.4,12.8,6.7c2.1,1.1,4.2,2.2,6.4,3.3c0.4,0.2,0.7,0.3,1.1,0.5c0.1-1,0.3-2,0.5-3.1
						c-0.6-0.2-1.3-0.4-1.9-0.6C152,179.8,149.8,178.8,147.6,177.8z"/>
					
						<linearGradient id="SVGID_60_" gradientUnits="userSpaceOnUse" x1="929.7618" y1="178.6826" x2="972.7363" y2="178.6826" gradientTransform="matrix(1 1.400000e-03 -1.400000e-03 1 -817.0881 -0.1985)">
						<stop  offset="0" style="stop-color:#FAFBFD"/>
						<stop  offset="1" style="stop-color:#F0F6FA"/>
					</linearGradient>
					<path class="st64" d="M147.6,181.9c-4.4-2-8.6-4.2-12.9-6.3c-2.1-1.1-4.3-2.1-6.5-2.9c-1.1-0.4-2.2-0.8-3.3-1.1
						c-0.3-0.1-0.5-0.1-0.8-0.1l-0.9-0.1c-0.6-0.1-1.2-0.1-1.7-0.1c-2.3,0-4.7,0.3-7,0.8c-0.7,0.1-1.4,0.3-2,0.5
						c1.8,6.6,3.2,11.3,3.2,11.3c0.9,1.6,3.4,2.7,6.7,3.4c0,0,0-0.1,0-0.1c1.1,0.4,1.9,0.5,1.9,0.5c7.5,1.2,17.8,0.6,22.8-0.1
						c0,0,0,0,0,0s0.3-0.1,0.8-0.1c0.8-0.1,1.3-0.3,1.7-0.4c2.1-0.5,4.9-1.3,5.8-2c-0.4-0.1-0.8-0.2-1.1-0.4
						C152,183.8,149.8,182.9,147.6,181.9z"/>
					
						<linearGradient id="SVGID_61_" gradientUnits="userSpaceOnUse" x1="922.3406" y1="125.1651" x2="997.6299" y2="125.1651" gradientTransform="matrix(1 1.400000e-03 -1.400000e-03 1 -817.0881 -0.1985)">
						<stop  offset="0" style="stop-color:#FAFBFD"/>
						<stop  offset="1" style="stop-color:#F0F6FA"/>
					</linearGradient>
					<path class="st65" d="M180.3,107.2c-0.4-0.7-5.6-4.3-8.3-5.6c0,0,0,0,0,0c0,0,0,0,0,0c-0.3-0.2-0.6-0.3-0.8-0.4
						c-3.3-1.4-12.1-4.9-12.1-4.9c-1.2-0.9-7.3-1.9-11.4-1c-17.3,6.7-24-0.4-25.9-3.4c-0.5-0.7-0.7-1.3-0.7-1.3
						c-1.2-0.9-4,1.2-4,1.2s0,0,0,0c-1.9,1-3.8,3.7-3.8,3.7l0,0.2c-0.1,0.1-0.2,0.1-0.2,0.2c-2.6,5.1-6.8,14-6,18.1
						c0,0.1,0,0.2,0,0.3c-0.8,5.5-1.4,11.3-1.8,17c-0.3,4.7,0.6,11.5,1.9,18.8c4-2.1,8.6-3.4,13.2-3.7c0.7,0,1.3-0.1,2,0l1,0
						c0.3,0,0.7,0.1,1,0.1c1.4,0.2,2.6,0.6,3.9,1c2.5,0.8,4.9,1.9,7.2,2.9c4.7,2.1,9.3,4.4,13.9,6.7c2.3,1.1,4.6,2.3,7,3.3
						c1.2,0.5,2.4,1,3.6,1.4c0.4,0.1,0.9,0.3,1.3,0.4c1.4-4.3,2.7-8.2,3.6-10.9C165.1,150.9,181.5,109.3,180.3,107.2z M127.9,121.1
						c-3.8-1.2-7.2-3.2-9.8-6.1c-4.9-5.6-5-11.9-4.1-18.6c1-0.9,2.1-1.7,3-2.2c0.2,4.2,2,12.8,12.8,15.4c13.3,3,24.2-6.1,27.9-10.8
						c2.9,0.9,7.2,3,10.7,5C151.7,123.2,135.9,123.6,127.9,121.1z"/>
					
						<linearGradient id="SVGID_62_" gradientUnits="userSpaceOnUse" x1="924.4297" y1="161.2247" x2="978.3999" y2="161.2247" gradientTransform="matrix(1 1.400000e-03 -1.400000e-03 1 -817.0881 -0.1985)">
						<stop  offset="0" style="stop-color:#FAFBFD"/>
						<stop  offset="1" style="stop-color:#F0F6FA"/>
					</linearGradient>
					<path class="st66" d="M156,161.3c-2.5-0.8-4.9-1.8-7.2-2.8c-4.8-2-9.4-4.2-14.1-6.3c-2.3-1.1-4.7-2.1-7.1-2.9
						c-1.2-0.4-2.4-0.8-3.6-1.1c-0.3,0-0.6-0.1-0.9-0.1l-0.9-0.1c-0.6-0.1-1.3-0.1-1.9-0.1c-2.5,0-5,0.3-7.5,0.8
						c-1.9,0.4-3.8,0.9-5.7,1.6c0.9,4.8,2.1,9.8,3.2,14.4c3.4-1.7,7.2-2.8,11.1-3c0.6,0,1.2-0.1,1.9,0l0.9,0c0.3,0,0.7,0.1,1,0.1
						c1.3,0.2,2.4,0.6,3.6,1c2.3,0.8,4.5,1.9,6.7,2.9c4.3,2.1,8.5,4.4,12.8,6.7c2.1,1.1,4.2,2.2,6.4,3.3c0.8,0.4,1.7,0.8,2.5,1.1
						c1.1-4.6,2.5-9.7,4-14.2c-0.4-0.1-0.9-0.1-1.3-0.2C158.5,162.1,157.2,161.7,156,161.3z"/>
				</g>
				
					<radialGradient id="SVGID_63_" cx="996.7974" cy="249.9909" r="40.8078" gradientTransform="matrix(1 1.400000e-03 -1.400000e-03 1 -817.0881 -0.1985)" gradientUnits="userSpaceOnUse">
					<stop  offset="0" style="stop-color:#00E3FF"/>
					<stop  offset="0.1446" style="stop-color:#00AED4"/>
					<stop  offset="0.3" style="stop-color:#007CAC"/>
					<stop  offset="0.454" style="stop-color:#00538B"/>
					<stop  offset="0.6035" style="stop-color:#003371"/>
					<stop  offset="0.7469" style="stop-color:#001C5F"/>
					<stop  offset="0.882" style="stop-color:#000E54"/>
					<stop  offset="1" style="stop-color:#000950"/>
				</radialGradient>
				<path class="st67" d="M174.8,214c-0.7-0.2-1.4,0-1.8,0.4c0,0-5.9,8.3-9.4,8.4c-3.5,0-3.3-1.2-5.3,0c-0.3,0.2-0.5,0.4-0.7,0.7
					c-2.7,0.7-5.2,3.2-5.2,3.2c-2.8,3.2,0.4,2.4,2.6,1.7c0.9-0.3,1.8-1.1,2.5-2c0.2,0.5,0.6,0.8,0.9,0.8c1.1-0.1,3.2,0.2,5.2-1
					c2-1.2,6.9-5.7,8.4-7.6c0.7-0.9,1.6-0.9,2.3-0.9c-2.5,5.5-4.8,10-6.5,12.1c-4,0.5-10.3,8-10.3,8s-4,3.9-7.4,5
					c-0.2,0.4-0.3,1.1,0.5,0.8c0.8-0.3,3.9-0.3,6.9-3.8c0.1,0.1,0.4,0.2,0.6,0.4c-1.2,1.2-2.4,2.1-3.9,2.9c-0.4,0.2-0.9,0.3-1.4,0.5
					c-0.1,0.1-0.3,0.4-0.5,0.4c-0.3,0.1-0.5,0.2-0.8,0.3c-0.1,0.1-0.5-0.1-0.6,0.1c-0.2,0.4,0,0.7,0.2,0.8c0.5,0.3,1.3,0,1.8-0.2
					c1.3-0.4,2.5-1,3.7-1.7c0.5-0.4,1.1-0.7,1.6-1.1c0.1-0.1,0.7-0.7,1.1-1c0.2,0.1,0.3,0.2,0.5,0.3c-0.8,0.7-1.4,1.2-2.3,1.7
					c-0.9,0.6-1.6,1.2-3.1,2c-0.4,0.2-0.6,1.5,1.8,0.5c1.1-0.5,2-1.1,3.3-1.8c0.8-0.5,1.2-0.8,1.8-1.5c0.2,0.1,0.4,0.2,0.7,0.2
					c-0.7,0.6-1.1,0.9-1.9,1.4c-2,1.4-3.1,1.7-3.6,2.2c0.1,1.7,4.8-0.9,7.4-2.8c0.6-0.4,1.1-0.9,1.5-1.5c0.1-0.2,0.3-0.4,0.3-0.6
					c3-3.9,8.5-18.7,10.5-22.2c0.2-0.4,0.8-1.2,1.5-2.3L174.8,214z"/>
				<g>
					
						<radialGradient id="SVGID_64_" cx="1000.8535" cy="100.7818" r="61.1138" gradientTransform="matrix(1 1.400000e-03 -1.400000e-03 1 -817.0881 -0.1985)" gradientUnits="userSpaceOnUse">
						<stop  offset="0" style="stop-color:#00E3FF"/>
						<stop  offset="0.164" style="stop-color:#00B1D7"/>
						<stop  offset="0.3815" style="stop-color:#0076A7"/>
						<stop  offset="0.5818" style="stop-color:#004782"/>
						<stop  offset="0.758" style="stop-color:#002567"/>
						<stop  offset="0.9034" style="stop-color:#001056"/>
						<stop  offset="1" style="stop-color:#000950"/>
					</radialGradient>
					<path class="st68" d="M186.4,124.7c1.2-0.6-7.7-14.6-7.4-14.7c1.3-0.4,2.1,0,1.2-1.3c1.8-4.3-9.9-8.7-16.7,3.7
						c-8.9,20.2,3.9,34.7,3.9,34.7l5-6.9c3.5,6.7,8.1,9.9,9.5,21.2c0,0.2,0.1,0.4,0.1,0.6l13.6-4.8
						C194.6,153,191.4,138.3,186.4,124.7z"/>
					
						<radialGradient id="SVGID_65_" cx="1021.6498" cy="164.8607" r="53.8341" gradientTransform="matrix(1 1.400000e-03 -1.400000e-03 1 -817.0881 -0.1985)" gradientUnits="userSpaceOnUse">
						<stop  offset="0" style="stop-color:#00E3FF"/>
						<stop  offset="0.164" style="stop-color:#00B1D7"/>
						<stop  offset="0.3815" style="stop-color:#0076A7"/>
						<stop  offset="0.5818" style="stop-color:#004782"/>
						<stop  offset="0.758" style="stop-color:#002567"/>
						<stop  offset="0.9034" style="stop-color:#001056"/>
						<stop  offset="1" style="stop-color:#000950"/>
					</radialGradient>
					<path class="st69" d="M195.7,157.3L182,162c0.1,0.3,0.1,0.6,0.2,0.9c0,0,4,12.1,2.2,16.2c-3.3,10.4-16,29.4-10.1,42.6l9.1-16.9
						c4.4-9.7,16-12.8,12.6-46.3C196,158.5,195.8,158,195.7,157.3z"/>
					<g>
						
							<linearGradient id="SVGID_66_" gradientUnits="userSpaceOnUse" x1="997.1872" y1="143.791" x2="1007.0782" y2="141.5084" gradientTransform="matrix(1 1.400000e-03 -1.400000e-03 1 -817.0881 -0.1985)">
							<stop  offset="0" style="stop-color:#FFFEF9"/>
							<stop  offset="0.5912" style="stop-color:#CFCFCD"/>
							<stop  offset="1" style="stop-color:#B3B3B3"/>
						</linearGradient>
						<path class="st70" d="M181.1,165.8c5.4,2.5,14.1-1.9,14.4-5.9c1.3-1.7-0.2-15.5-3.7-28.6c-2,2.9-4.8,4.7-8.5,5.2
							c-0.2,0-0.4,0.1-0.6,0.1c-8.9,0.8-14.9-5.6-18.4-11.1c0.2,1.8,0.6,3.5,1.1,5.2C171.1,149.4,178.2,164.5,181.1,165.8z"/>
						
							<radialGradient id="SVGID_67_" cx="987.1157" cy="112.6593" r="29.2307" gradientTransform="matrix(1 1.400000e-03 -1.400000e-03 1 -817.0881 -0.1985)" gradientUnits="userSpaceOnUse">
							<stop  offset="0" style="stop-color:#FFFEF9"/>
							<stop  offset="0.5912" style="stop-color:#CFCFCD"/>
							<stop  offset="1" style="stop-color:#B3B3B3"/>
						</radialGradient>
						<path class="st71" d="M183.1,134.4c4.4-0.6,6.7-3.3,8-6c-3.6-12.5-9-23.4-15.4-21.5c0,0-10.2,2.8-11.3,14.3
							C167.2,126.5,173.4,135.6,183.1,134.4z"/>
						<g>
							<g class="st30">
								<path class="st37" d="M178.2,120c-0.1-0.3-0.2-0.6-0.3-0.9c0,0,0-0.1,0-0.1c-0.1-0.3-0.2-0.7-0.2-1c0,0,0,0,0,0
									c-0.1-0.4-0.1-0.7-0.1-1.1c0,0,0,0,0,0c0-0.4,0-0.7,0-1.1c0,0,0-0.1,0-0.1c0-0.3,0.1-0.6,0.1-1c0-0.1,0-0.1,0-0.2
									c0-0.2,0.1-0.5,0.2-0.7c0-0.1,0.1-0.2,0.1-0.3c0.1-0.3,0.2-0.6,0.4-0.9c0.1-0.3,0.3-0.5,0.5-0.7c0,0,0.1-0.1,0.1-0.1
									c0.2-0.2,0.3-0.4,0.5-0.5c0,0,0,0,0,0c0.2-0.1,0.4-0.3,0.6-0.3c0,0,0,0,0,0c0.2-0.1,0.4-0.1,0.6-0.1l-1.6,0.1c0,0,0,0,0,0
									c-0.1,0-0.2,0-0.2,0c-0.1,0-0.2,0-0.2,0.1c0,0-0.1,0-0.1,0.1c0,0,0,0,0,0c0,0,0,0,0,0c-0.1,0-0.2,0.1-0.2,0.1
									c-0.1,0-0.2,0.1-0.2,0.1c0,0,0,0-0.1,0.1c0,0,0,0,0,0c0,0-0.1,0.1-0.1,0.1c-0.1,0.1-0.2,0.2-0.3,0.3c0,0-0.1,0.1-0.1,0.1
									c0,0-0.1,0.1-0.1,0.1c0,0.1-0.1,0.1-0.1,0.2c-0.1,0.2-0.2,0.4-0.3,0.6c-0.1,0.3-0.3,0.6-0.4,0.9c0,0.1-0.1,0.2-0.1,0.3
									c0,0.2-0.1,0.3-0.1,0.5c0,0.1,0,0.2,0,0.2c0,0.1,0,0.1,0,0.2c0,0.1,0,0.2,0,0.2c0,0.2,0,0.4-0.1,0.5c0,0.1,0,0.1,0,0.2
									c0,0,0,0.1,0,0.1c0,0.1,0,0.1,0,0.2c0,0.1,0,0.3,0,0.4c0,0.1,0,0.3,0,0.4c0,0,0,0,0,0c0,0,0,0,0,0c0,0.1,0,0.2,0,0.3
									c0,0.1,0,0.3,0,0.4c0,0.1,0,0.2,0.1,0.4c0,0,0,0,0,0c0,0,0,0,0,0c0,0.1,0,0.3,0.1,0.4c0,0.1,0.1,0.3,0.1,0.4
									c0,0.1,0,0.1,0.1,0.2c0,0,0,0.1,0,0.1c0,0,0,0.1,0,0.1c0.1,0.2,0.1,0.3,0.2,0.5c0,0.1,0.1,0.2,0.1,0.3c0,0,0,0.1,0.1,0.1
									c0,0,0,0.1,0.1,0.1c0.1,0.3,0.3,0.5,0.4,0.7c0.7,1.1,1.6,1.7,2.5,1.6l1.6-0.1c-0.9,0-1.8-0.5-2.5-1.6
									c-0.2-0.3-0.3-0.6-0.5-0.9C178.2,120.1,178.2,120.1,178.2,120z"/>
								<g>
									<path class="st72" d="M178.3,112.6c1.2-2.4,3.4-2.5,4.9-0.3c1.5,2.2,1.6,6,0.4,8.4c-1.2,2.4-3.4,2.5-4.9,0.3
										C177.2,118.8,177.1,115,178.3,112.6z"/>
								</g>
							</g>
						</g>
					</g>
					<g>
						<g>
							
								<linearGradient id="SVGID_68_" gradientUnits="userSpaceOnUse" x1="977.0001" y1="240.8354" x2="977.8594" y2="241.9095" gradientTransform="matrix(1 1.400000e-03 -1.400000e-03 1 -817.0881 -0.1985)">
								<stop  offset="0" style="stop-color:#FFFEF9"/>
								<stop  offset="0.5912" style="stop-color:#CFCFCD"/>
								<stop  offset="1" style="stop-color:#B3B3B3"/>
							</linearGradient>
							<path class="st73" d="M161.2,241.2C161.2,241.2,161.2,241.2,161.2,241.2c-0.3-0.2-0.8-0.2-1.1,0.1c-0.7,0.6-1.4,1.1-2.2,1.6
								c0.5,0.4,1.1,0.7,1.7,1c0.6-0.4,1.2-0.8,1.7-1.3C161.8,242.2,161.7,241.5,161.2,241.2z"/>
							
								<linearGradient id="SVGID_69_" gradientUnits="userSpaceOnUse" x1="974.4293" y1="242.8562" x2="975.384" y2="243.5962" gradientTransform="matrix(1 1.400000e-03 -1.400000e-03 1 -817.0881 -0.1985)">
								<stop  offset="0" style="stop-color:#FFFEF9"/>
								<stop  offset="0.5912" style="stop-color:#CFCFCD"/>
								<stop  offset="1" style="stop-color:#B3B3B3"/>
							</linearGradient>
							<path class="st74" d="M157.8,243c-0.1,0.1-0.3,0.2-0.4,0.3c-0.7,0.4-1.3,0.8-2.2,1.2c0.5,0.4,0.9,0.7,1.4,1
								c0.9-0.4,1.8-0.8,2.8-1.4C158.9,243.8,158.3,243.4,157.8,243z"/>
							
								<linearGradient id="SVGID_70_" gradientUnits="userSpaceOnUse" x1="971.8129" y1="244.1431" x2="972.4335" y2="244.9306" gradientTransform="matrix(1 1.400000e-03 -1.400000e-03 1 -817.0881 -0.1985)">
								<stop  offset="0" style="stop-color:#FFFEF9"/>
								<stop  offset="0.5912" style="stop-color:#CFCFCD"/>
								<stop  offset="1" style="stop-color:#B3B3B3"/>
							</linearGradient>
							<path class="st75" d="M153.6,245.4c-0.1,0.1-0.2,0.2-0.2,0.4c0,0.2,0,0.3,0.1,0.4c0.1,0.1,0.2,0.1,0.3,0.2
								c0.6,0.2,1.4-0.2,1.9-0.4c0.2-0.1,0.4-0.2,0.5-0.2c-0.5-0.3-0.9-0.7-1.4-1c-0.1-0.1-0.6,0.3-0.7,0.3
								C154.1,245.2,153.8,245.3,153.6,245.4z"/>
							
								<linearGradient id="SVGID_71_" gradientUnits="userSpaceOnUse" x1="972.9268" y1="241.5423" x2="973.4758" y2="242.3538" gradientTransform="matrix(1 1.400000e-03 -1.400000e-03 1 -817.0881 -0.1985)">
								<stop  offset="0" style="stop-color:#FFFEF9"/>
								<stop  offset="0.5912" style="stop-color:#CFCFCD"/>
								<stop  offset="1" style="stop-color:#B3B3B3"/>
							</linearGradient>
							<path class="st76" d="M157.6,242.9c-0.5-0.4-0.9-0.8-1.3-1.2c-0.7,0.4-1.3,0.9-2.1,1.2c-0.1,0.1-0.3,0.1-0.4,0.2
								c0.3,0.4,0.7,0.8,1.1,1.1c0,0,0.1,0.1,0.1,0.1c0.7-0.3,1.3-0.7,2-1.1C157.2,243.1,157.4,243,157.6,242.9z"/>
							
								<linearGradient id="SVGID_72_" gradientUnits="userSpaceOnUse" x1="975.3951" y1="239.3796" x2="976.2783" y2="240.2867" gradientTransform="matrix(1 1.400000e-03 -1.400000e-03 1 -817.0881 -0.1985)">
								<stop  offset="0" style="stop-color:#FFFEF9"/>
								<stop  offset="0.5912" style="stop-color:#CFCFCD"/>
								<stop  offset="1" style="stop-color:#B3B3B3"/>
							</linearGradient>
							<path class="st77" d="M157.9,242.7c0.3-0.2,0.7-0.5,1-0.8c0.1-0.1,0.4-0.5,0.8-0.9c0.4-0.3,0.4-0.9,0-1.3c0,0,0,0,0,0
								c-0.3-0.3-0.8-0.3-1.1,0c-0.6,0.6-1.3,1.1-2,1.6c0.2,0.2,0.4,0.4,0.6,0.6C157.2,242.2,157.6,242.5,157.9,242.7z"/>
							
								<linearGradient id="SVGID_73_" gradientUnits="userSpaceOnUse" x1="969.6403" y1="243.0366" x2="970.237" y2="243.9197" gradientTransform="matrix(1 1.400000e-03 -1.400000e-03 1 -817.0881 -0.1985)">
								<stop  offset="0" style="stop-color:#FFFEF9"/>
								<stop  offset="0.5912" style="stop-color:#CFCFCD"/>
								<stop  offset="1" style="stop-color:#B3B3B3"/>
							</linearGradient>
							<path class="st78" d="M153.4,243.2c-0.1-0.1-0.6,0.2-0.7,0.3c-0.4,0.2-0.8,0.4-1.2,0.5c-0.2,0.1-0.4,0.1-0.5,0.2
								c-0.4,0.2-0.6,0.9-0.1,1.1c0.5,0.3,1.4,0,2-0.2c0.6-0.2,1.2-0.4,1.8-0.7C154.2,244.1,153.8,243.7,153.4,243.2z"/>
							
								<linearGradient id="SVGID_74_" gradientUnits="userSpaceOnUse" x1="971.2864" y1="239.5889" x2="972.0264" y2="240.7347" gradientTransform="matrix(1 1.400000e-03 -1.400000e-03 1 -817.0881 -0.1985)">
								<stop  offset="0" style="stop-color:#FFFEF9"/>
								<stop  offset="0.5912" style="stop-color:#CFCFCD"/>
								<stop  offset="1" style="stop-color:#B3B3B3"/>
							</linearGradient>
							<path class="st79" d="M155.3,241.9c0.3-0.2,0.5-0.3,0.7-0.5c-0.5-0.5-0.9-1.1-1.2-1.7c0,0-0.1,0.1-0.1,0.1
								c-0.7,0.5-1.5,1-2.2,1.5c0.3,0.6,0.7,1.1,1.1,1.6C154.1,242.6,154.7,242.3,155.3,241.9z"/>
							
								<linearGradient id="SVGID_75_" gradientUnits="userSpaceOnUse" x1="974.0124" y1="237.5798" x2="974.7762" y2="238.7255" gradientTransform="matrix(1 1.400000e-03 -1.400000e-03 1 -817.0881 -0.1985)">
								<stop  offset="0" style="stop-color:#FFFEF9"/>
								<stop  offset="0.5912" style="stop-color:#CFCFCD"/>
								<stop  offset="1" style="stop-color:#B3B3B3"/>
							</linearGradient>
							<path class="st80" d="M158.3,238.3C158.3,238.3,158.3,238.2,158.3,238.3c-0.4-0.5-1.2-0.5-1.7-0.1c-0.5,0.5-1,0.9-1.6,1.4
								c0.4,0.6,0.8,1.2,1.3,1.7c0.7-0.5,1.3-1,1.8-1.5C158.6,239.3,158.7,238.7,158.3,238.3z"/>
							
								<linearGradient id="SVGID_76_" gradientUnits="userSpaceOnUse" x1="968.2807" y1="241.3629" x2="968.8535" y2="242.4131" gradientTransform="matrix(1 1.400000e-03 -1.400000e-03 1 -817.0881 -0.1985)">
								<stop  offset="0" style="stop-color:#FFFEF9"/>
								<stop  offset="0.5912" style="stop-color:#CFCFCD"/>
								<stop  offset="1" style="stop-color:#B3B3B3"/>
							</linearGradient>
							<path class="st81" d="M150.3,242.4c-0.6,0.2-1.2,0.6-0.8,1.2c0.2,0.2,0.4,0.3,0.6,0.3c0.6,0,1.3-0.2,1.8-0.4
								c0.1,0,1.1-0.4,1.1-0.4c-0.4-0.5-0.7-1-1-1.6c0,0-1.2,0.6-1.3,0.7C150.7,242.3,150.5,242.3,150.3,242.4z"/>
							
								<linearGradient id="SVGID_77_" gradientUnits="userSpaceOnUse" x1="976.4479" y1="243.7604" x2="977.0685" y2="244.5243" gradientTransform="matrix(1 1.400000e-03 -1.400000e-03 1 -817.0881 -0.1985)">
								<stop  offset="0" style="stop-color:#FFFEF9"/>
								<stop  offset="0.5912" style="stop-color:#CFCFCD"/>
								<stop  offset="1" style="stop-color:#B3B3B3"/>
							</linearGradient>
							<path class="st82" d="M159.7,244.2C159.7,244.2,159.7,244.2,159.7,244.2c-1.4,0.8-2.2,1.2-2.8,1.5c0.5,0.3,1,0.5,1.5,0.7
								c0.1,0,0.2,0.1,0.2,0.1c0.9-0.4,2-0.9,3-1.6c-0.4-0.1-0.8-0.2-1.2-0.4C160.2,244.4,160,244.3,159.7,244.2z"/>
							
								<linearGradient id="SVGID_78_" gradientUnits="userSpaceOnUse" x1="979.1032" y1="241.9602" x2="980.0342" y2="242.9867" gradientTransform="matrix(1 1.400000e-03 -1.400000e-03 1 -817.0881 -0.1985)">
								<stop  offset="0" style="stop-color:#FFFEF9"/>
								<stop  offset="0.5912" style="stop-color:#CFCFCD"/>
								<stop  offset="1" style="stop-color:#B3B3B3"/>
							</linearGradient>
							<path class="st83" d="M161.9,244.8c0.5-0.3,1-0.7,1.5-1c0.6-0.4,0.5-1.4-0.3-1.6c0,0,0,0,0,0c-0.3-0.1-0.7,0-1,0.2
								c-0.7,0.6-1.5,1.2-2.3,1.7c0.2,0.1,0.4,0.2,0.6,0.3C161,244.5,161.5,244.6,161.9,244.8z"/>
							
								<linearGradient id="SVGID_79_" gradientUnits="userSpaceOnUse" x1="974.0004" y1="244.9277" x2="974.5732" y2="245.5005" gradientTransform="matrix(1 1.400000e-03 -1.400000e-03 1 -817.0881 -0.1985)">
								<stop  offset="0" style="stop-color:#FFFEF9"/>
								<stop  offset="0.5912" style="stop-color:#CFCFCD"/>
								<stop  offset="1" style="stop-color:#B3B3B3"/>
							</linearGradient>
							<path class="st84" d="M156.1,246.4c0,0.1,0,0.2,0,0.2c0.2,0.5,0.9,0.3,1.3,0.3c0.1,0,0.3-0.1,0.4-0.1c0.1,0,0.3-0.2,0.4-0.1
								c-0.6-0.2-1.1-0.5-1.6-0.8c0,0-0.3,0.2-0.3,0.2C156.2,246.2,156.1,246.3,156.1,246.4z"/>
							<path class="st37" d="M150.5,244.4C150.5,244.4,150.5,244.4,150.5,244.4C150.6,244.4,150.6,244.4,150.5,244.4
								C150.5,244.4,150.5,244.4,150.5,244.4z"/>
						</g>
						<g>
							
								<linearGradient id="SVGID_80_" gradientUnits="userSpaceOnUse" x1="968.7737" y1="225.8955" x2="969.6808" y2="228.1393" gradientTransform="matrix(1 1.400000e-03 -1.400000e-03 1 -817.0881 -0.1985)">
								<stop  offset="0" style="stop-color:#FFFEF9"/>
								<stop  offset="0.5912" style="stop-color:#CFCFCD"/>
								<stop  offset="1" style="stop-color:#B3B3B3"/>
							</linearGradient>
							<path class="st85" d="M153.6,225.6c0-0.2,0.1-0.5,0.1-0.7c-1.6,1.2-3.1,2.8-4.2,5c-0.4,1.2,1.8,0.5,4.4-0.5
								c-0.2-0.6-0.3-1.3-0.4-1.9C153.5,226.9,153.5,226.2,153.6,225.6z"/>
							
								<linearGradient id="SVGID_81_" gradientUnits="userSpaceOnUse" x1="974.3818" y1="222.7528" x2="975.1457" y2="226.5721" gradientTransform="matrix(1 1.400000e-03 -1.400000e-03 1 -817.0881 -0.1985)">
								<stop  offset="0" style="stop-color:#FFFEF9"/>
								<stop  offset="0.5912" style="stop-color:#CFCFCD"/>
								<stop  offset="1" style="stop-color:#B3B3B3"/>
							</linearGradient>
							<path class="st86" d="M154,224.7c-0.1,0.9-0.1,1.8,0,2.7c0,0.6,0.1,1.2,0.2,1.8c0,0,0,0,0,0.1c1.7-0.6,3.5-1.3,4.9-1.4
								c0.1-1.3,0.1-2.8,0.1-4.5c0,0,0.1-1.7,1.1-1.7l0-0.1C160.3,221.6,157.1,222.4,154,224.7z"/>
						</g>
						<g>
							
								<radialGradient id="SVGID_82_" cx="1005.2498" cy="172.8918" r="16.7481" gradientTransform="matrix(1 1.400000e-03 -1.400000e-03 1 -817.0881 -0.1985)" gradientUnits="userSpaceOnUse">
								<stop  offset="0" style="stop-color:#FFFEF9"/>
								<stop  offset="0.5912" style="stop-color:#CFCFCD"/>
								<stop  offset="1" style="stop-color:#B3B3B3"/>
							</radialGradient>
							<path class="st87" d="M193.8,194.3c0.4,0.2,0.8,0.3,1.2,0.4c4.8-8.6,7.9-18.3,7-21.7c0.1-4.3-9.9-3.1-14.9-1.3
								c-0.1,0-0.2,0.1-0.2,0.1C187.3,179.6,188.9,191.5,193.8,194.3z"/>
							
								<linearGradient id="SVGID_83_" gradientUnits="userSpaceOnUse" x1="997.3135" y1="196.6278" x2="1005.8096" y2="201.8269" gradientTransform="matrix(1 1.400000e-03 -1.400000e-03 1 -817.0881 -0.1985)">
								<stop  offset="0" style="stop-color:#FFFEF9"/>
								<stop  offset="0.5912" style="stop-color:#CFCFCD"/>
								<stop  offset="1" style="stop-color:#B3B3B3"/>
							</linearGradient>
							<path class="st88" d="M191.5,195.3c-4.4-3.7-6.2-13.8-6.8-21.6c-2.7,3.3-4.7,8.9-4.7,8.9c-0.1,1-11.2,32-11.1,34.3
								c0.1,2.3,5.9,5.1,7.8,4c1.8-1.1,11.8-15.3,17.1-24.2c-0.6-0.2-1.2-0.5-1.7-0.8C191.9,195.6,191.7,195.5,191.5,195.3z"/>
							
								<radialGradient id="SVGID_84_" cx="991.0489" cy="221.5861" r="24.1798" gradientTransform="matrix(1 1.400000e-03 -1.400000e-03 1 -817.0881 -0.1985)" gradientUnits="userSpaceOnUse">
								<stop  offset="0" style="stop-color:#FFFEF9"/>
								<stop  offset="0.5912" style="stop-color:#CFCFCD"/>
								<stop  offset="1" style="stop-color:#B3B3B3"/>
							</radialGradient>
							<path class="st89" d="M162,221.6c-0.2-0.1-0.4-0.1-0.6-0.1c-1,0-1.1,1.7-1.1,1.7c0,1.7,0,3.2-0.1,4.5c-0.2,4.3-1,6.9-2.3,8.7
								c1.1,1.7,3.7,4.9,7.8,5.3c5.8-4.7,8.8-12.9,8.8-12.9C168.2,227.4,162,221.6,162,221.6z"/>
						</g>
					</g>
				</g>
				<path class="st90" d="M70.1,223"/>
				<path class="st90" d="M59.1,213.9"/>
			</g>
		</g>
	</g>
</g>
</svg>
